<svg width="400" height="224" viewBox="0 0 400 224" fill="none" xmlns="http://www.w3.org/2000/svg">
<rect x="28.2402" y="40.082" width="342.991" height="182.588" rx="7.82655" fill="white"/>
<rect x="28.2402" y="40.082" width="342.991" height="182.588" rx="7.82655" stroke="#E4E7EC" stroke-width="1.22936"/>
<path d="M62.5448 194.114V193.624H63.6557V197.896H63.1121V194.114H62.5448ZM64.9338 195.716C64.9338 195.038 65.0441 194.51 65.2647 194.132C65.4853 193.75 65.8714 193.559 66.4229 193.559C66.9704 193.559 67.3545 193.75 67.5751 194.132C67.7957 194.51 67.906 195.038 67.906 195.716C67.906 196.405 67.7957 196.941 67.5751 197.323C67.3545 197.705 66.9704 197.896 66.4229 197.896C65.8714 197.896 65.4853 197.705 65.2647 197.323C65.0441 196.941 64.9338 196.405 64.9338 195.716ZM67.3742 195.716C67.3742 195.373 67.3506 195.083 67.3033 194.847C67.26 194.607 67.1674 194.414 67.0256 194.268C66.8877 194.122 66.6868 194.049 66.4229 194.049C66.155 194.049 65.9502 194.122 65.8083 194.268C65.6705 194.414 65.5779 194.607 65.5306 194.847C65.4873 195.083 65.4656 195.373 65.4656 195.716C65.4656 196.07 65.4873 196.368 65.5306 196.608C65.5779 196.848 65.6705 197.041 65.8083 197.187C65.9502 197.333 66.155 197.406 66.4229 197.406C66.6868 197.406 66.8877 197.333 67.0256 197.187C67.1674 197.041 67.26 196.848 67.3033 196.608C67.3506 196.368 67.3742 196.07 67.3742 195.716ZM69.2587 197.931C69.1563 197.931 69.0696 197.896 68.9987 197.825C68.9278 197.754 68.8924 197.668 68.8924 197.565C68.8924 197.463 68.9278 197.376 68.9987 197.305C69.0696 197.234 69.1563 197.199 69.2587 197.199C69.3572 197.199 69.4399 197.234 69.5069 197.305C69.5778 197.376 69.6132 197.463 69.6132 197.565C69.6132 197.668 69.5778 197.754 69.5069 197.825C69.4399 197.896 69.3572 197.931 69.2587 197.931ZM69.2587 195.402C69.1563 195.402 69.0696 195.367 68.9987 195.296C68.9278 195.225 68.8924 195.139 68.8924 195.036C68.8924 194.934 68.9278 194.847 68.9987 194.776C69.0696 194.705 69.1563 194.67 69.2587 194.67C69.3572 194.67 69.4399 194.705 69.5069 194.776C69.5778 194.847 69.6132 194.934 69.6132 195.036C69.6132 195.139 69.5778 195.225 69.5069 195.296C69.4399 195.367 69.3572 195.402 69.2587 195.402ZM70.6112 195.716C70.6112 195.038 70.7215 194.51 70.9421 194.132C71.1627 193.75 71.5487 193.559 72.1002 193.559C72.6478 193.559 73.0318 193.75 73.2524 194.132C73.473 194.51 73.5833 195.038 73.5833 195.716C73.5833 196.405 73.473 196.941 73.2524 197.323C73.0318 197.705 72.6478 197.896 72.1002 197.896C71.5487 197.896 71.1627 197.705 70.9421 197.323C70.7215 196.941 70.6112 196.405 70.6112 195.716ZM73.0515 195.716C73.0515 195.373 73.0279 195.083 72.9806 194.847C72.9373 194.607 72.8447 194.414 72.7029 194.268C72.565 194.122 72.3641 194.049 72.1002 194.049C71.8323 194.049 71.6275 194.122 71.4857 194.268C71.3478 194.414 71.2553 194.607 71.208 194.847C71.1646 195.083 71.143 195.373 71.143 195.716C71.143 196.07 71.1646 196.368 71.208 196.608C71.2553 196.848 71.3478 197.041 71.4857 197.187C71.6275 197.333 71.8323 197.406 72.1002 197.406C72.3641 197.406 72.565 197.333 72.7029 197.187C72.8447 197.041 72.9373 196.848 72.9806 196.608C73.0279 196.368 73.0515 196.07 73.0515 195.716ZM74.6761 195.716C74.6761 195.038 74.7864 194.51 75.007 194.132C75.2276 193.75 75.6136 193.559 76.1651 193.559C76.7127 193.559 77.0967 193.75 77.3173 194.132C77.5379 194.51 77.6482 195.038 77.6482 195.716C77.6482 196.405 77.5379 196.941 77.3173 197.323C77.0967 197.705 76.7127 197.896 76.1651 197.896C75.6136 197.896 75.2276 197.705 75.007 197.323C74.7864 196.941 74.6761 196.405 74.6761 195.716ZM77.1164 195.716C77.1164 195.373 77.0928 195.083 77.0455 194.847C77.0022 194.607 76.9096 194.414 76.7678 194.268C76.6299 194.122 76.429 194.049 76.1651 194.049C75.8972 194.049 75.6924 194.122 75.5506 194.268C75.4127 194.414 75.3201 194.607 75.2729 194.847C75.2295 195.083 75.2079 195.373 75.2079 195.716C75.2079 196.07 75.2295 196.368 75.2729 196.608C75.3201 196.848 75.4127 197.041 75.5506 197.187C75.6924 197.333 75.8972 197.406 76.1651 197.406C76.429 197.406 76.6299 197.333 76.7678 197.187C76.9096 197.041 77.0022 196.848 77.0455 196.608C77.0928 196.368 77.1164 196.07 77.1164 195.716Z" fill="#615E83"/>
<path d="M127.403 194.114V193.624H128.513V197.896H127.97V194.114H127.403ZM129.727 197.465C130.227 197.063 130.619 196.734 130.902 196.478C131.186 196.218 131.424 195.948 131.617 195.668C131.814 195.385 131.913 195.107 131.913 194.835C131.913 194.579 131.85 194.378 131.724 194.233C131.602 194.083 131.403 194.008 131.127 194.008C130.859 194.008 130.65 194.093 130.501 194.262C130.355 194.427 130.276 194.65 130.264 194.93H129.744C129.76 194.489 129.894 194.148 130.146 193.908C130.398 193.667 130.723 193.547 131.121 193.547C131.527 193.547 131.848 193.659 132.084 193.884C132.324 194.108 132.445 194.418 132.445 194.812C132.445 195.139 132.346 195.458 132.149 195.769C131.956 196.076 131.736 196.348 131.487 196.584C131.239 196.817 130.922 197.088 130.536 197.4H132.569V197.849H129.727V197.465ZM133.805 197.931C133.702 197.931 133.616 197.896 133.545 197.825C133.474 197.754 133.438 197.668 133.438 197.565C133.438 197.463 133.474 197.376 133.545 197.305C133.616 197.234 133.702 197.199 133.805 197.199C133.903 197.199 133.986 197.234 134.053 197.305C134.124 197.376 134.159 197.463 134.159 197.565C134.159 197.668 134.124 197.754 134.053 197.825C133.986 197.896 133.903 197.931 133.805 197.931ZM133.805 195.402C133.702 195.402 133.616 195.367 133.545 195.296C133.474 195.225 133.438 195.139 133.438 195.036C133.438 194.934 133.474 194.847 133.545 194.776C133.616 194.705 133.702 194.67 133.805 194.67C133.903 194.67 133.986 194.705 134.053 194.776C134.124 194.847 134.159 194.934 134.159 195.036C134.159 195.139 134.124 195.225 134.053 195.296C133.986 195.367 133.903 195.402 133.805 195.402ZM135.157 195.716C135.157 195.038 135.268 194.51 135.488 194.132C135.709 193.75 136.095 193.559 136.646 193.559C137.194 193.559 137.578 193.75 137.799 194.132C138.019 194.51 138.129 195.038 138.129 195.716C138.129 196.405 138.019 196.941 137.799 197.323C137.578 197.705 137.194 197.896 136.646 197.896C136.095 197.896 135.709 197.705 135.488 197.323C135.268 196.941 135.157 196.405 135.157 195.716ZM137.598 195.716C137.598 195.373 137.574 195.083 137.527 194.847C137.483 194.607 137.391 194.414 137.249 194.268C137.111 194.122 136.91 194.049 136.646 194.049C136.378 194.049 136.174 194.122 136.032 194.268C135.894 194.414 135.801 194.607 135.754 194.847C135.711 195.083 135.689 195.373 135.689 195.716C135.689 196.07 135.711 196.368 135.754 196.608C135.801 196.848 135.894 197.041 136.032 197.187C136.174 197.333 136.378 197.406 136.646 197.406C136.91 197.406 137.111 197.333 137.249 197.187C137.391 197.041 137.483 196.848 137.527 196.608C137.574 196.368 137.598 196.07 137.598 195.716ZM139.222 195.716C139.222 195.038 139.332 194.51 139.553 194.132C139.774 193.75 140.16 193.559 140.711 193.559C141.259 193.559 141.643 193.75 141.863 194.132C142.084 194.51 142.194 195.038 142.194 195.716C142.194 196.405 142.084 196.941 141.863 197.323C141.643 197.705 141.259 197.896 140.711 197.896C140.16 197.896 139.774 197.705 139.553 197.323C139.332 196.941 139.222 196.405 139.222 195.716ZM141.663 195.716C141.663 195.373 141.639 195.083 141.592 194.847C141.548 194.607 141.456 194.414 141.314 194.268C141.176 194.122 140.975 194.049 140.711 194.049C140.443 194.049 140.238 194.122 140.097 194.268C139.959 194.414 139.866 194.607 139.819 194.847C139.776 195.083 139.754 195.373 139.754 195.716C139.754 196.07 139.776 196.368 139.819 196.608C139.866 196.848 139.959 197.041 140.097 197.187C140.238 197.333 140.443 197.406 140.711 197.406C140.975 197.406 141.176 197.333 141.314 197.187C141.456 197.041 141.548 196.848 141.592 196.608C141.639 196.368 141.663 196.07 141.663 195.716Z" fill="#615E83"/>
<path d="M191.945 194.114V193.624H193.056V197.896H192.513V194.114H191.945ZM194.205 196.945V196.537L196.279 193.665H196.923V196.478H197.513V196.945H196.923V197.896H196.391V196.945H194.205ZM196.414 194.227L194.825 196.478H196.414V194.227ZM198.665 197.931C198.563 197.931 198.476 197.896 198.405 197.825C198.334 197.754 198.299 197.668 198.299 197.565C198.299 197.463 198.334 197.376 198.405 197.305C198.476 197.234 198.563 197.199 198.665 197.199C198.764 197.199 198.846 197.234 198.913 197.305C198.984 197.376 199.02 197.463 199.02 197.565C199.02 197.668 198.984 197.754 198.913 197.825C198.846 197.896 198.764 197.931 198.665 197.931ZM198.665 195.402C198.563 195.402 198.476 195.367 198.405 195.296C198.334 195.225 198.299 195.139 198.299 195.036C198.299 194.934 198.334 194.847 198.405 194.776C198.476 194.705 198.563 194.67 198.665 194.67C198.764 194.67 198.846 194.705 198.913 194.776C198.984 194.847 199.02 194.934 199.02 195.036C199.02 195.139 198.984 195.225 198.913 195.296C198.846 195.367 198.764 195.402 198.665 195.402ZM200.018 195.716C200.018 195.038 200.128 194.51 200.349 194.132C200.569 193.75 200.955 193.559 201.507 193.559C202.054 193.559 202.438 193.75 202.659 194.132C202.879 194.51 202.99 195.038 202.99 195.716C202.99 196.405 202.879 196.941 202.659 197.323C202.438 197.705 202.054 197.896 201.507 197.896C200.955 197.896 200.569 197.705 200.349 197.323C200.128 196.941 200.018 196.405 200.018 195.716ZM202.458 195.716C202.458 195.373 202.434 195.083 202.387 194.847C202.344 194.607 202.251 194.414 202.109 194.268C201.971 194.122 201.771 194.049 201.507 194.049C201.239 194.049 201.034 194.122 200.892 194.268C200.754 194.414 200.662 194.607 200.614 194.847C200.571 195.083 200.549 195.373 200.549 195.716C200.549 196.07 200.571 196.368 200.614 196.608C200.662 196.848 200.754 197.041 200.892 197.187C201.034 197.333 201.239 197.406 201.507 197.406C201.771 197.406 201.971 197.333 202.109 197.187C202.251 197.041 202.344 196.848 202.387 196.608C202.434 196.368 202.458 196.07 202.458 195.716ZM204.083 195.716C204.083 195.038 204.193 194.51 204.413 194.132C204.634 193.75 205.02 193.559 205.572 193.559C206.119 193.559 206.503 193.75 206.724 194.132C206.944 194.51 207.055 195.038 207.055 195.716C207.055 196.405 206.944 196.941 206.724 197.323C206.503 197.705 206.119 197.896 205.572 197.896C205.02 197.896 204.634 197.705 204.413 197.323C204.193 196.941 204.083 196.405 204.083 195.716ZM206.523 195.716C206.523 195.373 206.499 195.083 206.452 194.847C206.409 194.607 206.316 194.414 206.174 194.268C206.036 194.122 205.835 194.049 205.572 194.049C205.304 194.049 205.099 194.122 204.957 194.268C204.819 194.414 204.727 194.607 204.679 194.847C204.636 195.083 204.614 195.373 204.614 195.716C204.614 196.07 204.636 196.368 204.679 196.608C204.727 196.848 204.819 197.041 204.957 197.187C205.099 197.333 205.304 197.406 205.572 197.406C205.835 197.406 206.036 197.333 206.174 197.187C206.316 197.041 206.409 196.848 206.452 196.608C206.499 196.368 206.523 196.07 206.523 195.716Z" fill="#615E83"/>
<path d="M257.272 194.114V193.624H258.383V197.896H257.839V194.114H257.272ZM262.042 194.64C261.955 194.203 261.685 193.984 261.232 193.984C260.882 193.984 260.62 194.12 260.447 194.392C260.273 194.66 260.189 195.103 260.193 195.722C260.283 195.517 260.433 195.357 260.642 195.243C260.854 195.125 261.091 195.066 261.351 195.066C261.756 195.066 262.079 195.192 262.32 195.444C262.564 195.696 262.686 196.045 262.686 196.49C262.686 196.758 262.633 196.998 262.527 197.211C262.424 197.423 262.267 197.593 262.054 197.719C261.845 197.845 261.591 197.908 261.292 197.908C260.886 197.908 260.569 197.817 260.34 197.636C260.112 197.455 259.952 197.205 259.862 196.886C259.771 196.567 259.726 196.173 259.726 195.704C259.726 194.258 260.23 193.535 261.238 193.535C261.624 193.535 261.928 193.64 262.148 193.848C262.369 194.057 262.499 194.321 262.538 194.64H262.042ZM261.238 195.521C261.069 195.521 260.909 195.556 260.76 195.627C260.61 195.694 260.488 195.798 260.393 195.94C260.303 196.078 260.257 196.247 260.257 196.448C260.257 196.748 260.344 196.992 260.517 197.181C260.691 197.366 260.939 197.459 261.262 197.459C261.538 197.459 261.756 197.374 261.918 197.205C262.083 197.031 262.166 196.799 262.166 196.507C262.166 196.2 262.087 195.96 261.93 195.787C261.772 195.609 261.542 195.521 261.238 195.521ZM264.026 197.931C263.924 197.931 263.837 197.896 263.766 197.825C263.695 197.754 263.66 197.668 263.66 197.565C263.66 197.463 263.695 197.376 263.766 197.305C263.837 197.234 263.924 197.199 264.026 197.199C264.124 197.199 264.207 197.234 264.274 197.305C264.345 197.376 264.38 197.463 264.38 197.565C264.38 197.668 264.345 197.754 264.274 197.825C264.207 197.896 264.124 197.931 264.026 197.931ZM264.026 195.402C263.924 195.402 263.837 195.367 263.766 195.296C263.695 195.225 263.66 195.139 263.66 195.036C263.66 194.934 263.695 194.847 263.766 194.776C263.837 194.705 263.924 194.67 264.026 194.67C264.124 194.67 264.207 194.705 264.274 194.776C264.345 194.847 264.38 194.934 264.38 195.036C264.38 195.139 264.345 195.225 264.274 195.296C264.207 195.367 264.124 195.402 264.026 195.402ZM265.378 195.716C265.378 195.038 265.489 194.51 265.709 194.132C265.93 193.75 266.316 193.559 266.867 193.559C267.415 193.559 267.799 193.75 268.02 194.132C268.24 194.51 268.351 195.038 268.351 195.716C268.351 196.405 268.24 196.941 268.02 197.323C267.799 197.705 267.415 197.896 266.867 197.896C266.316 197.896 265.93 197.705 265.709 197.323C265.489 196.941 265.378 196.405 265.378 195.716ZM267.819 195.716C267.819 195.373 267.795 195.083 267.748 194.847C267.705 194.607 267.612 194.414 267.47 194.268C267.332 194.122 267.131 194.049 266.867 194.049C266.6 194.049 266.395 194.122 266.253 194.268C266.115 194.414 266.023 194.607 265.975 194.847C265.932 195.083 265.91 195.373 265.91 195.716C265.91 196.07 265.932 196.368 265.975 196.608C266.023 196.848 266.115 197.041 266.253 197.187C266.395 197.333 266.6 197.406 266.867 197.406C267.131 197.406 267.332 197.333 267.47 197.187C267.612 197.041 267.705 196.848 267.748 196.608C267.795 196.368 267.819 196.07 267.819 195.716ZM269.443 195.716C269.443 195.038 269.554 194.51 269.774 194.132C269.995 193.75 270.381 193.559 270.932 193.559C271.48 193.559 271.864 193.75 272.085 194.132C272.305 194.51 272.415 195.038 272.415 195.716C272.415 196.405 272.305 196.941 272.085 197.323C271.864 197.705 271.48 197.896 270.932 197.896C270.381 197.896 269.995 197.705 269.774 197.323C269.554 196.941 269.443 196.405 269.443 195.716ZM271.884 195.716C271.884 195.373 271.86 195.083 271.813 194.847C271.769 194.607 271.677 194.414 271.535 194.268C271.397 194.122 271.196 194.049 270.932 194.049C270.664 194.049 270.46 194.122 270.318 194.268C270.18 194.414 270.087 194.607 270.04 194.847C269.997 195.083 269.975 195.373 269.975 195.716C269.975 196.07 269.997 196.368 270.04 196.608C270.087 196.848 270.18 197.041 270.318 197.187C270.46 197.333 270.664 197.406 270.932 197.406C271.196 197.406 271.397 197.333 271.535 197.187C271.677 197.041 271.769 196.848 271.813 196.608C271.86 196.368 271.884 196.07 271.884 195.716Z" fill="#615E83"/>
<path d="M322.306 194.114V193.624H323.417V197.896H322.873V194.114H322.306ZM325.475 195.674C325.254 195.588 325.085 195.462 324.967 195.296C324.848 195.131 324.789 194.93 324.789 194.693C324.789 194.481 324.843 194.29 324.949 194.12C325.055 193.947 325.213 193.811 325.422 193.713C325.634 193.61 325.89 193.559 326.19 193.559C326.489 193.559 326.743 193.61 326.952 193.713C327.165 193.811 327.324 193.947 327.431 194.12C327.541 194.29 327.596 194.481 327.596 194.693C327.596 194.922 327.535 195.123 327.413 195.296C327.291 195.465 327.123 195.592 326.911 195.674C327.155 195.749 327.348 195.881 327.49 196.07C327.635 196.255 327.708 196.48 327.708 196.744C327.708 197 327.645 197.224 327.519 197.417C327.393 197.606 327.214 197.754 326.982 197.861C326.753 197.963 326.489 198.014 326.19 198.014C325.89 198.014 325.626 197.963 325.398 197.861C325.173 197.754 324.998 197.606 324.872 197.417C324.746 197.224 324.683 197 324.683 196.744C324.683 196.48 324.754 196.253 324.896 196.064C325.038 195.875 325.231 195.745 325.475 195.674ZM327.076 194.758C327.076 194.518 326.997 194.333 326.84 194.203C326.682 194.073 326.465 194.008 326.19 194.008C325.918 194.008 325.703 194.073 325.546 194.203C325.388 194.333 325.309 194.52 325.309 194.764C325.309 194.985 325.39 195.162 325.552 195.296C325.717 195.43 325.93 195.497 326.19 195.497C326.454 195.497 326.666 195.43 326.828 195.296C326.993 195.158 327.076 194.979 327.076 194.758ZM326.19 195.911C325.898 195.911 325.66 195.98 325.475 196.117C325.29 196.251 325.197 196.454 325.197 196.726C325.197 196.978 325.286 197.181 325.463 197.335C325.644 197.488 325.886 197.565 326.19 197.565C326.493 197.565 326.733 197.488 326.911 197.335C327.088 197.181 327.177 196.978 327.177 196.726C327.177 196.462 327.086 196.261 326.905 196.123C326.724 195.982 326.485 195.911 326.19 195.911ZM329.037 197.931C328.935 197.931 328.848 197.896 328.777 197.825C328.706 197.754 328.671 197.668 328.671 197.565C328.671 197.463 328.706 197.376 328.777 197.305C328.848 197.234 328.935 197.199 329.037 197.199C329.135 197.199 329.218 197.234 329.285 197.305C329.356 197.376 329.392 197.463 329.392 197.565C329.392 197.668 329.356 197.754 329.285 197.825C329.218 197.896 329.135 197.931 329.037 197.931ZM329.037 195.402C328.935 195.402 328.848 195.367 328.777 195.296C328.706 195.225 328.671 195.139 328.671 195.036C328.671 194.934 328.706 194.847 328.777 194.776C328.848 194.705 328.935 194.67 329.037 194.67C329.135 194.67 329.218 194.705 329.285 194.776C329.356 194.847 329.392 194.934 329.392 195.036C329.392 195.139 329.356 195.225 329.285 195.296C329.218 195.367 329.135 195.402 329.037 195.402ZM330.389 195.716C330.389 195.038 330.5 194.51 330.72 194.132C330.941 193.75 331.327 193.559 331.878 193.559C332.426 193.559 332.81 193.75 333.031 194.132C333.251 194.51 333.362 195.038 333.362 195.716C333.362 196.405 333.251 196.941 333.031 197.323C332.81 197.705 332.426 197.896 331.878 197.896C331.327 197.896 330.941 197.705 330.72 197.323C330.5 196.941 330.389 196.405 330.389 195.716ZM332.83 195.716C332.83 195.373 332.806 195.083 332.759 194.847C332.716 194.607 332.623 194.414 332.481 194.268C332.343 194.122 332.142 194.049 331.878 194.049C331.611 194.049 331.406 194.122 331.264 194.268C331.126 194.414 331.034 194.607 330.986 194.847C330.943 195.083 330.921 195.373 330.921 195.716C330.921 196.07 330.943 196.368 330.986 196.608C331.034 196.848 331.126 197.041 331.264 197.187C331.406 197.333 331.611 197.406 331.878 197.406C332.142 197.406 332.343 197.333 332.481 197.187C332.623 197.041 332.716 196.848 332.759 196.608C332.806 196.368 332.83 196.07 332.83 195.716ZM334.454 195.716C334.454 195.038 334.565 194.51 334.785 194.132C335.006 193.75 335.392 193.559 335.943 193.559C336.491 193.559 336.875 193.75 337.096 194.132C337.316 194.51 337.426 195.038 337.426 195.716C337.426 196.405 337.316 196.941 337.096 197.323C336.875 197.705 336.491 197.896 335.943 197.896C335.392 197.896 335.006 197.705 334.785 197.323C334.565 196.941 334.454 196.405 334.454 195.716ZM336.895 195.716C336.895 195.373 336.871 195.083 336.824 194.847C336.78 194.607 336.688 194.414 336.546 194.268C336.408 194.122 336.207 194.049 335.943 194.049C335.676 194.049 335.471 194.122 335.329 194.268C335.191 194.414 335.098 194.607 335.051 194.847C335.008 195.083 334.986 195.373 334.986 195.716C334.986 196.07 335.008 196.368 335.051 196.608C335.098 196.848 335.191 197.041 335.329 197.187C335.471 197.333 335.676 197.406 335.943 197.406C336.207 197.406 336.408 197.333 336.546 197.187C336.688 197.041 336.78 196.848 336.824 196.608C336.871 196.368 336.895 196.07 336.895 195.716Z" fill="#615E83"/>
<line x1="128.584" y1="182.451" x2="128.584" y2="85.1654" stroke="#E5E5EF" stroke-width="0.633092" stroke-linecap="round" stroke-dasharray="1.69 2.95"/>
<line x1="199.435" y1="182.451" x2="199.435" y2="85.1654" stroke="#E5E5EF" stroke-width="0.633092" stroke-linecap="round" stroke-dasharray="1.69 2.95"/>
<line x1="270.286" y1="182.451" x2="270.286" y2="85.1654" stroke="#E5E5EF" stroke-width="0.633092" stroke-linecap="round" stroke-dasharray="1.69 2.95"/>
<g style="mix-blend-mode:multiply" opacity="0.33">
<path d="M42.3402 161.383C40.5154 161.16 37.3976 162.22 36.0669 162.778V213.155H363.405V155.435C361.837 155.435 362.122 155.435 359.556 153.576C356.989 151.718 356.277 150.881 351.999 152.275C347.722 153.669 347.152 152.275 344.301 149.766C341.449 147.257 340.024 148 336.602 148.837C333.18 149.673 332.61 146.234 328.971 143.911C325.333 141.587 323.771 146.699 322.345 150.324C320.928 153.926 317.68 157.254 314.701 160.305L314.646 160.361C311.652 163.428 307.233 159.153 305.807 157.294C304.382 155.435 303.954 155.156 299.677 155.435C295.4 155.714 294.117 154.506 292.691 152.275C291.265 150.045 291.55 150.602 288.271 148.837C284.992 147.071 283.424 148.279 281.571 148C279.717 147.721 277.579 144.468 276.153 142.61C274.727 140.751 274.87 139.45 270.593 140.286C266.377 141.11 265.486 140.129 263.277 137.698L263.179 137.591C260.898 135.081 259.33 134.338 254.768 133.037C250.205 131.736 251.631 132.293 248.209 133.037C244.788 133.78 243.077 132.758 240.938 130.992C238.8 129.226 239.513 125.694 233.667 127.089C227.822 128.483 226.539 125.137 225.256 121.605C223.973 118.073 220.409 118.073 216.844 118.817C213.28 119.56 211.712 114.449 211.427 110.917C211.142 107.385 210.856 105.991 206.722 105.991C202.587 105.991 202.873 111.568 201.304 118.817C199.736 126.066 200.591 126.252 195.887 126.531C191.182 126.81 191.182 126.81 188.616 132.293C186.049 137.777 185.051 137.591 180.489 137.591C175.927 137.591 174.216 141.959 172.648 146.513C171.098 151.013 167.739 149.796 162.708 147.973L162.526 147.907C157.393 146.048 156.253 146.513 152.973 139.914C149.694 133.315 145.56 136.383 143.707 140.472C141.853 144.561 140.855 145.119 137.719 146.513C134.582 147.907 131.446 148.279 130.305 150.788C129.165 153.298 125.315 155.342 122.036 153.855C118.757 152.368 116.333 152.74 114.48 155.342C112.627 157.945 110.773 157.852 108.635 158.131C106.496 158.409 101.934 158.131 99.6528 160.733C97.3717 163.335 94.2352 162.778 92.5244 162.22C90.8135 161.662 87.2493 161.383 86.1088 162.22C84.9682 163.056 81.5466 166.03 77.7659 161.383C73.9852 156.736 69.7134 159.803 68.8579 160.733L68.8237 160.77C67.95 161.72 65.9655 163.878 62.8701 162.778C59.7335 161.662 57.1673 161.383 54.7436 162.778C52.32 164.172 50.0389 164.729 48.328 163.893C46.6172 163.056 44.6213 161.662 42.3402 161.383Z" fill="url(#paint0_linear_1072_4139)"/>
</g>
<path d="M37.3506 162.319C38.671 161.766 41.7644 160.714 43.5751 160.936C45.8384 161.212 47.8188 162.596 49.5163 163.426C51.2138 164.256 53.4772 163.702 55.882 162.319C58.2868 160.936 60.833 161.212 63.9451 162.319C67.0572 163.426 69.0377 161.212 69.8864 160.29C70.7352 159.368 74.9738 156.325 78.725 160.936C82.4763 165.547 85.8713 162.596 87.003 161.766C88.1346 160.936 91.6711 161.212 93.3686 161.766C95.0661 162.319 98.1782 162.872 100.442 160.29C102.705 157.708 107.232 157.985 109.354 157.708C111.475 157.431 113.314 157.524 115.153 154.942C116.992 152.36 119.397 151.991 122.651 153.466C125.904 154.942 129.724 152.913 130.855 150.423C131.987 147.933 135.099 147.564 138.211 146.181C141.323 144.798 142.313 144.244 144.152 140.187C145.991 136.129 150.094 133.086 153.347 139.634C156.601 146.181 157.733 145.72 162.825 147.564C167.918 149.409 171.313 150.7 172.869 146.181C174.425 141.662 176.122 137.328 180.649 137.328C185.176 137.328 186.166 137.513 188.712 132.072C191.258 126.631 191.258 126.631 195.927 126.354C200.595 126.078 199.746 125.893 201.302 118.7C202.858 111.508 202.575 105.975 206.677 105.975C210.78 105.975 211.063 107.358 211.346 110.862C211.628 114.366 213.185 119.438 216.721 118.7C220.257 117.963 223.794 117.963 225.067 121.467C226.34 124.971 227.613 128.291 233.413 126.908C239.213 125.525 238.506 129.029 240.628 130.781C242.749 132.533 244.447 133.547 247.842 132.81C251.237 132.072 249.822 131.519 254.349 132.81C258.876 134.101 260.432 134.838 262.695 137.328C264.959 139.818 265.807 140.832 270.051 140.003C274.295 139.173 274.153 140.464 275.568 142.308C276.983 144.152 279.104 147.38 280.943 147.657C282.782 147.933 284.338 146.734 287.592 148.486C290.846 150.239 290.563 149.685 291.977 151.898C293.392 154.112 294.665 155.31 298.909 155.034C303.153 154.757 303.577 155.034 304.991 156.878C306.406 158.722 310.791 162.964 313.762 159.921C316.733 156.878 319.986 153.558 321.401 149.962C322.815 146.365 324.365 141.294 327.975 143.599C331.586 145.904 332.152 149.316 335.547 148.486C338.942 147.657 340.356 146.919 343.185 149.409C346.015 151.898 346.58 153.282 350.824 151.898C355.068 150.515 355.775 151.345 358.322 153.19C360.868 155.034 360.585 155.034 362.141 155.034" stroke="#1BAAC7" stroke-width="1.68825" stroke-linecap="round"/>
<line x1="148.225" y1="135.777" x2="148.225" y2="182.344" stroke="#9291A5" stroke-width="0.844123" stroke-linecap="round" stroke-dasharray="2.95 2.95"/>
<g filter="url(#filter0_d_1072_4139)">
<ellipse cx="148.186" cy="134.998" rx="5.05932" ry="4.22061" fill="#1BAAC7"/>
<path d="M148.187 131.622C150.664 131.622 152.401 133.271 152.401 134.999C152.401 136.726 150.664 138.374 148.187 138.375C145.709 138.375 143.971 136.726 143.971 134.999C143.971 133.271 145.709 131.622 148.187 131.622Z" stroke="white" stroke-width="1.68825"/>
</g>
<g filter="url(#filter1_d_1072_4139)">
<path d="M169.409 120.718C169.409 122.583 167.897 124.094 166.032 124.094L153.686 124.094C153.644 124.142 153.597 124.188 153.541 124.228L149.061 127.454C148.767 127.666 148.37 127.666 148.075 127.454L143.595 124.228C143.54 124.188 143.493 124.142 143.451 124.094L131.104 124.094C129.24 124.094 127.729 122.583 127.728 120.718L127.728 109.745C127.728 107.88 129.24 106.368 131.104 106.368L166.032 106.368C167.897 106.368 169.409 107.88 169.409 109.745L169.409 120.718Z" fill="white"/>
</g>
<path d="M145.916 113.171H143.653V114.515C143.748 114.389 143.887 114.283 144.072 114.198C144.261 114.112 144.461 114.07 144.673 114.07C145.051 114.07 145.357 114.151 145.591 114.313C145.83 114.475 145.999 114.68 146.098 114.927C146.201 115.175 146.253 115.436 146.253 115.711C146.253 116.044 146.188 116.341 146.057 116.602C145.931 116.859 145.74 117.061 145.483 117.21C145.231 117.358 144.921 117.433 144.551 117.433C144.061 117.433 143.667 117.311 143.37 117.068C143.073 116.825 142.895 116.503 142.836 116.102H143.586C143.635 116.314 143.746 116.483 143.917 116.609C144.088 116.73 144.302 116.791 144.558 116.791C144.878 116.791 145.116 116.694 145.274 116.501C145.436 116.307 145.517 116.051 145.517 115.731C145.517 115.407 145.436 115.159 145.274 114.988C145.112 114.812 144.873 114.725 144.558 114.725C144.338 114.725 144.151 114.781 143.998 114.893C143.849 115.002 143.741 115.15 143.674 115.339H142.944V112.496H145.916V113.171ZM150.174 113.104L148.297 117.433H147.521L149.418 113.185H146.92V112.53H150.174V113.104ZM150.739 116.406V115.825L153.008 112.57H153.94V115.738H154.568V116.406H153.94V117.433H153.183V116.406H150.739ZM153.217 113.354L151.623 115.738H153.217V113.354Z" fill="#1E1B39"/>
<path d="M41.365 68.7261L39.9351 66.2005H39.3222V68.7261H38.0223V62.2449H40.455C40.9565 62.2449 41.3836 62.3347 41.7364 62.5142C42.0893 62.6875 42.3524 62.9258 42.5257 63.2291C42.7052 63.5263 42.795 63.8605 42.795 64.232C42.795 64.6591 42.6711 65.046 42.4235 65.3926C42.1759 65.7331 41.8076 65.9683 41.3186 66.0983L42.8692 68.7261H41.365ZM39.3222 65.2255H40.4086C40.7615 65.2255 41.0245 65.1419 41.1979 64.9748C41.3712 64.8015 41.4579 64.5631 41.4579 64.2598C41.4579 63.9627 41.3712 63.7336 41.1979 63.5727C41.0245 63.4056 40.7615 63.322 40.4086 63.322H39.3222V65.2255ZM48.7527 66.0426C48.7527 66.2283 48.7403 66.3955 48.7155 66.544H44.955C44.9859 66.9154 45.1159 67.2064 45.3449 67.4168C45.574 67.6273 45.8556 67.7325 46.1899 67.7325C46.6727 67.7325 47.0163 67.5252 47.2206 67.1104H48.6227C48.4741 67.6056 48.1894 68.0142 47.7684 68.3361C47.3475 68.6518 46.8306 68.8096 46.2178 68.8096C45.7225 68.8096 45.2768 68.7013 44.8807 68.4847C44.4907 68.2618 44.1843 67.9492 43.9614 67.5468C43.7448 67.1445 43.6364 66.6802 43.6364 66.154C43.6364 65.6217 43.7448 65.1543 43.9614 64.7519C44.1781 64.3496 44.4814 64.0401 44.8714 63.8234C45.2614 63.6067 45.7102 63.4984 46.2178 63.4984C46.7068 63.4984 47.1432 63.6037 47.527 63.8141C47.917 64.0246 48.2172 64.3248 48.4277 64.7148C48.6443 65.0986 48.7527 65.5412 48.7527 66.0426ZM47.4063 65.6712C47.4001 65.3369 47.2794 65.0707 47.0442 64.8727C46.8089 64.6684 46.5211 64.5662 46.1806 64.5662C45.8587 64.5662 45.5864 64.6653 45.3635 64.8634C45.1469 65.0553 45.0138 65.3245 44.9642 65.6712H47.4063ZM49.3672 66.1355C49.3672 65.6155 49.4694 65.1543 49.6737 64.7519C49.8841 64.3496 50.1658 64.0401 50.5186 63.8234C50.8777 63.6067 51.2769 63.4984 51.7164 63.4984C52.1002 63.4984 52.4345 63.5758 52.7193 63.7306C53.0102 63.8853 53.2423 64.0803 53.4157 64.3155V63.582H54.7249V68.7261H53.4157V67.974C53.2485 68.2154 53.0164 68.4166 52.7193 68.5775C52.4283 68.7323 52.0909 68.8096 51.7072 68.8096C51.2738 68.8096 50.8777 68.6982 50.5186 68.4754C50.1658 68.2525 49.8841 67.9399 49.6737 67.5375C49.4694 67.129 49.3672 66.6616 49.3672 66.1355ZM53.4157 66.154C53.4157 65.8383 53.3538 65.5691 53.2299 65.3462C53.1061 65.1172 52.939 64.9438 52.7285 64.8262C52.5181 64.7024 52.2921 64.6405 52.0507 64.6405C51.8093 64.6405 51.5864 64.6993 51.3822 64.8169C51.1779 64.9346 51.0107 65.1079 50.8808 65.3369C50.7569 65.5598 50.695 65.8259 50.695 66.1355C50.695 66.445 50.7569 66.7173 50.8808 66.9526C51.0107 67.1816 51.1779 67.358 51.3822 67.4818C51.5926 67.6056 51.8155 67.6675 52.0507 67.6675C52.2921 67.6675 52.5181 67.6087 52.7285 67.4911C52.939 67.3673 53.1061 67.194 53.2299 66.9711C53.3538 66.7421 53.4157 66.4697 53.4157 66.154ZM57.2945 61.8549V68.7261H55.9945V61.8549H57.2945ZM62.5344 64.8634V65.959H58.5974V64.8634H62.5344ZM65.5058 64.6498V67.1383C65.5058 67.3116 65.546 67.4385 65.6265 67.519C65.7131 67.5933 65.8555 67.6304 66.0536 67.6304H66.6571V68.7261H65.84C64.7444 68.7261 64.1965 68.1937 64.1965 67.129V64.6498H63.5837V63.582H64.1965V62.3099H65.5058V63.582H66.6571V64.6498H65.5058ZM68.2514 62.9692C68.0224 62.9692 67.8305 62.898 67.6757 62.7556C67.5271 62.607 67.4529 62.4244 67.4529 62.2078C67.4529 61.9911 67.5271 61.8116 67.6757 61.6692C67.8305 61.5206 68.0224 61.4464 68.2514 61.4464C68.4804 61.4464 68.6692 61.5206 68.8178 61.6692C68.9726 61.8116 69.0499 61.9911 69.0499 62.2078C69.0499 62.4244 68.9726 62.607 68.8178 62.7556C68.6692 62.898 68.4804 62.9692 68.2514 62.9692ZM68.8921 63.582V68.7261H67.5921V63.582H68.8921ZM76.5648 63.5077C77.1962 63.5077 77.7038 63.7027 78.0876 64.0927C78.4775 64.4765 78.6725 65.015 78.6725 65.7083V68.7261H77.3726V65.8848C77.3726 65.4824 77.2705 65.176 77.0662 64.9655C76.8619 64.7488 76.5833 64.6405 76.2305 64.6405C75.8776 64.6405 75.596 64.7488 75.3855 64.9655C75.1812 65.176 75.0791 65.4824 75.0791 65.8848V68.7261H73.7792V65.8848C73.7792 65.4824 73.677 65.176 73.4727 64.9655C73.2685 64.7488 72.9899 64.6405 72.6371 64.6405C72.278 64.6405 71.9933 64.7488 71.7828 64.9655C71.5785 65.176 71.4764 65.4824 71.4764 65.8848V68.7261H70.1764V63.582H71.4764V64.2041C71.6435 63.9874 71.8571 63.8172 72.1171 63.6934C72.3833 63.5696 72.6742 63.5077 72.9899 63.5077C73.3923 63.5077 73.7513 63.5944 74.067 63.7677C74.3827 63.9348 74.6272 64.1763 74.8005 64.492C74.9677 64.1948 75.2091 63.9565 75.5248 63.777C75.8467 63.5975 76.1933 63.5077 76.5648 63.5077ZM84.6881 66.0426C84.6881 66.2283 84.6757 66.3955 84.6509 66.544H80.8904C80.9213 66.9154 81.0513 67.2064 81.2803 67.4168C81.5094 67.6273 81.791 67.7325 82.1253 67.7325C82.6081 67.7325 82.9517 67.5252 83.156 67.1104H84.5581C84.4095 67.6056 84.1248 68.0142 83.7038 68.3361C83.2829 68.6518 82.766 68.8096 82.1532 68.8096C81.6579 68.8096 81.2123 68.7013 80.8161 68.4847C80.4261 68.2618 80.1197 67.9492 79.8968 67.5468C79.6802 67.1445 79.5718 66.6802 79.5718 66.154C79.5718 65.6217 79.6802 65.1543 79.8968 64.7519C80.1135 64.3496 80.4168 64.0401 80.8068 63.8234C81.1968 63.6067 81.6456 63.4984 82.1532 63.4984C82.6422 63.4984 83.0786 63.6037 83.4624 63.8141C83.8524 64.0246 84.1526 64.3248 84.3631 64.7148C84.5797 65.0986 84.6881 65.5412 84.6881 66.0426ZM83.3417 65.6712C83.3355 65.3369 83.2148 65.0707 82.9796 64.8727C82.7443 64.6684 82.4565 64.5662 82.116 64.5662C81.7941 64.5662 81.5218 64.6653 81.2989 64.8634C81.0823 65.0553 80.9492 65.3245 80.8996 65.6712H83.3417ZM90.1336 68.8096C89.6384 68.8096 89.1927 68.7013 88.7965 68.4847C88.4004 68.2618 88.0878 67.9492 87.8587 67.5468C87.6359 67.1445 87.5245 66.6802 87.5245 66.154C87.5245 65.6279 87.639 65.1636 87.868 64.7612C88.1032 64.3589 88.422 64.0494 88.8244 63.8327C89.2268 63.6098 89.6756 63.4984 90.1708 63.4984C90.666 63.4984 91.1148 63.6098 91.5172 63.8327C91.9195 64.0494 92.2352 64.3589 92.4643 64.7612C92.6995 65.1636 92.8171 65.6279 92.8171 66.154C92.8171 66.6802 92.6964 67.1445 92.455 67.5468C92.2197 67.9492 91.8979 68.2618 91.4893 68.4847C91.0869 68.7013 90.635 68.8096 90.1336 68.8096ZM90.1336 67.6768C90.3689 67.6768 90.5886 67.6211 90.7929 67.5097C91.0034 67.3921 91.1705 67.2188 91.2943 66.9897C91.4181 66.7607 91.48 66.4821 91.48 66.154C91.48 65.665 91.35 65.2905 91.09 65.0305C90.8362 64.7643 90.5236 64.6312 90.1522 64.6312C89.7808 64.6312 89.4682 64.7643 89.2144 65.0305C88.9668 65.2905 88.843 65.665 88.843 66.154C88.843 66.6431 88.9637 67.0207 89.2051 67.2868C89.4527 67.5468 89.7622 67.6768 90.1336 67.6768ZM95.0706 64.3805C95.2378 64.1082 95.4544 63.8946 95.7206 63.7398C95.993 63.5851 96.3025 63.5077 96.6491 63.5077V64.8727H96.3056C95.897 64.8727 95.5875 64.9686 95.377 65.1605C95.1728 65.3524 95.0706 65.6867 95.0706 66.1633V68.7261H93.7707V63.582H95.0706V64.3805ZM97.1904 66.1355C97.1904 65.6155 97.2926 65.1543 97.4969 64.7519C97.7073 64.3496 97.9921 64.0401 98.3511 63.8234C98.7101 63.6067 99.1094 63.4984 99.5489 63.4984C99.8832 63.4984 100.202 63.5727 100.505 63.7213C100.809 63.8636 101.05 64.0555 101.23 64.297V61.8549H102.548V68.7261H101.23V67.9647C101.069 68.2185 100.843 68.4228 100.552 68.5775C100.261 68.7323 99.9234 68.8096 99.5396 68.8096C99.1063 68.8096 98.7101 68.6982 98.3511 68.4754C97.9921 68.2525 97.7073 67.9399 97.4969 67.5375C97.2926 67.129 97.1904 66.6616 97.1904 66.1355ZM101.239 66.154C101.239 65.8383 101.177 65.5691 101.053 65.3462C100.929 65.1172 100.762 64.9438 100.552 64.8262C100.341 64.7024 100.115 64.6405 99.8739 64.6405C99.6325 64.6405 99.4096 64.6993 99.2054 64.8169C99.0011 64.9346 98.8339 65.1079 98.7039 65.3369C98.5801 65.5598 98.5182 65.8259 98.5182 66.1355C98.5182 66.445 98.5801 66.7173 98.7039 66.9526C98.8339 67.1816 99.0011 67.358 99.2054 67.4818C99.4158 67.6056 99.6387 67.6675 99.8739 67.6675C100.115 67.6675 100.341 67.6087 100.552 67.4911C100.762 67.3673 100.929 67.194 101.053 66.9711C101.177 66.7421 101.239 66.4697 101.239 66.154ZM108.6 66.0426C108.6 66.2283 108.587 66.3955 108.563 66.544H104.802C104.833 66.9154 104.963 67.2064 105.192 67.4168C105.421 67.6273 105.703 67.7325 106.037 67.7325C106.52 67.7325 106.863 67.5252 107.068 67.1104H108.47C108.321 67.6056 108.036 68.0142 107.615 68.3361C107.194 68.6518 106.678 68.8096 106.065 68.8096C105.57 68.8096 105.124 68.7013 104.728 68.4847C104.338 68.2618 104.031 67.9492 103.808 67.5468C103.592 67.1445 103.483 66.6802 103.483 66.154C103.483 65.6217 103.592 65.1543 103.808 64.7519C104.025 64.3496 104.328 64.0401 104.718 63.8234C105.108 63.6067 105.557 63.4984 106.065 63.4984C106.554 63.4984 106.99 63.6037 107.374 63.8141C107.764 64.0246 108.064 64.3248 108.275 64.7148C108.491 65.0986 108.6 65.5412 108.6 66.0426ZM107.253 65.6712C107.247 65.3369 107.126 65.0707 106.891 64.8727C106.656 64.6684 106.368 64.5662 106.028 64.5662C105.706 64.5662 105.433 64.6653 105.211 64.8634C104.994 65.0553 104.861 65.3245 104.811 65.6712H107.253ZM110.848 64.3805C111.016 64.1082 111.232 63.8946 111.498 63.7398C111.771 63.5851 112.08 63.5077 112.427 63.5077V64.8727H112.083C111.675 64.8727 111.365 64.9686 111.155 65.1605C110.951 65.3524 110.848 65.6867 110.848 66.1633V68.7261H109.549V63.582H110.848V64.3805ZM115.271 68.8096C114.85 68.8096 114.473 68.7354 114.138 68.5868C113.804 68.432 113.538 68.2247 113.34 67.9647C113.148 67.7047 113.043 67.4168 113.024 67.1011H114.333C114.358 67.2992 114.454 67.4633 114.621 67.5933C114.794 67.7233 115.008 67.7883 115.262 67.7883C115.509 67.7883 115.701 67.7387 115.837 67.6397C115.98 67.5406 116.051 67.4137 116.051 67.259C116.051 67.0919 115.964 66.968 115.791 66.8876C115.624 66.8009 115.355 66.7081 114.983 66.609C114.599 66.5162 114.284 66.4202 114.036 66.3212C113.795 66.2221 113.584 66.0705 113.405 65.8662C113.231 65.6619 113.145 65.3864 113.145 65.0398C113.145 64.755 113.225 64.495 113.386 64.2598C113.553 64.0246 113.788 63.8389 114.092 63.7027C114.401 63.5665 114.763 63.4984 115.178 63.4984C115.791 63.4984 116.28 63.6532 116.645 63.9627C117.011 64.266 117.212 64.6777 117.249 65.1976H116.005C115.986 64.9934 115.899 64.8324 115.745 64.7148C115.596 64.591 115.395 64.5291 115.141 64.5291C114.906 64.5291 114.723 64.5724 114.593 64.6591C114.469 64.7458 114.408 64.8665 114.408 65.0212C114.408 65.1945 114.494 65.3276 114.668 65.4205C114.841 65.5072 115.11 65.5969 115.475 65.6898C115.847 65.7826 116.153 65.8786 116.395 65.9776C116.636 66.0767 116.843 66.2314 117.017 66.4419C117.196 66.6462 117.289 66.9185 117.295 67.259C117.295 67.5561 117.212 67.8223 117.045 68.0575C116.884 68.2928 116.648 68.4785 116.339 68.6146C116.036 68.7446 115.68 68.8096 115.271 68.8096Z" fill="#1E1B39"/>
<path d="M39.6455 56.6499C39.2961 56.6499 38.982 56.5891 38.7035 56.4675C38.43 56.3409 38.2147 56.1687 38.0577 55.9509C37.9007 55.7281 37.8197 55.4723 37.8146 55.1836H38.5515C38.5769 55.4318 38.6782 55.642 38.8554 55.8142C39.0378 55.9813 39.3011 56.0649 39.6455 56.0649C39.9747 56.0649 40.233 55.9838 40.4204 55.8218C40.6129 55.6546 40.7091 55.4419 40.7091 55.1836C40.7091 54.981 40.6534 54.8164 40.542 54.6898C40.4306 54.5632 40.2913 54.467 40.1241 54.4011C39.957 54.3353 39.7316 54.2644 39.448 54.1884C39.0985 54.0972 38.8174 54.0061 38.6047 53.9149C38.3971 53.8237 38.2173 53.6819 38.0653 53.4895C37.9185 53.2919 37.845 53.0286 37.845 52.6994C37.845 52.4107 37.9185 52.1549 38.0653 51.9321C38.2122 51.7092 38.4173 51.537 38.6807 51.4155C38.9491 51.2939 39.2555 51.2331 39.5999 51.2331C40.0963 51.2331 40.5015 51.3572 40.8155 51.6054C41.1346 51.8536 41.3144 52.1828 41.3549 52.593H40.5952C40.5698 52.3904 40.4635 52.2131 40.2761 52.0612C40.0887 51.9042 39.8405 51.8257 39.5316 51.8257C39.2429 51.8257 39.0074 51.9017 38.825 52.0536C38.6427 52.2005 38.5515 52.4081 38.5515 52.6766C38.5515 52.869 38.6047 53.026 38.7111 53.1476C38.8225 53.2691 38.9567 53.3628 39.1137 53.4287C39.2758 53.4895 39.5012 53.5604 39.7899 53.6414C40.1393 53.7376 40.4204 53.8339 40.6332 53.9301C40.8459 54.0213 41.0282 54.1656 41.1801 54.3631C41.3321 54.5556 41.4081 54.819 41.4081 55.1532C41.4081 55.4115 41.3397 55.6546 41.2029 55.8826C41.0662 56.1105 40.8636 56.2953 40.5952 56.4371C40.3267 56.579 40.0102 56.6499 39.6455 56.6499ZM43.2687 53.0032V55.4571C43.2687 55.6597 43.3117 55.804 43.3978 55.8901C43.4839 55.9712 43.6334 56.0117 43.8461 56.0117H44.3551V56.5967H43.7321C43.3472 56.5967 43.0585 56.508 42.8661 56.3308C42.6736 56.1535 42.5774 55.8623 42.5774 55.4571V53.0032H42.038V52.4335H42.5774V51.3851H43.2687V52.4335H44.3551V53.0032H43.2687ZM44.9344 54.4999C44.9344 54.0744 45.0205 53.7022 45.1927 53.3831C45.3649 53.059 45.6004 52.8083 45.8993 52.631C46.2031 52.4537 46.5399 52.3651 46.9097 52.3651C47.2743 52.3651 47.5909 52.4436 47.8593 52.6006C48.1277 52.7576 48.3278 52.9551 48.4595 53.1932V52.4335H49.1584V56.5967H48.4595V55.8218C48.3227 56.0649 48.1176 56.2675 47.8441 56.4295C47.5757 56.5866 47.2617 56.6651 46.9021 56.6651C46.5323 56.6651 46.1981 56.5739 45.8993 56.3916C45.6004 56.2092 45.3649 55.9535 45.1927 55.6242C45.0205 55.295 44.9344 54.9203 44.9344 54.4999ZM48.4595 54.5075C48.4595 54.1935 48.3962 53.92 48.2696 53.687C48.1429 53.454 47.9707 53.2767 47.7529 53.1552C47.5402 53.0286 47.3047 52.9653 47.0464 52.9653C46.7881 52.9653 46.5526 53.026 46.3399 53.1476C46.1272 53.2691 45.9575 53.4464 45.8309 53.6794C45.7043 53.9124 45.641 54.1859 45.641 54.4999C45.641 54.819 45.7043 55.0975 45.8309 55.3356C45.9575 55.5685 46.1272 55.7483 46.3399 55.875C46.5526 55.9965 46.7881 56.0573 47.0464 56.0573C47.3047 56.0573 47.5402 55.9965 47.7529 55.875C47.9707 55.7483 48.1429 55.5685 48.2696 55.3356C48.3962 55.0975 48.4595 54.8215 48.4595 54.5075ZM51.17 53.0032V55.4571C51.17 55.6597 51.213 55.804 51.2991 55.8901C51.3852 55.9712 51.5346 56.0117 51.7474 56.0117H52.2564V56.5967H51.6334C51.2485 56.5967 50.9598 56.508 50.7673 56.3308C50.5749 56.1535 50.4786 55.8623 50.4786 55.4571V53.0032H49.9393V52.4335H50.4786V51.3851H51.17V52.4335H52.2564V53.0032H51.17ZM53.4511 51.7573C53.3194 51.7573 53.208 51.7117 53.1168 51.6206C53.0256 51.5294 52.9801 51.418 52.9801 51.2863C52.9801 51.1546 53.0256 51.0432 53.1168 50.952C53.208 50.8609 53.3194 50.8153 53.4511 50.8153C53.5777 50.8153 53.6841 50.8609 53.7702 50.952C53.8613 51.0432 53.9069 51.1546 53.9069 51.2863C53.9069 51.418 53.8613 51.5294 53.7702 51.6206C53.6841 51.7117 53.5777 51.7573 53.4511 51.7573ZM53.7853 52.4335V56.5967H53.094V52.4335H53.7853ZM56.4375 56.6651C56.1184 56.6651 55.8322 56.6119 55.579 56.5055C55.3257 56.3941 55.1257 56.2421 54.9788 56.0497C54.8319 55.8522 54.7509 55.6268 54.7357 55.3735H55.4498C55.4701 55.5812 55.5663 55.7509 55.7385 55.8826C55.9158 56.0142 56.1462 56.0801 56.4299 56.0801C56.6932 56.0801 56.9009 56.0218 57.0528 55.9053C57.2048 55.7889 57.2807 55.642 57.2807 55.4647C57.2807 55.2824 57.1997 55.1482 57.0376 55.0621C56.8756 54.9709 56.6248 54.8823 56.2855 54.7962C55.9766 54.7151 55.7233 54.6341 55.5258 54.5531C55.3333 54.467 55.1662 54.3429 55.0244 54.1808C54.8876 54.0137 54.8193 53.7959 54.8193 53.5274C54.8193 53.3147 54.8826 53.1197 55.0092 52.9425C55.1358 52.7652 55.3156 52.6259 55.5486 52.5246C55.7816 52.4183 56.0475 52.3651 56.3463 52.3651C56.8072 52.3651 57.1794 52.4816 57.4631 52.7146C57.7467 52.9475 57.8986 53.2666 57.9189 53.6718H57.2276C57.2124 53.454 57.1237 53.2793 56.9617 53.1476C56.8046 53.0159 56.5919 52.9501 56.3235 52.9501C56.0753 52.9501 55.8778 53.0032 55.7309 53.1096C55.584 53.216 55.5106 53.3552 55.5106 53.5274C55.5106 53.6642 55.5537 53.7782 55.6398 53.8693C55.7309 53.9554 55.8423 54.0263 55.974 54.082C56.1108 54.1327 56.2982 54.1909 56.5362 54.2568C56.835 54.3378 57.0781 54.4188 57.2655 54.4999C57.4529 54.5758 57.6125 54.6923 57.7442 54.8493C57.8809 55.0064 57.9518 55.2115 57.9569 55.4647C57.9569 55.6926 57.8936 55.8977 57.7669 56.0801C57.6403 56.2624 57.4605 56.4068 57.2276 56.5131C56.9996 56.6144 56.7363 56.6651 56.4375 56.6651ZM59.7761 53.0032V55.4571C59.7761 55.6597 59.8191 55.804 59.9052 55.8901C59.9913 55.9712 60.1407 56.0117 60.3535 56.0117H60.8625V56.5967H60.2395C59.8546 56.5967 59.5659 56.508 59.3734 56.3308C59.181 56.1535 59.0847 55.8623 59.0847 55.4571V53.0032H58.5454V52.4335H59.0847V51.3851H59.7761V52.4335H60.8625V53.0032H59.7761ZM62.0572 51.7573C61.9255 51.7573 61.8141 51.7117 61.7229 51.6206C61.6317 51.5294 61.5862 51.418 61.5862 51.2863C61.5862 51.1546 61.6317 51.0432 61.7229 50.952C61.8141 50.8609 61.9255 50.8153 62.0572 50.8153C62.1838 50.8153 62.2902 50.8609 62.3763 50.952C62.4674 51.0432 62.513 51.1546 62.513 51.2863C62.513 51.418 62.4674 51.5294 62.3763 51.6206C62.2902 51.7117 62.1838 51.7573 62.0572 51.7573ZM62.3914 52.4335V56.5967H61.7001V52.4335H62.3914ZM63.3114 54.5075C63.3114 54.077 63.3975 53.7022 63.5697 53.3831C63.7419 53.059 63.98 52.8083 64.2838 52.631C64.5928 52.4537 64.9448 52.3651 65.3398 52.3651C65.8514 52.3651 66.2717 52.4892 66.601 52.7373C66.9352 52.9855 67.1555 53.3299 67.2619 53.7706H66.5174C66.4465 53.5173 66.3072 53.3173 66.0995 53.1704C65.897 53.0235 65.6437 52.9501 65.3398 52.9501C64.9448 52.9501 64.6257 53.0868 64.3826 53.3603C64.1395 53.6287 64.0179 54.0111 64.0179 54.5075C64.0179 55.0089 64.1395 55.3963 64.3826 55.6698C64.6257 55.9433 64.9448 56.0801 65.3398 56.0801C65.6437 56.0801 65.897 56.0092 66.0995 55.8674C66.3021 55.7255 66.4414 55.523 66.5174 55.2596H67.2619C67.1505 55.685 66.9276 56.0269 66.5934 56.2852C66.2591 56.5384 65.8412 56.6651 65.3398 56.6651C64.9448 56.6651 64.5928 56.5764 64.2838 56.3992C63.98 56.2219 63.7419 55.9712 63.5697 55.647C63.3975 55.3229 63.3114 54.943 63.3114 54.5075ZM69.6582 56.6651C69.3391 56.6651 69.053 56.6119 68.7997 56.5055C68.5465 56.3941 68.3464 56.2421 68.1996 56.0497C68.0527 55.8522 67.9716 55.6268 67.9564 55.3735H68.6706C68.6908 55.5812 68.7871 55.7509 68.9593 55.8826C69.1365 56.0142 69.367 56.0801 69.6506 56.0801C69.914 56.0801 70.1216 56.0218 70.2736 55.9053C70.4255 55.7889 70.5015 55.642 70.5015 55.4647C70.5015 55.2824 70.4204 55.1482 70.2584 55.0621C70.0963 54.9709 69.8456 54.8823 69.5063 54.7962C69.1973 54.7151 68.9441 54.6341 68.7465 54.5531C68.5541 54.467 68.3869 54.3429 68.2451 54.1808C68.1084 54.0137 68.04 53.7959 68.04 53.5274C68.04 53.3147 68.1033 53.1197 68.2299 52.9425C68.3566 52.7652 68.5364 52.6259 68.7693 52.5246C69.0023 52.4183 69.2682 52.3651 69.567 52.3651C70.0279 52.3651 70.4002 52.4816 70.6838 52.7146C70.9674 52.9475 71.1194 53.2666 71.1396 53.6718H70.4483C70.4331 53.454 70.3445 53.2793 70.1824 53.1476C70.0254 53.0159 69.8127 52.9501 69.5442 52.9501C69.2961 52.9501 69.0985 53.0032 68.9517 53.1096C68.8048 53.216 68.7314 53.3552 68.7314 53.5274C68.7314 53.6642 68.7744 53.7782 68.8605 53.8693C68.9517 53.9554 69.0631 54.0263 69.1948 54.082C69.3315 54.1327 69.5189 54.1909 69.757 54.2568C70.0558 54.3378 70.2989 54.4188 70.4863 54.4999C70.6737 54.5758 70.8332 54.6923 70.9649 54.8493C71.1016 55.0064 71.1726 55.2115 71.1776 55.4647C71.1776 55.6926 71.1143 55.8977 70.9877 56.0801C70.8611 56.2624 70.6813 56.4068 70.4483 56.5131C70.2204 56.6144 69.957 56.6651 69.6582 56.6651Z" fill="#9291A5"/>
<path d="M339.463 57.8215V63.3467H338.794V58.5229H338.761L337.412 59.4186V58.7388L338.794 57.8215H339.463ZM341.052 63.3467V62.8611L342.875 60.8647C343.089 60.6309 343.266 60.4276 343.404 60.255C343.543 60.0805 343.645 59.9168 343.712 59.764C343.78 59.6093 343.814 59.4474 343.814 59.2783C343.814 59.0841 343.767 58.9159 343.674 58.7738C343.582 58.6318 343.456 58.522 343.296 58.4447C343.136 58.3674 342.956 58.3287 342.757 58.3287C342.544 58.3287 342.359 58.3728 342.201 58.4609C342.044 58.5472 341.923 58.6686 341.837 58.8251C341.752 58.9816 341.71 59.165 341.71 59.3755H341.073C341.073 59.0517 341.148 58.7676 341.297 58.5229C341.446 58.2783 341.65 58.0877 341.907 57.951C342.166 57.8143 342.456 57.746 342.778 57.746C343.102 57.746 343.389 57.8143 343.639 57.951C343.889 58.0877 344.085 58.272 344.227 58.5041C344.369 58.7361 344.44 58.9942 344.44 59.2783C344.44 59.4816 344.403 59.6803 344.33 59.8746C344.258 60.067 344.132 60.2819 343.952 60.5193C343.774 60.755 343.526 61.0427 343.21 61.3827L341.969 62.71V62.7532H344.537V63.3467H341.052ZM346.126 63.3898C345.993 63.3898 345.879 63.3422 345.784 63.2469C345.688 63.1515 345.641 63.0373 345.641 62.9042C345.641 62.7711 345.688 62.6569 345.784 62.5616C345.879 62.4663 345.993 62.4186 346.126 62.4186C346.259 62.4186 346.374 62.4663 346.469 62.5616C346.564 62.6569 346.612 62.7711 346.612 62.9042C346.612 62.9924 346.589 63.0733 346.544 63.147C346.501 63.2208 346.443 63.2801 346.369 63.3251C346.297 63.3683 346.216 63.3898 346.126 63.3898ZM347.805 63.3467L350.276 58.4582V58.415H347.427V57.8215H350.967V58.4474L348.506 63.3467H347.805ZM353.625 63.4222C353.308 63.4222 353.023 63.3593 352.77 63.2334C352.516 63.1075 352.313 62.9348 352.16 62.7154C352.007 62.496 351.923 62.246 351.909 61.9654H352.557C352.582 62.2154 352.695 62.4222 352.897 62.5859C353.1 62.7478 353.343 62.8287 353.625 62.8287C353.852 62.8287 354.053 62.7756 354.229 62.6695C354.407 62.5634 354.547 62.4177 354.647 62.2325C354.75 62.0454 354.801 61.8341 354.801 61.5985C354.801 61.3575 354.748 61.1425 354.642 60.9537C354.538 60.7631 354.394 60.6129 354.21 60.5032C354.027 60.3934 353.817 60.3377 353.582 60.3359C353.413 60.3341 353.239 60.3602 353.061 60.4141C352.883 60.4663 352.736 60.5337 352.621 60.6165L351.995 60.5409L352.33 57.8215H355.2V58.415H352.891L352.697 60.0445H352.729C352.843 59.9546 352.985 59.88 353.156 59.8206C353.326 59.7613 353.504 59.7316 353.69 59.7316C354.028 59.7316 354.329 59.8125 354.593 59.9744C354.86 60.1345 355.068 60.3539 355.219 60.6327C355.372 60.9114 355.449 61.2298 355.449 61.5877C355.449 61.9402 355.37 62.255 355.211 62.5319C355.055 62.8071 354.839 63.0247 354.564 63.1848C354.289 63.3431 353.976 63.4222 353.625 63.4222ZM359.337 62.3107V62.0193C359.337 61.8179 359.378 61.6336 359.461 61.4663C359.546 61.2972 359.668 61.1623 359.828 61.0616C359.99 60.9591 360.186 60.9078 360.416 60.9078C360.65 60.9078 360.846 60.9591 361.004 61.0616C361.162 61.1623 361.282 61.2972 361.363 61.4663C361.444 61.6336 361.484 61.8179 361.484 62.0193V62.3107C361.484 62.5121 361.443 62.6974 361.36 62.8665C361.279 63.0337 361.159 63.1686 360.999 63.2711C360.841 63.3719 360.646 63.4222 360.416 63.4222C360.182 63.4222 359.985 63.3719 359.825 63.2711C359.665 63.1686 359.544 63.0337 359.461 62.8665C359.378 62.6974 359.337 62.5121 359.337 62.3107ZM359.887 62.0193V62.3107C359.887 62.478 359.927 62.6282 360.006 62.7612C360.085 62.8925 360.222 62.9582 360.416 62.9582C360.605 62.9582 360.738 62.8925 360.815 62.7612C360.894 62.6282 360.934 62.478 360.934 62.3107V62.0193C360.934 61.8521 360.896 61.7028 360.821 61.5715C360.745 61.4384 360.61 61.3719 360.416 61.3719C360.227 61.3719 360.091 61.4384 360.009 61.5715C359.928 61.7028 359.887 61.8521 359.887 62.0193ZM356.585 59.1488V58.8575C356.585 58.656 356.626 58.4717 356.709 58.3044C356.794 58.1354 356.916 58.0005 357.076 57.8997C357.238 57.7972 357.434 57.746 357.664 57.746C357.898 57.746 358.094 57.7972 358.252 57.8997C358.411 58.0005 358.53 58.1354 358.611 58.3044C358.692 58.4717 358.733 58.656 358.733 58.8575V59.1488C358.733 59.3503 358.691 59.5355 358.609 59.7046C358.528 59.8719 358.407 60.0068 358.247 60.1093C358.089 60.21 357.894 60.2604 357.664 60.2604C357.43 60.2604 357.234 60.21 357.073 60.1093C356.913 60.0068 356.792 59.8719 356.709 59.7046C356.626 59.5355 356.585 59.3503 356.585 59.1488ZM357.135 58.8575V59.1488C357.135 59.3161 357.175 59.4663 357.254 59.5994C357.333 59.7307 357.47 59.7963 357.664 59.7963C357.853 59.7963 357.986 59.7307 358.064 59.5994C358.143 59.4663 358.182 59.3161 358.182 59.1488V58.8575C358.182 58.6902 358.144 58.5409 358.069 58.4096C357.993 58.2765 357.859 58.21 357.664 58.21C357.475 58.21 357.34 58.2765 357.257 58.4096C357.176 58.5409 357.135 58.6902 357.135 58.8575ZM356.79 63.3467L360.589 57.8215H361.204L357.405 63.3467H356.79Z" fill="#04CE00"/>
<circle cx="328.154" cy="60.5673" r="4.59121" fill="#E1F6E3"/>
<path d="M329.184 60.0782L329.061 60.2014C328.402 60.8606 327.743 61.5199 327.083 62.1793C326.95 62.3126 326.792 62.3419 326.635 62.269C326.483 62.1977 326.4 62.0672 326.422 61.9094C326.442 61.7954 326.496 61.6901 326.576 61.6071C327.214 60.9581 327.86 60.3173 328.503 59.674L328.625 59.5521C328.586 59.5454 328.546 59.5408 328.506 59.5383C328.248 59.5372 327.99 59.5397 327.732 59.5364C327.528 59.5341 327.387 59.3936 327.385 59.1983C327.382 58.9854 327.51 58.8426 327.723 58.8412C328.317 58.8374 328.909 58.8369 329.502 58.8399C329.742 58.8412 329.877 58.9708 329.881 59.2077C329.892 59.796 329.898 60.3843 329.901 60.9727C329.901 61.1883 329.761 61.3152 329.547 61.3134C329.344 61.3115 329.211 61.1816 329.205 60.9721C329.199 60.7234 329.198 60.4745 329.195 60.2256C329.194 60.1864 329.189 60.148 329.184 60.0782Z" fill="#04CE00"/>
<line x1="37.3816" y1="78.2685" x2="362.121" y2="78.2685" stroke="#E5E5EF" stroke-width="0.422062"/>
<rect x="0.713342" y="1.4277" width="398.045" height="211.895" rx="9.08279" fill="white"/>
<rect x="0.713342" y="1.4277" width="398.045" height="211.895" rx="9.08279" stroke="#E4E7EC" stroke-width="1.42668"/>
<path d="M40.5239 180.382V179.813H41.8131V184.771H41.1822V180.382H40.5239ZM43.2964 182.24C43.2964 181.454 43.4244 180.841 43.6804 180.402C43.9365 179.959 44.3845 179.737 45.0245 179.737C45.6599 179.737 46.1056 179.959 46.3616 180.402C46.6177 180.841 46.7457 181.454 46.7457 182.24C46.7457 183.04 46.6177 183.662 46.3616 184.105C46.1056 184.549 45.6599 184.771 45.0245 184.771C44.3845 184.771 43.9365 184.549 43.6804 184.105C43.4244 183.662 43.2964 183.04 43.2964 182.24ZM46.1285 182.24C46.1285 181.842 46.1011 181.506 46.0462 181.232C45.9959 180.953 45.8885 180.729 45.7239 180.56C45.5639 180.391 45.3308 180.306 45.0245 180.306C44.7136 180.306 44.4759 180.391 44.3113 180.56C44.1513 180.729 44.0439 180.953 43.989 181.232C43.9387 181.506 43.9136 181.842 43.9136 182.24C43.9136 182.652 43.9387 182.997 43.989 183.276C44.0439 183.554 44.1513 183.778 44.3113 183.948C44.4759 184.117 44.7136 184.201 45.0245 184.201C45.3308 184.201 45.5639 184.117 45.7239 183.948C45.8885 183.778 45.9959 183.554 46.0462 183.276C46.1011 182.997 46.1285 182.652 46.1285 182.24ZM48.3155 184.812C48.1966 184.812 48.0961 184.771 48.0138 184.688C47.9315 184.606 47.8903 184.505 47.8903 184.386C47.8903 184.268 47.9315 184.167 48.0138 184.085C48.0961 184.002 48.1966 183.961 48.3155 183.961C48.4298 183.961 48.5258 184.002 48.6035 184.085C48.6858 184.167 48.7269 184.268 48.7269 184.386C48.7269 184.505 48.6858 184.606 48.6035 184.688C48.5258 184.771 48.4298 184.812 48.3155 184.812ZM48.3155 181.877C48.1966 181.877 48.0961 181.836 48.0138 181.753C47.9315 181.671 47.8903 181.57 47.8903 181.452C47.8903 181.333 47.9315 181.232 48.0138 181.15C48.0961 181.068 48.1966 181.026 48.3155 181.026C48.4298 181.026 48.5258 181.068 48.6035 181.15C48.6858 181.232 48.7269 181.333 48.7269 181.452C48.7269 181.57 48.6858 181.671 48.6035 181.753C48.5258 181.836 48.4298 181.877 48.3155 181.877ZM49.8851 182.24C49.8851 181.454 50.0131 180.841 50.2691 180.402C50.5251 179.959 50.9731 179.737 51.6131 179.737C52.2485 179.737 52.6943 179.959 52.9503 180.402C53.2063 180.841 53.3343 181.454 53.3343 182.24C53.3343 183.04 53.2063 183.662 52.9503 184.105C52.6943 184.549 52.2485 184.771 51.6131 184.771C50.9731 184.771 50.5251 184.549 50.2691 184.105C50.0131 183.662 49.8851 183.04 49.8851 182.24ZM52.7171 182.24C52.7171 181.842 52.6897 181.506 52.6348 181.232C52.5846 180.953 52.4771 180.729 52.3125 180.56C52.1525 180.391 51.9194 180.306 51.6131 180.306C51.3022 180.306 51.0645 180.391 50.8999 180.56C50.7399 180.729 50.6325 180.953 50.5777 181.232C50.5274 181.506 50.5022 181.842 50.5022 182.24C50.5022 182.652 50.5274 182.997 50.5777 183.276C50.6325 183.554 50.7399 183.778 50.8999 183.948C51.0645 184.117 51.3022 184.201 51.6131 184.201C51.9194 184.201 52.1525 184.117 52.3125 183.948C52.4771 183.778 52.5846 183.554 52.6348 183.276C52.6897 182.997 52.7171 182.652 52.7171 182.24ZM54.6024 182.24C54.6024 181.454 54.7304 180.841 54.9864 180.402C55.2424 179.959 55.6904 179.737 56.3304 179.737C56.9659 179.737 57.4116 179.959 57.6676 180.402C57.9236 180.841 58.0516 181.454 58.0516 182.24C58.0516 183.04 57.9236 183.662 57.6676 184.105C57.4116 184.549 56.9659 184.771 56.3304 184.771C55.6904 184.771 55.2424 184.549 54.9864 184.105C54.7304 183.662 54.6024 183.04 54.6024 182.24ZM57.4345 182.24C57.4345 181.842 57.407 181.506 57.3522 181.232C57.3019 180.953 57.1945 180.729 57.0299 180.56C56.8699 180.391 56.6367 180.306 56.3304 180.306C56.0196 180.306 55.7819 180.391 55.6173 180.56C55.4573 180.729 55.3498 180.953 55.295 181.232C55.2447 181.506 55.2196 181.842 55.2196 182.24C55.2196 182.652 55.2447 182.997 55.295 183.276C55.3498 183.554 55.4573 183.778 55.6173 183.948C55.7819 184.117 56.0196 184.201 56.3304 184.201C56.6367 184.201 56.8699 184.117 57.0299 183.948C57.1945 183.778 57.3019 183.554 57.3522 183.276C57.407 182.997 57.4345 182.652 57.4345 182.24Z" fill="#615E83"/>
<path d="M115.792 180.382V179.813H117.081V184.771H116.45V180.382H115.792ZM118.489 184.27C119.07 183.804 119.524 183.422 119.854 183.125C120.183 182.823 120.459 182.51 120.683 182.185C120.912 181.856 121.026 181.534 121.026 181.218C121.026 180.921 120.953 180.688 120.807 180.519C120.665 180.345 120.434 180.258 120.114 180.258C119.803 180.258 119.561 180.357 119.387 180.553C119.218 180.745 119.127 181.004 119.113 181.328H118.51C118.528 180.816 118.683 180.421 118.976 180.142C119.268 179.863 119.646 179.724 120.107 179.724C120.578 179.724 120.951 179.854 121.225 180.114C121.504 180.375 121.643 180.734 121.643 181.191C121.643 181.57 121.529 181.941 121.3 182.302C121.076 182.658 120.82 182.974 120.532 183.248C120.244 183.518 119.876 183.833 119.428 184.194H121.787V184.716H118.489V184.27ZM123.222 184.812C123.103 184.812 123.002 184.771 122.92 184.688C122.838 184.606 122.797 184.505 122.797 184.386C122.797 184.268 122.838 184.167 122.92 184.085C123.002 184.002 123.103 183.961 123.222 183.961C123.336 183.961 123.432 184.002 123.51 184.085C123.592 184.167 123.633 184.268 123.633 184.386C123.633 184.505 123.592 184.606 123.51 184.688C123.432 184.771 123.336 184.812 123.222 184.812ZM123.222 181.877C123.103 181.877 123.002 181.836 122.92 181.753C122.838 181.671 122.797 181.57 122.797 181.452C122.797 181.333 122.838 181.232 122.92 181.15C123.002 181.068 123.103 181.026 123.222 181.026C123.336 181.026 123.432 181.068 123.51 181.15C123.592 181.232 123.633 181.333 123.633 181.452C123.633 181.57 123.592 181.671 123.51 181.753C123.432 181.836 123.336 181.877 123.222 181.877ZM124.791 182.24C124.791 181.454 124.919 180.841 125.175 180.402C125.431 179.959 125.879 179.737 126.519 179.737C127.155 179.737 127.601 179.959 127.857 180.402C128.113 180.841 128.241 181.454 128.241 182.24C128.241 183.04 128.113 183.662 127.857 184.105C127.601 184.549 127.155 184.771 126.519 184.771C125.879 184.771 125.431 184.549 125.175 184.105C124.919 183.662 124.791 183.04 124.791 182.24ZM127.623 182.24C127.623 181.842 127.596 181.506 127.541 181.232C127.491 180.953 127.383 180.729 127.219 180.56C127.059 180.391 126.826 180.306 126.519 180.306C126.209 180.306 125.971 180.391 125.806 180.56C125.646 180.729 125.539 180.953 125.484 181.232C125.434 181.506 125.409 181.842 125.409 182.24C125.409 182.652 125.434 182.997 125.484 183.276C125.539 183.554 125.646 183.778 125.806 183.948C125.971 184.117 126.209 184.201 126.519 184.201C126.826 184.201 127.059 184.117 127.219 183.948C127.383 183.778 127.491 183.554 127.541 183.276C127.596 182.997 127.623 182.652 127.623 182.24ZM129.509 182.24C129.509 181.454 129.637 180.841 129.893 180.402C130.149 179.959 130.597 179.737 131.237 179.737C131.872 179.737 132.318 179.959 132.574 180.402C132.83 180.841 132.958 181.454 132.958 182.24C132.958 183.04 132.83 183.662 132.574 184.105C132.318 184.549 131.872 184.771 131.237 184.771C130.597 184.771 130.149 184.549 129.893 184.105C129.637 183.662 129.509 183.04 129.509 182.24ZM132.341 182.24C132.341 181.842 132.313 181.506 132.259 181.232C132.208 180.953 132.101 180.729 131.936 180.56C131.776 180.391 131.543 180.306 131.237 180.306C130.926 180.306 130.688 180.391 130.524 180.56C130.364 180.729 130.256 180.953 130.201 181.232C130.151 181.506 130.126 181.842 130.126 182.24C130.126 182.652 130.151 182.997 130.201 183.276C130.256 183.554 130.364 183.778 130.524 183.948C130.688 184.117 130.926 184.201 131.237 184.201C131.543 184.201 131.776 184.117 131.936 183.948C132.101 183.778 132.208 183.554 132.259 183.276C132.313 182.997 132.341 182.652 132.341 182.24Z" fill="#615E83"/>
<path d="M190.695 180.382V179.813H191.984V184.771H191.353V180.382H190.695ZM193.317 183.666V183.193L195.723 179.861H196.471V183.125H197.157V183.666H196.471V184.771H195.854V183.666H193.317ZM195.881 180.512L194.037 183.125H195.881V180.512ZM198.493 184.812C198.374 184.812 198.274 184.771 198.191 184.688C198.109 184.606 198.068 184.505 198.068 184.386C198.068 184.268 198.109 184.167 198.191 184.085C198.274 184.002 198.374 183.961 198.493 183.961C198.607 183.961 198.703 184.002 198.781 184.085C198.863 184.167 198.905 184.268 198.905 184.386C198.905 184.505 198.863 184.606 198.781 184.688C198.703 184.771 198.607 184.812 198.493 184.812ZM198.493 181.877C198.374 181.877 198.274 181.836 198.191 181.753C198.109 181.671 198.068 181.57 198.068 181.452C198.068 181.333 198.109 181.232 198.191 181.15C198.274 181.068 198.374 181.026 198.493 181.026C198.607 181.026 198.703 181.068 198.781 181.15C198.863 181.232 198.905 181.333 198.905 181.452C198.905 181.57 198.863 181.671 198.781 181.753C198.703 181.836 198.607 181.877 198.493 181.877ZM200.063 182.24C200.063 181.454 200.191 180.841 200.447 180.402C200.703 179.959 201.151 179.737 201.791 179.737C202.426 179.737 202.872 179.959 203.128 180.402C203.384 180.841 203.512 181.454 203.512 182.24C203.512 183.04 203.384 183.662 203.128 184.105C202.872 184.549 202.426 184.771 201.791 184.771C201.151 184.771 200.703 184.549 200.447 184.105C200.191 183.662 200.063 183.04 200.063 182.24ZM202.895 182.24C202.895 181.842 202.867 181.506 202.813 181.232C202.762 180.953 202.655 180.729 202.49 180.56C202.33 180.391 202.097 180.306 201.791 180.306C201.48 180.306 201.242 180.391 201.078 180.56C200.918 180.729 200.81 180.953 200.755 181.232C200.705 181.506 200.68 181.842 200.68 182.24C200.68 182.652 200.705 182.997 200.755 183.276C200.81 183.554 200.918 183.778 201.078 183.948C201.242 184.117 201.48 184.201 201.791 184.201C202.097 184.201 202.33 184.117 202.49 183.948C202.655 183.778 202.762 183.554 202.813 183.276C202.867 182.997 202.895 182.652 202.895 182.24ZM204.78 182.24C204.78 181.454 204.908 180.841 205.164 180.402C205.42 179.959 205.868 179.737 206.508 179.737C207.144 179.737 207.589 179.959 207.845 180.402C208.101 180.841 208.229 181.454 208.229 182.24C208.229 183.04 208.101 183.662 207.845 184.105C207.589 184.549 207.144 184.771 206.508 184.771C205.868 184.771 205.42 184.549 205.164 184.105C204.908 183.662 204.78 183.04 204.78 182.24ZM207.612 182.24C207.612 181.842 207.585 181.506 207.53 181.232C207.48 180.953 207.372 180.729 207.208 180.56C207.048 180.391 206.814 180.306 206.508 180.306C206.197 180.306 205.96 180.391 205.795 180.56C205.635 180.729 205.528 180.953 205.473 181.232C205.422 181.506 205.397 181.842 205.397 182.24C205.397 182.652 205.422 182.997 205.473 183.276C205.528 183.554 205.635 183.778 205.795 183.948C205.96 184.117 206.197 184.201 206.508 184.201C206.814 184.201 207.048 184.117 207.208 183.948C207.372 183.778 207.48 183.554 207.53 183.276C207.585 182.997 207.612 182.652 207.612 182.24Z" fill="#615E83"/>
<path d="M266.507 180.382V179.813H267.796V184.771H267.165V180.382H266.507ZM272.043 180.992C271.942 180.485 271.629 180.231 271.103 180.231C270.696 180.231 270.392 180.389 270.191 180.704C269.99 181.015 269.892 181.529 269.896 182.247C270.001 182.009 270.175 181.824 270.417 181.692C270.664 181.554 270.939 181.486 271.24 181.486C271.711 181.486 272.086 181.632 272.365 181.925C272.648 182.217 272.79 182.622 272.79 183.138C272.79 183.449 272.728 183.728 272.605 183.975C272.486 184.222 272.303 184.419 272.056 184.565C271.814 184.711 271.519 184.784 271.172 184.784C270.701 184.784 270.333 184.679 270.068 184.469C269.803 184.258 269.617 183.968 269.512 183.598C269.407 183.228 269.355 182.77 269.355 182.226C269.355 180.549 269.94 179.71 271.11 179.71C271.558 179.71 271.91 179.831 272.166 180.073C272.422 180.316 272.573 180.622 272.619 180.992H272.043ZM271.11 182.014C270.913 182.014 270.728 182.055 270.555 182.137C270.381 182.215 270.239 182.336 270.129 182.501C270.024 182.661 269.972 182.857 269.972 183.09C269.972 183.438 270.072 183.721 270.273 183.941C270.475 184.156 270.763 184.263 271.137 184.263C271.457 184.263 271.711 184.165 271.899 183.968C272.091 183.767 272.187 183.497 272.187 183.159C272.187 182.802 272.095 182.524 271.912 182.322C271.729 182.117 271.462 182.014 271.11 182.014ZM274.345 184.812C274.226 184.812 274.126 184.771 274.043 184.688C273.961 184.606 273.92 184.505 273.92 184.386C273.92 184.268 273.961 184.167 274.043 184.085C274.126 184.002 274.226 183.961 274.345 183.961C274.459 183.961 274.555 184.002 274.633 184.085C274.715 184.167 274.756 184.268 274.756 184.386C274.756 184.505 274.715 184.606 274.633 184.688C274.555 184.771 274.459 184.812 274.345 184.812ZM274.345 181.877C274.226 181.877 274.126 181.836 274.043 181.753C273.961 181.671 273.92 181.57 273.92 181.452C273.92 181.333 273.961 181.232 274.043 181.15C274.126 181.068 274.226 181.026 274.345 181.026C274.459 181.026 274.555 181.068 274.633 181.15C274.715 181.232 274.756 181.333 274.756 181.452C274.756 181.57 274.715 181.671 274.633 181.753C274.555 181.836 274.459 181.877 274.345 181.877ZM275.915 182.24C275.915 181.454 276.043 180.841 276.299 180.402C276.555 179.959 277.003 179.737 277.643 179.737C278.278 179.737 278.724 179.959 278.98 180.402C279.236 180.841 279.364 181.454 279.364 182.24C279.364 183.04 279.236 183.662 278.98 184.105C278.724 184.549 278.278 184.771 277.643 184.771C277.003 184.771 276.555 184.549 276.299 184.105C276.043 183.662 275.915 183.04 275.915 182.24ZM278.747 182.24C278.747 181.842 278.719 181.506 278.664 181.232C278.614 180.953 278.507 180.729 278.342 180.56C278.182 180.391 277.949 180.306 277.643 180.306C277.332 180.306 277.094 180.391 276.929 180.56C276.769 180.729 276.662 180.953 276.607 181.232C276.557 181.506 276.532 181.842 276.532 182.24C276.532 182.652 276.557 182.997 276.607 183.276C276.662 183.554 276.769 183.778 276.929 183.948C277.094 184.117 277.332 184.201 277.643 184.201C277.949 184.201 278.182 184.117 278.342 183.948C278.507 183.778 278.614 183.554 278.664 183.276C278.719 182.997 278.747 182.652 278.747 182.24ZM280.632 182.24C280.632 181.454 280.76 180.841 281.016 180.402C281.272 179.959 281.72 179.737 282.36 179.737C282.995 179.737 283.441 179.959 283.697 180.402C283.953 180.841 284.081 181.454 284.081 182.24C284.081 183.04 283.953 183.662 283.697 184.105C283.441 184.549 282.995 184.771 282.36 184.771C281.72 184.771 281.272 184.549 281.016 184.105C280.76 183.662 280.632 183.04 280.632 182.24ZM283.464 182.24C283.464 181.842 283.437 181.506 283.382 181.232C283.331 180.953 283.224 180.729 283.059 180.56C282.899 180.391 282.666 180.306 282.36 180.306C282.049 180.306 281.811 180.391 281.647 180.56C281.487 180.729 281.379 180.953 281.325 181.232C281.274 181.506 281.249 181.842 281.249 182.24C281.249 182.652 281.274 182.997 281.325 183.276C281.379 183.554 281.487 183.778 281.647 183.948C281.811 184.117 282.049 184.201 282.36 184.201C282.666 184.201 282.899 184.117 283.059 183.948C283.224 183.778 283.331 183.554 283.382 183.276C283.437 182.997 283.464 182.652 283.464 182.24Z" fill="#615E83"/>
<path d="M341.979 180.382V179.813H343.268V184.771H342.638V180.382H341.979ZM345.657 182.192C345.401 182.092 345.204 181.945 345.067 181.753C344.93 181.561 344.862 181.328 344.862 181.054C344.862 180.807 344.923 180.585 345.047 180.389C345.17 180.188 345.353 180.03 345.595 179.916C345.842 179.797 346.139 179.737 346.487 179.737C346.834 179.737 347.129 179.797 347.371 179.916C347.618 180.03 347.803 180.188 347.927 180.389C348.055 180.585 348.119 180.807 348.119 181.054C348.119 181.319 348.048 181.552 347.906 181.753C347.764 181.95 347.57 182.096 347.323 182.192C347.607 182.279 347.831 182.432 347.995 182.652C348.164 182.866 348.249 183.127 348.249 183.433C348.249 183.73 348.176 183.991 348.03 184.215C347.883 184.435 347.675 184.606 347.406 184.729C347.14 184.848 346.834 184.908 346.487 184.908C346.139 184.908 345.833 184.848 345.568 184.729C345.307 184.606 345.104 184.435 344.958 184.215C344.811 183.991 344.738 183.73 344.738 183.433C344.738 183.127 344.82 182.864 344.985 182.645C345.15 182.425 345.374 182.274 345.657 182.192ZM347.515 181.129C347.515 180.85 347.424 180.636 347.241 180.485C347.058 180.334 346.807 180.258 346.487 180.258C346.171 180.258 345.922 180.334 345.739 180.485C345.556 180.636 345.465 180.853 345.465 181.136C345.465 181.392 345.559 181.598 345.746 181.753C345.938 181.909 346.185 181.986 346.487 181.986C346.793 181.986 347.04 181.909 347.227 181.753C347.419 181.593 347.515 181.385 347.515 181.129ZM346.487 182.466C346.148 182.466 345.872 182.546 345.657 182.706C345.442 182.862 345.335 183.097 345.335 183.413C345.335 183.705 345.438 183.941 345.643 184.119C345.854 184.297 346.135 184.386 346.487 184.386C346.839 184.386 347.118 184.297 347.323 184.119C347.529 183.941 347.632 183.705 347.632 183.413C347.632 183.106 347.527 182.873 347.316 182.713C347.106 182.549 346.83 182.466 346.487 182.466ZM349.791 184.812C349.672 184.812 349.572 184.771 349.489 184.688C349.407 184.606 349.366 184.505 349.366 184.386C349.366 184.268 349.407 184.167 349.489 184.085C349.572 184.002 349.672 183.961 349.791 183.961C349.905 183.961 350.001 184.002 350.079 184.085C350.161 184.167 350.202 184.268 350.202 184.386C350.202 184.505 350.161 184.606 350.079 184.688C350.001 184.771 349.905 184.812 349.791 184.812ZM349.791 181.877C349.672 181.877 349.572 181.836 349.489 181.753C349.407 181.671 349.366 181.57 349.366 181.452C349.366 181.333 349.407 181.232 349.489 181.15C349.572 181.068 349.672 181.026 349.791 181.026C349.905 181.026 350.001 181.068 350.079 181.15C350.161 181.232 350.202 181.333 350.202 181.452C350.202 181.57 350.161 181.671 350.079 181.753C350.001 181.836 349.905 181.877 349.791 181.877ZM351.361 182.24C351.361 181.454 351.489 180.841 351.745 180.402C352.001 179.959 352.449 179.737 353.089 179.737C353.724 179.737 354.17 179.959 354.426 180.402C354.682 180.841 354.81 181.454 354.81 182.24C354.81 183.04 354.682 183.662 354.426 184.105C354.17 184.549 353.724 184.771 353.089 184.771C352.449 184.771 352.001 184.549 351.745 184.105C351.489 183.662 351.361 183.04 351.361 182.24ZM354.193 182.24C354.193 181.842 354.165 181.506 354.11 181.232C354.06 180.953 353.953 180.729 353.788 180.56C353.628 180.391 353.395 180.306 353.089 180.306C352.778 180.306 352.54 180.391 352.375 180.56C352.215 180.729 352.108 180.953 352.053 181.232C352.003 181.506 351.978 181.842 351.978 182.24C351.978 182.652 352.003 182.997 352.053 183.276C352.108 183.554 352.215 183.778 352.375 183.948C352.54 184.117 352.778 184.201 353.089 184.201C353.395 184.201 353.628 184.117 353.788 183.948C353.953 183.778 354.06 183.554 354.11 183.276C354.165 182.997 354.193 182.652 354.193 182.24ZM356.078 182.24C356.078 181.454 356.206 180.841 356.462 180.402C356.718 179.959 357.166 179.737 357.806 179.737C358.441 179.737 358.887 179.959 359.143 180.402C359.399 180.841 359.527 181.454 359.527 182.24C359.527 183.04 359.399 183.662 359.143 184.105C358.887 184.549 358.441 184.771 357.806 184.771C357.166 184.771 356.718 184.549 356.462 184.105C356.206 183.662 356.078 183.04 356.078 182.24ZM358.91 182.24C358.91 181.842 358.882 181.506 358.828 181.232C358.777 180.953 358.67 180.729 358.505 180.56C358.345 180.391 358.112 180.306 357.806 180.306C357.495 180.306 357.257 180.391 357.093 180.56C356.933 180.729 356.825 180.953 356.77 181.232C356.72 181.506 356.695 181.842 356.695 182.24C356.695 182.652 356.72 182.997 356.77 183.276C356.825 183.554 356.933 183.778 357.093 183.948C357.257 184.117 357.495 184.201 357.806 184.201C358.112 184.201 358.345 184.117 358.505 183.948C358.67 183.778 358.777 183.554 358.828 183.276C358.882 182.997 358.91 182.652 358.91 182.24Z" fill="#615E83"/>
<line x1="117.163" y1="166.648" x2="117.163" y2="53.7473" stroke="#E5E5EF" stroke-width="0.73471" stroke-linecap="round" stroke-dasharray="1.96 3.43"/>
<line x1="199.387" y1="166.648" x2="199.387" y2="53.7473" stroke="#E5E5EF" stroke-width="0.73471" stroke-linecap="round" stroke-dasharray="1.96 3.43"/>
<line x1="281.61" y1="166.648" x2="281.61" y2="53.7473" stroke="#E5E5EF" stroke-width="0.73471" stroke-linecap="round" stroke-dasharray="1.96 3.43"/>
<g style="mix-blend-mode:multiply" opacity="0.33">
<path d="M17.0764 142.199C14.9586 141.94 11.3405 143.17 9.79614 143.817V202.281H389.675V135.296C387.855 135.296 388.186 135.296 385.208 133.139C382.23 130.982 381.403 130.011 376.439 131.629C371.476 133.247 370.814 131.629 367.505 128.717C364.196 125.805 362.541 126.668 358.57 127.638C354.599 128.609 353.938 124.618 349.715 121.922C345.492 119.226 343.68 125.158 342.025 129.364C340.38 133.545 336.611 137.407 333.154 140.948L333.091 141.013C329.616 144.572 324.487 139.611 322.833 137.454C321.178 135.296 320.682 134.973 315.718 135.296C310.754 135.62 309.265 134.218 307.611 131.629C305.956 129.041 306.287 129.688 302.482 127.638C298.676 125.589 296.857 126.991 294.706 126.668C292.555 126.344 290.073 122.569 288.418 120.412C286.764 118.255 286.929 116.745 281.966 117.716C277.074 118.672 276.039 117.534 273.475 114.712L273.362 114.588C270.715 111.675 268.895 110.813 263.601 109.303C258.306 107.793 259.961 108.44 255.99 109.303C252.019 110.166 250.033 108.979 247.552 106.93C245.07 104.88 245.897 100.782 239.114 102.4C232.33 104.018 230.841 100.135 229.352 96.0361C227.863 91.9375 223.726 91.9375 219.59 92.8004C215.454 93.6632 213.634 87.7311 213.303 83.6325C212.972 79.5339 212.641 77.916 207.843 77.916C203.045 77.916 203.376 84.3874 201.556 92.8004C199.736 101.213 200.729 101.429 195.269 101.753C189.809 102.076 189.809 102.076 186.831 108.44C183.852 114.803 182.694 114.588 177.4 114.588C172.105 114.588 170.12 119.657 168.3 124.942C166.502 130.164 162.603 128.752 156.764 126.636L156.553 126.56C150.596 124.403 149.273 124.942 145.467 117.284C141.662 109.626 136.864 113.186 134.713 117.931C132.562 122.677 131.404 123.324 127.764 124.942C124.124 126.56 120.484 126.991 119.161 129.903C117.837 132.816 113.37 135.188 109.564 133.463C105.759 131.737 102.946 132.168 100.795 135.188C98.6444 138.208 96.4935 138.101 94.0117 138.424C91.53 138.748 86.2355 138.424 83.5882 141.444C80.941 144.464 77.301 143.817 75.3156 143.17C73.3302 142.523 69.1939 142.199 67.8702 143.17C66.5466 144.141 62.5758 147.592 58.1883 142.199C53.8007 136.806 48.8432 140.366 47.8505 141.444L47.8108 141.487C46.7968 142.59 44.4937 145.094 40.9015 143.817C37.2615 142.523 34.2834 142.199 31.4707 143.817C28.658 145.435 26.0108 146.082 24.0253 145.111C22.0399 144.141 19.7236 142.523 17.0764 142.199Z" fill="url(#paint1_linear_1072_4139)"/>
</g>
<path d="M11.2856 143.285C12.818 142.643 16.408 141.423 18.5092 141.68C21.1358 142.001 23.4341 143.606 25.4041 144.569C27.3741 145.533 30.0007 144.891 32.7915 143.285C35.5823 141.68 38.5373 142.001 42.1489 143.285C45.7605 144.569 48.0588 142.001 49.0438 140.931C50.0288 139.861 54.9478 136.329 59.3011 141.68C63.6545 147.031 67.5944 143.606 68.9078 142.643C70.2211 141.68 74.3252 142.001 76.2952 142.643C78.2651 143.285 81.8768 143.927 84.5034 140.931C87.13 137.934 92.3833 138.255 94.8458 137.934C97.3083 137.613 99.4424 137.72 101.577 134.724C103.711 131.727 106.501 131.299 110.277 133.011C114.053 134.724 118.486 132.369 119.799 129.48C121.112 126.59 124.724 126.162 128.335 124.557C131.947 122.952 133.096 122.31 135.23 117.601C137.364 112.892 142.125 109.36 145.901 116.959C149.677 124.557 150.99 124.022 156.9 126.162C162.81 128.303 166.75 129.801 168.556 124.557C170.362 119.313 172.332 114.283 177.585 114.283C182.838 114.283 183.987 114.497 186.942 108.183C189.897 101.869 189.897 101.869 195.315 101.548C200.732 101.227 199.747 101.013 201.553 92.6655C203.359 84.318 203.03 77.897 207.791 77.897C212.552 77.897 212.88 79.5022 213.209 83.5689C213.537 87.6356 215.343 93.5216 219.447 92.6655C223.551 91.8094 227.655 91.8094 229.133 95.876C230.61 99.9427 232.088 103.795 238.818 102.19C245.549 100.585 244.728 104.652 247.191 106.685C249.653 108.718 251.623 109.896 255.563 109.039C259.503 108.183 257.861 107.541 263.115 109.039C268.368 110.538 270.174 111.394 272.8 114.283C275.427 117.173 276.412 118.35 281.337 117.387C286.262 116.424 286.098 117.922 287.739 120.062C289.381 122.203 291.843 125.948 293.978 126.269C296.112 126.59 297.918 125.199 301.693 127.232C305.469 129.266 305.141 128.624 306.782 131.192C308.424 133.761 309.902 135.152 314.827 134.831C319.751 134.51 320.244 134.831 321.886 136.971C323.527 139.111 328.616 144.034 332.064 140.503C335.511 136.971 339.287 133.118 340.929 128.945C342.57 124.771 344.369 118.885 348.559 121.56C352.749 124.236 353.405 128.196 357.345 127.232C361.285 126.269 362.927 125.413 366.21 128.303C369.493 131.192 370.15 132.797 375.075 131.192C380 129.587 380.821 130.55 383.776 132.69C386.731 134.831 386.402 134.831 388.208 134.831" stroke="#1BAAC7" stroke-width="1.95923" stroke-linecap="round"/>
<line x1="139.957" y1="112.482" x2="139.957" y2="166.525" stroke="#9291A5" stroke-width="0.979613" stroke-linecap="round" stroke-dasharray="3.43 3.43"/>
<g filter="url(#filter2_d_1072_4139)">
<circle cx="140" cy="110" r="6" fill="#1BAAC7"/>
<circle cx="140" cy="110" r="5.02039" stroke="white" stroke-width="1.95923"/>
</g>
<g filter="url(#filter3_d_1072_4139)">
<path d="M164.542 95.0063C164.542 97.1705 162.787 98.9253 160.623 98.9253L146.294 98.9253C146.246 98.9802 146.191 99.0339 146.126 99.0806L140.928 102.824C140.586 103.07 140.125 103.07 139.783 102.824L134.584 99.0806C134.52 99.034 134.466 98.9801 134.417 98.9253L120.088 98.9253C117.924 98.9253 116.169 97.1704 116.169 95.0063L116.169 82.271C116.17 80.1071 117.924 78.353 120.088 78.353L160.623 78.353C162.787 78.353 164.541 80.1071 164.542 82.271L164.542 95.0063Z" fill="white"/>
</g>
<path d="M137.277 86.2854H134.652V87.8449C134.761 87.6986 134.923 87.5759 135.138 87.4766C135.357 87.3773 135.59 87.3277 135.835 87.3277C136.274 87.3277 136.629 87.4217 136.901 87.6098C137.178 87.7979 137.374 88.0356 137.489 88.323C137.609 88.6103 137.669 88.9134 137.669 89.2321C137.669 89.6187 137.593 89.9635 137.442 90.2665C137.295 90.5643 137.073 90.7994 136.776 90.9719C136.483 91.1443 136.122 91.2305 135.694 91.2305C135.125 91.2305 134.667 91.0894 134.323 90.8073C133.978 90.5251 133.771 90.1516 133.703 89.6866H134.573C134.631 89.9322 134.759 90.1281 134.957 90.2744C135.156 90.4154 135.404 90.486 135.702 90.486C136.073 90.486 136.35 90.3736 136.533 90.149C136.721 89.9243 136.815 89.6265 136.815 89.2556C136.815 88.8794 136.721 88.592 136.533 88.3935C136.345 88.1897 136.068 88.0879 135.702 88.0879C135.446 88.0879 135.229 88.1532 135.051 88.2838C134.879 88.4092 134.754 88.5816 134.675 88.801H133.829V85.5017H137.277V86.2854ZM142.22 86.207L140.041 91.2305H139.14L141.342 86.3011H138.442V85.5409H142.22V86.207ZM142.875 90.0393V89.3653L145.508 85.5879H146.589V89.2634H147.318V90.0393H146.589V91.2305H145.712V90.0393H142.875ZM145.751 86.497L143.901 89.2634H145.751V86.497Z" fill="#1E1B39"/>
<rect opacity="0.3" x="11.322" y="12.4697" width="52" height="7" rx="3.5" fill="#D9D9D9"/>
<rect opacity="0.3" x="11.322" y="25.4697" width="115" height="12" rx="6" fill="#D9D9D9"/>
<path d="M361.89 21.6598V28.0718H361.114V22.4738H361.076L359.511 23.5132V22.7243L361.114 21.6598H361.89ZM363.734 28.0718V27.5082L365.851 25.1914C366.099 24.92 366.304 24.6842 366.464 24.4838C366.625 24.2813 366.744 24.0914 366.821 23.914C366.901 23.7345 366.94 23.5466 366.94 23.3504C366.94 23.125 366.886 22.9299 366.777 22.765C366.671 22.6001 366.525 22.4727 366.339 22.383C366.153 22.2932 365.945 22.2484 365.713 22.2484C365.467 22.2484 365.252 22.2995 365.068 22.4018C364.886 22.502 364.746 22.6429 364.645 22.8244C364.547 23.006 364.498 23.2189 364.498 23.4631H363.759C363.759 23.0874 363.846 22.7577 364.019 22.4738C364.192 22.1899 364.428 21.9687 364.727 21.81C365.027 21.6514 365.364 21.5721 365.738 21.5721C366.114 21.5721 366.447 21.6514 366.737 21.81C367.027 21.9687 367.254 22.1826 367.419 22.4519C367.584 22.7211 367.667 23.0206 367.667 23.3504C367.667 23.5863 367.624 23.8169 367.538 24.0424C367.455 24.2657 367.309 24.5151 367.1 24.7906C366.893 25.0641 366.606 25.398 366.239 25.7925L364.799 27.3329V27.383H367.779V28.0718H363.734ZM369.623 28.1219C369.469 28.1219 369.336 28.0666 369.226 27.9559C369.115 27.8453 369.06 27.7128 369.06 27.5583C369.06 27.4039 369.115 27.2713 369.226 27.1607C369.336 27.0501 369.469 26.9948 369.623 26.9948C369.778 26.9948 369.91 27.0501 370.021 27.1607C370.132 27.2713 370.187 27.4039 370.187 27.5583C370.187 27.6606 370.161 27.7545 370.109 27.8401C370.059 27.9257 369.991 27.9945 369.905 28.0467C369.822 28.0968 369.728 28.1219 369.623 28.1219ZM371.572 28.0718L374.439 22.3986V22.3486H371.133V21.6598H375.241V22.3861L372.386 28.0718H371.572ZM378.326 28.1594C377.958 28.1594 377.627 28.0864 377.333 27.9403C377.039 27.7942 376.803 27.5938 376.626 27.3392C376.448 27.0845 376.351 26.7944 376.334 26.4688H377.086C377.115 26.7589 377.247 26.9989 377.48 27.1889C377.716 27.3767 377.998 27.4707 378.326 27.4707C378.589 27.4707 378.822 27.4091 379.027 27.2859C379.234 27.1628 379.395 26.9937 379.512 26.7787C379.631 26.5617 379.691 26.3164 379.691 26.043C379.691 25.7633 379.629 25.5139 379.506 25.2947C379.385 25.0735 379.218 24.8992 379.005 24.7718C378.792 24.6445 378.549 24.5798 378.276 24.5777C378.079 24.5756 377.878 24.6059 377.671 24.6685C377.465 24.7291 377.295 24.8073 377.161 24.9033L376.435 24.8157L376.823 21.6598H380.154V22.3486H377.474L377.249 24.2396H377.286C377.418 24.1352 377.583 24.0486 377.781 23.9797C377.979 23.9109 378.186 23.8764 378.401 23.8764C378.793 23.8764 379.143 23.9703 379.45 24.1582C379.759 24.344 380.001 24.5986 380.176 24.9221C380.353 25.2456 380.442 25.6151 380.442 26.0305C380.442 26.4396 380.35 26.8048 380.167 27.1263C379.985 27.4456 379.735 27.6982 379.415 27.8839C379.096 28.0676 378.733 28.1594 378.326 28.1594ZM384.954 26.8695V26.5314C384.954 26.2976 385.002 26.0837 385.099 25.8896C385.197 25.6934 385.339 25.5368 385.524 25.4199C385.712 25.301 385.94 25.2415 386.207 25.2415C386.478 25.2415 386.706 25.301 386.889 25.4199C387.073 25.5368 387.212 25.6934 387.306 25.8896C387.4 26.0837 387.447 26.2976 387.447 26.5314V26.8695C387.447 27.1033 387.399 27.3183 387.303 27.5145C387.209 27.7086 387.069 27.8651 386.883 27.9841C386.699 28.101 386.474 28.1594 386.207 28.1594C385.935 28.1594 385.707 28.101 385.521 27.9841C385.335 27.8651 385.195 27.7086 385.099 27.5145C385.002 27.3183 384.954 27.1033 384.954 26.8695ZM385.593 26.5314V26.8695C385.593 27.0636 385.639 27.2379 385.731 27.3924C385.823 27.5447 385.981 27.6209 386.207 27.6209C386.426 27.6209 386.58 27.5447 386.67 27.3924C386.762 27.2379 386.808 27.0636 386.808 26.8695V26.5314C386.808 26.3373 386.764 26.164 386.676 26.0117C386.589 25.8572 386.432 25.78 386.207 25.78C385.988 25.78 385.83 25.8572 385.734 26.0117C385.64 26.164 385.593 26.3373 385.593 26.5314ZM381.761 23.2001V22.862C381.761 22.6282 381.809 22.4143 381.905 22.2202C382.003 22.024 382.145 21.8674 382.331 21.7506C382.519 21.6316 382.746 21.5721 383.013 21.5721C383.285 21.5721 383.512 21.6316 383.696 21.7506C383.88 21.8674 384.018 22.024 384.112 22.2202C384.206 22.4143 384.253 22.6282 384.253 22.862V23.2001C384.253 23.4339 384.205 23.6489 384.109 23.8451C384.015 24.0392 383.875 24.1958 383.69 24.3147C383.506 24.4316 383.281 24.4901 383.013 24.4901C382.742 24.4901 382.513 24.4316 382.328 24.3147C382.142 24.1958 382.001 24.0392 381.905 23.8451C381.809 23.6489 381.761 23.4339 381.761 23.2001ZM382.4 22.862V23.2001C382.4 23.3943 382.446 23.5685 382.537 23.723C382.629 23.8754 382.788 23.9516 383.013 23.9516C383.233 23.9516 383.387 23.8754 383.477 23.723C383.569 23.5685 383.614 23.3943 383.614 23.2001V22.862C383.614 22.6679 383.571 22.4947 383.483 22.3423C383.395 22.1878 383.239 22.1106 383.013 22.1106C382.794 22.1106 382.637 22.1878 382.541 22.3423C382.447 22.4947 382.4 22.6679 382.4 22.862ZM381.999 28.0718L386.407 21.6598H387.121L382.713 28.0718H381.999Z" fill="#34C759"/>
<circle cx="348.939" cy="24.9697" r="5.32814" fill="#E9FBEB"/>
<path d="M350.135 24.4019L349.992 24.5449C349.227 25.3099 348.462 26.0751 347.697 26.8402C347.542 26.995 347.359 27.0289 347.176 26.9444C347 26.8617 346.904 26.7102 346.929 26.5271C346.952 26.3948 347.015 26.2725 347.108 26.1762C347.848 25.423 348.598 24.6794 349.344 23.9329L349.486 23.7915C349.44 23.7837 349.394 23.7783 349.348 23.7754C349.048 23.7741 348.749 23.777 348.45 23.7732C348.213 23.7705 348.049 23.6074 348.046 23.3808C348.043 23.1337 348.192 22.968 348.439 22.9664C349.128 22.962 349.816 22.9614 350.504 22.9648C350.782 22.9664 350.938 23.1167 350.943 23.3918C350.956 24.0744 350.964 24.7572 350.966 25.44C350.967 25.6902 350.804 25.8374 350.555 25.8354C350.321 25.8332 350.166 25.6824 350.159 25.4393C350.152 25.1507 350.151 24.8618 350.147 24.573C350.146 24.5275 350.14 24.4829 350.135 24.4019Z" fill="#34C759"/>
<line x1="11.322" y1="45.0617" x2="388.186" y2="45.0617" stroke="#E5E5EF" stroke-width="0.489807"/>
<defs>
<filter id="filter0_d_1072_4139" x="139.75" y="130.778" width="16.8716" height="15.1944" filterUnits="userSpaceOnUse" color-interpolation-filters="sRGB">
<feFlood flood-opacity="0" result="BackgroundImageFix"/>
<feColorMatrix in="SourceAlpha" type="matrix" values="0 0 0 0 0 0 0 0 0 0 0 0 0 0 0 0 0 0 127 0" result="hardAlpha"/>
<feOffset dy="3.37649"/>
<feGaussianBlur stdDeviation="1.68825"/>
<feComposite in2="hardAlpha" operator="out"/>
<feColorMatrix type="matrix" values="0 0 0 0 0.0509804 0 0 0 0 0.0392157 0 0 0 0 0.172549 0 0 0 0.08 0"/>
<feBlend mode="normal" in2="BackgroundImageFix" result="effect1_dropShadow_1072_4139"/>
<feBlend mode="normal" in="SourceGraphic" in2="effect1_dropShadow_1072_4139" result="shape"/>
</filter>
<filter id="filter1_d_1072_4139" x="120.975" y="100.459" width="55.1866" height="34.7511" filterUnits="userSpaceOnUse" color-interpolation-filters="sRGB">
<feFlood flood-opacity="0" result="BackgroundImageFix"/>
<feColorMatrix in="SourceAlpha" type="matrix" values="0 0 0 0 0 0 0 0 0 0 0 0 0 0 0 0 0 0 127 0" result="hardAlpha"/>
<feOffset dy="0.844123"/>
<feGaussianBlur stdDeviation="3.37649"/>
<feComposite in2="hardAlpha" operator="out"/>
<feColorMatrix type="matrix" values="0 0 0 0 0.0509804 0 0 0 0 0.0392157 0 0 0 0 0.172549 0 0 0 0.12 0"/>
<feBlend mode="normal" in2="BackgroundImageFix" result="effect1_dropShadow_1072_4139"/>
<feBlend mode="normal" in="SourceGraphic" in2="effect1_dropShadow_1072_4139" result="shape"/>
</filter>
<filter id="filter2_d_1072_4139" x="130.082" y="104" width="19.8369" height="19.8369" filterUnits="userSpaceOnUse" color-interpolation-filters="sRGB">
<feFlood flood-opacity="0" result="BackgroundImageFix"/>
<feColorMatrix in="SourceAlpha" type="matrix" values="0 0 0 0 0 0 0 0 0 0 0 0 0 0 0 0 0 0 127 0" result="hardAlpha"/>
<feOffset dy="3.91845"/>
<feGaussianBlur stdDeviation="1.95923"/>
<feComposite in2="hardAlpha" operator="out"/>
<feColorMatrix type="matrix" values="0 0 0 0 0.0509804 0 0 0 0 0.0392157 0 0 0 0 0.172549 0 0 0 0.08 0"/>
<feBlend mode="normal" in2="BackgroundImageFix" result="effect1_dropShadow_1072_4139"/>
<feBlend mode="normal" in="SourceGraphic" in2="effect1_dropShadow_1072_4139" result="shape"/>
</filter>
<filter id="filter3_d_1072_4139" x="108.333" y="71.4957" width="64.0459" height="40.3291" filterUnits="userSpaceOnUse" color-interpolation-filters="sRGB">
<feFlood flood-opacity="0" result="BackgroundImageFix"/>
<feColorMatrix in="SourceAlpha" type="matrix" values="0 0 0 0 0 0 0 0 0 0 0 0 0 0 0 0 0 0 127 0" result="hardAlpha"/>
<feOffset dy="0.979613"/>
<feGaussianBlur stdDeviation="3.91845"/>
<feComposite in2="hardAlpha" operator="out"/>
<feColorMatrix type="matrix" values="0 0 0 0 0.0509804 0 0 0 0 0.0392157 0 0 0 0 0.172549 0 0 0 0.12 0"/>
<feBlend mode="normal" in2="BackgroundImageFix" result="effect1_dropShadow_1072_4139"/>
<feBlend mode="normal" in="SourceGraphic" in2="effect1_dropShadow_1072_4139" result="shape"/>
</filter>
<linearGradient id="paint0_linear_1072_4139" x1="199.736" y1="105.991" x2="199.736" y2="202.959" gradientUnits="userSpaceOnUse">
<stop stop-color="#1BAAC7" stop-opacity="0.7"/>
<stop offset="0.46679" stop-color="#1BAAC7" stop-opacity="0.3"/>
<stop offset="1" stop-color="white" stop-opacity="0"/>
</linearGradient>
<linearGradient id="paint1_linear_1072_4139" x1="199.736" y1="77.916" x2="199.736" y2="190.448" gradientUnits="userSpaceOnUse">
<stop stop-color="#1BAAC7" stop-opacity="0.7"/>
<stop offset="0.46679" stop-color="#1BAAC7" stop-opacity="0.3"/>
<stop offset="1" stop-color="white" stop-opacity="0"/>
</linearGradient>
</defs>
</svg>
