<svg width="67" height="66" viewBox="0 0 67 66" fill="none" xmlns="http://www.w3.org/2000/svg">
<path opacity="0.4" d="M22.2349 6.875H33.895C34.6481 6.87502 35.27 7.4969 35.27 8.25V16.1973C35.27 23.4742 41.1933 29.3975 48.4702 29.3975H56.4175C57.1706 29.3975 57.7925 30.0194 57.7925 30.7725V45.1826C57.7925 49.754 56.2081 53.2059 53.7437 55.5205C51.2656 57.8479 47.7905 59.125 43.8501 59.125H22.2349C18.2945 59.125 14.8194 57.8479 12.3413 55.5205C9.87684 53.2059 8.29251 49.754 8.29248 45.1826V20.8174C8.29251 16.246 9.87685 12.7941 12.3413 10.4795C14.8194 8.15207 18.2945 6.87503 22.2349 6.875Z" fill="#1BAAC7" stroke="#1BAAC7" stroke-width="2.75"/>
<path d="M42.0334 6.95166C42.1858 6.89182 42.3391 6.9067 42.467 7.00342L42.5198 7.04932C44.5538 9.0833 47.3431 11.8935 50.1194 14.6938L57.6418 22.2817L57.6448 22.2847C57.7158 22.3557 57.7357 22.414 57.7424 22.4556C57.7504 22.5052 57.745 22.5703 57.7141 22.6401C57.6535 22.7769 57.5251 22.8794 57.3245 22.8794C54.2145 22.8794 50.593 22.8795 47.9895 22.8521H47.9749C44.5454 22.8521 41.7876 20.1047 41.7874 16.8853V7.2876C41.7874 7.19265 41.8138 7.13343 41.8459 7.08936C41.8833 7.03821 41.9463 6.98595 42.0334 6.95166Z" fill="#1BAAC7" stroke="#1BAAC7" stroke-width="2.75"/>
<path d="M20.6675 35.0625H37.1675C37.5356 35.0625 37.855 35.3819 37.855 35.75C37.855 36.1181 37.5356 36.4375 37.1675 36.4375H20.6675C20.2994 36.4375 19.98 36.1181 19.98 35.75C19.98 35.3819 20.2994 35.0625 20.6675 35.0625Z" fill="#1BAAC7" stroke="#1BAAC7" stroke-width="2.75"/>
<path d="M20.6675 46.0625H31.6675C32.0356 46.0625 32.355 46.3819 32.355 46.75C32.355 47.1181 32.0356 47.4375 31.6675 47.4375H20.6675C20.2994 47.4375 19.98 47.1181 19.98 46.75C19.98 46.3819 20.2994 46.0625 20.6675 46.0625Z" fill="#1BAAC7" stroke="#1BAAC7" stroke-width="2.75"/>
</svg>
