<svg width="24" height="25" viewBox="0 0 24 25" fill="none" xmlns="http://www.w3.org/2000/svg">
<path d="M15 2.1275V12.1275C15 13.2275 14.1 14.1275 13 14.1275H2V7.7475C2.73 8.6175 3.85003 9.1575 5.09003 9.1275C6.10003 9.1075 7.01 8.7175 7.69 8.0675C8 7.8075 8.26002 7.47749 8.46002 7.11749C8.82002 6.50749 9.02 5.78748 9 5.03748C8.97 3.86748 8.45001 2.8375 7.64001 2.1275H15Z" stroke="white" stroke-width="1.5" stroke-linecap="round" stroke-linejoin="round"/>
<path d="M22 14.1275V17.1275C22 18.7875 20.66 20.1275 19 20.1275H18C18 19.0275 17.1 18.1275 16 18.1275C14.9 18.1275 14 19.0275 14 20.1275H10C10 19.0275 9.1 18.1275 8 18.1275C6.9 18.1275 6 19.0275 6 20.1275H5C3.34 20.1275 2 18.7875 2 17.1275V14.1275H13C14.1 14.1275 15 13.2275 15 12.1275V5.1275H16.84C17.56 5.1275 18.22 5.51751 18.58 6.13751L20.29 9.1275H19C18.45 9.1275 18 9.5775 18 10.1275V13.1275C18 13.6775 18.45 14.1275 19 14.1275H22Z" stroke="white" stroke-width="1.5" stroke-linecap="round" stroke-linejoin="round"/>
<path d="M8 22.1275C9.10457 22.1275 10 21.2321 10 20.1275C10 19.0229 9.10457 18.1275 8 18.1275C6.89543 18.1275 6 19.0229 6 20.1275C6 21.2321 6.89543 22.1275 8 22.1275Z" stroke="white" stroke-width="1.5" stroke-linecap="round" stroke-linejoin="round"/>
<path d="M16 22.1275C17.1046 22.1275 18 21.2321 18 20.1275C18 19.0229 17.1046 18.1275 16 18.1275C14.8954 18.1275 14 19.0229 14 20.1275C14 21.2321 14.8954 22.1275 16 22.1275Z" stroke="white" stroke-width="1.5" stroke-linecap="round" stroke-linejoin="round"/>
<path d="M22 12.1275V14.1275H19C18.45 14.1275 18 13.6775 18 13.1275V10.1275C18 9.5775 18.45 9.1275 19 9.1275H20.29L22 12.1275Z" stroke="white" stroke-width="1.5" stroke-linecap="round" stroke-linejoin="round"/>
<path d="M9 5.1275C9 6.3275 8.47001 7.3975 7.64001 8.1275C6.93001 8.7475 6.01 9.1275 5 9.1275C2.79 9.1275 1 7.3375 1 5.1275C1 3.8675 1.58 2.73751 2.5 2.00751C3.19 1.45751 4.06 1.1275 5 1.1275C7.21 1.1275 9 2.9175 9 5.1275Z" stroke="white" stroke-width="1.5" stroke-miterlimit="10" stroke-linecap="round" stroke-linejoin="round"/>
<path d="M5.25 3.8775V5.3775L4 6.1275" stroke="white" stroke-width="1.5" stroke-miterlimit="10" stroke-linecap="round" stroke-linejoin="round"/>
</svg>
