<svg width="67" height="66" viewBox="0 0 67 66" fill="none" xmlns="http://www.w3.org/2000/svg">
<path d="M30.5059 7.76172C31.8783 6.60494 34.131 6.57589 35.5244 7.64746L35.6562 7.75488L39.9941 11.4883V11.4893C40.5696 11.988 41.3285 12.3831 42.0557 12.6533C42.7826 12.9234 43.6104 13.1172 44.3604 13.1172H49.0352C51.1906 13.1173 52.9676 14.8944 52.9678 17.0498V21.7246C52.9678 22.4864 53.1607 23.3143 53.4326 24.042C53.6705 24.6787 54.0034 25.3317 54.415 25.8682L54.5957 26.0908L58.3301 30.4277V30.4287C59.476 31.769 59.5132 34.0467 58.4561 35.4473L58.3496 35.5801L54.623 39.9092C54.1243 40.4846 53.7292 41.2436 53.459 41.9707C53.1889 42.6976 52.9951 43.5255 52.9951 44.2754V48.9502C52.995 51.1057 51.218 52.8827 49.0625 52.8828H44.3877C43.6259 52.8828 42.798 53.0758 42.0703 53.3477C41.4336 53.5856 40.7806 53.9185 40.2441 54.3301L40.0215 54.5107L35.6914 58.2383C34.3189 59.3951 32.0663 59.4241 30.6729 58.3525L30.541 58.2451L26.2021 54.5107H26.2031C25.6277 54.012 24.8687 53.6169 24.1416 53.3467C23.4147 53.0766 22.5868 52.8828 21.8369 52.8828H17.0801C14.9245 52.8828 13.1475 51.1057 13.1475 48.9502V44.2471C13.1474 43.4965 12.953 42.6763 12.6875 41.959C12.4544 41.3294 12.1303 40.6823 11.7363 40.1504L11.5635 39.9297L11.5557 39.9199L7.84668 35.5527H7.84766C6.6826 34.1667 6.6826 31.8333 7.84766 30.4473L7.84668 30.4463L11.5557 26.0801L11.5635 26.0703C12.0362 25.5031 12.4212 24.7605 12.6875 24.041C12.953 23.3237 13.1474 22.5035 13.1475 21.7529V17.0498C13.1476 14.8943 14.9245 13.1172 17.0801 13.1172H21.8369C22.5862 13.1172 23.413 12.9238 24.1357 12.6592C24.8594 12.3942 25.6116 12.0099 26.1826 11.5342L26.1943 11.5234L26.2061 11.5137L30.5059 7.76172ZM45.4971 23.915C44.2044 22.6225 42.1086 22.5823 40.7656 23.7939L40.6377 23.915L29.7842 34.7676L25.5596 30.543C24.2668 29.2502 22.1711 29.21 20.8281 30.4219L20.7002 30.543C19.4075 31.8357 19.3672 33.9314 20.5791 35.2744L20.7002 35.4023L27.3555 42.0576C27.9954 42.6973 28.8665 43.0654 29.7852 43.0654C30.6465 43.0654 31.4655 42.7415 32.0918 42.1738L32.2148 42.0576L45.4971 28.7744C46.7897 27.4816 46.8301 25.3859 45.6182 24.043L45.4971 23.915Z" fill="#1BAAC7" stroke="#1BAAC7" stroke-width="2.75"/>
</svg>
