<svg width="18" height="18" viewBox="0 0 18 18" fill="none" xmlns="http://www.w3.org/2000/svg">
<path d="M9.00002 6.75089V9.75089M9.00002 12.7509H9.00752M7.71752 2.89589L1.36502 13.5009C1.23404 13.7277 1.16474 13.9849 1.16401 14.2468C1.16327 14.5087 1.23113 14.7662 1.36084 14.9938C1.49054 15.2213 1.67756 15.4109 1.9033 15.5438C2.12903 15.6766 2.38562 15.748 2.64752 15.7509H15.3525C15.6144 15.748 15.871 15.6766 16.0967 15.5438C16.3225 15.4109 16.5095 15.2213 16.6392 14.9938C16.7689 14.7662 16.8368 14.5087 16.836 14.2468C16.8353 13.9849 16.766 13.7277 16.635 13.5009L10.2825 2.89589C10.1488 2.67547 9.96056 2.49323 9.73591 2.36675C9.51127 2.24027 9.25782 2.17383 9.00002 2.17383C8.74221 2.17383 8.48876 2.24027 8.26412 2.36675C8.03947 2.49323 7.85122 2.67547 7.71752 2.89589Z" stroke="#B3631C" stroke-width="1.5" stroke-linecap="round" stroke-linejoin="round"/>
</svg>
