<svg width="20" height="20" viewBox="0 0 20 20" fill="none" xmlns="http://www.w3.org/2000/svg">
<path d="M18.3333 15.8333V18.3333H1.66663V15.8333C1.66663 15.375 2.04163 15 2.49996 15H17.5C17.9583 15 18.3333 15.375 18.3333 15.8333Z" fill="#292D32" stroke="#1D242D" stroke-width="1.25" stroke-miterlimit="10" stroke-linecap="round" stroke-linejoin="round"/>
<path d="M5.83329 9.16602H4.16663V14.9993H5.83329V9.16602Z" fill="#292D32"/>
<path d="M9.16667 9.16602H7.5V14.9993H9.16667V9.16602Z" fill="#292D32"/>
<path d="M12.5 9.16602H10.8334V14.9993H12.5V9.16602Z" fill="#292D32"/>
<path d="M15.8333 9.16602H14.1666V14.9993H15.8333V9.16602Z" fill="#292D32"/>
<path d="M19.1667 18.959H0.833374C0.491707 18.959 0.208374 18.6757 0.208374 18.334C0.208374 17.9923 0.491707 17.709 0.833374 17.709H19.1667C19.5084 17.709 19.7917 17.9923 19.7917 18.334C19.7917 18.6757 19.5084 18.959 19.1667 18.959Z" fill="#292D32"/>
<path d="M17.8083 4.79219L10.3083 1.79219C10.1416 1.72552 9.85829 1.72552 9.69163 1.79219L2.19163 4.79219C1.89996 4.90885 1.66663 5.25052 1.66663 5.56719V8.33385C1.66663 8.79219 2.04163 9.16719 2.49996 9.16719H17.5C17.9583 9.16719 18.3333 8.79219 18.3333 8.33385V5.56719C18.3333 5.25052 18.1 4.90885 17.8083 4.79219ZM9.99996 7.08385C9.30829 7.08385 8.74996 6.52552 8.74996 5.83385C8.74996 5.14219 9.30829 4.58385 9.99996 4.58385C10.6916 4.58385 11.25 5.14219 11.25 5.83385C11.25 6.52552 10.6916 7.08385 9.99996 7.08385Z" fill="#292D32"/>
</svg>
