<svg width="20" height="20" viewBox="0 0 20 20" fill="none" xmlns="http://www.w3.org/2000/svg">
<path d="M2.64453 6.19995L10.0029 10.4583L17.3112 6.22492" stroke="#E8F7F9" stroke-width="1.25" stroke-linecap="round" stroke-linejoin="round"/>
<path d="M10 18.0083V10.45" stroke="#E8F7F9" stroke-width="1.25" stroke-linecap="round" stroke-linejoin="round"/>
<path d="M18.0088 7.64175V12.3584C18.0088 12.4001 18.0088 12.4334 18.0005 12.4751C17.4172 11.9667 16.6672 11.6668 15.8338 11.6668C15.0505 11.6668 14.3255 11.9418 13.7505 12.4001C12.9838 13.0084 12.5005 13.9501 12.5005 15.0001C12.5005 15.6251 12.6755 16.2168 12.9838 16.7168C13.0588 16.8501 13.1505 16.9751 13.2505 17.0918L11.7255 17.9334C10.7755 18.4668 9.2255 18.4668 8.2755 17.9334L3.82551 15.4668C2.81717 14.9084 1.99219 13.5084 1.99219 12.3584V7.64175C1.99219 6.49175 2.81717 5.09177 3.82551 4.53343L8.2755 2.06675C9.2255 1.53341 10.7755 1.53341 11.7255 2.06675L16.1755 4.53343C17.1838 5.09177 18.0088 6.49175 18.0088 7.64175Z" stroke="#E8F7F9" stroke-width="1.25" stroke-linecap="round" stroke-linejoin="round"/>
<path d="M19.1667 15.0001C19.1667 16.0001 18.725 16.8917 18.0333 17.5001C17.4417 18.0167 16.675 18.3334 15.8333 18.3334C13.9917 18.3334 12.5 16.8417 12.5 15.0001C12.5 13.9501 12.9833 13.0084 13.75 12.4001C14.325 11.9418 15.05 11.6667 15.8333 11.6667C17.675 11.6667 19.1667 13.1584 19.1667 15.0001Z" stroke="#E8F7F9" stroke-width="1.25" stroke-miterlimit="10" stroke-linecap="round" stroke-linejoin="round"/>
<path d="M16.0417 13.9583V15.2083L15 15.8333" stroke="#E8F7F9" stroke-width="1.25" stroke-miterlimit="10" stroke-linecap="round" stroke-linejoin="round"/>
</svg>
