<svg width="82" height="33" viewBox="0 0 82 33" fill="none" xmlns="http://www.w3.org/2000/svg">
<rect width="81.3848" height="32.2283" rx="16.1141" fill="white"/>
<path d="M13.7426 19.2224C13.1229 19.2224 12.5875 19.0871 12.1363 18.8163C11.6911 18.5396 11.3452 18.1576 11.0986 17.6703C10.8579 17.177 10.7376 16.6055 10.7376 15.9558C10.7376 15.3121 10.8579 14.7436 11.0986 14.2502C11.3452 13.7569 11.6911 13.3749 12.1363 13.1042C12.5875 12.8275 13.1229 12.6891 13.7426 12.6891C14.4825 12.6891 15.0811 12.8666 15.5383 13.2215C16.0016 13.5765 16.2963 14.0758 16.4227 14.7195H15.43C15.3398 14.3465 15.1533 14.0487 14.8706 13.8261C14.5938 13.6035 14.2178 13.4922 13.7426 13.4922C13.3154 13.4922 12.9455 13.5915 12.6326 13.79C12.3198 13.9886 12.0792 14.2713 11.9107 14.6383C11.7423 15.0052 11.658 15.4444 11.658 15.9558C11.658 16.4671 11.7423 16.9093 11.9107 17.2823C12.0792 17.6493 12.3198 17.932 12.6326 18.1305C12.9455 18.323 13.3154 18.4193 13.7426 18.4193C14.2178 18.4193 14.5938 18.314 14.8706 18.1035C15.1533 17.8869 15.3398 17.5951 15.43 17.2281H16.4227C16.2963 17.8538 16.0016 18.3441 15.5383 18.699C15.0811 19.048 14.4825 19.2224 13.7426 19.2224ZM18.6934 19.2224C18.3204 19.2224 18.0106 19.1593 17.7639 19.0329C17.5173 18.9066 17.3338 18.7381 17.2135 18.5276C17.0931 18.311 17.033 18.0794 17.033 17.8327C17.033 17.5319 17.1112 17.2763 17.2676 17.0657C17.424 16.8491 17.6466 16.6837 17.9354 16.5694C18.2241 16.4551 18.5701 16.3979 18.9731 16.3979H20.1553C20.1553 16.1332 20.1162 15.9137 20.0379 15.7392C19.9597 15.5647 19.8424 15.4354 19.686 15.3512C19.5356 15.2609 19.3431 15.2158 19.1085 15.2158C18.8378 15.2158 18.6062 15.282 18.4136 15.4143C18.2211 15.5407 18.1008 15.7302 18.0527 15.9828H17.1503C17.1864 15.664 17.2947 15.3933 17.4752 15.1707C17.6616 14.9421 17.8993 14.7676 18.188 14.6473C18.4768 14.521 18.7836 14.4578 19.1085 14.4578C19.5356 14.4578 19.8936 14.533 20.1823 14.6834C20.4711 14.8338 20.6877 15.0474 20.832 15.3241C20.9824 15.5948 21.0576 15.9197 21.0576 16.2987V19.1141H20.2726L20.2004 18.3471C20.1342 18.4674 20.056 18.5817 19.9658 18.69C19.8755 18.7983 19.7672 18.8915 19.6409 18.9698C19.5206 19.048 19.3792 19.1081 19.2168 19.1502C19.0604 19.1984 18.8859 19.2224 18.6934 19.2224ZM18.8648 18.4915C19.0573 18.4915 19.2318 18.4524 19.3882 18.3742C19.5446 18.296 19.677 18.1907 19.7853 18.0583C19.8996 17.92 19.9838 17.7666 20.0379 17.5981C20.0981 17.4237 20.1312 17.2462 20.1372 17.0657V17.0386H19.0634C18.8047 17.0386 18.5941 17.0717 18.4317 17.1379C18.2753 17.1981 18.161 17.2823 18.0888 17.3906C18.0166 17.4989 17.9805 17.6252 17.9805 17.7696C17.9805 17.92 18.0136 18.0493 18.0798 18.1576C18.1519 18.2599 18.2542 18.3411 18.3866 18.4012C18.5189 18.4614 18.6783 18.4915 18.8648 18.4915ZM23.7188 19.1141C23.43 19.1141 23.1804 19.069 22.9698 18.9788C22.7592 18.8885 22.5968 18.7381 22.4825 18.5276C22.3682 18.317 22.3111 18.0313 22.3111 17.6703V15.3331H21.526V14.5661H22.3111L22.4193 13.4291H23.2134V14.5661H24.5039V15.3331H23.2134V17.6793C23.2134 17.938 23.2676 18.1155 23.3759 18.2117C23.4842 18.302 23.6707 18.3471 23.9354 18.3471H24.4587V19.1141H23.7188ZM27.1623 19.2224C26.7292 19.2224 26.3442 19.1232 26.0073 18.9246C25.6704 18.7261 25.4057 18.4494 25.2132 18.0944C25.0267 17.7395 24.9334 17.3274 24.9334 16.8582C24.9334 16.3769 25.0267 15.9588 25.2132 15.6038C25.4057 15.2429 25.6704 14.9631 26.0073 14.7646C26.3442 14.5601 26.7352 14.4578 27.1804 14.4578C27.6256 14.4578 28.0076 14.5571 28.3264 14.7556C28.6453 14.9541 28.8919 15.2188 29.0664 15.5497C29.2408 15.8745 29.3281 16.2355 29.3281 16.6326C29.3281 16.6927 29.3251 16.7589 29.319 16.8311C29.319 16.8973 29.316 16.9725 29.31 17.0567H25.5922V16.416H28.4257C28.4076 16.037 28.2813 15.7422 28.0467 15.5316C27.812 15.3151 27.5203 15.2068 27.1714 15.2068C26.9247 15.2068 26.6991 15.2639 26.4946 15.3782C26.29 15.4865 26.1246 15.649 25.9982 15.8655C25.8779 16.0761 25.8178 16.3438 25.8178 16.6687V16.9213C25.8178 17.2582 25.8779 17.544 25.9982 17.7786C26.1246 18.0072 26.29 18.1817 26.4946 18.302C26.6991 18.4163 26.9217 18.4734 27.1623 18.4734C27.4511 18.4734 27.6887 18.4103 27.8752 18.2839C28.0617 18.1576 28.2001 17.9861 28.2903 17.7696H29.1927C29.1145 18.0463 28.9821 18.296 28.7957 18.5186C28.6092 18.7351 28.3775 18.9066 28.1008 19.0329C27.8301 19.1593 27.5173 19.2224 27.1623 19.2224ZM31.8569 21.2077C31.4418 21.2077 31.0749 21.1535 30.756 21.0453C30.4372 20.943 30.1905 20.7836 30.0161 20.567C29.8416 20.3504 29.7544 20.0857 29.7544 19.7729C29.7544 19.6105 29.7905 19.445 29.8627 19.2766C29.9349 19.1141 30.0522 18.9577 30.2146 18.8073C30.377 18.6569 30.5966 18.5216 30.8733 18.4012L31.3787 18.8073C31.0719 18.9216 30.8643 19.057 30.756 19.2134C30.6538 19.3758 30.6026 19.5322 30.6026 19.6826C30.6026 19.8631 30.6568 20.0135 30.7651 20.1338C30.8733 20.2542 31.0207 20.3444 31.2072 20.4046C31.3997 20.4647 31.6163 20.4948 31.8569 20.4948C32.0916 20.4948 32.2961 20.4617 32.4706 20.3955C32.645 20.3294 32.7804 20.2361 32.8767 20.1158C32.9729 19.9955 33.021 19.8541 33.021 19.6917C33.021 19.4992 32.9488 19.3367 32.8045 19.2044C32.6601 19.078 32.3833 19.0028 31.9743 18.9788C31.6314 18.9547 31.3396 18.9216 31.0989 18.8795C30.8643 18.8374 30.6628 18.7863 30.4943 18.7261C30.3319 18.6659 30.1935 18.5998 30.0792 18.5276C29.9709 18.4554 29.8777 18.3802 29.7995 18.302V18.0944L30.7019 17.165L31.4328 17.4176L30.4492 18.3291L30.6387 17.923C30.7049 17.9651 30.7681 18.0072 30.8282 18.0493C30.8884 18.0854 30.9696 18.1185 31.0719 18.1486C31.1741 18.1787 31.3125 18.2057 31.487 18.2298C31.6614 18.2539 31.89 18.2779 32.1728 18.302C32.5819 18.3321 32.9097 18.4043 33.1564 18.5186C33.4091 18.6329 33.5925 18.7863 33.7069 18.9788C33.8212 19.1713 33.8783 19.3999 33.8783 19.6646C33.8783 19.9233 33.8061 20.1699 33.6617 20.4046C33.5234 20.6392 33.3038 20.8317 33.003 20.9821C32.7082 21.1325 32.3262 21.2077 31.8569 21.2077ZM31.8569 17.7154C31.4719 17.7154 31.1441 17.6432 30.8733 17.4989C30.6086 17.3545 30.4041 17.159 30.2597 16.9123C30.1213 16.6656 30.0522 16.3919 30.0522 16.0911C30.0522 15.7843 30.1213 15.5106 30.2597 15.2699C30.4041 15.0233 30.6116 14.8278 30.8824 14.6834C31.1531 14.533 31.4779 14.4578 31.8569 14.4578C32.236 14.4578 32.5578 14.533 32.8225 14.6834C33.0932 14.8278 33.2978 15.0233 33.4361 15.2699C33.5805 15.5106 33.6527 15.7843 33.6527 16.0911C33.6527 16.3919 33.5805 16.6656 33.4361 16.9123C33.2978 17.159 33.0932 17.3545 32.8225 17.4989C32.5578 17.6432 32.236 17.7154 31.8569 17.7154ZM31.8569 16.9935C32.1517 16.9935 32.3864 16.9183 32.5608 16.7679C32.7353 16.6115 32.8225 16.3859 32.8225 16.0911C32.8225 15.7963 32.7353 15.5738 32.5608 15.4234C32.3864 15.2669 32.1517 15.1887 31.8569 15.1887C31.5622 15.1887 31.3245 15.2669 31.1441 15.4234C30.9636 15.5738 30.8733 15.7963 30.8733 16.0911C30.8733 16.3859 30.9636 16.6115 31.1441 16.7679C31.3245 16.9183 31.5622 16.9935 31.8569 16.9935ZM32.5969 15.279L32.3803 14.5661H34.2483V15.1887L32.5969 15.279ZM36.782 19.2224C36.3549 19.2224 35.9699 19.1232 35.627 18.9246C35.2901 18.7261 35.0224 18.4494 34.8238 18.0944C34.6313 17.7335 34.5351 17.3184 34.5351 16.8491C34.5351 16.3679 34.6343 15.9497 34.8329 15.5948C35.0314 15.2339 35.3021 14.9541 35.645 14.7556C35.9879 14.5571 36.3729 14.4578 36.8001 14.4578C37.2332 14.4578 37.6183 14.5571 37.9551 14.7556C38.292 14.9541 38.5567 15.2308 38.7492 15.5858C38.9478 15.9407 39.047 16.3588 39.047 16.8401C39.047 17.3214 38.9478 17.7395 38.7492 18.0944C38.5567 18.4494 38.289 18.7261 37.9461 18.9246C37.6032 19.1232 37.2152 19.2224 36.782 19.2224ZM36.782 18.4464C37.0287 18.4464 37.2513 18.3862 37.4498 18.2659C37.6543 18.1456 37.8168 17.9681 37.9371 17.7335C38.0634 17.4928 38.1266 17.195 38.1266 16.8401C38.1266 16.4852 38.0664 16.1904 37.9461 15.9558C37.8258 15.7151 37.6634 15.5346 37.4588 15.4143C37.2603 15.294 37.0407 15.2339 36.8001 15.2339C36.5594 15.2339 36.3369 15.294 36.1323 15.4143C35.9278 15.5346 35.7623 15.7151 35.636 15.9558C35.5157 16.1904 35.4555 16.4852 35.4555 16.8401C35.4555 17.195 35.5157 17.4928 35.636 17.7335C35.7623 17.9681 35.9248 18.1456 36.1233 18.2659C36.3278 18.3862 36.5474 18.4464 36.782 18.4464ZM39.8378 19.1141V14.5661H40.65L40.7312 15.4234C40.8335 15.2188 40.9658 15.0474 41.1282 14.909C41.2907 14.7646 41.4802 14.6533 41.6968 14.5751C41.9193 14.4969 42.172 14.4578 42.4548 14.4578V15.4143H42.1299C41.9434 15.4143 41.7659 15.4384 41.5975 15.4865C41.429 15.5286 41.2786 15.6038 41.1463 15.7121C41.02 15.8204 40.9207 15.9678 40.8485 16.1543C40.7763 16.3408 40.7402 16.5724 40.7402 16.8491V19.1141H39.8378ZM43.0759 19.1141V14.5661H43.9783V19.1141H43.0759ZM43.5362 13.7088C43.3617 13.7088 43.2173 13.6547 43.103 13.5464C42.9947 13.4381 42.9406 13.2997 42.9406 13.1313C42.9406 12.9688 42.9947 12.8365 43.103 12.7342C43.2173 12.6259 43.3617 12.5718 43.5362 12.5718C43.7046 12.5718 43.846 12.6259 43.9603 12.7342C44.0746 12.8365 44.1317 12.9688 44.1317 13.1313C44.1317 13.2997 44.0746 13.4381 43.9603 13.5464C43.846 13.6547 43.7046 13.7088 43.5362 13.7088ZM47.0555 19.2224C46.6223 19.2224 46.2373 19.1232 45.9004 18.9246C45.5635 18.7261 45.2988 18.4494 45.1063 18.0944C44.9198 17.7395 44.8266 17.3274 44.8266 16.8582C44.8266 16.3769 44.9198 15.9588 45.1063 15.6038C45.2988 15.2429 45.5635 14.9631 45.9004 14.7646C46.2373 14.5601 46.6283 14.4578 47.0735 14.4578C47.5187 14.4578 47.9007 14.5571 48.2196 14.7556C48.5384 14.9541 48.7851 15.2188 48.9595 15.5497C49.134 15.8745 49.2212 16.2355 49.2212 16.6326C49.2212 16.6927 49.2182 16.7589 49.2122 16.8311C49.2122 16.8973 49.2092 16.9725 49.2032 17.0567H45.4853V16.416H48.3188C48.3008 16.037 48.1744 15.7422 47.9398 15.5316C47.7052 15.3151 47.4134 15.2068 47.0645 15.2068C46.8178 15.2068 46.5923 15.2639 46.3877 15.3782C46.1832 15.4865 46.0177 15.649 45.8914 15.8655C45.7711 16.0761 45.7109 16.3438 45.7109 16.6687V16.9213C45.7109 17.2582 45.7711 17.544 45.8914 17.7786C46.0177 18.0072 46.1832 18.1817 46.3877 18.302C46.5923 18.4163 46.8148 18.4734 47.0555 18.4734C47.3442 18.4734 47.5819 18.4103 47.7684 18.2839C47.9549 18.1576 48.0932 17.9861 48.1835 17.7696H49.0859C49.0077 18.0463 48.8753 18.296 48.6888 18.5186C48.5023 18.7351 48.2707 18.9066 47.994 19.0329C47.7232 19.1593 47.4104 19.2224 47.0555 19.2224ZM51.7127 19.2224C51.3277 19.2224 50.9908 19.1593 50.7021 19.0329C50.4133 18.9066 50.1847 18.7291 50.0162 18.5005C49.8478 18.2719 49.7455 18.0042 49.7094 17.6974H50.6299C50.6599 17.8418 50.7171 17.9741 50.8013 18.0944C50.8916 18.2148 51.0119 18.311 51.1623 18.3832C51.3187 18.4554 51.5022 18.4915 51.7127 18.4915C51.9113 18.4915 52.0737 18.4644 52.2 18.4103C52.3324 18.3501 52.4286 18.2719 52.4888 18.1756C52.549 18.0734 52.579 17.9651 52.579 17.8508C52.579 17.6823 52.5369 17.556 52.4527 17.4718C52.3745 17.3815 52.2542 17.3124 52.0917 17.2642C51.9353 17.2101 51.7458 17.162 51.5232 17.1199C51.3127 17.0838 51.1081 17.0356 50.9096 16.9755C50.7171 16.9093 50.5426 16.8281 50.3862 16.7318C50.2358 16.6356 50.1155 16.5152 50.0253 16.3709C49.935 16.2205 49.8899 16.037 49.8899 15.8204C49.8899 15.5617 49.9591 15.3301 50.0975 15.1256C50.2358 14.915 50.4313 14.7526 50.684 14.6383C50.9427 14.518 51.2465 14.4578 51.5954 14.4578C52.1008 14.4578 52.5068 14.5781 52.8137 14.8188C53.1205 15.0594 53.3009 15.3993 53.3551 15.8385H52.4798C52.4557 15.6339 52.3655 15.4775 52.2091 15.3692C52.0526 15.2549 51.8451 15.1978 51.5864 15.1978C51.3277 15.1978 51.1292 15.2489 50.9908 15.3512C50.8525 15.4534 50.7833 15.5888 50.7833 15.7572C50.7833 15.8655 50.8224 15.9618 50.9006 16.046C50.9788 16.1302 51.0931 16.2024 51.2435 16.2626C51.3999 16.3167 51.5894 16.3679 51.812 16.416C52.1308 16.4761 52.4166 16.5513 52.6693 16.6416C52.9219 16.7318 53.1235 16.8642 53.2739 17.0386C53.4243 17.2131 53.4995 17.4628 53.4995 17.7876C53.5055 18.0704 53.4333 18.32 53.2829 18.5366C53.1385 18.7532 52.931 18.9216 52.6602 19.0419C52.3955 19.1623 52.0797 19.2224 51.7127 19.2224Z" fill="#1BAAC7"/>
<path d="M69.0988 14.6396L65.9469 17.7916C65.5747 18.1638 64.9656 18.1638 64.5933 17.7916L61.4414 14.6396" stroke="#1BAAC7" stroke-width="0.725136" stroke-miterlimit="10" stroke-linecap="round" stroke-linejoin="round"/>
</svg>
