<svg width="18" height="18" viewBox="0 0 18 18" fill="none" xmlns="http://www.w3.org/2000/svg">
<path d="M2.25 16.5H15.75" stroke="white" stroke-width="1.125" stroke-linecap="round" stroke-linejoin="round"/>
<path d="M4.19998 6.28516H3C2.5875 6.28516 2.25 6.62266 2.25 7.03516V13.5002C2.25 13.9127 2.5875 14.2502 3 14.2502H4.19998C4.61248 14.2502 4.94998 13.9127 4.94998 13.5002V7.03516C4.94998 6.62266 4.61248 6.28516 4.19998 6.28516Z" stroke="white" stroke-width="1.125" stroke-linecap="round" stroke-linejoin="round"/>
<path d="M9.60013 3.89258H8.40015C7.98765 3.89258 7.65015 4.23008 7.65015 4.64258V13.5001C7.65015 13.9126 7.98765 14.2501 8.40015 14.2501H9.60013C10.0126 14.2501 10.3501 13.9126 10.3501 13.5001V4.64258C10.3501 4.23008 10.0126 3.89258 9.60013 3.89258Z" stroke="white" stroke-width="1.125" stroke-linecap="round" stroke-linejoin="round"/>
<path d="M15.0003 1.5H13.8003C13.3878 1.5 13.0503 1.8375 13.0503 2.25V13.5C13.0503 13.9125 13.3878 14.25 13.8003 14.25H15.0003C15.4128 14.25 15.7503 13.9125 15.7503 13.5V2.25C15.7503 1.8375 15.4128 1.5 15.0003 1.5Z" stroke="white" stroke-width="1.125" stroke-linecap="round" stroke-linejoin="round"/>
</svg>
