<svg width="12" height="12" viewBox="0 0 12 12" fill="none" xmlns="http://www.w3.org/2000/svg">
<path d="M6 11C8.76 11 11 8.76 11 6C11 3.24 8.76 1 6 1C3.24 1 1 3.24 1 6C1 8.76 3.24 11 6 11Z" stroke="#47586E" stroke-width="0.75" stroke-linecap="round" stroke-linejoin="round"/>
<path d="M6 8C7.105 8 8 7.105 8 6C8 4.895 7.105 4 6 4C4.895 4 4 4.895 4 6C4 7.105 4.895 8 6 8Z" stroke="#47586E" stroke-width="0.75" stroke-linecap="round" stroke-linejoin="round"/>
<path d="M10.585 4.00141C9.075 3.67141 7.51 3.67141 6 4.00141" stroke="#47586E" stroke-width="0.75" stroke-linecap="round" stroke-linejoin="round"/>
<path d="M1.97501 3.03125L1.98501 3.06125C2.49001 4.50625 3.26501 5.84625 4.27001 7.00125" stroke="#47586E" stroke-width="0.75" stroke-linecap="round" stroke-linejoin="round"/>
<path d="M5.44 10.97C6.47 9.835 7.245 8.495 7.715 7.04L7.73 7" stroke="#47586E" stroke-width="0.75" stroke-linecap="round" stroke-linejoin="round"/>
</svg>
