<svg width="16" height="19" viewBox="0 0 16 19" fill="none" xmlns="http://www.w3.org/2000/svg">
<path d="M6.33398 11.1126C6.33398 11.7593 6.83399 12.2793 7.44733 12.2793H8.70064C9.23398 12.2793 9.66732 11.826 9.66732 11.2593C9.66732 10.6526 9.40066 10.4326 9.00732 10.2926L7.00065 9.59262C6.60732 9.45262 6.34066 9.23929 6.34066 8.62596C6.34066 8.06596 6.77398 7.60596 7.30731 7.60596H8.56065C9.17398 7.60596 9.67399 8.12596 9.67399 8.77262" stroke="#179AB3" stroke-linecap="round" stroke-linejoin="round"/>
<path d="M8 6.94604V12.946" stroke="#179AB3" stroke-linecap="round" stroke-linejoin="round"/>
<path d="M14.6673 9.94596C14.6673 13.626 11.6807 16.6126 8.00065 16.6126C4.32065 16.6126 1.33398 13.626 1.33398 9.94596C1.33398 6.26596 4.32065 3.2793 8.00065 3.2793" stroke="#179AB3" stroke-linecap="round" stroke-linejoin="round"/>
<path d="M14.6667 5.94596V3.2793H12" stroke="#1AABC7" stroke-linecap="round" stroke-linejoin="round"/>
<path d="M11.334 6.61263L14.6673 3.2793" stroke="#1AABC7" stroke-linecap="round" stroke-linejoin="round"/>
</svg>
