<svg width="16" height="16" viewBox="0 0 16 16" fill="none" xmlns="http://www.w3.org/2000/svg">
<path d="M10.6667 8.60065V11.4007C10.6667 13.734 9.73337 14.6673 7.40004 14.6673H4.60004C2.26671 14.6673 1.33337 13.734 1.33337 11.4007V8.60065C1.33337 6.26732 2.26671 5.33398 4.60004 5.33398H7.40004C9.73337 5.33398 10.6667 6.26732 10.6667 8.60065Z" stroke="#292D32" stroke-linecap="round" stroke-linejoin="round"/>
<path d="M14.6667 4.60065V7.40065C14.6667 9.73398 13.7334 10.6673 11.4 10.6673H10.6667V8.60065C10.6667 6.26732 9.73337 5.33398 7.40004 5.33398H5.33337V4.60065C5.33337 2.26732 6.26671 1.33398 8.60004 1.33398H11.4C13.7334 1.33398 14.6667 2.26732 14.6667 4.60065Z" stroke="#292D32" stroke-linecap="round" stroke-linejoin="round"/>
</svg>
