<svg width="94" height="94" viewBox="0 0 94 94" fill="none" xmlns="http://www.w3.org/2000/svg">
<path d="M32.9475 80.6591C39.8171 84.266 43.2519 86.0655 46.9449 86.0655V46.9449L10.3201 27.6702L10.1636 27.9323C7.82422 31.8991 7.82422 36.84 7.82422 46.718V47.1757C7.82422 57.0498 7.82422 61.9907 10.1597 65.9575C12.4991 69.9283 16.7085 72.1386 25.1234 76.5553L32.9475 80.6591Z" fill="#1BAAC7"/>
<path opacity="0.7" d="M68.7626 17.3386L60.9385 13.2309C54.0728 9.62792 50.638 7.82446 46.945 7.82446C43.2481 7.82446 39.8173 9.62401 32.9477 13.2309L25.1236 17.3386C16.8926 21.6575 12.6832 23.8639 10.3203 27.6665L46.945 46.9451L83.5698 27.6704C81.1991 23.8639 76.9975 21.6575 68.7626 17.3386Z" fill="#1BAAC7"/>
<path opacity="0.5" d="M83.73 27.9323L83.5696 27.6702L46.9448 46.9449V86.0655C50.6378 86.0655 54.0726 84.266 60.9422 80.6591L68.7663 76.5514C77.1812 72.1347 81.3905 69.9283 83.73 65.9575C86.0655 61.9907 86.0655 57.0498 86.0655 47.1796V46.7219C86.0655 36.844 86.0655 31.8991 83.73 27.9323Z" fill="#1BAAC7"/>
<path d="M24.7361 17.5415L25.1273 17.3381L30.968 14.271L66.5678 33.8509L82.3138 25.9837C82.8485 26.5888 83.3205 27.2382 83.73 27.9319C84.3168 28.9256 84.7549 29.9818 85.0836 31.1594L69.4392 38.9796V50.8566C69.4392 51.6348 69.1301 52.3811 68.5799 52.9313C68.0296 53.4815 67.2833 53.7907 66.5052 53.7907C65.727 53.7907 64.9807 53.4815 64.4305 52.9313C63.8802 52.3811 63.5711 51.6348 63.5711 50.8566V41.9136L49.8789 48.7597V85.6896C48.9206 85.938 47.9348 86.0642 46.9449 86.0652C45.9747 86.0652 45.0162 85.94 44.0108 85.6896V48.7597L8.81006 31.1555C9.13867 29.9818 9.57682 28.9256 10.1636 27.9319C10.5705 27.2382 11.0425 26.5888 11.5798 25.9837L46.9449 43.6662L60.195 37.0431L24.7361 17.5415Z" fill="#1BAAC7"/>
</svg>
