<svg width="67" height="67" viewBox="0 0 67 67" fill="none" xmlns="http://www.w3.org/2000/svg">
<g opacity="0.2">
<path d="M23.3376 57.1334C28.2036 59.6883 30.6366 60.963 33.2524 60.963V33.2525L7.30992 19.5996L7.19908 19.7853C5.54199 22.5951 5.54199 26.0949 5.54199 33.0918V33.416C5.54199 40.4102 5.54199 43.91 7.19631 46.7198C8.85339 49.5324 11.835 51.0981 17.7956 54.2266L23.3376 57.1334Z" fill="#1E3B68"/>
<path opacity="0.7" d="M48.7067 12.2819L43.1646 9.37231C38.3014 6.82018 35.8684 5.54272 33.2526 5.54272C30.6339 5.54272 28.2037 6.81741 23.3378 9.37231L17.7957 12.2819C11.9654 15.3411 8.98377 16.904 7.31006 19.5975L33.2526 33.2532L59.1951 19.6002C57.5158 16.904 54.5397 15.3411 48.7067 12.2819Z" fill="#1E3B68"/>
<path opacity="0.5" d="M59.3086 19.7853L59.195 19.5996L33.2524 33.2525V60.963C35.8683 60.963 38.3013 59.6883 43.1672 57.1334L48.7093 54.2238C54.6698 51.0953 57.6515 49.5324 59.3086 46.7198C60.9629 43.91 60.9629 40.4102 60.9629 33.4188V33.0946C60.9629 26.0977 60.9629 22.5951 59.3086 19.7853Z" fill="#1E3B68"/>
<path d="M17.5212 12.4257L17.7983 12.2816L21.9354 10.1091L47.1519 23.9782L58.3054 18.4056C58.6841 18.8342 59.0185 19.2942 59.3085 19.7856C59.7242 20.4895 60.0345 21.2376 60.2673 22.0717L49.1859 27.611V36.0239C49.1859 36.5751 48.9669 37.1038 48.5772 37.4935C48.1874 37.8833 47.6588 38.1022 47.1076 38.1022C46.5564 38.1022 46.0278 37.8833 45.638 37.4935C45.2483 37.1038 45.0293 36.5751 45.0293 36.0239V29.6893L35.3307 34.5387V60.6973C34.6519 60.8733 33.9536 60.9627 33.2524 60.9633C32.5652 60.9633 31.8863 60.8747 31.1741 60.6973V34.5387L6.24023 22.069C6.473 21.2376 6.78336 20.4895 7.19902 19.7856C7.4872 19.2942 7.82158 18.8342 8.20213 18.4056L33.2524 30.9308L42.6379 26.2394L17.5212 12.4257Z" fill="#1E3B68"/>
</g>
</svg>
