<svg width="16" height="17" viewBox="0 0 16 17" fill="none" xmlns="http://www.w3.org/2000/svg">
<path d="M8.09961 11.946V13.346" stroke="#179AB3" stroke-linecap="round" stroke-linejoin="round"/>
<path d="M4.76758 15.6128H11.4342V14.9461C11.4342 14.2128 10.8342 13.6128 10.1009 13.6128H6.10091C5.36758 13.6128 4.76758 14.2128 4.76758 14.9461V15.6128V15.6128Z" stroke="#179AB3" stroke-miterlimit="10"/>
<path d="M4.09961 15.6128H12.0996" stroke="#179AB3" stroke-linecap="round" stroke-linejoin="round"/>
<path d="M8.00065 11.6126C5.42065 11.6126 3.33398 9.52596 3.33398 6.94596V4.94596C3.33398 3.47263 4.52732 2.2793 6.00065 2.2793H10.0007C11.474 2.2793 12.6673 3.47263 12.6673 4.94596V6.94596C12.6673 9.52596 10.5807 11.6126 8.00065 11.6126Z" stroke="#1AABC7" stroke-linecap="round" stroke-linejoin="round"/>
<path d="M3.64604 8.71286C3.14604 8.55286 2.70604 8.25952 2.35938 7.91286C1.75938 7.24619 1.35938 6.44619 1.35938 5.51286C1.35938 4.57952 2.09271 3.84619 3.02604 3.84619H3.45938C3.32604 4.15286 3.25937 4.49286 3.25937 4.84619V6.84619C3.25937 7.51286 3.39937 8.13952 3.64604 8.71286Z" stroke="#1AABC7" stroke-linecap="round" stroke-linejoin="round"/>
<path d="M12.3535 8.71286C12.8535 8.55286 13.2935 8.25952 13.6402 7.91286C14.2402 7.24619 14.6402 6.44619 14.6402 5.51286C14.6402 4.57952 13.9068 3.84619 12.9735 3.84619H12.5402C12.6735 4.15286 12.7402 4.49286 12.7402 4.84619V6.84619C12.7402 7.51286 12.6002 8.13952 12.3535 8.71286Z" stroke="#1AABC7" stroke-linecap="round" stroke-linejoin="round"/>
</svg>
