<svg width="12" height="13" viewBox="0 0 12 13" fill="none" xmlns="http://www.w3.org/2000/svg">
<path fill-rule="evenodd" clip-rule="evenodd" d="M0.5 2.34424C0.5 2.21163 0.552678 2.08445 0.646447 1.99068C0.740215 1.89692 0.867392 1.84424 1 1.84424H6.5C6.63261 1.84424 6.75979 1.89692 6.85355 1.99068C6.94732 2.08445 7 2.21163 7 2.34424V4.84424H9C9.3283 4.84424 9.65339 4.9089 9.95671 5.03454C10.26 5.16018 10.5356 5.34432 10.7678 5.57647C10.9999 5.80862 11.1841 6.08422 11.3097 6.38753C11.4353 6.69084 11.5 7.01593 11.5 7.34424V9.34424C11.5001 9.66613 11.3967 9.97953 11.205 10.2381C11.0133 10.4967 10.7435 10.6868 10.4355 10.7802C10.3438 11.0827 10.1589 11.3485 9.90714 11.5397C9.6554 11.7309 9.3497 11.8376 9.03368 11.8447C8.71767 11.8518 8.40749 11.7589 8.14742 11.5792C7.88735 11.3995 7.69069 11.1423 7.5855 10.8442H4.415C4.30981 11.1423 4.11315 11.3995 3.85308 11.5792C3.59301 11.7589 3.28283 11.8518 2.96681 11.8447C2.6508 11.8376 2.3451 11.7309 2.09336 11.5397C1.84162 11.3485 1.6567 11.0827 1.565 10.7802C1.25688 10.6869 0.986973 10.4968 0.795185 10.2382C0.603396 9.97964 0.499901 9.6662 0.5 9.34424V7.34424H3.5C3.63261 7.34424 3.75979 7.29156 3.85355 7.19779C3.94732 7.10402 4 6.97685 4 6.84424C4 6.71163 3.94732 6.58445 3.85355 6.49068C3.75979 6.39692 3.63261 6.34424 3.5 6.34424H0.5V5.34424H2.5C2.63261 5.34424 2.75979 5.29156 2.85355 5.19779C2.94732 5.10402 3 4.97685 3 4.84424C3 4.71163 2.94732 4.58445 2.85355 4.49068C2.75979 4.39692 2.63261 4.34424 2.5 4.34424H0.5V2.34424ZM7 9.84424H7.5855C7.68435 9.56446 7.86395 9.32029 8.10159 9.1426C8.33923 8.96492 8.62424 8.86171 8.92054 8.84602C9.21685 8.83034 9.51116 8.90289 9.76623 9.0545C10.0213 9.20611 10.2257 9.42996 10.3535 9.69774C10.4473 9.60399 10.5 9.47684 10.5 9.34424V7.34424C10.5 6.94641 10.342 6.56488 10.0607 6.28358C9.77936 6.00227 9.39782 5.84424 9 5.84424H7V9.84424ZM3.5 10.3442C3.5 10.2116 3.44732 10.0845 3.35355 9.99068C3.25979 9.89692 3.13261 9.84424 3 9.84424C2.86739 9.84424 2.74021 9.89692 2.64645 9.99068C2.55268 10.0845 2.5 10.2116 2.5 10.3442C2.5 10.4768 2.55268 10.604 2.64645 10.6978C2.74021 10.7916 2.86739 10.8442 3 10.8442C3.13261 10.8442 3.25979 10.7916 3.35355 10.6978C3.44732 10.604 3.5 10.4768 3.5 10.3442ZM8.6465 9.99074C8.55272 10.0845 8.50003 10.2116 8.5 10.3442C8.49998 10.4599 8.54006 10.572 8.61343 10.6615C8.6868 10.7509 8.78891 10.8121 8.90236 10.8347C9.01581 10.8573 9.13358 10.8399 9.23561 10.7854C9.33764 10.7308 9.41762 10.6426 9.4619 10.5358C9.50619 10.4289 9.51206 10.31 9.4785 10.1993C9.44493 10.0886 9.37403 9.99294 9.27785 9.92866C9.18168 9.86437 9.06619 9.83542 8.95107 9.84674C8.83595 9.85806 8.72831 9.90895 8.6465 9.99074Z" fill="#1AABC7"/>
</svg>
