<svg width="16" height="19" viewBox="0 0 16 19" fill="none" xmlns="http://www.w3.org/2000/svg">
<path d="M8.00049 11.2793H8.66716C9.40049 11.2793 10.0005 10.6793 10.0005 9.94596V3.2793H4.00049C3.00049 3.2793 2.12716 3.83262 1.67383 4.64596" stroke="#179AB3" stroke-linecap="round" stroke-linejoin="round"/>
<path d="M1.33398 13.2793C1.33398 14.386 2.22732 15.2793 3.33398 15.2793H4.00065C4.00065 14.546 4.60065 13.946 5.33398 13.946C6.06732 13.946 6.66732 14.546 6.66732 15.2793H9.33398C9.33398 14.546 9.93398 13.946 10.6673 13.946C11.4007 13.946 12.0007 14.546 12.0007 15.2793H12.6673C13.774 15.2793 14.6673 14.386 14.6673 13.2793V11.2793H12.6673C12.3007 11.2793 12.0007 10.9793 12.0007 10.6126V8.61263C12.0007 8.24596 12.3007 7.94596 12.6673 7.94596H13.5273L12.3873 5.95264C12.1473 5.5393 11.7073 5.2793 11.2273 5.2793H10.0007V9.94596C10.0007 10.6793 9.40065 11.2793 8.66732 11.2793H8.00065" stroke="#179AB3" stroke-linecap="round" stroke-linejoin="round"/>
<path d="M5.33333 16.6127C6.06971 16.6127 6.66667 16.0158 6.66667 15.2794C6.66667 14.543 6.06971 13.946 5.33333 13.946C4.59695 13.946 4 14.543 4 15.2794C4 16.0158 4.59695 16.6127 5.33333 16.6127Z" stroke="#179AB3" stroke-linecap="round" stroke-linejoin="round"/>
<path d="M10.6673 16.6127C11.4037 16.6127 12.0007 16.0158 12.0007 15.2794C12.0007 14.543 11.4037 13.946 10.6673 13.946C9.93094 13.946 9.33398 14.543 9.33398 15.2794C9.33398 16.0158 9.93094 16.6127 10.6673 16.6127Z" stroke="#1AABC7" stroke-linecap="round" stroke-linejoin="round"/>
<path d="M14.6667 9.94604V11.2794H12.6667C12.3 11.2794 12 10.9794 12 10.6127V8.61271C12 8.24604 12.3 7.94604 12.6667 7.94604H13.5267L14.6667 9.94604Z" stroke="#1AABC7" stroke-linecap="round" stroke-linejoin="round"/>
<path d="M1.33398 7.2793H5.33398" stroke="#1AABC7" stroke-linecap="round" stroke-linejoin="round"/>
<path d="M1.33398 9.2793H4.00065" stroke="#1AABC7" stroke-linecap="round" stroke-linejoin="round"/>
<path d="M1.33398 11.2793H2.66732" stroke="#1AABC7" stroke-linecap="round" stroke-linejoin="round"/>
</svg>
