<svg width="17" height="16" viewBox="0 0 17 16" fill="none" xmlns="http://www.w3.org/2000/svg">
<path d="M13.166 1.83398C13.9944 1.83398 14.666 2.50556 14.666 3.33398C14.666 4.16241 13.9944 4.83398 13.166 4.83398C12.3376 4.83398 11.666 4.16241 11.666 3.33398C11.666 2.50556 12.3376 1.83398 13.166 1.83398Z" fill="#2B91FF" stroke="#2B91FF"/>
<path d="M4.49414 8.97266C4.92161 8.97271 5.30434 9.20967 5.50098 9.59766L6.02734 10.6445C6.16316 10.9222 6.35774 11.1089 6.58301 11.2168C6.79907 11.3203 7.00566 11.333 7.13379 11.333H9.20703C9.67295 11.333 10.1006 11.0755 10.3135 10.6514L10.8457 9.60059C11.0418 9.21773 11.4251 8.97967 11.8535 8.97949H14.001V11.3291C13.9273 12.2823 13.5946 12.975 13.085 13.4326C12.5718 13.8933 11.8232 14.166 10.8271 14.166H5.52051C4.46648 14.166 3.68441 13.8536 3.16602 13.3359C2.64775 12.8183 2.33402 12.0365 2.33398 10.9795V8.97266H4.49414Z" fill="#2B91FF" stroke="#2B91FF"/>
<path d="M14.5007 6.93333V7.55333C14.3607 7.50667 14.214 7.48 14.0607 7.48H11.854C10.854 7.48 9.95399 8.03333 9.51398 8.92667L9.04732 9.84H7.29398L6.84065 8.93333C6.38732 8.03333 5.49398 7.48 4.49398 7.48H2.27398C2.12065 7.48 1.97398 7.50667 1.83398 7.55333V5.68C1.83398 3.64667 3.48065 2 5.51398 2H9.56732C9.99399 2 10.3007 2.38667 10.2207 2.8C10.114 3.33333 10.1607 3.91333 10.4207 4.52667C10.7207 5.22 11.2807 5.78 11.974 6.08C12.5873 6.34 13.1673 6.38667 13.7007 6.28C14.114 6.2 14.5007 6.50667 14.5007 6.93333Z" fill="#2B91FF"/>
</svg>
