<svg width="14" height="14" viewBox="0 0 14 14" fill="none" xmlns="http://www.w3.org/2000/svg">
<path fill-rule="evenodd" clip-rule="evenodd" d="M11.8098 0.4825C11.071 0.25 10.396 0.25 9.046 0.25H4.954C3.604 0.25 2.929 0.25 2.191 0.4825C1.79908 0.626006 1.44314 0.853194 1.14796 1.14825C0.852771 1.44331 0.625428 1.79915 0.48175 2.191C0.25 2.92 0.25 3.5995 0.25 4.954V9.04375C0.25 10.396 0.25 11.071 0.4825 11.8098C0.625651 12.2018 0.852724 12.5578 1.14783 12.8529C1.44295 13.148 1.79897 13.3751 2.191 13.5182C2.92 13.75 3.5995 13.75 4.954 13.75H9.046C10.396 13.75 11.071 13.75 11.8098 13.5137C12.2018 13.3706 12.5578 13.1435 12.8529 12.8484C13.148 12.5533 13.3751 12.1973 13.5182 11.8052C13.75 11.0755 13.75 10.396 13.75 9.04225V4.95625C13.75 3.604 13.75 2.929 13.5175 2.191C13.3745 1.79891 13.1476 1.44278 12.8526 1.14754C12.5576 0.852302 12.2017 0.625823 11.8098 0.4825ZM9.5875 5.26975C9.56267 5.29483 9.53312 5.31474 9.50055 5.32833C9.46798 5.34191 9.43304 5.34891 9.39775 5.34891C9.36246 5.34891 9.32752 5.34191 9.29495 5.32833C9.26238 5.31474 9.23283 5.29483 9.208 5.26975L9.2125 5.2735C8.70316 4.83061 8.0522 4.58454 7.37725 4.57975C6.82075 4.57975 6.26575 4.78225 6.26575 5.29225C6.26575 5.779 6.77425 5.965 7.3945 6.19225L7.54825 6.2485C8.7505 6.664 9.742 7.17475 9.742 8.38525C9.742 9.69925 8.746 10.6 7.11175 10.7103L6.964 11.425C6.95145 11.4883 6.91726 11.5452 6.8673 11.586C6.81735 11.6267 6.75474 11.6489 6.69025 11.6485L5.66725 11.6403C5.62582 11.6395 5.58506 11.6297 5.54792 11.6113C5.51078 11.5929 5.47819 11.5665 5.4525 11.534C5.4268 11.5015 5.40866 11.4637 5.39936 11.4233C5.39007 11.3829 5.38986 11.341 5.39875 11.3005L5.5555 10.5475C4.93677 10.3845 4.37053 10.0647 3.9115 9.619C3.88474 9.5925 3.8635 9.56096 3.84901 9.5262C3.83451 9.49144 3.82705 9.45416 3.82705 9.4165C3.82705 9.37884 3.83451 9.34155 3.84901 9.3068C3.8635 9.27204 3.88474 9.2405 3.9115 9.214L4.4815 8.644C4.53296 8.59266 4.60268 8.56383 4.67538 8.56383C4.74807 8.56383 4.81779 8.59266 4.86925 8.644C5.4175 9.19525 6.12625 9.421 6.80125 9.421C7.54375 9.421 8.04625 9.1135 8.04625 8.58775C8.04625 8.1265 7.63375 7.97125 6.85225 7.678L6.58975 7.57975C5.58475 7.219 4.633 6.69325 4.633 5.47C4.633 4.057 5.785 3.367 7.14325 3.29725L7.291 2.58475C7.30327 2.52198 7.33685 2.46538 7.38604 2.42452C7.43524 2.38365 7.49705 2.36104 7.561 2.3605H8.581C8.7565 2.3605 8.88775 2.5255 8.851 2.70025L8.68525 3.502C9.20618 3.67668 9.68778 3.95188 10.1027 4.312C10.2205 4.426 10.2272 4.61575 10.1155 4.7215L9.5875 5.26975Z" fill="#1AABC7"/>
</svg>
