<svg width="20" height="20" viewBox="0 0 20 20" fill="none" xmlns="http://www.w3.org/2000/svg">
<path d="M4.44482 2.24023H15.5552C16.7713 2.24023 17.7603 3.22921 17.7603 4.44531V15.5557C17.7603 16.7718 16.7713 17.7607 15.5552 17.7607H4.44482C3.22872 17.7607 2.23975 16.7718 2.23975 15.5557V4.44531C2.23975 3.22921 3.22872 2.24023 4.44482 2.24023ZM4.62842 5.14941L8.68604 10.4541L4.84131 14.8506L4.81592 14.8789H6.51123L6.51611 14.873L9.47705 11.4893L12.063 14.8721L12.0679 14.8789H15.4312L15.4097 14.8506L11.1782 9.25781L14.7729 5.15039L14.7983 5.12207H13.103L13.0981 5.12793L10.396 8.21875L8.05908 5.12891L8.0542 5.12207H4.60693L4.62842 5.14941ZM7.53955 6.09082L13.4136 13.8584H12.5405L6.60107 6.09082H7.53955Z" fill="#1D242D" stroke="#1D242D" stroke-width="0.0347222"/>
</svg>
