<svg width="20" height="20" viewBox="0 0 20 20" fill="none" xmlns="http://www.w3.org/2000/svg">
<path d="M14.5084 7.19238L14.4742 5.19238C14.4706 4.82389 14.1777 4.53223 13.8082 4.53223L13.8024 4.5332L11.5524 4.56641H11.5504C9.93869 4.59572 8.65404 5.91741 8.68323 7.53223L8.72424 9.82227C8.72263 9.82261 8.72089 9.82413 8.71838 9.82422L7.7262 9.84082C7.35776 9.84454 7.06702 10.1384 7.06702 10.5078V10.5146L7.09143 12.0967C7.0944 12.4658 7.38852 12.7578 7.75842 12.7578H7.76526L8.76331 12.7412L8.76428 12.7432C8.76526 12.7441 8.76589 12.7449 8.76624 12.7461L8.84143 17.4893V17.4902C8.84556 17.7247 8.65777 17.9158 8.42542 17.916H6.50842C5.07464 17.916 3.98022 17.4903 3.24475 16.7539C2.50922 16.0175 2.08362 14.9207 2.08362 13.4824V6.50781C2.08362 5.07401 2.50923 3.97966 3.24475 3.24414C3.98027 2.50862 5.07462 2.08301 6.50842 2.08301H13.4918C14.9255 2.08305 16.02 2.50865 16.7555 3.24414C17.4909 3.97966 17.9166 5.07411 17.9166 6.50781V13.4912C17.9166 14.9249 17.491 16.0194 16.7555 16.7549C16.02 17.4904 14.9255 17.916 13.4918 17.916H12.4996C12.2716 17.9158 12.0836 17.7271 12.0836 17.499V12.6904L13.5485 12.666H13.5602L13.5709 12.665C13.8663 12.6439 14.1259 12.4319 14.191 12.1279L14.193 12.1162L14.485 10.5244L14.486 10.5176C14.553 10.1142 14.241 9.74121 13.8248 9.74121H13.819L12.0446 9.76465H12.0436L12.0416 9.75879L12.0104 7.89648L13.8483 7.86621L13.8473 7.86523C14.2163 7.86225 14.5084 7.56916 14.5084 7.19922V7.19238Z" fill="#1D242D" stroke="#1D242D" stroke-width="0.833333"/>
</svg>
