<svg width="18" height="18" viewBox="0 0 18 18" fill="none" xmlns="http://www.w3.org/2000/svg">
<path d="M10.7399 14.3026C10.7399 14.7601 10.4399 15.3601 10.0574 15.5926L8.99992 16.2751C8.01742 16.8826 6.65242 16.2001 6.65242 14.9851V10.9726C6.65242 10.4401 6.35242 9.75757 6.04492 9.38257L3.1649 6.35256C2.7824 5.97006 2.48242 5.29507 2.48242 4.83757V3.09756C2.48242 2.19006 3.16494 1.50757 3.99744 1.50757H14.0024C14.8349 1.50757 15.5174 2.19006 15.5174 3.02256V4.68756C15.5174 5.29506 15.1349 6.05257 14.7599 6.42757" stroke="#1D242D" stroke-width="1.5" stroke-miterlimit="10" stroke-linecap="round" stroke-linejoin="round"/>
<path d="M12.0524 12.3901C13.3778 12.3901 14.4524 11.3156 14.4524 9.9901C14.4524 8.66461 13.3778 7.59009 12.0524 7.59009C10.7269 7.59009 9.65234 8.66461 9.65234 9.9901C9.65234 11.3156 10.7269 12.3901 12.0524 12.3901Z" stroke="#1D242D" stroke-width="1.5" stroke-linecap="round" stroke-linejoin="round"/>
<path d="M14.9023 12.8401L14.1523 12.0901" stroke="#1D242D" stroke-width="1.5" stroke-linecap="round" stroke-linejoin="round"/>
</svg>
