<svg width="316" height="176" viewBox="0 0 316 176" fill="none" xmlns="http://www.w3.org/2000/svg">
<rect x="22.2719" y="31.0483" width="270.506" height="144.001" rx="6.17256" fill="white"/>
<rect x="22.2719" y="31.0483" width="270.506" height="144.001" rx="6.17256" stroke="#E4E7EC" stroke-width="0.969557"/>
<path d="M49.3263 152.586V152.199H50.2024V155.568H49.7737V152.586H49.3263ZM51.2105 153.849C51.2105 153.314 51.2975 152.898 51.4714 152.6C51.6454 152.298 51.9499 152.148 52.3848 152.148C52.8167 152.148 53.1196 152.298 53.2935 152.6C53.4675 152.898 53.5545 153.314 53.5545 153.849C53.5545 154.392 53.4675 154.815 53.2935 155.116C53.1196 155.418 52.8167 155.568 52.3848 155.568C51.9499 155.568 51.6454 155.418 51.4714 155.116C51.2975 154.815 51.2105 154.392 51.2105 153.849ZM53.1351 153.849C53.1351 153.578 53.1165 153.35 53.0792 153.164C53.045 152.974 52.972 152.822 52.8601 152.707C52.7514 152.592 52.593 152.535 52.3848 152.535C52.1736 152.535 52.012 152.592 51.9002 152.707C51.7914 152.822 51.7184 152.974 51.6811 153.164C51.647 153.35 51.6299 153.578 51.6299 153.849C51.6299 154.128 51.647 154.363 51.6811 154.552C51.7184 154.742 51.7914 154.894 51.9002 155.009C52.012 155.124 52.1736 155.182 52.3848 155.182C52.593 155.182 52.7514 155.124 52.8601 155.009C52.972 154.894 53.045 154.742 53.0792 154.552C53.1165 154.363 53.1351 154.128 53.1351 153.849ZM54.6214 155.596C54.5406 155.596 54.4722 155.568 54.4163 155.512C54.3604 155.457 54.3324 155.388 54.3324 155.307C54.3324 155.227 54.3604 155.158 54.4163 155.102C54.4722 155.046 54.5406 155.018 54.6214 155.018C54.699 155.018 54.7643 155.046 54.8171 155.102C54.873 155.158 54.901 155.227 54.901 155.307C54.901 155.388 54.873 155.457 54.8171 155.512C54.7643 155.568 54.699 155.596 54.6214 155.596ZM54.6214 153.602C54.5406 153.602 54.4722 153.574 54.4163 153.518C54.3604 153.462 54.3324 153.394 54.3324 153.313C54.3324 153.232 54.3604 153.164 54.4163 153.108C54.4722 153.052 54.5406 153.024 54.6214 153.024C54.699 153.024 54.7643 153.052 54.8171 153.108C54.873 153.164 54.901 153.232 54.901 153.313C54.901 153.394 54.873 153.462 54.8171 153.518C54.7643 153.574 54.699 153.602 54.6214 153.602ZM55.688 153.849C55.688 153.314 55.775 152.898 55.949 152.6C56.123 152.298 56.4274 152.148 56.8624 152.148C57.2942 152.148 57.5971 152.298 57.7711 152.6C57.9451 152.898 58.0321 153.314 58.0321 153.849C58.0321 154.392 57.9451 154.815 57.7711 155.116C57.5971 155.418 57.2942 155.568 56.8624 155.568C56.4274 155.568 56.123 155.418 55.949 155.116C55.775 154.815 55.688 154.392 55.688 153.849ZM57.6127 153.849C57.6127 153.578 57.594 153.35 57.5567 153.164C57.5226 152.974 57.4495 152.822 57.3377 152.707C57.229 152.592 57.0705 152.535 56.8624 152.535C56.6511 152.535 56.4896 152.592 56.3777 152.707C56.269 152.822 56.196 152.974 56.1587 153.164C56.1245 153.35 56.1074 153.578 56.1074 153.849C56.1074 154.128 56.1245 154.363 56.1587 154.552C56.196 154.742 56.269 154.894 56.3777 155.009C56.4896 155.124 56.6511 155.182 56.8624 155.182C57.0705 155.182 57.229 155.124 57.3377 155.009C57.4495 154.894 57.5226 154.742 57.5567 154.552C57.594 154.363 57.6127 154.128 57.6127 153.849ZM58.8939 153.849C58.8939 153.314 58.9808 152.898 59.1548 152.6C59.3288 152.298 59.6333 152.148 60.0682 152.148C60.5001 152.148 60.803 152.298 60.9769 152.6C61.1509 152.898 61.2379 153.314 61.2379 153.849C61.2379 154.392 61.1509 154.815 60.9769 155.116C60.803 155.418 60.5001 155.568 60.0682 155.568C59.6333 155.568 59.3288 155.418 59.1548 155.116C58.9808 154.815 58.8939 154.392 58.8939 153.849ZM60.8185 153.849C60.8185 153.578 60.7999 153.35 60.7626 153.164C60.7284 152.974 60.6554 152.822 60.5435 152.707C60.4348 152.592 60.2764 152.535 60.0682 152.535C59.857 152.535 59.6954 152.592 59.5836 152.707C59.4748 152.822 59.4018 152.974 59.3645 153.164C59.3304 153.35 59.3133 153.578 59.3133 153.849C59.3133 154.128 59.3304 154.363 59.3645 154.552C59.4018 154.742 59.4748 154.894 59.5836 155.009C59.6954 155.124 59.857 155.182 60.0682 155.182C60.2764 155.182 60.4348 155.124 60.5435 155.009C60.6554 154.894 60.7284 154.742 60.7626 154.552C60.7999 154.363 60.8185 154.128 60.8185 153.849Z" fill="#615E83"/>
<path d="M100.478 152.586V152.199H101.354V155.568H100.925V152.586H100.478ZM102.31 155.228C102.705 154.911 103.014 154.652 103.238 154.45C103.461 154.245 103.649 154.032 103.802 153.811C103.957 153.588 104.035 153.369 104.035 153.154C104.035 152.952 103.985 152.794 103.886 152.679C103.789 152.561 103.632 152.502 103.415 152.502C103.204 152.502 103.039 152.569 102.921 152.702C102.806 152.833 102.744 153.008 102.734 153.229H102.324C102.337 152.881 102.442 152.612 102.641 152.423C102.84 152.233 103.096 152.138 103.41 152.138C103.73 152.138 103.983 152.227 104.17 152.404C104.359 152.581 104.454 152.825 104.454 153.136C104.454 153.394 104.376 153.645 104.221 153.891C104.069 154.133 103.895 154.347 103.699 154.534C103.503 154.717 103.253 154.931 102.949 155.177H104.552V155.531H102.31V155.228ZM105.527 155.596C105.446 155.596 105.378 155.568 105.322 155.512C105.266 155.457 105.238 155.388 105.238 155.307C105.238 155.227 105.266 155.158 105.322 155.102C105.378 155.046 105.446 155.018 105.527 155.018C105.604 155.018 105.67 155.046 105.723 155.102C105.778 155.158 105.806 155.227 105.806 155.307C105.806 155.388 105.778 155.457 105.723 155.512C105.67 155.568 105.604 155.596 105.527 155.596ZM105.527 153.602C105.446 153.602 105.378 153.574 105.322 153.518C105.266 153.462 105.238 153.394 105.238 153.313C105.238 153.232 105.266 153.164 105.322 153.108C105.378 153.052 105.446 153.024 105.527 153.024C105.604 153.024 105.67 153.052 105.723 153.108C105.778 153.164 105.806 153.232 105.806 153.313C105.806 153.394 105.778 153.462 105.723 153.518C105.67 153.574 105.604 153.602 105.527 153.602ZM106.593 153.849C106.593 153.314 106.68 152.898 106.854 152.6C107.028 152.298 107.333 152.148 107.768 152.148C108.2 152.148 108.503 152.298 108.677 152.6C108.851 152.898 108.938 153.314 108.938 153.849C108.938 154.392 108.851 154.815 108.677 155.116C108.503 155.418 108.2 155.568 107.768 155.568C107.333 155.568 107.028 155.418 106.854 155.116C106.68 154.815 106.593 154.392 106.593 153.849ZM108.518 153.849C108.518 153.578 108.499 153.35 108.462 153.164C108.428 152.974 108.355 152.822 108.243 152.707C108.134 152.592 107.976 152.535 107.768 152.535C107.557 152.535 107.395 152.592 107.283 152.707C107.174 152.822 107.101 152.974 107.064 153.164C107.03 153.35 107.013 153.578 107.013 153.849C107.013 154.128 107.03 154.363 107.064 154.552C107.101 154.742 107.174 154.894 107.283 155.009C107.395 155.124 107.557 155.182 107.768 155.182C107.976 155.182 108.134 155.124 108.243 155.009C108.355 154.894 108.428 154.742 108.462 154.552C108.499 154.363 108.518 154.128 108.518 153.849ZM109.799 153.849C109.799 153.314 109.886 152.898 110.06 152.6C110.234 152.298 110.539 152.148 110.974 152.148C111.405 152.148 111.708 152.298 111.882 152.6C112.056 152.898 112.143 153.314 112.143 153.849C112.143 154.392 112.056 154.815 111.882 155.116C111.708 155.418 111.405 155.568 110.974 155.568C110.539 155.568 110.234 155.418 110.06 155.116C109.886 154.815 109.799 154.392 109.799 153.849ZM111.724 153.849C111.724 153.578 111.705 153.35 111.668 153.164C111.634 152.974 111.561 152.822 111.449 152.707C111.34 152.592 111.182 152.535 110.974 152.535C110.762 152.535 110.601 152.592 110.489 152.707C110.38 152.822 110.307 152.974 110.27 153.164C110.236 153.35 110.219 153.578 110.219 153.849C110.219 154.128 110.236 154.363 110.27 154.552C110.307 154.742 110.38 154.894 110.489 155.009C110.601 155.124 110.762 155.182 110.974 155.182C111.182 155.182 111.34 155.124 111.449 155.009C111.561 154.894 111.634 154.742 111.668 154.552C111.705 154.363 111.724 154.128 111.724 153.849Z" fill="#615E83"/>
<path d="M151.381 152.586V152.199H152.257V155.568H151.828V152.586H151.381ZM153.162 154.818V154.497L154.798 152.232H155.306V154.45H155.772V154.818H155.306V155.568H154.887V154.818H153.162ZM154.905 152.674L153.652 154.45H154.905V152.674ZM156.68 155.596C156.599 155.596 156.531 155.568 156.475 155.512C156.419 155.457 156.391 155.388 156.391 155.307C156.391 155.227 156.419 155.158 156.475 155.102C156.531 155.046 156.599 155.018 156.68 155.018C156.758 155.018 156.823 155.046 156.876 155.102C156.932 155.158 156.96 155.227 156.96 155.307C156.96 155.388 156.932 155.457 156.876 155.512C156.823 155.568 156.758 155.596 156.68 155.596ZM156.68 153.602C156.599 153.602 156.531 153.574 156.475 153.518C156.419 153.462 156.391 153.394 156.391 153.313C156.391 153.232 156.419 153.164 156.475 153.108C156.531 153.052 156.599 153.024 156.68 153.024C156.758 153.024 156.823 153.052 156.876 153.108C156.932 153.164 156.96 153.232 156.96 153.313C156.96 153.394 156.932 153.462 156.876 153.518C156.823 153.574 156.758 153.602 156.68 153.602ZM157.747 153.849C157.747 153.314 157.834 152.898 158.008 152.6C158.182 152.298 158.486 152.148 158.921 152.148C159.353 152.148 159.656 152.298 159.83 152.6C160.004 152.898 160.091 153.314 160.091 153.849C160.091 154.392 160.004 154.815 159.83 155.116C159.656 155.418 159.353 155.568 158.921 155.568C158.486 155.568 158.182 155.418 158.008 155.116C157.834 154.815 157.747 154.392 157.747 153.849ZM159.672 153.849C159.672 153.578 159.653 153.35 159.616 153.164C159.581 152.974 159.508 152.822 159.397 152.707C159.288 152.592 159.129 152.535 158.921 152.535C158.71 152.535 158.548 152.592 158.437 152.707C158.328 152.822 158.255 152.974 158.218 153.164C158.183 153.35 158.166 153.578 158.166 153.849C158.166 154.128 158.183 154.363 158.218 154.552C158.255 154.742 158.328 154.894 158.437 155.009C158.548 155.124 158.71 155.182 158.921 155.182C159.129 155.182 159.288 155.124 159.397 155.009C159.508 154.894 159.581 154.742 159.616 154.552C159.653 154.363 159.672 154.128 159.672 153.849ZM160.953 153.849C160.953 153.314 161.04 152.898 161.214 152.6C161.388 152.298 161.692 152.148 162.127 152.148C162.559 152.148 162.862 152.298 163.036 152.6C163.21 152.898 163.297 153.314 163.297 153.849C163.297 154.392 163.21 154.815 163.036 155.116C162.862 155.418 162.559 155.568 162.127 155.568C161.692 155.568 161.388 155.418 161.214 155.116C161.04 154.815 160.953 154.392 160.953 153.849ZM162.877 153.849C162.877 153.578 162.859 153.35 162.821 153.164C162.787 152.974 162.714 152.822 162.602 152.707C162.494 152.592 162.335 152.535 162.127 152.535C161.916 152.535 161.754 152.592 161.642 152.707C161.534 152.822 161.461 152.974 161.423 153.164C161.389 153.35 161.372 153.578 161.372 153.849C161.372 154.128 161.389 154.363 161.423 154.552C161.461 154.742 161.534 154.894 161.642 155.009C161.754 155.124 161.916 155.182 162.127 155.182C162.335 155.182 162.494 155.124 162.602 155.009C162.714 154.894 162.787 154.742 162.821 154.552C162.859 154.363 162.877 154.128 162.877 153.849Z" fill="#615E83"/>
<path d="M202.901 152.586V152.199H203.777V155.568H203.349V152.586H202.901ZM206.663 153.001C206.595 152.656 206.382 152.483 206.025 152.483C205.748 152.483 205.542 152.591 205.405 152.805C205.268 153.016 205.202 153.366 205.205 153.853C205.276 153.692 205.394 153.566 205.559 153.476C205.727 153.383 205.913 153.336 206.118 153.336C206.438 153.336 206.693 153.436 206.882 153.634C207.075 153.833 207.171 154.108 207.171 154.459C207.171 154.671 207.129 154.86 207.046 155.028C206.965 155.196 206.84 155.329 206.673 155.429C206.508 155.528 206.308 155.578 206.072 155.578C205.752 155.578 205.501 155.506 205.321 155.363C205.141 155.22 205.015 155.023 204.944 154.771C204.872 154.52 204.837 154.209 204.837 153.839C204.837 152.699 205.234 152.129 206.03 152.129C206.334 152.129 206.573 152.212 206.747 152.376C206.921 152.541 207.024 152.749 207.055 153.001H206.663ZM206.03 153.695C205.896 153.695 205.77 153.723 205.652 153.779C205.534 153.832 205.438 153.914 205.363 154.026C205.292 154.135 205.256 154.268 205.256 154.427C205.256 154.663 205.324 154.855 205.461 155.004C205.598 155.151 205.793 155.224 206.048 155.224C206.266 155.224 206.438 155.157 206.566 155.023C206.696 154.886 206.761 154.703 206.761 154.473C206.761 154.231 206.699 154.041 206.575 153.905C206.451 153.765 206.269 153.695 206.03 153.695ZM208.228 155.596C208.147 155.596 208.079 155.568 208.023 155.512C207.967 155.457 207.939 155.388 207.939 155.307C207.939 155.227 207.967 155.158 208.023 155.102C208.079 155.046 208.147 155.018 208.228 155.018C208.306 155.018 208.371 155.046 208.424 155.102C208.48 155.158 208.508 155.227 208.508 155.307C208.508 155.388 208.48 155.457 208.424 155.512C208.371 155.568 208.306 155.596 208.228 155.596ZM208.228 153.602C208.147 153.602 208.079 153.574 208.023 153.518C207.967 153.462 207.939 153.394 207.939 153.313C207.939 153.232 207.967 153.164 208.023 153.108C208.079 153.052 208.147 153.024 208.228 153.024C208.306 153.024 208.371 153.052 208.424 153.108C208.48 153.164 208.508 153.232 208.508 153.313C208.508 153.394 208.48 153.462 208.424 153.518C208.371 153.574 208.306 153.602 208.228 153.602ZM209.295 153.849C209.295 153.314 209.382 152.898 209.556 152.6C209.73 152.298 210.034 152.148 210.469 152.148C210.901 152.148 211.204 152.298 211.378 152.6C211.552 152.898 211.639 153.314 211.639 153.849C211.639 154.392 211.552 154.815 211.378 155.116C211.204 155.418 210.901 155.568 210.469 155.568C210.034 155.568 209.73 155.418 209.556 155.116C209.382 154.815 209.295 154.392 209.295 153.849ZM211.219 153.849C211.219 153.578 211.201 153.35 211.163 153.164C211.129 152.974 211.056 152.822 210.944 152.707C210.836 152.592 210.677 152.535 210.469 152.535C210.258 152.535 210.096 152.592 209.984 152.707C209.876 152.822 209.803 152.974 209.765 153.164C209.731 153.35 209.714 153.578 209.714 153.849C209.714 154.128 209.731 154.363 209.765 154.552C209.803 154.742 209.876 154.894 209.984 155.009C210.096 155.124 210.258 155.182 210.469 155.182C210.677 155.182 210.836 155.124 210.944 155.009C211.056 154.894 211.129 154.742 211.163 154.552C211.201 154.363 211.219 154.128 211.219 153.849ZM212.501 153.849C212.501 153.314 212.588 152.898 212.762 152.6C212.936 152.298 213.24 152.148 213.675 152.148C214.107 152.148 214.41 152.298 214.584 152.6C214.758 152.898 214.845 153.314 214.845 153.849C214.845 154.392 214.758 154.815 214.584 155.116C214.41 155.418 214.107 155.568 213.675 155.568C213.24 155.568 212.936 155.418 212.762 155.116C212.588 154.815 212.501 154.392 212.501 153.849ZM214.425 153.849C214.425 153.578 214.407 153.35 214.369 153.164C214.335 152.974 214.262 152.822 214.15 152.707C214.042 152.592 213.883 152.535 213.675 152.535C213.464 152.535 213.302 152.592 213.19 152.707C213.082 152.822 213.009 152.974 212.971 153.164C212.937 153.35 212.92 153.578 212.92 153.849C212.92 154.128 212.937 154.363 212.971 154.552C213.009 154.742 213.082 154.894 213.19 155.009C213.302 155.124 213.464 155.182 213.675 155.182C213.883 155.182 214.042 155.124 214.15 155.009C214.262 154.894 214.335 154.742 214.369 154.552C214.407 154.363 214.425 154.128 214.425 153.849Z" fill="#615E83"/>
<path d="M254.192 152.586V152.199H255.068V155.568H254.639V152.586H254.192ZM256.691 153.816C256.517 153.748 256.383 153.648 256.29 153.518C256.197 153.387 256.15 153.229 256.15 153.043C256.15 152.875 256.192 152.724 256.276 152.591C256.36 152.454 256.484 152.347 256.649 152.269C256.817 152.188 257.019 152.148 257.255 152.148C257.491 152.148 257.691 152.188 257.856 152.269C258.024 152.347 258.15 152.454 258.233 152.591C258.32 152.724 258.364 152.875 258.364 153.043C258.364 153.223 258.316 153.381 258.22 153.518C258.123 153.651 257.991 153.751 257.823 153.816C258.016 153.875 258.168 153.979 258.28 154.128C258.395 154.274 258.453 154.451 258.453 154.66C258.453 154.862 258.403 155.039 258.303 155.191C258.204 155.34 258.063 155.457 257.879 155.54C257.699 155.621 257.491 155.662 257.255 155.662C257.019 155.662 256.811 155.621 256.63 155.54C256.453 155.457 256.315 155.34 256.216 155.191C256.116 155.039 256.067 154.862 256.067 154.66C256.067 154.451 256.122 154.273 256.234 154.124C256.346 153.975 256.498 153.872 256.691 153.816ZM257.954 153.094C257.954 152.904 257.892 152.758 257.767 152.656C257.643 152.553 257.472 152.502 257.255 152.502C257.04 152.502 256.871 152.553 256.747 152.656C256.623 152.758 256.561 152.906 256.561 153.098C256.561 153.272 256.624 153.412 256.752 153.518C256.882 153.624 257.05 153.676 257.255 153.676C257.463 153.676 257.631 153.624 257.758 153.518C257.889 153.409 257.954 153.268 257.954 153.094ZM257.255 154.003C257.025 154.003 256.837 154.057 256.691 154.166C256.545 154.271 256.472 154.431 256.472 154.646C256.472 154.844 256.542 155.004 256.682 155.126C256.825 155.247 257.016 155.307 257.255 155.307C257.494 155.307 257.684 155.247 257.823 155.126C257.963 155.004 258.033 154.844 258.033 154.646C258.033 154.437 257.962 154.279 257.819 154.17C257.676 154.058 257.488 154.003 257.255 154.003ZM259.5 155.596C259.42 155.596 259.351 155.568 259.295 155.512C259.239 155.457 259.211 155.388 259.211 155.307C259.211 155.227 259.239 155.158 259.295 155.102C259.351 155.046 259.42 155.018 259.5 155.018C259.578 155.018 259.643 155.046 259.696 155.102C259.752 155.158 259.78 155.227 259.78 155.307C259.78 155.388 259.752 155.457 259.696 155.512C259.643 155.568 259.578 155.596 259.5 155.596ZM259.5 153.602C259.42 153.602 259.351 153.574 259.295 153.518C259.239 153.462 259.211 153.394 259.211 153.313C259.211 153.232 259.239 153.164 259.295 153.108C259.351 153.052 259.42 153.024 259.5 153.024C259.578 153.024 259.643 153.052 259.696 153.108C259.752 153.164 259.78 153.232 259.78 153.313C259.78 153.394 259.752 153.462 259.696 153.518C259.643 153.574 259.578 153.602 259.5 153.602ZM260.567 153.849C260.567 153.314 260.654 152.898 260.828 152.6C261.002 152.298 261.306 152.148 261.741 152.148C262.173 152.148 262.476 152.298 262.65 152.6C262.824 152.898 262.911 153.314 262.911 153.849C262.911 154.392 262.824 154.815 262.65 155.116C262.476 155.418 262.173 155.568 261.741 155.568C261.306 155.568 261.002 155.418 260.828 155.116C260.654 154.815 260.567 154.392 260.567 153.849ZM262.492 153.849C262.492 153.578 262.473 153.35 262.436 153.164C262.402 152.974 262.329 152.822 262.217 152.707C262.108 152.592 261.95 152.535 261.741 152.535C261.53 152.535 261.369 152.592 261.257 152.707C261.148 152.822 261.075 152.974 261.038 153.164C261.004 153.35 260.986 153.578 260.986 153.849C260.986 154.128 261.004 154.363 261.038 154.552C261.075 154.742 261.148 154.894 261.257 155.009C261.369 155.124 261.53 155.182 261.741 155.182C261.95 155.182 262.108 155.124 262.217 155.009C262.329 154.894 262.402 154.742 262.436 154.552C262.473 154.363 262.492 154.128 262.492 153.849ZM263.773 153.849C263.773 153.314 263.86 152.898 264.034 152.6C264.208 152.298 264.512 152.148 264.947 152.148C265.379 152.148 265.682 152.298 265.856 152.6C266.03 152.898 266.117 153.314 266.117 153.849C266.117 154.392 266.03 154.815 265.856 155.116C265.682 155.418 265.379 155.568 264.947 155.568C264.512 155.568 264.208 155.418 264.034 155.116C263.86 154.815 263.773 154.392 263.773 153.849ZM265.698 153.849C265.698 153.578 265.679 153.35 265.642 153.164C265.607 152.974 265.534 152.822 265.423 152.707C265.314 152.592 265.155 152.535 264.947 152.535C264.736 152.535 264.574 152.592 264.463 152.707C264.354 152.822 264.281 152.974 264.244 153.164C264.209 153.35 264.192 153.578 264.192 153.849C264.192 154.128 264.209 154.363 264.244 154.552C264.281 154.742 264.354 154.894 264.463 155.009C264.574 155.124 264.736 155.182 264.947 155.182C265.155 155.182 265.314 155.124 265.423 155.009C265.534 154.894 265.607 154.742 265.642 154.552C265.679 154.363 265.698 154.128 265.698 153.849Z" fill="#615E83"/>
<line x1="101.41" y1="143.33" x2="101.41" y2="66.6041" stroke="#E5E5EF" stroke-width="0.4993" stroke-linecap="round" stroke-dasharray="1.33 2.33"/>
<line x1="157.287" y1="143.33" x2="157.287" y2="66.6041" stroke="#E5E5EF" stroke-width="0.4993" stroke-linecap="round" stroke-dasharray="1.33 2.33"/>
<line x1="213.166" y1="143.33" x2="213.166" y2="66.6041" stroke="#E5E5EF" stroke-width="0.4993" stroke-linecap="round" stroke-dasharray="1.33 2.33"/>
<g style="mix-blend-mode:multiply" opacity="0.33">
<path d="M33.3919 126.714C31.9527 126.538 29.4939 127.374 28.4443 127.814V167.545H286.606V122.023C285.369 122.023 285.594 122.023 283.57 120.557C281.546 119.091 280.984 118.432 277.611 119.531C274.237 120.631 273.788 119.531 271.539 117.552C269.29 115.573 268.166 116.159 265.467 116.819C262.769 117.479 262.319 114.767 259.449 112.934C256.579 111.102 255.348 115.133 254.223 117.992C253.105 120.833 250.544 123.457 248.194 125.864L248.151 125.908C245.79 128.327 242.305 124.955 241.18 123.489C240.056 122.023 239.718 121.803 236.345 122.023C232.972 122.243 231.96 121.29 230.836 119.531C229.711 117.772 229.936 118.212 227.35 116.819C224.764 115.426 223.527 116.379 222.065 116.159C220.604 115.94 218.917 113.374 217.793 111.908C216.668 110.442 216.781 109.416 213.408 110.076C210.083 110.726 209.38 109.952 207.638 108.035L207.561 107.95C205.762 105.971 204.525 105.384 200.927 104.358C197.329 103.332 198.453 103.772 195.755 104.358C193.056 104.945 191.707 104.138 190.02 102.746C188.334 101.353 188.896 98.5677 184.286 99.6672C179.676 100.767 178.664 98.1279 177.652 95.3425C176.64 92.5572 173.829 92.5572 171.018 93.1435C168.207 93.7299 166.97 89.6985 166.745 86.9132C166.52 84.1278 166.295 83.0283 163.035 83.0283C159.774 83.0283 159.999 87.4262 158.762 93.1435C157.525 98.8608 158.2 99.0075 154.489 99.2274L154.489 99.2274C150.779 99.4473 150.779 99.4473 148.755 103.772C146.731 108.096 145.944 107.95 142.346 107.95C138.748 107.95 137.398 111.395 136.162 114.987C134.939 118.536 132.29 117.576 128.322 116.138L128.178 116.086C124.131 114.62 123.231 114.987 120.645 109.782C118.059 104.578 114.798 106.997 113.336 110.222C111.875 113.447 111.088 113.887 108.614 114.987C106.14 116.086 103.667 116.379 102.767 118.358C101.868 120.337 98.8317 121.95 96.2456 120.777C93.6595 119.604 91.748 119.898 90.2863 121.95C88.8246 124.002 87.3628 123.929 85.6763 124.149C83.9897 124.369 80.3916 124.149 78.5926 126.201C76.7935 128.254 74.3199 127.814 72.9706 127.374C71.6213 126.934 68.8103 126.714 67.9108 127.374C67.0113 128.034 64.3127 130.379 61.331 126.714C58.3493 123.049 54.9803 125.468 54.3056 126.201L54.2786 126.231C53.5896 126.98 52.0244 128.682 49.5832 127.814C47.1095 126.934 45.0856 126.714 43.1741 127.814C41.2626 128.914 39.4636 129.353 38.1143 128.694C36.7651 128.034 35.1909 126.934 33.3919 126.714Z" fill="url(#paint0_linear_7342_112400)"/>
</g>
<path d="M29.457 127.453C30.4984 127.017 32.9381 126.187 34.3661 126.362C36.1511 126.58 37.713 127.671 39.0518 128.326C40.3905 128.98 42.1756 128.544 44.0722 127.453C45.9688 126.362 47.9769 126.58 50.4313 127.453C52.8857 128.326 54.4476 126.58 55.117 125.853C55.7864 125.126 59.1293 122.726 62.0878 126.362C65.0463 129.998 67.7238 127.671 68.6163 127.017C69.5088 126.362 72.298 126.58 73.6367 127.017C74.9755 127.453 77.4299 127.889 79.2149 125.853C81 123.816 84.57 124.035 86.2435 123.816C87.917 123.598 89.3673 123.671 90.8176 121.635C92.268 119.598 94.1646 119.307 96.7306 120.471C99.2965 121.635 102.309 120.035 103.201 118.071C104.094 116.107 106.548 115.816 109.003 114.725C111.457 113.635 112.238 113.198 113.688 109.998C115.139 106.798 118.374 104.398 120.94 109.562C123.506 114.725 124.399 114.362 128.415 115.816C132.431 117.271 135.109 118.289 136.336 114.725C137.563 111.162 138.902 107.743 142.472 107.743C146.042 107.743 146.823 107.889 148.831 103.598C150.839 99.307 150.839 99.307 154.521 99.0888C158.203 98.8706 157.533 98.7252 158.76 93.0524C159.988 87.3795 159.764 83.0159 163 83.0159C166.235 83.0159 166.458 84.1068 166.681 86.8705C166.905 89.6341 168.132 93.6342 170.921 93.0524C173.71 92.4706 176.499 92.4706 177.503 95.2342C178.507 97.9979 179.511 100.616 184.085 99.5252C188.66 98.4343 188.102 101.198 189.775 102.58C191.449 103.962 192.788 104.762 195.465 104.18C198.143 103.598 197.027 103.162 200.597 104.18C204.167 105.198 205.394 105.78 207.179 107.744C208.964 109.707 209.634 110.507 212.981 109.853C216.328 109.198 216.216 110.216 217.332 111.671C218.447 113.125 220.121 115.671 221.571 115.889C223.021 116.107 224.249 115.162 226.815 116.544C229.381 117.925 229.158 117.489 230.273 119.235C231.389 120.98 232.393 121.926 235.74 121.707C239.087 121.489 239.421 121.707 240.537 123.162C241.653 124.616 245.111 127.962 247.454 125.562C249.797 123.162 252.363 120.544 253.479 117.707C254.594 114.871 255.817 110.871 258.664 112.689C261.511 114.507 261.957 117.198 264.635 116.544C267.313 115.889 268.428 115.307 270.659 117.271C272.891 119.235 273.337 120.326 276.684 119.235C280.031 118.144 280.589 118.798 282.597 120.253C284.605 121.707 284.382 121.707 285.609 121.707" stroke="#1BAAC7" stroke-width="1.33147" stroke-linecap="round"/>
<line x1="116.899" y1="106.52" x2="116.899" y2="143.247" stroke="#9291A5" stroke-width="0.665734" stroke-linecap="round" stroke-dasharray="2.33 2.33"/>
<g filter="url(#filter0_d_7342_112400)">
<ellipse cx="116.869" cy="105.906" rx="3.99013" ry="3.32867" fill="#1BAAC7"/>
<path d="M116.869 103.243C118.823 103.243 120.193 104.544 120.193 105.906C120.193 107.269 118.823 108.569 116.869 108.569C114.915 108.569 113.545 107.269 113.545 105.906C113.545 104.544 114.915 103.243 116.869 103.243Z" stroke="white" stroke-width="1.33147"/>
</g>
<g filter="url(#filter1_d_7342_112400)">
<path d="M133.607 94.6431C133.607 96.1138 132.415 97.3062 130.944 97.3062L121.208 97.3062C121.175 97.3437 121.137 97.3797 121.093 97.4116L117.56 99.9556C117.327 100.123 117.015 100.123 116.782 99.9556L113.249 97.4116C113.205 97.3798 113.168 97.3436 113.135 97.3062L103.397 97.3062C101.927 97.306 100.734 96.1137 100.734 94.6431L100.734 85.9888C100.734 84.5182 101.927 83.3259 103.397 83.3257L130.944 83.3257C132.415 83.3257 133.607 84.5181 133.607 85.9888L133.607 94.6431Z" fill="white"/>
</g>
<path d="M115.079 88.9597H113.295V90.0195C113.369 89.9201 113.479 89.8367 113.625 89.7692C113.774 89.7018 113.932 89.668 114.099 89.668C114.397 89.668 114.639 89.7319 114.823 89.8598C115.011 89.9876 115.145 90.1491 115.223 90.3444C115.304 90.5397 115.345 90.7456 115.345 90.9622C115.345 91.225 115.294 91.4593 115.191 91.6652C115.091 91.8676 114.94 92.0274 114.738 92.1446C114.539 92.2617 114.294 92.3203 114.003 92.3203C113.616 92.3203 113.305 92.2244 113.071 92.0327C112.837 91.841 112.696 91.5871 112.65 91.2711H113.242C113.281 91.438 113.368 91.5711 113.502 91.6706C113.637 91.7664 113.806 91.8144 114.008 91.8144C114.261 91.8144 114.449 91.738 114.573 91.5853C114.701 91.4327 114.765 91.2303 114.765 90.9782C114.765 90.7226 114.701 90.5273 114.573 90.3923C114.445 90.2539 114.257 90.1846 114.008 90.1846C113.834 90.1846 113.687 90.229 113.566 90.3178C113.449 90.403 113.364 90.5202 113.311 90.6693H112.736V88.4271H115.079V88.9597ZM118.438 88.9064L116.957 92.3203H116.345L117.841 88.9703H115.871V88.4537H118.438V88.9064ZM118.883 91.5108V91.0528L120.672 88.4857H121.407V90.9835H121.903V91.5108H121.407V92.3203H120.811V91.5108H118.883ZM120.837 89.1035L119.581 90.9835H120.837V89.1035Z" fill="#1E1B39"/>
<path d="M32.623 53.5413L31.4953 51.5494H31.012V53.5413H29.9867V48.4298H31.9054C32.3008 48.4298 32.6377 48.5005 32.916 48.6421C33.1942 48.7788 33.4017 48.9668 33.5384 49.206C33.68 49.4403 33.7508 49.704 33.7508 49.9969C33.7508 50.3338 33.6532 50.6389 33.4579 50.9123C33.2626 51.1808 32.9721 51.3663 32.5864 51.4688L33.8094 53.5413H32.623ZM31.012 50.7805H31.8688C32.147 50.7805 32.3545 50.7146 32.4912 50.5827C32.6279 50.446 32.6963 50.2581 32.6963 50.0189C32.6963 49.7845 32.6279 49.6039 32.4912 49.477C32.3545 49.3451 32.147 49.2792 31.8688 49.2792H31.012V50.7805ZM38.4495 51.4249C38.4495 51.5714 38.4397 51.7032 38.4202 51.8203H35.4543C35.4787 52.1133 35.5813 52.3427 35.7619 52.5087C35.9425 52.6747 36.1647 52.7577 36.4283 52.7577C36.8091 52.7577 37.08 52.5941 37.2412 52.267H38.3469C38.2298 52.6576 38.0052 52.9798 37.6732 53.2337C37.3412 53.4827 36.9336 53.6072 36.4503 53.6072C36.0597 53.6072 35.7082 53.5217 35.3957 53.3509C35.0882 53.1751 34.8465 52.9286 34.6708 52.6112C34.4999 52.2939 34.4144 51.9277 34.4144 51.5128C34.4144 51.0929 34.4999 50.7243 34.6708 50.407C34.8416 50.0897 35.0808 49.8456 35.3884 49.6747C35.696 49.5038 36.0499 49.4184 36.4503 49.4184C36.8359 49.4184 37.1801 49.5014 37.4828 49.6674C37.7904 49.8333 38.0272 50.0701 38.1932 50.3777C38.364 50.6804 38.4495 51.0294 38.4495 51.4249ZM37.3876 51.132C37.3827 50.8683 37.2875 50.6584 37.102 50.5022C36.9165 50.3411 36.6895 50.2605 36.421 50.2605C36.1671 50.2605 35.9523 50.3386 35.7765 50.4949C35.6057 50.6462 35.5007 50.8586 35.4616 51.132H37.3876ZM38.9342 51.4981C38.9342 51.088 39.0147 50.7243 39.1758 50.407C39.3418 50.0897 39.5639 49.8456 39.8422 49.6747C40.1254 49.5038 40.4403 49.4184 40.7869 49.4184C41.0896 49.4184 41.3532 49.4794 41.5778 49.6014C41.8072 49.7235 41.9903 49.8773 42.127 50.0628V49.4843H43.1596V53.5413H42.127V52.9481C41.9952 53.1385 41.8121 53.2972 41.5778 53.4241C41.3483 53.5461 41.0823 53.6072 40.7796 53.6072C40.4378 53.6072 40.1254 53.5193 39.8422 53.3435C39.5639 53.1678 39.3418 52.9212 39.1758 52.6039C39.0147 52.2817 38.9342 51.9131 38.9342 51.4981ZM42.127 51.5128C42.127 51.2638 42.0782 51.0514 41.9806 50.8757C41.8829 50.695 41.7511 50.5583 41.5851 50.4656C41.4191 50.3679 41.2409 50.3191 41.0505 50.3191C40.8601 50.3191 40.6844 50.3655 40.5233 50.4582C40.3622 50.551 40.2303 50.6877 40.1278 50.8683C40.0302 51.0441 39.9814 51.254 39.9814 51.4981C39.9814 51.7422 40.0302 51.957 40.1278 52.1426C40.2303 52.3232 40.3622 52.4623 40.5233 52.56C40.6892 52.6576 40.865 52.7064 41.0505 52.7064C41.2409 52.7064 41.4191 52.6601 41.5851 52.5673C41.7511 52.4697 41.8829 52.333 41.9806 52.1572C42.0782 51.9766 42.127 51.7618 42.127 51.5128ZM45.1861 48.1222V53.5413H44.1609V48.1222H45.1861ZM49.3187 50.4949V51.359H46.2137V50.4949H49.3187ZM51.6621 50.3264V52.289C51.6621 52.4257 51.6938 52.5258 51.7573 52.5893C51.8257 52.6478 51.9379 52.6771 52.0942 52.6771H52.5702V53.5413H51.9257C51.0616 53.5413 50.6296 53.1214 50.6296 52.2817V50.3264H50.1462V49.4843H50.6296V48.481H51.6621V49.4843H52.5702V50.3264H51.6621ZM53.8275 49.001C53.6469 49.001 53.4955 48.9448 53.3735 48.8325C53.2563 48.7154 53.1977 48.5713 53.1977 48.4005C53.1977 48.2296 53.2563 48.088 53.3735 47.9757C53.4955 47.8586 53.6469 47.8 53.8275 47.8C54.0081 47.8 54.157 47.8586 54.2742 47.9757C54.3963 48.088 54.4573 48.2296 54.4573 48.4005C54.4573 48.5713 54.3963 48.7154 54.2742 48.8325C54.157 48.9448 54.0081 49.001 53.8275 49.001ZM54.3328 49.4843V53.5413H53.3076V49.4843H54.3328ZM60.384 49.4257C60.882 49.4257 61.2823 49.5795 61.585 49.887C61.8925 50.1897 62.0463 50.6145 62.0463 51.1613V53.5413H61.0211V51.3004C61.0211 50.9831 60.9405 50.7414 60.7794 50.5754C60.6183 50.4045 60.3986 50.3191 60.1204 50.3191C59.8421 50.3191 59.62 50.4045 59.454 50.5754C59.2929 50.7414 59.2123 50.9831 59.2123 51.3004V53.5413H58.1871V51.3004C58.1871 50.9831 58.1065 50.7414 57.9454 50.5754C57.7843 50.4045 57.5646 50.3191 57.2863 50.3191C57.0032 50.3191 56.7786 50.4045 56.6126 50.5754C56.4515 50.7414 56.371 50.9831 56.371 51.3004V53.5413H55.3457V49.4843H56.371V49.9749C56.5028 49.8041 56.6712 49.6698 56.8762 49.5722C57.0862 49.4745 57.3156 49.4257 57.5646 49.4257C57.8819 49.4257 58.1651 49.494 58.4141 49.6307C58.6631 49.7626 58.8559 49.953 58.9926 50.2019C59.1244 49.9676 59.3148 49.7796 59.5638 49.6381C59.8177 49.4965 60.0911 49.4257 60.384 49.4257ZM66.7906 51.4249C66.7906 51.5714 66.7808 51.7032 66.7613 51.8203H63.7955C63.8199 52.1133 63.9224 52.3427 64.103 52.5087C64.2837 52.6747 64.5058 52.7577 64.7694 52.7577C65.1502 52.7577 65.4212 52.5941 65.5823 52.267H66.6881C66.5709 52.6576 66.3463 52.9798 66.0143 53.2337C65.6824 53.4827 65.2747 53.6072 64.7914 53.6072C64.4008 53.6072 64.0493 53.5217 63.7369 53.3509C63.4293 53.1751 63.1876 52.9286 63.0119 52.6112C62.841 52.2939 62.7556 51.9277 62.7556 51.5128C62.7556 51.0929 62.841 50.7243 63.0119 50.407C63.1828 50.0897 63.422 49.8456 63.7295 49.6747C64.0371 49.5038 64.3911 49.4184 64.7914 49.4184C65.1771 49.4184 65.5213 49.5014 65.8239 49.6674C66.1315 49.8333 66.3683 50.0701 66.5343 50.3777C66.7052 50.6804 66.7906 51.0294 66.7906 51.4249ZM65.7287 51.132C65.7239 50.8683 65.6287 50.6584 65.4431 50.5022C65.2576 50.3411 65.0306 50.2605 64.7621 50.2605C64.5082 50.2605 64.2934 50.3386 64.1177 50.4949C63.9468 50.6462 63.8418 50.8586 63.8028 51.132H65.7287ZM71.0853 53.6072C70.6948 53.6072 70.3433 53.5217 70.0308 53.3509C69.7184 53.1751 69.4718 52.9286 69.2912 52.6112C69.1154 52.2939 69.0276 51.9277 69.0276 51.5128C69.0276 51.0978 69.1179 50.7316 69.2985 50.4143C69.484 50.097 69.7355 49.8529 70.0528 49.682C70.3701 49.5062 70.7241 49.4184 71.1146 49.4184C71.5052 49.4184 71.8591 49.5062 72.1765 49.682C72.4938 49.8529 72.7428 50.097 72.9234 50.4143C73.109 50.7316 73.2017 51.0978 73.2017 51.5128C73.2017 51.9277 73.1065 52.2939 72.9161 52.6112C72.7306 52.9286 72.4767 53.1751 72.1545 53.3509C71.8372 53.5217 71.4808 53.6072 71.0853 53.6072ZM71.0853 52.7138C71.2709 52.7138 71.4442 52.6698 71.6053 52.5819C71.7713 52.4892 71.9031 52.3525 72.0007 52.1718C72.0984 51.9912 72.1472 51.7715 72.1472 51.5128C72.1472 51.1271 72.0447 50.8317 71.8396 50.6267C71.6395 50.4168 71.3929 50.3118 71.1 50.3118C70.8071 50.3118 70.5605 50.4168 70.3604 50.6267C70.1651 50.8317 70.0674 51.1271 70.0674 51.5128C70.0674 51.8985 70.1626 52.1963 70.353 52.4062C70.5483 52.6112 70.7924 52.7138 71.0853 52.7138ZM74.979 50.1141C75.1108 49.8993 75.2817 49.7308 75.4916 49.6088C75.7064 49.4867 75.9505 49.4257 76.2239 49.4257V50.5022H75.953C75.6307 50.5022 75.3866 50.5779 75.2206 50.7292C75.0595 50.8805 74.979 51.1442 74.979 51.5201V53.5413H73.9538V49.4843H74.979V50.1141ZM76.6508 51.4981C76.6508 51.088 76.7314 50.7243 76.8925 50.407C77.0585 50.0897 77.283 49.8456 77.5662 49.6747C77.8494 49.5038 78.1643 49.4184 78.5109 49.4184C78.7745 49.4184 79.0259 49.477 79.2652 49.5941C79.5044 49.7064 79.6948 49.8578 79.8364 50.0482V48.1222H80.8762V53.5413H79.8364V52.9408C79.7094 53.1409 79.5312 53.302 79.3018 53.4241C79.0723 53.5461 78.8062 53.6072 78.5036 53.6072C78.1618 53.6072 77.8494 53.5193 77.5662 53.3435C77.283 53.1678 77.0585 52.9212 76.8925 52.6039C76.7314 52.2817 76.6508 51.9131 76.6508 51.4981ZM79.8437 51.5128C79.8437 51.2638 79.7949 51.0514 79.6972 50.8757C79.5996 50.695 79.4678 50.5583 79.3018 50.4656C79.1358 50.3679 78.9576 50.3191 78.7672 50.3191C78.5768 50.3191 78.401 50.3655 78.2399 50.4582C78.0788 50.551 77.947 50.6877 77.8445 50.8683C77.7468 51.0441 77.698 51.254 77.698 51.4981C77.698 51.7422 77.7468 51.957 77.8445 52.1426C77.947 52.3232 78.0788 52.4623 78.2399 52.56C78.4059 52.6576 78.5817 52.7064 78.7672 52.7064C78.9576 52.7064 79.1358 52.6601 79.3018 52.5673C79.4678 52.4697 79.5996 52.333 79.6972 52.1572C79.7949 51.9766 79.8437 51.7618 79.8437 51.5128ZM85.6489 51.4249C85.6489 51.5714 85.6392 51.7032 85.6196 51.8203H82.6538C82.6782 52.1133 82.7807 52.3427 82.9614 52.5087C83.142 52.6747 83.3641 52.7577 83.6278 52.7577C84.0086 52.7577 84.2795 52.5941 84.4406 52.267H85.5464C85.4292 52.6576 85.2047 52.9798 84.8727 53.2337C84.5407 53.4827 84.1331 53.6072 83.6497 53.6072C83.2592 53.6072 82.9077 53.5217 82.5952 53.3509C82.2876 53.1751 82.046 52.9286 81.8702 52.6112C81.6994 52.2939 81.6139 51.9277 81.6139 51.5128C81.6139 51.0929 81.6994 50.7243 81.8702 50.407C82.0411 50.0897 82.2803 49.8456 82.5879 49.6747C82.8955 49.5038 83.2494 49.4184 83.6497 49.4184C84.0354 49.4184 84.3796 49.5014 84.6823 49.6674C84.9898 49.8333 85.2266 50.0701 85.3926 50.3777C85.5635 50.6804 85.6489 51.0294 85.6489 51.4249ZM84.5871 51.132C84.5822 50.8683 84.487 50.6584 84.3015 50.5022C84.116 50.3411 83.8889 50.2605 83.6204 50.2605C83.3666 50.2605 83.1518 50.3386 82.976 50.4949C82.8051 50.6462 82.7002 50.8586 82.6611 51.132H84.5871ZM87.4225 50.1141C87.5543 49.8993 87.7252 49.7308 87.9351 49.6088C88.1499 49.4867 88.394 49.4257 88.6674 49.4257V50.5022H88.3964C88.0742 50.5022 87.8301 50.5779 87.6641 50.7292C87.503 50.8805 87.4225 51.1442 87.4225 51.5201V53.5413H86.3972V49.4843H87.4225V50.1141ZM90.9104 53.6072C90.5785 53.6072 90.2807 53.5486 90.017 53.4314C89.7534 53.3094 89.5435 53.1458 89.3872 52.9408C89.2359 52.7357 89.1529 52.5087 89.1383 52.2597H90.1708C90.1903 52.4159 90.266 52.5453 90.3978 52.6478C90.5345 52.7504 90.7029 52.8016 90.9031 52.8016C91.0984 52.8016 91.2497 52.7626 91.3571 52.6845C91.4694 52.6063 91.5256 52.5063 91.5256 52.3842C91.5256 52.2524 91.4572 52.1548 91.3205 52.0913C91.1887 52.0229 90.9763 51.9497 90.6834 51.8716C90.3807 51.7984 90.1317 51.7227 89.9365 51.6446C89.7461 51.5665 89.5801 51.4469 89.4385 51.2858C89.3018 51.1246 89.2335 50.9074 89.2335 50.634C89.2335 50.4094 89.2969 50.2044 89.4239 50.0189C89.5557 49.8333 89.7412 49.6869 89.9804 49.5795C90.2245 49.4721 90.5101 49.4184 90.8372 49.4184C91.3205 49.4184 91.7062 49.5404 91.9943 49.7845C92.2823 50.0237 92.441 50.3484 92.4702 50.7585H91.489C91.4743 50.5974 91.406 50.4705 91.2839 50.3777C91.1667 50.2801 91.0081 50.2312 90.8079 50.2312C90.6224 50.2312 90.4784 50.2654 90.3759 50.3338C90.2782 50.4021 90.2294 50.4973 90.2294 50.6194C90.2294 50.7561 90.2977 50.861 90.4344 50.9342C90.5711 51.0026 90.7835 51.0734 91.0715 51.1466C91.3645 51.2198 91.6061 51.2955 91.7965 51.3736C91.9869 51.4517 92.1505 51.5738 92.2872 51.7398C92.4288 51.9009 92.502 52.1157 92.5069 52.3842C92.5069 52.6186 92.441 52.8285 92.3091 53.014C92.1822 53.1995 91.9967 53.346 91.7526 53.4534C91.5134 53.5559 91.2327 53.6072 90.9104 53.6072Z" fill="#1E1B39"/>
<path d="M31.2669 43.5942C30.9913 43.5942 30.7437 43.5463 30.524 43.4504C30.3083 43.3505 30.1385 43.2147 30.0147 43.043C29.8909 42.8672 29.827 42.6655 29.823 42.4378H30.4042C30.4241 42.6335 30.504 42.7993 30.6438 42.9351C30.7876 43.0669 30.9953 43.1328 31.2669 43.1328C31.5266 43.1328 31.7303 43.0689 31.8781 42.9411C32.0299 42.8093 32.1058 42.6415 32.1058 42.4378C32.1058 42.278 32.0618 42.1482 31.974 42.0484C31.8861 41.9485 31.7762 41.8726 31.6444 41.8207C31.5126 41.7687 31.3348 41.7128 31.1112 41.6529C30.8355 41.581 30.6139 41.5091 30.4461 41.4372C30.2823 41.3653 30.1405 41.2535 30.0207 41.1017C29.9049 40.9459 29.8469 40.7382 29.8469 40.4786C29.8469 40.2509 29.9049 40.0492 30.0207 39.8734C30.1365 39.6976 30.2983 39.5618 30.506 39.466C30.7177 39.3701 30.9594 39.3222 31.231 39.3222C31.6224 39.3222 31.942 39.42 32.1896 39.6158C32.4413 39.8115 32.5831 40.0711 32.6151 40.3947H32.0159C31.9959 40.2349 31.912 40.0951 31.7642 39.9753C31.6165 39.8514 31.4207 39.7895 31.1771 39.7895C30.9494 39.7895 30.7636 39.8494 30.6198 39.9693C30.4761 40.0851 30.4042 40.2489 30.4042 40.4606C30.4042 40.6124 30.4461 40.7362 30.53 40.8321C30.6179 40.9279 30.7237 41.0018 30.8475 41.0537C30.9754 41.1017 31.1531 41.1576 31.3808 41.2215C31.6564 41.2974 31.8781 41.3733 32.0459 41.4492C32.2136 41.5211 32.3574 41.6349 32.4772 41.7907C32.5971 41.9425 32.657 42.1502 32.657 42.4138C32.657 42.6176 32.6031 42.8093 32.4952 42.989C32.3874 43.1688 32.2276 43.3146 32.0159 43.4264C31.8042 43.5383 31.5545 43.5942 31.2669 43.5942ZM34.1244 40.7182V42.6535C34.1244 42.8133 34.1584 42.9271 34.2263 42.995C34.2942 43.0589 34.412 43.0909 34.5798 43.0909H34.9812V43.5522H34.4899C34.1863 43.5522 33.9587 43.4823 33.8069 43.3425C33.6551 43.2027 33.5792 42.9731 33.5792 42.6535V40.7182H33.1538V40.2688H33.5792V39.442H34.1244V40.2688H34.9812V40.7182H34.1244ZM35.4381 41.8986C35.4381 41.563 35.506 41.2694 35.6418 41.0178C35.7777 40.7622 35.9634 40.5644 36.1991 40.4246C36.4387 40.2848 36.7044 40.2149 36.9959 40.2149C37.2835 40.2149 37.5332 40.2768 37.7449 40.4007C37.9566 40.5245 38.1144 40.6803 38.2182 40.868V40.2688H38.7695V43.5522H38.2182V42.9411C38.1104 43.1328 37.9486 43.2926 37.7329 43.4204C37.5212 43.5443 37.2736 43.6062 36.99 43.6062C36.6984 43.6062 36.4347 43.5343 36.1991 43.3905C35.9634 43.2467 35.7777 43.045 35.6418 42.7853C35.506 42.5257 35.4381 42.2301 35.4381 41.8986ZM38.2182 41.9046C38.2182 41.6569 38.1683 41.4412 38.0684 41.2575C37.9686 41.0737 37.8328 40.9339 37.661 40.838C37.4932 40.7382 37.3075 40.6883 37.1038 40.6883C36.9001 40.6883 36.7143 40.7362 36.5466 40.8321C36.3788 40.9279 36.245 41.0677 36.1451 41.2515C36.0453 41.4352 35.9953 41.6509 35.9953 41.8986C35.9953 42.1502 36.0453 42.3699 36.1451 42.5576C36.245 42.7414 36.3788 42.8832 36.5466 42.983C36.7143 43.0789 36.9001 43.1268 37.1038 43.1268C37.3075 43.1268 37.4932 43.0789 37.661 42.983C37.8328 42.8832 37.9686 42.7414 38.0684 42.5576C38.1683 42.3699 38.2182 42.1522 38.2182 41.9046ZM40.3559 40.7182V42.6535C40.3559 42.8133 40.3899 42.9271 40.4578 42.995C40.5257 43.0589 40.6435 43.0909 40.8113 43.0909H41.2127V43.5522H40.7214C40.4178 43.5522 40.1902 43.4823 40.0384 43.3425C39.8866 43.2027 39.8107 42.9731 39.8107 42.6535V40.7182H39.3853V40.2688H39.8107V39.442H40.3559V40.2688H41.2127V40.7182H40.3559ZM42.1549 39.7356C42.0511 39.7356 41.9632 39.6996 41.8913 39.6277C41.8194 39.5558 41.7835 39.468 41.7835 39.3641C41.7835 39.2603 41.8194 39.1724 41.8913 39.1005C41.9632 39.0286 42.0511 38.9926 42.1549 38.9926C42.2548 38.9926 42.3387 39.0286 42.4066 39.1005C42.4785 39.1724 42.5144 39.2603 42.5144 39.3641C42.5144 39.468 42.4785 39.5558 42.4066 39.6277C42.3387 39.6996 42.2548 39.7356 42.1549 39.7356ZM42.4186 40.2688V43.5522H41.8733V40.2688H42.4186ZM44.5102 43.6062C44.2586 43.6062 44.0329 43.5642 43.8332 43.4803C43.6334 43.3925 43.4757 43.2726 43.3598 43.1209C43.244 42.9651 43.1801 42.7873 43.1681 42.5876H43.7313C43.7473 42.7514 43.8232 42.8852 43.959 42.989C44.0988 43.0929 44.2805 43.1448 44.5042 43.1448C44.7119 43.1448 44.8757 43.0989 44.9955 43.007C45.1154 42.9151 45.1753 42.7993 45.1753 42.6595C45.1753 42.5157 45.1114 42.4098 44.9835 42.3419C44.8557 42.27 44.658 42.2001 44.3904 42.1322C44.1467 42.0683 43.947 42.0044 43.7912 41.9405C43.6394 41.8726 43.5076 41.7747 43.3958 41.6469C43.2879 41.5151 43.234 41.3433 43.234 41.1316C43.234 40.9639 43.2839 40.8101 43.3838 40.6703C43.4836 40.5305 43.6255 40.4206 43.8092 40.3407C43.9929 40.2569 44.2026 40.2149 44.4383 40.2149C44.8018 40.2149 45.0954 40.3068 45.3191 40.4905C45.5428 40.6743 45.6626 40.9259 45.6786 41.2455H45.1333C45.1214 41.0737 45.0515 40.9359 44.9236 40.8321C44.7998 40.7282 44.632 40.6763 44.4203 40.6763C44.2246 40.6763 44.0688 40.7182 43.953 40.8021C43.8372 40.886 43.7792 40.9958 43.7792 41.1316C43.7792 41.2395 43.8132 41.3294 43.8811 41.4013C43.953 41.4692 44.0409 41.5251 44.1447 41.569C44.2526 41.609 44.4004 41.6549 44.5881 41.7068C44.8238 41.7707 45.0155 41.8347 45.1633 41.8986C45.3111 41.9585 45.4369 42.0504 45.5408 42.1742C45.6486 42.298 45.7045 42.4598 45.7085 42.6595C45.7085 42.8392 45.6586 43.001 45.5587 43.1448C45.4589 43.2886 45.3171 43.4025 45.1333 43.4863C44.9536 43.5662 44.7459 43.6062 44.5102 43.6062ZM47.1433 40.7182V42.6535C47.1433 42.8133 47.1772 42.9271 47.2451 42.995C47.313 43.0589 47.4309 43.0909 47.5986 43.0909H48.0001V43.5522H47.5088C47.2052 43.5522 46.9775 43.4823 46.8257 43.3425C46.6739 43.2027 46.5981 42.9731 46.5981 42.6535V40.7182H46.1726V40.2688H46.5981V39.442H47.1433V40.2688H48.0001V40.7182H47.1433ZM48.9423 39.7356C48.8385 39.7356 48.7506 39.6996 48.6787 39.6277C48.6068 39.5558 48.5708 39.468 48.5708 39.3641C48.5708 39.2603 48.6068 39.1724 48.6787 39.1005C48.7506 39.0286 48.8385 38.9926 48.9423 38.9926C49.0422 38.9926 49.1261 39.0286 49.194 39.1005C49.2659 39.1724 49.3018 39.2603 49.3018 39.3641C49.3018 39.468 49.2659 39.5558 49.194 39.6277C49.1261 39.6996 49.0422 39.7356 48.9423 39.7356ZM49.2059 40.2688V43.5522H48.6607V40.2688H49.2059ZM49.9315 41.9046C49.9315 41.565 49.9994 41.2694 50.1352 41.0178C50.271 40.7622 50.4587 40.5644 50.6984 40.4246C50.9421 40.2848 51.2197 40.2149 51.5312 40.2149C51.9347 40.2149 52.2662 40.3128 52.5259 40.5085C52.7895 40.7042 52.9632 40.9759 53.0471 41.3234H52.4599C52.404 41.1236 52.2942 40.9659 52.1304 40.85C51.9706 40.7342 51.7709 40.6763 51.5312 40.6763C51.2197 40.6763 50.968 40.7841 50.7763 40.9998C50.5846 41.2115 50.4887 41.5131 50.4887 41.9046C50.4887 42.3 50.5846 42.6056 50.7763 42.8213C50.968 43.037 51.2197 43.1448 51.5312 43.1448C51.7709 43.1448 51.9706 43.0889 52.1304 42.9771C52.2902 42.8652 52.4 42.7054 52.4599 42.4977H53.0471C52.9592 42.8333 52.7835 43.1029 52.5199 43.3066C52.2562 43.5063 51.9267 43.6062 51.5312 43.6062C51.2197 43.6062 50.9421 43.5363 50.6984 43.3965C50.4587 43.2567 50.271 43.0589 50.1352 42.8033C49.9994 42.5477 49.9315 42.2481 49.9315 41.9046ZM54.937 43.6062C54.6854 43.6062 54.4597 43.5642 54.26 43.4803C54.0602 43.3925 53.9025 43.2726 53.7866 43.1209C53.6708 42.9651 53.6069 42.7873 53.5949 42.5876H54.1581C54.1741 42.7514 54.25 42.8852 54.3858 42.989C54.5256 43.0929 54.7073 43.1448 54.931 43.1448C55.1387 43.1448 55.3025 43.0989 55.4223 43.007C55.5422 42.9151 55.6021 42.7993 55.6021 42.6595C55.6021 42.5157 55.5382 42.4098 55.4103 42.3419C55.2825 42.27 55.0848 42.2001 54.8172 42.1322C54.5735 42.0683 54.3738 42.0044 54.218 41.9405C54.0662 41.8726 53.9344 41.7747 53.8226 41.6469C53.7147 41.5151 53.6608 41.3433 53.6608 41.1316C53.6608 40.9639 53.7107 40.8101 53.8106 40.6703C53.9104 40.5305 54.0522 40.4206 54.236 40.3407C54.4197 40.2569 54.6294 40.2149 54.8651 40.2149C55.2286 40.2149 55.5222 40.3068 55.7459 40.4905C55.9696 40.6743 56.0894 40.9259 56.1054 41.2455H55.5601C55.5481 41.0737 55.4782 40.9359 55.3504 40.8321C55.2266 40.7282 55.0588 40.6763 54.8471 40.6763C54.6514 40.6763 54.4956 40.7182 54.3798 40.8021C54.2639 40.886 54.206 40.9958 54.206 41.1316C54.206 41.2395 54.24 41.3294 54.3079 41.4013C54.3798 41.4692 54.4677 41.5251 54.5715 41.569C54.6794 41.609 54.8272 41.6549 55.0149 41.7068C55.2506 41.7707 55.4423 41.8347 55.5901 41.8986C55.7379 41.9585 55.8637 42.0504 55.9676 42.1742C56.0754 42.298 56.1313 42.4598 56.1353 42.6595C56.1353 42.8392 56.0854 43.001 55.9855 43.1448C55.8857 43.2886 55.7439 43.4025 55.5601 43.4863C55.3804 43.5662 55.1727 43.6062 54.937 43.6062Z" fill="#9291A5"/>
<path d="M267.724 45.8353V50.1929H267.196V46.3885H267.171L266.107 47.0949V46.5588L267.196 45.8353H267.724ZM268.977 50.1929V49.8099L270.415 48.2354C270.584 48.051 270.723 47.8907 270.832 47.7545C270.942 47.6169 271.022 47.4879 271.075 47.3673C271.129 47.2453 271.156 47.1176 271.156 46.9843C271.156 46.8311 271.119 46.6985 271.045 46.5864C270.973 46.4744 270.873 46.3878 270.747 46.3268C270.621 46.2658 270.479 46.2353 270.322 46.2353C270.154 46.2353 270.008 46.2701 269.883 46.3396C269.76 46.4077 269.664 46.5034 269.596 46.6268C269.529 46.7503 269.496 46.8949 269.496 47.0609H268.994C268.994 46.8056 269.053 46.5815 269.171 46.3885C269.288 46.1956 269.449 46.0453 269.651 45.9375C269.856 45.8297 270.085 45.7758 270.339 45.7758C270.594 45.7758 270.82 45.8297 271.017 45.9375C271.215 46.0453 271.369 46.1907 271.481 46.3736C271.593 46.5566 271.649 46.7602 271.649 46.9843C271.649 47.1446 271.62 47.3013 271.562 47.4545C271.505 47.6063 271.406 47.7758 271.264 47.963C271.124 48.1489 270.929 48.3758 270.679 48.6439L269.7 49.6907V49.7248H271.726V50.1929H268.977ZM272.979 50.2269C272.874 50.2269 272.784 50.1893 272.709 50.1141C272.634 50.039 272.596 49.9489 272.596 49.8439C272.596 49.739 272.634 49.6489 272.709 49.5737C272.784 49.4985 272.874 49.4609 272.979 49.4609C273.084 49.4609 273.174 49.4985 273.249 49.5737C273.325 49.6489 273.362 49.739 273.362 49.8439C273.362 49.9134 273.344 49.9773 273.309 50.0354C273.275 50.0936 273.229 50.1404 273.171 50.1758C273.114 50.2099 273.05 50.2269 272.979 50.2269ZM274.303 50.1929L276.252 46.3375V46.3034H274.005V45.8353H276.797V46.329L274.856 50.1929H274.303ZM278.893 50.2524C278.643 50.2524 278.419 50.2028 278.219 50.1035C278.019 50.0042 277.858 49.868 277.738 49.695C277.617 49.5219 277.551 49.3248 277.54 49.1035H278.051C278.07 49.3007 278.16 49.4638 278.319 49.5929C278.479 49.7205 278.67 49.7844 278.893 49.7844C279.072 49.7844 279.231 49.7425 279.37 49.6588C279.51 49.5751 279.62 49.4602 279.699 49.3141C279.78 49.1666 279.821 48.9999 279.821 48.8141C279.821 48.624 279.779 48.4545 279.695 48.3056C279.613 48.1552 279.499 48.0368 279.355 47.9503C279.21 47.8637 279.045 47.8198 278.859 47.8184C278.726 47.8169 278.589 47.8375 278.448 47.8801C278.308 47.9212 278.192 47.9744 278.102 48.0396L277.608 47.9801L277.872 45.8353H280.136V46.3034H278.314L278.161 47.5886H278.187C278.276 47.5176 278.388 47.4588 278.523 47.412C278.658 47.3652 278.798 47.3418 278.944 47.3418C279.211 47.3418 279.448 47.4056 279.657 47.5332C279.867 47.6595 280.031 47.8325 280.151 48.0524C280.271 48.2723 280.331 48.5233 280.331 48.8056C280.331 49.0836 280.269 49.3319 280.144 49.5503C280.021 49.7673 279.851 49.939 279.634 50.0652C279.417 50.19 279.17 50.2524 278.893 50.2524ZM283.398 49.3758V49.146C283.398 48.9872 283.431 48.8418 283.496 48.7099C283.563 48.5765 283.659 48.4701 283.785 48.3907C283.913 48.3099 284.067 48.2694 284.249 48.2694C284.433 48.2694 284.588 48.3099 284.713 48.3907C284.838 48.4701 284.932 48.5765 284.996 48.7099C285.06 48.8418 285.092 48.9872 285.092 49.146V49.3758C285.092 49.5347 285.059 49.6808 284.994 49.8141C284.93 49.9461 284.835 50.0524 284.709 50.1333C284.584 50.2127 284.431 50.2524 284.249 50.2524C284.065 50.2524 283.909 50.2127 283.783 50.1333C283.657 50.0524 283.561 49.9461 283.496 49.8141C283.431 49.6808 283.398 49.5347 283.398 49.3758ZM283.832 49.146V49.3758C283.832 49.5078 283.863 49.6262 283.926 49.7312C283.988 49.8347 284.096 49.8865 284.249 49.8865C284.398 49.8865 284.503 49.8347 284.564 49.7312C284.626 49.6262 284.658 49.5078 284.658 49.3758V49.146C284.658 49.0141 284.628 48.8964 284.568 48.7928C284.509 48.6879 284.402 48.6354 284.249 48.6354C284.1 48.6354 283.993 48.6879 283.928 48.7928C283.864 48.8964 283.832 49.0141 283.832 49.146ZM281.228 46.8822V46.6524C281.228 46.4935 281.26 46.3481 281.326 46.2162C281.392 46.0829 281.489 45.9765 281.615 45.897C281.743 45.8162 281.897 45.7758 282.079 45.7758C282.263 45.7758 282.418 45.8162 282.543 45.897C282.667 45.9765 282.762 46.0829 282.826 46.2162C282.889 46.3481 282.921 46.4935 282.921 46.6524V46.8822C282.921 47.041 282.889 47.1871 282.823 47.3205C282.76 47.4524 282.665 47.5588 282.538 47.6396C282.414 47.7191 282.26 47.7588 282.079 47.7588C281.894 47.7588 281.739 47.7191 281.613 47.6396C281.487 47.5588 281.391 47.4524 281.326 47.3205C281.26 47.1871 281.228 47.041 281.228 46.8822ZM281.662 46.6524V46.8822C281.662 47.0141 281.693 47.1325 281.755 47.2375C281.818 47.341 281.926 47.3928 282.079 47.3928C282.228 47.3928 282.333 47.341 282.394 47.2375C282.456 47.1325 282.487 47.0141 282.487 46.8822V46.6524C282.487 46.5205 282.458 46.4027 282.398 46.2992C282.338 46.1942 282.232 46.1417 282.079 46.1417C281.93 46.1417 281.823 46.1942 281.758 46.2992C281.694 46.4027 281.662 46.5205 281.662 46.6524ZM281.389 50.1929L284.385 45.8353H284.87L281.875 50.1929H281.389Z" fill="#04CE00"/>
<circle cx="259.31" cy="47.5213" r="3.62094" fill="#E1F6E3"/>
<path d="M260.123 47.1357L260.026 47.2329C259.506 47.7528 258.986 48.2728 258.466 48.7928C258.361 48.898 258.237 48.921 258.112 48.8636C257.993 48.8073 257.927 48.7044 257.945 48.58C257.96 48.4901 258.003 48.407 258.066 48.3415C258.569 47.8297 259.078 47.3243 259.586 46.817L259.682 46.7209C259.651 46.7156 259.62 46.7119 259.588 46.7099C259.385 46.709 259.181 46.711 258.978 46.7084C258.817 46.7066 258.706 46.5958 258.704 46.4418C258.702 46.2739 258.802 46.1612 258.971 46.1602C259.439 46.1571 259.906 46.1568 260.374 46.1591C260.563 46.1602 260.669 46.2623 260.673 46.4492C260.681 46.9132 260.686 47.3771 260.688 47.8412C260.688 48.0112 260.578 48.1113 260.409 48.1099C260.249 48.1084 260.144 48.0059 260.14 47.8407C260.134 47.6446 260.134 47.4483 260.131 47.252C260.13 47.2211 260.127 47.1908 260.123 47.1357Z" fill="#04CE00"/>
<line x1="29.4814" y1="61.7008" x2="285.593" y2="61.7008" stroke="#E5E5EF" stroke-width="0.332867"/>
<rect x="0.562591" y="0.562591" width="313.926" height="167.115" rx="7.16332" fill="white"/>
<rect x="0.562591" y="0.562591" width="313.926" height="167.115" rx="7.16332" stroke="#E4E7EC" stroke-width="1.12518"/>
<path d="M31.9601 141.966V141.517H32.9768V145.427H32.4793V141.966H31.9601ZM34.1467 143.432C34.1467 142.812 34.2476 142.329 34.4495 141.983C34.6514 141.633 35.0048 141.458 35.5095 141.458C36.0107 141.458 36.3622 141.633 36.5641 141.983C36.766 142.329 36.867 142.812 36.867 143.432C36.867 144.063 36.766 144.553 36.5641 144.903C36.3622 145.253 36.0107 145.427 35.5095 145.427C35.0048 145.427 34.6514 145.253 34.4495 144.903C34.2476 144.553 34.1467 144.063 34.1467 143.432ZM36.3802 143.432C36.3802 143.118 36.3586 142.853 36.3153 142.637C36.2757 142.417 36.191 142.24 36.0612 142.107C35.935 141.973 35.7511 141.907 35.5095 141.907C35.2644 141.907 35.0769 141.973 34.9471 142.107C34.8209 142.24 34.7362 142.417 34.6929 142.637C34.6532 142.853 34.6334 143.118 34.6334 143.432C34.6334 143.756 34.6532 144.029 34.6929 144.249C34.7362 144.468 34.8209 144.645 34.9471 144.779C35.0769 144.912 35.2644 144.979 35.5095 144.979C35.7511 144.979 35.935 144.912 36.0612 144.779C36.191 144.645 36.2757 144.468 36.3153 144.249C36.3586 144.029 36.3802 143.756 36.3802 143.432ZM38.1051 145.46C38.0113 145.46 37.932 145.427 37.8671 145.363C37.8022 145.298 37.7697 145.218 37.7697 145.125C37.7697 145.031 37.8022 144.952 37.8671 144.887C37.932 144.822 38.0113 144.789 38.1051 144.789C38.1952 144.789 38.2709 144.822 38.3322 144.887C38.3971 144.952 38.4295 145.031 38.4295 145.125C38.4295 145.218 38.3971 145.298 38.3322 145.363C38.2709 145.427 38.1952 145.46 38.1051 145.46ZM38.1051 143.145C38.0113 143.145 37.932 143.113 37.8671 143.048C37.8022 142.983 37.7697 142.904 37.7697 142.81C37.7697 142.716 37.8022 142.637 37.8671 142.572C37.932 142.507 38.0113 142.475 38.1051 142.475C38.1952 142.475 38.2709 142.507 38.3322 142.572C38.3971 142.637 38.4295 142.716 38.4295 142.81C38.4295 142.904 38.3971 142.983 38.3322 143.048C38.2709 143.113 38.1952 143.145 38.1051 143.145ZM39.3429 143.432C39.3429 142.812 39.4439 142.329 39.6458 141.983C39.8477 141.633 40.201 141.458 40.7058 141.458C41.2069 141.458 41.5585 141.633 41.7604 141.983C41.9623 142.329 42.0632 142.812 42.0632 143.432C42.0632 144.063 41.9623 144.553 41.7604 144.903C41.5585 145.253 41.2069 145.427 40.7058 145.427C40.201 145.427 39.8477 145.253 39.6458 144.903C39.4439 144.553 39.3429 144.063 39.3429 143.432ZM41.5765 143.432C41.5765 143.118 41.5549 142.853 41.5116 142.637C41.4719 142.417 41.3872 142.24 41.2574 142.107C41.1312 141.973 40.9473 141.907 40.7058 141.907C40.4606 141.907 40.2731 141.973 40.1433 142.107C40.0171 142.24 39.9324 142.417 39.8891 142.637C39.8495 142.853 39.8297 143.118 39.8297 143.432C39.8297 143.756 39.8495 144.029 39.8891 144.249C39.9324 144.468 40.0171 144.645 40.1433 144.779C40.2731 144.912 40.4606 144.979 40.7058 144.979C40.9473 144.979 41.1312 144.912 41.2574 144.779C41.3872 144.645 41.4719 144.468 41.5116 144.249C41.5549 144.029 41.5765 143.756 41.5765 143.432ZM43.0633 143.432C43.0633 142.812 43.1643 142.329 43.3662 141.983C43.5681 141.633 43.9214 141.458 44.4262 141.458C44.9273 141.458 45.2789 141.633 45.4808 141.983C45.6827 142.329 45.7836 142.812 45.7836 143.432C45.7836 144.063 45.6827 144.553 45.4808 144.903C45.2789 145.253 44.9273 145.427 44.4262 145.427C43.9214 145.427 43.5681 145.253 43.3662 144.903C43.1643 144.553 43.0633 144.063 43.0633 143.432ZM45.2969 143.432C45.2969 143.118 45.2753 142.853 45.232 142.637C45.1923 142.417 45.1076 142.24 44.9778 142.107C44.8516 141.973 44.6678 141.907 44.4262 141.907C44.181 141.907 43.9935 141.973 43.8637 142.107C43.7376 142.24 43.6528 142.417 43.6096 142.637C43.5699 142.853 43.5501 143.118 43.5501 143.432C43.5501 143.756 43.5699 144.029 43.6096 144.249C43.6528 144.468 43.7376 144.645 43.8637 144.779C43.9935 144.912 44.181 144.979 44.4262 144.979C44.6678 144.979 44.8516 144.912 44.9778 144.779C45.1076 144.645 45.1923 144.468 45.232 144.249C45.2753 144.029 45.2969 143.756 45.2969 143.432Z" fill="#615E83"/>
<path d="M91.3215 141.966V141.517H92.3382V145.427H91.8406V141.966H91.3215ZM93.4485 145.032C93.9064 144.665 94.2652 144.364 94.5248 144.129C94.7843 143.891 95.0025 143.644 95.1791 143.388C95.3594 143.129 95.4495 142.875 95.4495 142.626C95.4495 142.391 95.3919 142.208 95.2765 142.074C95.1647 141.937 94.9826 141.869 94.7303 141.869C94.4851 141.869 94.294 141.946 94.157 142.101C94.0236 142.253 93.9515 142.456 93.9407 142.712H93.4648C93.4792 142.309 93.6018 141.997 93.8325 141.777C94.0633 141.557 94.3607 141.447 94.7249 141.447C95.0962 141.447 95.3901 141.55 95.6064 141.755C95.8263 141.961 95.9363 142.244 95.9363 142.604C95.9363 142.903 95.8461 143.195 95.6659 143.48C95.4892 143.762 95.2873 144.01 95.0602 144.227C94.833 144.439 94.5428 144.688 94.1895 144.973H96.0499V145.384H93.4485V145.032ZM97.1812 145.46C97.0875 145.46 97.0081 145.427 96.9432 145.362C96.8784 145.297 96.8459 145.218 96.8459 145.124C96.8459 145.031 96.8784 144.951 96.9432 144.886C97.0081 144.822 97.0875 144.789 97.1812 144.789C97.2713 144.789 97.3471 144.822 97.4083 144.886C97.4732 144.951 97.5057 145.031 97.5057 145.124C97.5057 145.218 97.4732 145.297 97.4083 145.362C97.3471 145.427 97.2713 145.46 97.1812 145.46ZM97.1812 143.145C97.0875 143.145 97.0081 143.113 96.9432 143.048C96.8784 142.983 96.8459 142.903 96.8459 142.81C96.8459 142.716 96.8784 142.637 96.9432 142.572C97.0081 142.507 97.0875 142.474 97.1812 142.474C97.2713 142.474 97.3471 142.507 97.4083 142.572C97.4732 142.637 97.5057 142.716 97.5057 142.81C97.5057 142.903 97.4732 142.983 97.4083 143.048C97.3471 143.113 97.2713 143.145 97.1812 143.145ZM98.4191 143.432C98.4191 142.812 98.52 142.328 98.7219 141.982C98.9238 141.633 99.2772 141.458 99.7819 141.458C100.283 141.458 100.635 141.633 100.837 141.982C101.038 142.328 101.139 142.812 101.139 143.432C101.139 144.063 101.038 144.553 100.837 144.903C100.635 145.252 100.283 145.427 99.7819 145.427C99.2772 145.427 98.9238 145.252 98.7219 144.903C98.52 144.553 98.4191 144.063 98.4191 143.432ZM100.653 143.432C100.653 143.118 100.631 142.853 100.588 142.637C100.548 142.417 100.463 142.24 100.334 142.107C100.207 141.973 100.023 141.907 99.7819 141.907C99.5368 141.907 99.3493 141.973 99.2195 142.107C99.0933 142.24 99.0086 142.417 98.9653 142.637C98.9256 142.853 98.9058 143.118 98.9058 143.432C98.9058 143.756 98.9256 144.028 98.9653 144.248C99.0086 144.468 99.0933 144.645 99.2195 144.778C99.3493 144.912 99.5368 144.978 99.7819 144.978C100.023 144.978 100.207 144.912 100.334 144.778C100.463 144.645 100.548 144.468 100.588 144.248C100.631 144.028 100.653 143.756 100.653 143.432ZM102.139 143.432C102.139 142.812 102.24 142.328 102.442 141.982C102.644 141.633 102.998 141.458 103.502 141.458C104.003 141.458 104.355 141.633 104.557 141.982C104.759 142.328 104.86 142.812 104.86 143.432C104.86 144.063 104.759 144.553 104.557 144.903C104.355 145.252 104.003 145.427 103.502 145.427C102.998 145.427 102.644 145.252 102.442 144.903C102.24 144.553 102.139 144.063 102.139 143.432ZM104.373 143.432C104.373 143.118 104.351 142.853 104.308 142.637C104.268 142.417 104.184 142.24 104.054 142.107C103.928 141.973 103.744 141.907 103.502 141.907C103.257 141.907 103.07 141.973 102.94 142.107C102.814 142.24 102.729 142.417 102.686 142.637C102.646 142.853 102.626 143.118 102.626 143.432C102.626 143.756 102.646 144.028 102.686 144.248C102.729 144.468 102.814 144.645 102.94 144.778C103.07 144.912 103.257 144.978 103.502 144.978C103.744 144.978 103.928 144.912 104.054 144.778C104.184 144.645 104.268 144.468 104.308 144.248C104.351 144.028 104.373 143.756 104.373 143.432Z" fill="#615E83"/>
<path d="M150.395 141.966V141.517H151.412V145.427H150.914V141.966H150.395ZM152.463 144.557V144.183L154.361 141.555H154.95V144.129H155.491V144.557H154.95V145.427H154.464V144.557H152.463ZM154.485 142.069L153.03 144.129H154.485V142.069ZM156.545 145.46C156.451 145.46 156.372 145.427 156.307 145.362C156.242 145.297 156.21 145.218 156.21 145.124C156.21 145.031 156.242 144.951 156.307 144.886C156.372 144.822 156.451 144.789 156.545 144.789C156.635 144.789 156.711 144.822 156.772 144.886C156.837 144.951 156.87 145.031 156.87 145.124C156.87 145.218 156.837 145.297 156.772 145.362C156.711 145.427 156.635 145.46 156.545 145.46ZM156.545 143.145C156.451 143.145 156.372 143.113 156.307 143.048C156.242 142.983 156.21 142.903 156.21 142.81C156.21 142.716 156.242 142.637 156.307 142.572C156.372 142.507 156.451 142.474 156.545 142.474C156.635 142.474 156.711 142.507 156.772 142.572C156.837 142.637 156.87 142.716 156.87 142.81C156.87 142.903 156.837 142.983 156.772 143.048C156.711 143.113 156.635 143.145 156.545 143.145ZM157.783 143.432C157.783 142.812 157.884 142.328 158.086 141.982C158.288 141.633 158.641 141.458 159.146 141.458C159.647 141.458 159.999 141.633 160.201 141.982C160.402 142.328 160.503 142.812 160.503 143.432C160.503 144.063 160.402 144.553 160.201 144.903C159.999 145.252 159.647 145.427 159.146 145.427C158.641 145.427 158.288 145.252 158.086 144.903C157.884 144.553 157.783 144.063 157.783 143.432ZM160.017 143.432C160.017 143.118 159.995 142.853 159.952 142.637C159.912 142.417 159.827 142.24 159.698 142.107C159.571 141.973 159.387 141.907 159.146 141.907C158.901 141.907 158.713 141.973 158.583 142.107C158.457 142.24 158.373 142.417 158.329 142.637C158.29 142.853 158.27 143.118 158.27 143.432C158.27 143.756 158.29 144.028 158.329 144.248C158.373 144.468 158.457 144.645 158.583 144.778C158.713 144.912 158.901 144.978 159.146 144.978C159.387 144.978 159.571 144.912 159.698 144.778C159.827 144.645 159.912 144.468 159.952 144.248C159.995 144.028 160.017 143.756 160.017 143.432ZM161.503 143.432C161.503 142.812 161.604 142.328 161.806 141.982C162.008 141.633 162.362 141.458 162.866 141.458C163.367 141.458 163.719 141.633 163.921 141.982C164.123 142.328 164.224 142.812 164.224 143.432C164.224 144.063 164.123 144.553 163.921 144.903C163.719 145.252 163.367 145.427 162.866 145.427C162.362 145.427 162.008 145.252 161.806 144.903C161.604 144.553 161.503 144.063 161.503 143.432ZM163.737 143.432C163.737 143.118 163.715 142.853 163.672 142.637C163.632 142.417 163.548 142.24 163.418 142.107C163.292 141.973 163.108 141.907 162.866 141.907C162.621 141.907 162.434 141.973 162.304 142.107C162.178 142.24 162.093 142.417 162.05 142.637C162.01 142.853 161.99 143.118 161.99 143.432C161.99 143.756 162.01 144.028 162.05 144.248C162.093 144.468 162.178 144.645 162.304 144.778C162.434 144.912 162.621 144.978 162.866 144.978C163.108 144.978 163.292 144.912 163.418 144.778C163.548 144.645 163.632 144.468 163.672 144.248C163.715 144.028 163.737 143.756 163.737 143.432Z" fill="#615E83"/>
<path d="M210.186 141.966V141.517H211.202V145.427H210.705V141.966H210.186ZM214.552 142.447C214.472 142.047 214.226 141.847 213.811 141.847C213.49 141.847 213.25 141.971 213.092 142.22C212.933 142.465 212.855 142.871 212.859 143.437C212.942 143.25 213.079 143.104 213.27 142.999C213.465 142.891 213.681 142.837 213.919 142.837C214.29 142.837 214.586 142.952 214.806 143.183C215.03 143.414 215.141 143.733 215.141 144.14C215.141 144.385 215.093 144.605 214.995 144.8C214.902 144.995 214.757 145.15 214.563 145.265C214.372 145.38 214.139 145.438 213.865 145.438C213.494 145.438 213.203 145.355 212.994 145.189C212.785 145.023 212.639 144.794 212.556 144.502C212.473 144.21 212.432 143.85 212.432 143.421C212.432 142.098 212.893 141.436 213.816 141.436C214.17 141.436 214.447 141.532 214.649 141.723C214.851 141.914 214.97 142.155 215.006 142.447H214.552ZM213.816 143.253C213.661 143.253 213.515 143.286 213.378 143.351C213.241 143.412 213.129 143.507 213.043 143.637C212.96 143.763 212.919 143.918 212.919 144.102C212.919 144.376 212.998 144.6 213.157 144.773C213.315 144.942 213.542 145.027 213.838 145.027C214.09 145.027 214.29 144.95 214.438 144.794C214.59 144.636 214.665 144.423 214.665 144.156C214.665 143.875 214.593 143.655 214.449 143.497C214.305 143.334 214.094 143.253 213.816 143.253ZM216.368 145.46C216.274 145.46 216.195 145.427 216.13 145.362C216.065 145.297 216.032 145.218 216.032 145.124C216.032 145.031 216.065 144.951 216.13 144.886C216.195 144.822 216.274 144.789 216.368 144.789C216.458 144.789 216.534 144.822 216.595 144.886C216.66 144.951 216.692 145.031 216.692 145.124C216.692 145.218 216.66 145.297 216.595 145.362C216.534 145.427 216.458 145.46 216.368 145.46ZM216.368 143.145C216.274 143.145 216.195 143.113 216.13 143.048C216.065 142.983 216.032 142.903 216.032 142.81C216.032 142.716 216.065 142.637 216.13 142.572C216.195 142.507 216.274 142.474 216.368 142.474C216.458 142.474 216.534 142.507 216.595 142.572C216.66 142.637 216.692 142.716 216.692 142.81C216.692 142.903 216.66 142.983 216.595 143.048C216.534 143.113 216.458 143.145 216.368 143.145ZM217.606 143.432C217.606 142.812 217.707 142.328 217.908 141.982C218.11 141.633 218.464 141.458 218.968 141.458C219.47 141.458 219.821 141.633 220.023 141.982C220.225 142.328 220.326 142.812 220.326 143.432C220.326 144.063 220.225 144.553 220.023 144.903C219.821 145.252 219.47 145.427 218.968 145.427C218.464 145.427 218.11 145.252 217.908 144.903C217.707 144.553 217.606 144.063 217.606 143.432ZM219.839 143.432C219.839 143.118 219.817 142.853 219.774 142.637C219.735 142.417 219.65 142.24 219.52 142.107C219.394 141.973 219.21 141.907 218.968 141.907C218.723 141.907 218.536 141.973 218.406 142.107C218.28 142.24 218.195 142.417 218.152 142.637C218.112 142.853 218.092 143.118 218.092 143.432C218.092 143.756 218.112 144.028 218.152 144.248C218.195 144.468 218.28 144.645 218.406 144.778C218.536 144.912 218.723 144.978 218.968 144.978C219.21 144.978 219.394 144.912 219.52 144.778C219.65 144.645 219.735 144.468 219.774 144.248C219.817 144.028 219.839 143.756 219.839 143.432ZM221.326 143.432C221.326 142.812 221.427 142.328 221.629 141.982C221.831 141.633 222.184 141.458 222.689 141.458C223.19 141.458 223.541 141.633 223.743 141.982C223.945 142.328 224.046 142.812 224.046 143.432C224.046 144.063 223.945 144.553 223.743 144.903C223.541 145.252 223.19 145.427 222.689 145.427C222.184 145.427 221.831 145.252 221.629 144.903C221.427 144.553 221.326 144.063 221.326 143.432ZM223.56 143.432C223.56 143.118 223.538 142.853 223.495 142.637C223.455 142.417 223.37 142.24 223.24 142.107C223.114 141.973 222.93 141.907 222.689 141.907C222.444 141.907 222.256 141.973 222.126 142.107C222 142.24 221.915 142.417 221.872 142.637C221.833 142.853 221.813 143.118 221.813 143.432C221.813 143.756 221.833 144.028 221.872 144.248C221.915 144.468 222 144.645 222.126 144.778C222.256 144.912 222.444 144.978 222.689 144.978C222.93 144.978 223.114 144.912 223.24 144.778C223.37 144.645 223.455 144.468 223.495 144.248C223.538 144.028 223.56 143.756 223.56 143.432Z" fill="#615E83"/>
<path d="M269.709 141.966V141.517H270.725V145.427H270.228V141.966H269.709ZM272.609 143.394C272.407 143.314 272.252 143.199 272.144 143.048C272.036 142.896 271.982 142.712 271.982 142.496C271.982 142.301 272.031 142.126 272.128 141.971C272.225 141.813 272.369 141.688 272.561 141.598C272.755 141.505 272.99 141.458 273.264 141.458C273.538 141.458 273.77 141.505 273.961 141.598C274.156 141.688 274.302 141.813 274.399 141.971C274.5 142.126 274.551 142.301 274.551 142.496C274.551 142.705 274.495 142.889 274.383 143.048C274.271 143.203 274.118 143.318 273.923 143.394C274.147 143.462 274.324 143.583 274.453 143.756C274.587 143.926 274.653 144.131 274.653 144.373C274.653 144.607 274.596 144.813 274.48 144.989C274.365 145.162 274.201 145.297 273.988 145.395C273.779 145.489 273.538 145.535 273.264 145.535C272.99 145.535 272.748 145.489 272.539 145.395C272.333 145.297 272.173 145.162 272.058 144.989C271.942 144.813 271.885 144.607 271.885 144.373C271.885 144.131 271.949 143.924 272.079 143.751C272.209 143.578 272.386 143.459 272.609 143.394ZM274.075 142.556C274.075 142.336 274.003 142.166 273.858 142.047C273.714 141.928 273.516 141.869 273.264 141.869C273.015 141.869 272.818 141.928 272.674 142.047C272.53 142.166 272.458 142.337 272.458 142.561C272.458 142.763 272.532 142.925 272.68 143.048C272.831 143.17 273.026 143.232 273.264 143.232C273.505 143.232 273.7 143.17 273.848 143.048C273.999 142.921 274.075 142.757 274.075 142.556ZM273.264 143.61C272.997 143.61 272.779 143.673 272.609 143.799C272.44 143.922 272.355 144.108 272.355 144.356C272.355 144.587 272.436 144.773 272.598 144.913C272.764 145.054 272.986 145.124 273.264 145.124C273.541 145.124 273.761 145.054 273.923 144.913C274.086 144.773 274.167 144.587 274.167 144.356C274.167 144.115 274.084 143.931 273.918 143.805C273.752 143.675 273.534 143.61 273.264 143.61ZM275.87 145.46C275.776 145.46 275.697 145.427 275.632 145.362C275.567 145.297 275.534 145.218 275.534 145.124C275.534 145.031 275.567 144.951 275.632 144.886C275.697 144.822 275.776 144.789 275.87 144.789C275.96 144.789 276.035 144.822 276.097 144.886C276.162 144.951 276.194 145.031 276.194 145.124C276.194 145.218 276.162 145.297 276.097 145.362C276.035 145.427 275.96 145.46 275.87 145.46ZM275.87 143.145C275.776 143.145 275.697 143.113 275.632 143.048C275.567 142.983 275.534 142.903 275.534 142.81C275.534 142.716 275.567 142.637 275.632 142.572C275.697 142.507 275.776 142.474 275.87 142.474C275.96 142.474 276.035 142.507 276.097 142.572C276.162 142.637 276.194 142.716 276.194 142.81C276.194 142.903 276.162 142.983 276.097 143.048C276.035 143.113 275.96 143.145 275.87 143.145ZM277.107 143.432C277.107 142.812 277.208 142.328 277.41 141.982C277.612 141.633 277.966 141.458 278.47 141.458C278.971 141.458 279.323 141.633 279.525 141.982C279.727 142.328 279.828 142.812 279.828 143.432C279.828 144.063 279.727 144.553 279.525 144.903C279.323 145.252 278.971 145.427 278.47 145.427C277.966 145.427 277.612 145.252 277.41 144.903C277.208 144.553 277.107 144.063 277.107 143.432ZM279.341 143.432C279.341 143.118 279.319 142.853 279.276 142.637C279.236 142.417 279.152 142.24 279.022 142.107C278.896 141.973 278.712 141.907 278.47 141.907C278.225 141.907 278.038 141.973 277.908 142.107C277.782 142.24 277.697 142.417 277.654 142.637C277.614 142.853 277.594 143.118 277.594 143.432C277.594 143.756 277.614 144.028 277.654 144.248C277.697 144.468 277.782 144.645 277.908 144.778C278.038 144.912 278.225 144.978 278.47 144.978C278.712 144.978 278.896 144.912 279.022 144.778C279.152 144.645 279.236 144.468 279.276 144.248C279.319 144.028 279.341 143.756 279.341 143.432ZM280.828 143.432C280.828 142.812 280.929 142.328 281.131 141.982C281.333 141.633 281.686 141.458 282.191 141.458C282.692 141.458 283.043 141.633 283.245 141.982C283.447 142.328 283.548 142.812 283.548 143.432C283.548 144.063 283.447 144.553 283.245 144.903C283.043 145.252 282.692 145.427 282.191 145.427C281.686 145.427 281.333 145.252 281.131 144.903C280.929 144.553 280.828 144.063 280.828 143.432ZM283.061 143.432C283.061 143.118 283.04 142.853 282.997 142.637C282.957 142.417 282.872 142.24 282.742 142.107C282.616 141.973 282.432 141.907 282.191 141.907C281.946 141.907 281.758 141.973 281.628 142.107C281.502 142.24 281.417 142.417 281.374 142.637C281.334 142.853 281.315 143.118 281.315 143.432C281.315 143.756 281.334 144.028 281.374 144.248C281.417 144.468 281.502 144.645 281.628 144.778C281.758 144.912 281.946 144.978 282.191 144.978C282.432 144.978 282.616 144.912 282.742 144.778C282.872 144.645 282.957 144.468 282.997 144.248C283.04 144.028 283.061 143.756 283.061 143.432Z" fill="#615E83"/>
<line x1="92.4027" y1="130.866" x2="92.4027" y2="41.8252" stroke="#E5E5EF" stroke-width="0.579443" stroke-linecap="round" stroke-dasharray="1.55 2.7"/>
<line x1="157.249" y1="130.866" x2="157.249" y2="41.8252" stroke="#E5E5EF" stroke-width="0.579443" stroke-linecap="round" stroke-dasharray="1.55 2.7"/>
<line x1="222.097" y1="130.866" x2="222.097" y2="41.8252" stroke="#E5E5EF" stroke-width="0.579443" stroke-linecap="round" stroke-dasharray="1.55 2.7"/>
<g style="mix-blend-mode:multiply" opacity="0.33">
<path d="M13.4673 111.585C11.7971 111.38 8.94357 112.35 7.72559 112.861V158.969H307.324V106.141C305.889 106.141 306.15 106.141 303.801 104.439C301.453 102.738 300.8 101.972 296.886 103.248C292.971 104.524 292.449 103.248 289.839 100.952C287.229 98.6549 285.925 99.3354 282.793 100.101C279.661 100.867 279.139 97.7192 275.809 95.5926C272.479 93.466 271.049 98.1445 269.744 101.462C268.447 104.759 265.474 107.805 262.748 110.598L262.698 110.649C259.958 113.456 255.913 109.543 254.608 107.842C253.303 106.141 252.911 105.885 248.997 106.141C245.082 106.396 243.908 105.29 242.603 103.248C241.298 101.207 241.559 101.717 238.558 100.101C235.557 98.4848 234.121 99.5906 232.425 99.3354C230.729 99.0802 228.771 96.103 227.466 94.4017C226.161 92.7004 226.292 91.5095 222.377 92.2751C218.519 93.0297 217.703 92.1316 215.681 89.9065L215.592 89.8083C213.504 87.5115 212.069 86.831 207.893 85.6401C203.718 84.4492 205.023 84.9596 201.891 85.6401C198.759 86.3207 197.193 85.3849 195.236 83.7687C193.279 82.1525 193.931 78.9201 188.581 80.196C183.231 81.472 182.057 78.4097 180.882 75.1772C179.708 71.9448 176.446 71.9448 173.184 72.6253C169.921 73.3058 168.486 68.6273 168.225 65.3949C167.964 62.1624 167.703 60.8865 163.919 60.8865C160.135 60.8865 160.396 65.9903 158.961 72.6253C157.525 79.2603 158.308 79.4304 154.002 79.6856C149.696 79.9408 149.696 79.9408 147.347 84.9596C144.998 89.9783 144.085 89.8082 139.909 89.8082C135.734 89.8082 134.168 93.8062 132.733 97.9744C131.314 102.093 128.24 100.979 123.635 99.3107L123.468 99.2503C118.77 97.549 117.727 97.9744 114.725 91.9348C111.724 85.8952 107.94 88.7024 106.244 92.4452C104.547 96.1881 103.634 96.6985 100.763 97.9744C97.8925 99.2504 95.0218 99.5906 93.9779 101.887C92.934 104.184 89.4108 106.055 86.4096 104.694C83.4084 103.333 81.1901 103.674 79.4938 106.055C77.7975 108.437 76.1011 108.352 74.1438 108.607C72.1865 108.863 68.0109 108.607 65.9231 110.989C63.8353 113.371 60.9646 112.861 59.3988 112.35C57.8329 111.84 54.5707 111.585 53.5268 112.35C52.4829 113.116 49.3512 115.838 45.8909 111.585C42.4307 107.331 38.5208 110.139 37.7379 110.989L37.7066 111.023C36.9069 111.893 35.0905 113.868 32.2574 112.861C29.3867 111.84 27.0379 111.585 24.8196 112.861C22.6014 114.137 20.5136 114.647 18.9477 113.881C17.3819 113.116 15.555 111.84 13.4673 111.585Z" fill="url(#paint1_linear_7342_112400)"/>
</g>
<path d="M8.90039 112.441C10.1089 111.935 12.9402 110.973 14.5974 111.175C16.6689 111.428 18.4815 112.694 20.0352 113.454C21.5888 114.214 23.6604 113.707 25.8614 112.441C28.0624 111.175 30.3929 111.428 33.2413 112.441C36.0897 113.454 37.9023 111.428 38.6791 110.584C39.4559 109.74 43.3353 106.955 46.7687 111.175C50.2021 115.395 53.3094 112.694 54.3452 111.935C55.3809 111.175 58.6177 111.428 60.1714 111.935C61.725 112.441 64.5734 112.948 66.645 110.584C68.7165 108.221 72.8596 108.474 74.8017 108.221C76.7438 107.968 78.4269 108.052 80.11 105.689C81.7932 103.326 83.9942 102.988 86.972 104.339C89.9499 105.689 93.4456 103.832 94.4814 101.553C95.5171 99.2745 98.3655 98.9369 101.214 97.6709C104.062 96.4048 104.969 95.8984 106.652 92.1847C108.335 88.471 112.09 85.6857 115.067 91.6783C118.045 97.6709 119.081 97.2488 123.742 98.9369C128.403 100.625 131.51 101.807 132.934 97.6709C134.359 93.5351 135.912 89.5682 140.055 89.5682C144.198 89.5682 145.105 89.737 147.435 84.7573C149.766 79.7776 149.766 79.7776 154.038 79.5244C158.311 79.2712 157.534 79.1024 158.958 72.519C160.382 65.9357 160.123 60.8716 163.878 60.8716C167.633 60.8716 167.892 62.1376 168.151 65.3449C168.41 68.5522 169.834 73.1942 173.071 72.519C176.307 71.8438 179.544 71.8438 180.709 75.0511C181.875 78.2584 183.04 81.2969 188.348 80.0308C193.657 78.7648 193.009 81.9721 194.951 83.5757C196.893 85.1794 198.447 86.1078 201.554 85.4326C204.662 84.7573 203.367 84.2509 207.51 85.4326C211.653 86.6142 213.077 87.2894 215.149 89.5683C217.22 91.8471 217.997 92.7755 221.881 92.0159C225.766 91.2563 225.636 92.4379 226.931 94.126C228.226 95.814 230.168 98.7681 231.851 99.0213C233.534 99.2745 234.958 98.1773 237.936 99.7809C240.914 101.385 240.655 100.878 241.95 102.904C243.244 104.929 244.41 106.027 248.294 105.773C252.178 105.52 252.566 105.773 253.861 107.462C255.156 109.15 259.169 113.032 261.888 110.247C264.607 107.462 267.585 104.423 268.88 101.131C270.174 97.8397 271.593 93.1976 274.897 95.3076C278.202 97.4177 278.72 100.541 281.827 99.7809C284.934 99.0213 286.229 98.3461 288.818 100.625C291.408 102.904 291.926 104.17 295.81 102.904C299.694 101.638 300.341 102.397 302.672 104.085C305.002 105.773 304.743 105.773 306.168 105.773" stroke="#1BAAC7" stroke-width="1.54518" stroke-linecap="round"/>
<line x1="110.379" y1="88.1483" x2="110.379" y2="130.77" stroke="#9291A5" stroke-width="0.772591" stroke-linecap="round" stroke-dasharray="2.7 2.7"/>
<g filter="url(#filter2_d_7342_112400)">
<circle cx="110.414" cy="86.1903" r="4.73201" fill="#1BAAC7"/>
<circle cx="110.414" cy="86.1903" r="3.95942" stroke="white" stroke-width="1.54518"/>
</g>
<g filter="url(#filter3_d_7342_112400)">
<path d="M129.769 74.3647C129.769 76.0715 128.384 77.4556 126.678 77.4556L115.378 77.4556C115.339 77.4989 115.296 77.5408 115.245 77.5776L111.146 80.5298C110.876 80.724 110.512 80.724 110.242 80.5298L106.143 77.5776C106.092 77.5409 106.049 77.4987 106.011 77.4556L94.71 77.4556C93.0032 77.4556 91.6191 76.0715 91.6191 74.3647L91.6191 64.3218C91.6191 62.615 93.0032 61.231 94.71 61.231L126.678 61.231C128.384 61.231 129.769 62.615 129.769 64.3218L129.769 74.3647Z" fill="white"/>
</g>
<path d="M108.266 67.9664H106.195V69.1964C106.282 69.081 106.41 68.9842 106.579 68.9059C106.752 68.8276 106.935 68.7885 107.129 68.7885C107.475 68.7885 107.755 68.8626 107.969 69.011C108.188 69.1593 108.342 69.3468 108.433 69.5734C108.527 69.8 108.575 70.039 108.575 70.2904C108.575 70.5953 108.515 70.8672 108.396 71.1062C108.28 71.3411 108.105 71.5265 107.87 71.6625C107.64 71.7985 107.355 71.8665 107.017 71.8665C106.568 71.8665 106.208 71.7552 105.936 71.5327C105.664 71.3102 105.501 71.0156 105.447 70.6489H106.133C106.179 70.8425 106.28 70.997 106.436 71.1124C106.593 71.2237 106.789 71.2793 107.024 71.2793C107.316 71.2793 107.534 71.1907 107.679 71.0135C107.827 70.8363 107.901 70.6015 107.901 70.3089C107.901 70.0122 107.827 69.7856 107.679 69.629C107.53 69.4683 107.312 69.388 107.024 69.388C106.822 69.388 106.651 69.4395 106.511 69.5425C106.375 69.6414 106.276 69.7774 106.214 69.9504H105.546V67.3483H108.266V67.9664ZM112.164 67.9046L110.446 71.8665H109.735L111.472 67.9788H109.185V67.3792H112.164V67.9046ZM112.68 70.927V70.3954L114.757 67.4163H115.61V70.3151H116.185V70.927H115.61V71.8665H114.918V70.927H112.68ZM114.949 68.1333L113.49 70.3151H114.949V68.1333Z" fill="#1E1B39"/>
<rect opacity="0.3" x="8.92871" y="9.27124" width="41.0108" height="5.52068" rx="2.76034" fill="#D9D9D9"/>
<rect opacity="0.3" x="8.92871" y="19.5239" width="90.6969" height="9.46403" rx="4.73201" fill="#D9D9D9"/>
<path d="M285.411 16.2096V21.2666H284.799V16.8516H284.769L283.534 17.6714V17.0492L284.799 16.2096H285.411ZM286.865 21.2666V20.8221L288.535 18.9949C288.731 18.7809 288.892 18.5949 289.019 18.4369C289.145 18.2772 289.239 18.1274 289.3 17.9875C289.363 17.8459 289.394 17.6978 289.394 17.543C289.394 17.3652 289.351 17.2113 289.266 17.0813C289.182 16.9512 289.066 16.8508 288.92 16.78C288.773 16.7092 288.609 16.6739 288.426 16.6739C288.232 16.6739 288.062 16.7142 287.917 16.7948C287.774 16.8739 287.663 16.985 287.584 17.1282C287.507 17.2714 287.468 17.4393 287.468 17.6319H286.885C286.885 17.3356 286.954 17.0755 287.09 16.8516C287.227 16.6278 287.413 16.4533 287.648 16.3282C287.885 16.2031 288.151 16.1405 288.446 16.1405C288.742 16.1405 289.005 16.2031 289.233 16.3282C289.462 16.4533 289.642 16.622 289.772 16.8344C289.902 17.0467 289.967 17.2829 289.967 17.543C289.967 17.729 289.933 17.9109 289.866 18.0887C289.8 18.2649 289.684 18.4616 289.52 18.6789C289.357 18.8945 289.131 19.1579 288.841 19.469L287.705 20.6839V20.7234H290.056V21.2666H286.865ZM291.51 21.3061C291.388 21.3061 291.284 21.2625 291.196 21.1752C291.109 21.088 291.066 20.9835 291.066 20.8616C291.066 20.7398 291.109 20.6353 291.196 20.5481C291.284 20.4608 291.388 20.4172 291.51 20.4172C291.632 20.4172 291.736 20.4608 291.824 20.5481C291.911 20.6353 291.954 20.7398 291.954 20.8616C291.954 20.9423 291.934 21.0164 291.893 21.0839C291.853 21.1514 291.8 21.2057 291.732 21.2468C291.666 21.2864 291.592 21.3061 291.51 21.3061ZM293.047 21.2666L295.308 16.7924V16.7529H292.701V16.2096H295.94V16.7825L293.689 21.2666H293.047ZM298.373 21.3357C298.084 21.3357 297.823 21.2781 297.59 21.1629C297.358 21.0477 297.172 20.8896 297.032 20.6888C296.893 20.488 296.816 20.2592 296.803 20.0024H297.395C297.418 20.2312 297.522 20.4205 297.707 20.5703C297.893 20.7184 298.115 20.7925 298.373 20.7925C298.581 20.7925 298.765 20.744 298.926 20.6468C299.089 20.5497 299.217 20.4164 299.309 20.2468C299.403 20.0756 299.45 19.8822 299.45 19.6665C299.45 19.446 299.401 19.2493 299.304 19.0764C299.209 18.9019 299.077 18.7645 298.909 18.664C298.741 18.5636 298.549 18.5126 298.334 18.511C298.179 18.5093 298.02 18.5332 297.857 18.5826C297.694 18.6303 297.56 18.692 297.455 18.7678L296.882 18.6986L297.188 16.2096H299.815V16.7529H297.702L297.524 18.2443H297.553C297.657 18.162 297.787 18.0937 297.944 18.0393C298.1 17.985 298.263 17.9578 298.432 17.9578C298.742 17.9578 299.018 18.0319 299.26 18.1801C299.503 18.3266 299.694 18.5274 299.833 18.7826C299.972 19.0377 300.042 19.3291 300.042 19.6567C300.042 19.9793 299.97 20.2674 299.825 20.5209C299.682 20.7728 299.484 20.9719 299.233 21.1184C298.981 21.2633 298.694 21.3357 298.373 21.3357ZM303.601 20.3184V20.0517C303.601 19.8674 303.639 19.6986 303.715 19.5456C303.792 19.3908 303.904 19.2674 304.051 19.1752C304.199 19.0813 304.378 19.0344 304.589 19.0344C304.803 19.0344 304.982 19.0813 305.127 19.1752C305.272 19.2674 305.381 19.3908 305.456 19.5456C305.53 19.6986 305.567 19.8674 305.567 20.0517V20.3184C305.567 20.5028 305.529 20.6723 305.453 20.8271C305.379 20.9802 305.269 21.1036 305.122 21.1975C304.977 21.2896 304.8 21.3357 304.589 21.3357C304.375 21.3357 304.195 21.2896 304.048 21.1975C303.902 21.1036 303.79 20.9802 303.715 20.8271C303.639 20.6723 303.601 20.5028 303.601 20.3184ZM304.105 20.0517V20.3184C304.105 20.4715 304.141 20.609 304.214 20.7308C304.286 20.8509 304.411 20.911 304.589 20.911C304.762 20.911 304.884 20.8509 304.954 20.7308C305.027 20.609 305.063 20.4715 305.063 20.3184V20.0517C305.063 19.8987 305.028 19.762 304.959 19.6419C304.89 19.52 304.767 19.4591 304.589 19.4591C304.416 19.4591 304.292 19.52 304.216 19.6419C304.142 19.762 304.105 19.8987 304.105 20.0517ZM301.083 17.4245V17.1578C301.083 16.9735 301.12 16.8047 301.196 16.6516C301.274 16.4969 301.385 16.3734 301.532 16.2813C301.68 16.1874 301.86 16.1405 302.07 16.1405C302.284 16.1405 302.464 16.1874 302.609 16.2813C302.753 16.3734 302.863 16.4969 302.937 16.6516C303.011 16.8047 303.048 16.9735 303.048 17.1578V17.4245C303.048 17.6089 303.01 17.7784 302.934 17.9332C302.86 18.0862 302.75 18.2097 302.604 18.3035C302.459 18.3957 302.281 18.4418 302.07 18.4418C301.856 18.4418 301.676 18.3957 301.53 18.3035C301.383 18.2097 301.272 18.0862 301.196 17.9332C301.12 17.7784 301.083 17.6089 301.083 17.4245ZM301.586 17.1578V17.4245C301.586 17.5776 301.623 17.715 301.695 17.8369C301.767 17.957 301.892 18.0171 302.07 18.0171C302.243 18.0171 302.365 17.957 302.436 17.8369C302.508 17.715 302.544 17.5776 302.544 17.4245V17.1578C302.544 17.0047 302.51 16.8681 302.441 16.7479C302.372 16.6261 302.248 16.5652 302.07 16.5652C301.897 16.5652 301.773 16.6261 301.697 16.7479C301.623 16.8681 301.586 17.0047 301.586 17.1578ZM301.27 21.2666L304.747 16.2096H305.31L301.833 21.2666H301.27Z" fill="#34C759"/>
<circle cx="274.857" cy="19.1296" r="4.20214" fill="#E9FBEB"/>
<path d="M275.801 18.6819L275.688 18.7946C275.085 19.398 274.482 20.0014 273.878 20.6049C273.756 20.727 273.612 20.7537 273.468 20.6871C273.329 20.6218 273.253 20.5023 273.273 20.3579C273.291 20.2536 273.34 20.1571 273.414 20.0812C273.998 19.4872 274.589 18.9007 275.178 18.3119L275.289 18.2004C275.253 18.1943 275.217 18.19 275.18 18.1877C274.944 18.1867 274.708 18.189 274.472 18.186C274.285 18.1839 274.156 18.0553 274.154 17.8766C274.151 17.6817 274.268 17.551 274.464 17.5497C275.007 17.5462 275.55 17.5458 276.092 17.5485C276.311 17.5497 276.435 17.6683 276.439 17.8852C276.449 18.4236 276.455 18.962 276.457 19.5006C276.457 19.6979 276.329 19.814 276.133 19.8124C275.948 19.8107 275.826 19.6918 275.82 19.5C275.814 19.2724 275.814 19.0446 275.81 18.8168C275.81 18.7809 275.805 18.7457 275.801 18.6819Z" fill="#34C759"/>
<line x1="8.92871" y1="34.9756" x2="306.149" y2="34.9756" stroke="#E5E5EF" stroke-width="0.386295"/>
<defs>
<filter id="filter0_d_7342_112400" x="110.216" y="102.577" width="13.3063" height="11.9831" filterUnits="userSpaceOnUse" color-interpolation-filters="sRGB">
<feFlood flood-opacity="0" result="BackgroundImageFix"/>
<feColorMatrix in="SourceAlpha" type="matrix" values="0 0 0 0 0 0 0 0 0 0 0 0 0 0 0 0 0 0 127 0" result="hardAlpha"/>
<feOffset dy="2.66293"/>
<feGaussianBlur stdDeviation="1.33147"/>
<feComposite in2="hardAlpha" operator="out"/>
<feColorMatrix type="matrix" values="0 0 0 0 0.0509804 0 0 0 0 0.0392157 0 0 0 0 0.172549 0 0 0 0.08 0"/>
<feBlend mode="normal" in2="BackgroundImageFix" result="effect1_dropShadow_7342_112400"/>
<feBlend mode="normal" in="SourceGraphic" in2="effect1_dropShadow_7342_112400" result="shape"/>
</filter>
<filter id="filter1_d_7342_112400" x="95.4085" y="78.6655" width="43.5248" height="27.4071" filterUnits="userSpaceOnUse" color-interpolation-filters="sRGB">
<feFlood flood-opacity="0" result="BackgroundImageFix"/>
<feColorMatrix in="SourceAlpha" type="matrix" values="0 0 0 0 0 0 0 0 0 0 0 0 0 0 0 0 0 0 127 0" result="hardAlpha"/>
<feOffset dy="0.665734"/>
<feGaussianBlur stdDeviation="2.66293"/>
<feComposite in2="hardAlpha" operator="out"/>
<feColorMatrix type="matrix" values="0 0 0 0 0.0509804 0 0 0 0 0.0392157 0 0 0 0 0.172549 0 0 0 0.12 0"/>
<feBlend mode="normal" in2="BackgroundImageFix" result="effect1_dropShadow_7342_112400"/>
<feBlend mode="normal" in="SourceGraphic" in2="effect1_dropShadow_7342_112400" result="shape"/>
</filter>
<filter id="filter2_d_7342_112400" x="102.591" y="81.4583" width="15.6446" height="15.6448" filterUnits="userSpaceOnUse" color-interpolation-filters="sRGB">
<feFlood flood-opacity="0" result="BackgroundImageFix"/>
<feColorMatrix in="SourceAlpha" type="matrix" values="0 0 0 0 0 0 0 0 0 0 0 0 0 0 0 0 0 0 127 0" result="hardAlpha"/>
<feOffset dy="3.09036"/>
<feGaussianBlur stdDeviation="1.54518"/>
<feComposite in2="hardAlpha" operator="out"/>
<feColorMatrix type="matrix" values="0 0 0 0 0.0509804 0 0 0 0 0.0392157 0 0 0 0 0.172549 0 0 0 0.08 0"/>
<feBlend mode="normal" in2="BackgroundImageFix" result="effect1_dropShadow_7342_112400"/>
<feBlend mode="normal" in="SourceGraphic" in2="effect1_dropShadow_7342_112400" result="shape"/>
</filter>
<filter id="filter3_d_7342_112400" x="85.4384" y="55.8228" width="50.5109" height="31.806" filterUnits="userSpaceOnUse" color-interpolation-filters="sRGB">
<feFlood flood-opacity="0" result="BackgroundImageFix"/>
<feColorMatrix in="SourceAlpha" type="matrix" values="0 0 0 0 0 0 0 0 0 0 0 0 0 0 0 0 0 0 127 0" result="hardAlpha"/>
<feOffset dy="0.772591"/>
<feGaussianBlur stdDeviation="3.09036"/>
<feComposite in2="hardAlpha" operator="out"/>
<feColorMatrix type="matrix" values="0 0 0 0 0.0509804 0 0 0 0 0.0392157 0 0 0 0 0.172549 0 0 0 0.12 0"/>
<feBlend mode="normal" in2="BackgroundImageFix" result="effect1_dropShadow_7342_112400"/>
<feBlend mode="normal" in="SourceGraphic" in2="effect1_dropShadow_7342_112400" result="shape"/>
</filter>
<linearGradient id="paint0_linear_7342_112400" x1="157.525" y1="83.0283" x2="157.525" y2="159.504" gradientUnits="userSpaceOnUse">
<stop stop-color="#1BAAC7" stop-opacity="0.7"/>
<stop offset="0.46679" stop-color="#1BAAC7" stop-opacity="0.3"/>
<stop offset="1" stop-color="white" stop-opacity="0"/>
</linearGradient>
<linearGradient id="paint1_linear_7342_112400" x1="157.525" y1="60.8865" x2="157.525" y2="149.637" gradientUnits="userSpaceOnUse">
<stop stop-color="#1BAAC7" stop-opacity="0.7"/>
<stop offset="0.46679" stop-color="#1BAAC7" stop-opacity="0.3"/>
<stop offset="1" stop-color="white" stop-opacity="0"/>
</linearGradient>
</defs>
</svg>
