<svg width="104" height="91" viewBox="0 0 104 91" fill="none" xmlns="http://www.w3.org/2000/svg">
<path d="M52 90.2014C80.3192 90.2014 103.276 81.1955 103.276 70.0861C103.276 58.9767 80.3192 49.9708 52 49.9708C23.6809 49.9708 0.723633 58.9767 0.723633 70.0861C0.723633 81.1955 23.6809 90.2014 52 90.2014Z" fill="#F9FAFB"/>
<path d="M56.1388 7.79306L54.4166 18.5903H43.2222L56.0736 7.79306H56.1388Z" fill="#D0D5DD"/>
<path d="M54.4166 18.9028H43.2222C43.0902 18.9028 42.9736 18.8208 42.9291 18.6972C42.8847 18.5736 42.9208 18.4361 43.0222 18.3514L55.8736 7.55417C55.9305 7.50695 56.0014 7.48056 56.075 7.48056H56.1402C56.2319 7.48056 56.318 7.52084 56.3777 7.59028C56.4375 7.65973 56.4625 7.75139 56.4486 7.84167L54.7263 18.6389C54.7013 18.7917 54.5708 18.9028 54.4166 18.9028ZM44.0805 18.2778H54.15L55.7083 8.50834L44.0805 18.2778Z" fill="#F9FAFB"/>
<path d="M90.9735 11.4806L90.2707 15.8833L82.5999 63.9792L85.9721 64.6417L93.1276 19.7792L93.8304 15.375L90.9735 11.4806Z" fill="#E4E7EC"/>
<path d="M85.9721 64.9542C85.9526 64.9542 85.9318 64.9528 85.9123 64.9486L82.5401 64.2861C82.3749 64.2542 82.2651 64.0958 82.2915 63.9306L90.6651 11.4306C90.6846 11.3056 90.7776 11.2056 90.8998 11.1764C91.0221 11.1472 91.1512 11.1931 91.2248 11.2958L94.0818 15.1903C94.1318 15.2569 94.1512 15.3417 94.1387 15.4236L86.2818 64.6903C86.2679 64.7736 86.2221 64.8486 86.1526 64.8972C86.0985 64.9347 86.036 64.9542 85.9721 64.9542ZM82.9568 63.7306L85.7151 64.2722L93.5012 15.4542L91.1637 12.2681L82.9568 63.7306Z" fill="#F9FAFB"/>
<path d="M90.9733 11.4806L90.2705 15.8847L81.3038 72.1083L69.1136 70.9597L33.4358 68.5208C33.4358 68.5208 41.365 27.1958 41.4288 26.5917L42.1163 22.2778H53.3108L55.033 11.4806H90.9733Z" fill="#F7F9FC"/>
<path d="M81.304 72.4194C81.2942 72.4194 81.2845 72.4194 81.2748 72.4181L69.0845 71.2694L33.4151 68.8306C33.3262 68.825 33.2429 68.7806 33.1887 68.7097C33.1345 68.6389 33.1123 68.5486 33.129 68.4597C35.8609 54.225 41.0442 27.1486 41.1179 26.5556C41.1179 26.5514 41.1192 26.5444 41.1192 26.5403L41.8067 22.2264C41.8303 22.075 41.9623 21.9625 42.1151 21.9625H53.0429L54.722 11.4292C54.7456 11.2778 54.8776 11.1653 55.0304 11.1653H90.9706C91.0623 11.1653 91.1484 11.2056 91.2081 11.275C91.2679 11.3444 91.2929 11.4361 91.279 11.5264L81.6095 72.1528C81.5887 72.3097 81.4567 72.4194 81.304 72.4194ZM33.8095 68.2319L69.1359 70.6472L81.0415 71.7695L90.6067 11.7931H55.2998L53.6206 22.3264C53.597 22.4778 53.4651 22.5903 53.3123 22.5903H42.3845L41.7387 26.6389C41.5915 27.6611 34.622 63.9944 33.8095 68.2319Z" fill="#F9FAFB"/>
<path d="M51.3666 4.34583L49.6444 15.1417H38.45L51.3013 4.34583H51.3666Z" fill="#D0D5DD"/>
<path d="M49.6444 15.4542H38.45C38.318 15.4542 38.2014 15.3722 38.1569 15.2486C38.1125 15.125 38.1486 14.9875 38.25 14.9028L51.1014 4.10556C51.1583 4.05833 51.2291 4.03194 51.3027 4.03194H51.368C51.4597 4.03194 51.5458 4.07222 51.6055 4.14167C51.6652 4.21111 51.6902 4.30278 51.6764 4.39306L49.9541 15.1903C49.9291 15.3431 49.7986 15.4542 49.6444 15.4542ZM39.3083 14.8292H49.3777L50.9361 5.05972L39.3083 14.8292Z" fill="#F9FAFB"/>
<path d="M86.754 6.18889L86.0512 10.5917L78.3804 58.6875L81.7526 59.35L88.9081 14.4875L89.6109 10.0833L86.754 6.18889Z" fill="#E4E7EC"/>
<path d="M81.7526 59.6625C81.7331 59.6625 81.7123 59.6611 81.6929 59.6569L78.3206 58.9944C78.1554 58.9625 78.0456 58.8042 78.072 58.6389L86.4456 6.13889C86.4651 6.01389 86.5581 5.91389 86.6804 5.88472C86.8026 5.85555 86.9318 5.90139 87.0054 6.00416L89.8623 9.89861C89.9123 9.96528 89.9318 10.05 89.9193 10.1333L82.0623 59.4C82.0484 59.4833 82.0026 59.5583 81.9331 59.6069C81.879 59.6431 81.8165 59.6625 81.7526 59.6625ZM78.7373 58.4389L81.4956 58.9806L89.2818 10.1625L86.9443 6.97639L78.7373 58.4389Z" fill="#F9FAFB"/>
<path d="M86.7541 6.18889L86.0513 10.5931L77.0846 66.8167L64.8943 65.6681L29.2166 63.2292C29.2166 63.2292 37.1457 21.9042 37.2096 21.3L37.8971 16.9861H49.0916L50.8138 6.18889H86.7541Z" fill="#F7F9FC"/>
<path d="M77.0847 67.1278C77.075 67.1278 77.0653 67.1278 77.0556 67.1264L64.8653 65.9778L29.1958 63.5389C29.1069 63.5333 29.0236 63.4889 28.9694 63.4181C28.9153 63.3472 28.8931 63.2569 28.9097 63.168C31.6417 48.9333 36.825 21.8569 36.8986 21.2639C36.8986 21.2597 36.9 21.2528 36.9 21.2486L37.5875 16.9347C37.6111 16.7833 37.7431 16.6708 37.8958 16.6708H48.8236L50.5042 6.1375C50.5278 5.98611 50.6597 5.87361 50.8125 5.87361H86.7528C86.8444 5.87361 86.9306 5.91389 86.9903 5.98333C87.05 6.05278 87.075 6.14444 87.0611 6.23472L77.3917 66.8611C77.3694 67.0181 77.2375 67.1278 77.0847 67.1278ZM29.5903 62.9403L64.9167 65.3555L76.8222 66.4778L86.3875 6.50139H51.0806L49.4 17.0347C49.3764 17.1861 49.2444 17.2986 49.0917 17.2986H38.1639L37.5181 21.3472C37.3722 22.3694 30.4028 58.7028 29.5903 62.9403Z" fill="#F9FAFB"/>
<path d="M46.5944 0.897224L44.8722 11.6931H33.6777L46.5291 0.897224H46.5944Z" fill="#D0D5DD"/>
<path d="M44.8722 12.0056H33.6777C33.5458 12.0056 33.4291 11.9236 33.3847 11.8C33.3402 11.6764 33.3764 11.5389 33.4777 11.4542L46.3291 0.656947C46.3861 0.609725 46.4569 0.583336 46.5305 0.583336H46.5958C46.6875 0.583336 46.7736 0.623615 46.8333 0.693059C46.893 0.762504 46.918 0.85417 46.9041 0.944448L45.1819 11.7417C45.1569 11.8945 45.0264 12.0056 44.8722 12.0056ZM34.5361 11.3806H44.6055L46.1639 1.61112L34.5361 11.3806Z" fill="#F9FAFB"/>
<path d="M82.5345 0.897224L81.8317 5.3L74.1609 53.3958L77.5345 54.0583L84.6887 9.19584L85.3914 4.79167L82.5345 0.897224Z" fill="#E4E7EC"/>
<path d="M77.5346 54.3708C77.5151 54.3708 77.4943 54.3694 77.4748 54.3653L74.1026 53.7028C73.9374 53.6708 73.8276 53.5125 73.854 53.3472L82.2276 0.847225C82.2471 0.722225 82.3401 0.622223 82.4623 0.593056C82.5846 0.563889 82.7137 0.609725 82.7873 0.712503L85.6443 4.60694C85.6943 4.67361 85.7137 4.75833 85.7012 4.84167L77.8443 54.1083C77.8304 54.1917 77.7846 54.2667 77.7151 54.3153C77.6596 54.3514 77.5971 54.3708 77.5346 54.3708ZM74.5179 53.1472L77.2762 53.6889L85.0623 4.87084L82.7248 1.68472L74.5179 53.1472Z" fill="#F9FAFB"/>
<path d="M82.5346 0.897224L81.8318 5.30139L72.8651 61.525L60.6749 60.3764L24.9971 57.9375C24.9971 57.9375 32.9262 16.6125 32.9901 16.0083L33.6776 11.6944H44.8721L46.5943 0.897224H82.5346Z" fill="#F7F9FC"/>
<path d="M72.8652 61.8361C72.8555 61.8361 72.8458 61.8361 72.8361 61.8347L60.6458 60.6861L24.9764 58.2472C24.8875 58.2417 24.8041 58.1972 24.75 58.1264C24.6958 58.0556 24.6736 57.9653 24.6902 57.8764C27.4208 43.6417 32.6055 16.5653 32.6791 15.9722C32.6791 15.9681 32.6805 15.9611 32.6805 15.9569L33.368 11.6431C33.3916 11.4917 33.5236 11.3792 33.6764 11.3792H44.6041L46.2847 0.845835C46.3083 0.694446 46.4402 0.581947 46.593 0.581947H82.5333C82.625 0.581947 82.7111 0.622222 82.7708 0.691666C82.8305 0.761111 82.8555 0.852782 82.8416 0.943059L73.1722 61.5694C73.15 61.7264 73.018 61.8361 72.8652 61.8361ZM25.3708 57.6486L60.6972 60.0639L72.6027 61.1861L82.168 1.20972H46.8611L45.1805 11.7431C45.1569 11.8944 45.025 12.0069 44.8722 12.0069H33.9444L33.2986 16.0556C33.1527 17.0819 26.1847 53.4111 25.3708 57.6486Z" fill="#F9FAFB"/>
<path d="M37.1611 16.175L40.0181 20.0694C40.4389 20.6431 40.6292 21.3889 40.4986 22.2056C40.3681 23.0222 40.5584 23.7694 40.9792 24.3431L38.1222 20.4486C37.7014 19.875 37.5111 19.1278 37.6417 18.3111C37.7722 17.4944 37.582 16.7486 37.1611 16.175Z" fill="#D0D5DD"/>
<path d="M40.9805 24.6556C40.8846 24.6556 40.7888 24.6111 40.7277 24.5278L37.8707 20.6333C37.386 19.9722 37.1943 19.1292 37.3332 18.2611C37.4443 17.5611 37.2943 16.8861 36.9096 16.3611L36.9082 16.3597C36.8068 16.2208 36.836 16.025 36.9749 15.9222C37.1138 15.8208 37.3096 15.85 37.4124 15.9889C37.4124 15.9903 37.4138 15.9903 37.4138 15.9903L40.2693 19.8833C40.7541 20.5445 40.9443 21.3861 40.8068 22.2528C40.6957 22.9542 40.8457 23.6292 41.2291 24.1542L41.2305 24.1569C41.3318 24.2958 41.3027 24.4917 41.1638 24.5944C41.1096 24.6361 41.0443 24.6556 40.9805 24.6556ZM37.9943 17.8389C37.993 18.0111 37.9791 18.1847 37.9513 18.3597C37.8388 19.0611 37.9902 19.7375 38.3763 20.2639L40.1471 22.6792C40.1485 22.507 40.1624 22.332 40.1916 22.157C40.3041 21.4556 40.1527 20.7806 39.768 20.2556L37.9943 17.8389Z" fill="#F9FAFB"/>
<mask id="mask0_52_1267" style="mask-type:luminance" maskUnits="userSpaceOnUse" x="37" y="16" width="4" height="9">
<mask id="mask1_52_1267" style="mask-type:luminance" maskUnits="userSpaceOnUse" x="37" y="16" width="4" height="9">
<path d="M37.1611 16.175L40.0181 20.0694C40.4389 20.6431 40.6292 21.3889 40.4986 22.2056C40.3681 23.0222 40.5584 23.7694 40.9792 24.3431L38.1222 20.4486C37.7014 19.875 37.5111 19.1278 37.6417 18.3111C37.7722 17.4944 37.582 16.7486 37.1611 16.175Z" fill="white"/>
</mask>
<g mask="url(#mask1_52_1267)">
<path d="M40.9807 24.6556C40.8849 24.6556 40.789 24.6111 40.7279 24.5278L37.871 20.6333C37.3863 19.9722 37.1946 19.1292 37.3335 18.2611C37.4446 17.5611 37.2946 16.8861 36.9099 16.3611L36.9085 16.3597C36.8071 16.2208 36.8363 16.025 36.9751 15.9222C37.114 15.8208 37.3099 15.85 37.4126 15.9889C37.4126 15.9903 37.414 15.9903 37.414 15.9903L40.2696 19.8833C40.7543 20.5445 40.9446 21.3861 40.8071 22.2528C40.696 22.9542 40.846 23.6292 41.2293 24.1542L41.2307 24.1569C41.3321 24.2958 41.3029 24.4917 41.164 24.5944C41.1099 24.6361 41.0446 24.6556 40.9807 24.6556ZM37.9946 17.8389C37.9932 18.0111 37.9793 18.1847 37.9515 18.3597C37.839 19.0611 37.9904 19.7375 38.3765 20.2639L40.1474 22.6792C40.1488 22.507 40.1626 22.332 40.1918 22.157C40.3043 21.4556 40.1529 20.7806 39.7682 20.2556L37.9946 17.8389Z" fill="white"/>
</g>
</mask>
<g mask="url(#mask0_52_1267)">
<path d="M37.1611 16.175L40.0181 20.0694C40.0403 20.1 40.0625 20.1319 40.0847 20.1639L37.2278 16.2694C37.207 16.2375 37.1847 16.2056 37.1611 16.175Z" fill="#D0D5DD"/>
<path d="M40.0849 20.4764C39.989 20.4764 39.8932 20.4319 39.8321 20.3486L36.9751 16.4542C36.9488 16.4153 36.9293 16.3875 36.9085 16.3597C36.8071 16.2208 36.8363 16.025 36.9751 15.9236C37.114 15.8208 37.3099 15.8514 37.4126 15.9903L40.2696 19.8847C40.2946 19.9194 40.3196 19.9542 40.3432 19.9903C40.4376 20.1319 40.4015 20.3222 40.2626 20.4194C40.2099 20.4583 40.1474 20.4764 40.0849 20.4764Z" fill="#F9FAFB"/>
<path d="M37.2278 16.2694L40.0847 20.1639C40.1403 20.2472 40.1917 20.3347 40.2389 20.425L37.3819 16.5306C37.3347 16.4403 37.2833 16.3528 37.2278 16.2694Z" fill="#D0D5DD"/>
<path d="M40.2389 20.7375C40.1431 20.7375 40.0473 20.6931 39.9861 20.6097L37.1292 16.7153C37.1195 16.7014 37.1111 16.6875 37.1028 16.6736C37.0625 16.5944 37.0167 16.5167 36.9667 16.4431C36.8723 16.3014 36.9084 16.1111 37.0473 16.0139C37.1861 15.9167 37.3778 15.9486 37.4778 16.0847L40.3348 19.9792C40.4056 20.0833 40.4625 20.1819 40.5139 20.2819C40.5889 20.4264 40.5389 20.6042 40.4 20.6903C40.3514 20.7222 40.2945 20.7375 40.2389 20.7375Z" fill="#F9FAFB"/>
<path d="M37.3821 16.5306L40.239 20.425C40.2904 20.525 40.3349 20.6278 40.3737 20.7347L37.5168 16.8403C37.4779 16.7333 37.4321 16.6306 37.3821 16.5306Z" fill="#D0D5DD"/>
<path d="M40.3737 21.0472C40.2765 21.0472 40.1821 21.0028 40.121 20.9194L37.264 17.025C37.246 17.0014 37.2321 16.975 37.2224 16.9472C37.189 16.8542 37.1487 16.7625 37.1029 16.6736C37.0279 16.5292 37.0779 16.3514 37.2168 16.2653C37.3557 16.1792 37.5362 16.2153 37.6335 16.3458L40.4904 20.2403C40.5001 20.2542 40.5085 20.2681 40.5168 20.2819C40.5737 20.3931 40.6251 20.5097 40.6668 20.6278C40.7196 20.7736 40.6571 20.9361 40.5196 21.0097C40.4737 21.0361 40.4237 21.0472 40.3737 21.0472Z" fill="#F9FAFB"/>
<path d="M37.5166 16.8403L40.3735 20.7347C40.4208 20.8653 40.4583 21 40.486 21.1389L37.6291 17.2444C37.6013 17.1056 37.5638 16.9708 37.5166 16.8403Z" fill="#D0D5DD"/>
<path d="M40.4861 21.4528C40.3889 21.4528 40.2945 21.407 40.2334 21.325L37.3764 17.4306C37.35 17.3931 37.3306 17.3514 37.3223 17.3056C37.2986 17.1833 37.2653 17.0625 37.2223 16.9472C37.1695 16.8014 37.232 16.6389 37.3695 16.5653C37.507 16.4917 37.6764 16.5306 37.7681 16.6556L40.625 20.55C40.6431 20.5736 40.657 20.6 40.6667 20.6278C40.7195 20.7736 40.7611 20.925 40.7917 21.0792C40.8195 21.2222 40.7445 21.3667 40.6111 21.425C40.5709 21.4444 40.5278 21.4528 40.4861 21.4528Z" fill="#F9FAFB"/>
<path d="M37.6294 17.2445L40.4864 21.1389C40.5517 21.4722 40.56 21.832 40.5003 22.2042C40.4406 22.5778 40.4475 22.9361 40.5142 23.2695L37.6572 19.375C37.5919 19.0417 37.5836 18.6833 37.6433 18.3097C37.7017 17.9375 37.6947 17.5792 37.6294 17.2445Z" fill="#D0D5DD"/>
<path d="M40.5127 23.5833C40.4155 23.5833 40.321 23.5375 40.2599 23.4556L37.403 19.5611C37.3752 19.5236 37.3571 19.4819 37.3488 19.4361C37.2752 19.0583 37.2696 18.6625 37.3335 18.2611C37.3863 17.9319 37.3821 17.6111 37.3224 17.3056C37.2946 17.1625 37.3696 17.0181 37.503 16.9597C37.6363 16.9014 37.7932 16.9431 37.8807 17.0611L40.7377 20.9556C40.7641 20.9931 40.7835 21.0347 40.7919 21.0806C40.8669 21.4583 40.8724 21.8542 40.8071 22.2556C40.7544 22.5847 40.7585 22.9056 40.8182 23.2111C40.846 23.3542 40.771 23.4986 40.6377 23.5569C40.5974 23.575 40.5557 23.5833 40.5127 23.5833ZM37.9502 19.2486L40.1724 22.2792C40.178 22.2389 40.1835 22.1972 40.1905 22.1556C40.2391 21.8514 40.2391 21.5514 40.1905 21.2667L37.9682 18.2361C37.9627 18.2764 37.9571 18.3181 37.9502 18.3583C37.903 18.6639 37.903 18.9625 37.9502 19.2486Z" fill="#F9FAFB"/>
<path d="M37.6558 19.375L40.5127 23.2695C40.5405 23.4083 40.578 23.5445 40.6252 23.675L37.7683 19.7806C37.721 19.65 37.6835 19.5153 37.6558 19.375Z" fill="#D0D5DD"/>
<path d="M40.6252 23.9889C40.5279 23.9889 40.4335 23.9444 40.3724 23.8611L37.5154 19.9667C37.4974 19.9431 37.4835 19.9167 37.4738 19.8875C37.421 19.7417 37.3793 19.5903 37.3488 19.4361C37.321 19.2931 37.396 19.1486 37.5293 19.0903C37.664 19.0319 37.8196 19.0736 37.9071 19.1917L40.764 23.0861C40.7918 23.1236 40.8099 23.1653 40.8182 23.2111C40.8418 23.3333 40.8751 23.4542 40.9182 23.5708C40.971 23.7167 40.9085 23.8792 40.771 23.9528C40.7252 23.9764 40.6752 23.9889 40.6252 23.9889Z" fill="#F9FAFB"/>
<path d="M37.7681 19.7806L40.625 23.675C40.6639 23.7819 40.7083 23.8861 40.7597 23.9847L37.9028 20.0903C37.8514 19.9917 37.807 19.8875 37.7681 19.7806Z" fill="#D0D5DD"/>
<path d="M40.7598 24.2986C40.664 24.2986 40.5682 24.2542 40.507 24.1708L37.6501 20.2764C37.6404 20.2625 37.632 20.2486 37.6237 20.2347C37.5668 20.1236 37.5154 20.0069 37.4737 19.8889C37.4209 19.7431 37.4834 19.5806 37.6209 19.5069C37.7584 19.4333 37.9279 19.4722 38.0195 19.5972L40.8765 23.4917C40.8945 23.5153 40.9084 23.5417 40.9182 23.5708C40.9515 23.6639 40.9918 23.7569 41.0376 23.8444C41.1126 23.9889 41.0626 24.1667 40.9237 24.2528C40.8737 24.2833 40.8168 24.2986 40.7598 24.2986Z" fill="#F9FAFB"/>
<path d="M37.9028 20.0917L40.7598 23.9861C40.8056 24.0764 40.857 24.1639 40.9139 24.2472L38.057 20.3528C38.0001 20.2681 37.9501 20.1819 37.9028 20.0917Z" fill="#D0D5DD"/>
<path d="M40.914 24.5597C40.8182 24.5597 40.7223 24.5153 40.6612 24.4319L37.8043 20.5375C37.7335 20.4333 37.6765 20.3347 37.6251 20.2333C37.5501 20.0889 37.6001 19.9111 37.739 19.825C37.8779 19.7389 38.0585 19.775 38.1557 19.9056L41.0126 23.8C41.0224 23.8139 41.0307 23.8278 41.039 23.8417C41.0793 23.9208 41.1251 23.9986 41.1751 24.0722C41.2696 24.2139 41.2335 24.4042 41.0946 24.5014C41.0376 24.5417 40.9751 24.5597 40.914 24.5597Z" fill="#F9FAFB"/>
<path d="M38.0571 20.3528L40.9141 24.2472C40.9363 24.2792 40.9585 24.3111 40.9807 24.3431L38.1238 20.4486C38.1002 20.4167 38.078 20.3847 38.0571 20.3528Z" fill="#D0D5DD"/>
<path d="M40.9807 24.6556C40.8848 24.6556 40.7904 24.6111 40.7293 24.5278V24.5264C40.7293 24.525 40.7279 24.525 40.7279 24.5236L37.8737 20.6319C37.8487 20.5972 37.8237 20.5611 37.7987 20.525C37.7043 20.3833 37.7404 20.1931 37.8793 20.0958C38.0182 19.9986 38.2098 20.0306 38.3098 20.1667L41.1668 24.0611C41.1932 24.1 41.2112 24.1264 41.2307 24.1528L41.2321 24.1556C41.3335 24.2944 41.3043 24.4903 41.1654 24.5917C41.1098 24.6361 41.0446 24.6556 40.9807 24.6556Z" fill="#F9FAFB"/>
</g>
<path d="M43.372 25.7944C42.2817 25.7944 41.3179 25.3333 40.7276 24.5278L37.8706 20.6333C37.7692 20.4944 37.7984 20.2986 37.9373 20.1958C38.0762 20.0931 38.272 20.1236 38.3748 20.2625L38.3762 20.2639C38.847 20.9056 39.6262 21.2736 40.5151 21.2736C40.6151 21.2736 40.7081 21.3208 40.7665 21.4014L43.6234 25.2958C43.6929 25.3903 43.704 25.5167 43.6498 25.6222C43.597 25.7278 43.4901 25.7944 43.372 25.7944ZM39.4623 21.7458L41.2317 24.1583C41.5804 24.6333 42.0956 24.9583 42.7012 25.0958L40.354 21.8958C40.0429 21.8819 39.7443 21.8319 39.4623 21.7458Z" fill="#F9FAFB"/>
<mask id="mask2_52_1267" style="mask-type:luminance" maskUnits="userSpaceOnUse" x="37" y="20" width="7" height="6">
<path d="M43.372 25.7944C42.2817 25.7944 41.3179 25.3333 40.7276 24.5278L37.8706 20.6333C37.7692 20.4944 37.7984 20.2986 37.9373 20.1958C38.0762 20.0931 38.272 20.1236 38.3748 20.2625L38.3762 20.2639C38.847 20.9056 39.6262 21.2736 40.5151 21.2736C40.6151 21.2736 40.7081 21.3208 40.7665 21.4014L43.6234 25.2958C43.6929 25.3903 43.704 25.5167 43.6498 25.6222C43.597 25.7278 43.4901 25.7944 43.372 25.7944ZM39.4623 21.7458L41.2317 24.1583C41.5804 24.6333 42.0956 24.9583 42.7012 25.0958L40.354 21.8958C40.0429 21.8819 39.7443 21.8319 39.4623 21.7458Z" fill="white"/>
</mask>
<g mask="url(#mask2_52_1267)">
<path d="M40.515 21.5861L43.3719 25.4806C42.3427 25.4806 41.4913 25.0389 40.9802 24.3417L38.1233 20.4472C38.6344 21.1458 39.4858 21.5861 40.515 21.5861Z" fill="#667185"/>
<path d="M43.372 25.7944C42.2817 25.7944 41.3179 25.3333 40.7276 24.5278L37.8706 20.6333C37.7692 20.4944 37.7984 20.2986 37.9373 20.1958C38.0762 20.0931 38.272 20.1236 38.3748 20.2625L38.3762 20.2639C38.847 20.9056 39.6262 21.2736 40.5151 21.2736C40.6151 21.2736 40.7081 21.3208 40.7665 21.4014L43.6234 25.2958C43.6929 25.3903 43.704 25.5167 43.6498 25.6222C43.597 25.7278 43.4901 25.7944 43.372 25.7944ZM39.4623 21.7458L41.2317 24.1583C41.5804 24.6333 42.0956 24.9583 42.7012 25.0958L40.354 21.8958C40.0429 21.8819 39.7443 21.8319 39.4623 21.7458Z" fill="#F9FAFB"/>
</g>
<path d="M67.504 21.5861L70.361 25.4819H43.3721L40.5151 21.5861H67.504Z" fill="#98A2B3"/>
<path d="M70.361 25.7944H43.3721C43.2721 25.7944 43.179 25.7472 43.1207 25.6667L40.2637 21.7722C40.1943 21.6778 40.1832 21.5514 40.2373 21.4458C40.2901 21.3403 40.3985 21.275 40.5165 21.275H67.5054C67.6054 21.275 67.6985 21.3222 67.7568 21.4028L70.6137 25.2972C70.6832 25.3917 70.6943 25.5181 70.6401 25.6236C70.586 25.7278 70.479 25.7944 70.361 25.7944ZM43.5304 25.1694H69.7443L67.3457 21.9H41.1318L43.5304 25.1694Z" fill="#F9FAFB"/>
<path d="M72.7541 26.9319C72.6583 26.9319 72.5625 26.8875 72.5014 26.8042C72.0305 26.1611 71.25 25.7931 70.3611 25.7931C70.2611 25.7931 70.168 25.7458 70.1097 25.6653L67.2528 21.7708C67.1833 21.6764 67.1722 21.55 67.2264 21.4444C67.2791 21.3389 67.3875 21.2736 67.5055 21.2736C68.5958 21.2736 69.5597 21.7347 70.15 22.5403L73.0069 26.4347C73.1083 26.5736 73.0791 26.7694 72.9403 26.8722C72.8819 26.9125 72.818 26.9319 72.7541 26.9319ZM70.5222 25.1722C70.8333 25.1847 71.1319 25.2361 71.4139 25.3222L69.6444 22.9097C69.2958 22.4347 68.7791 22.1097 68.175 21.9722L70.5222 25.1722Z" fill="#F9FAFB"/>
<mask id="mask3_52_1267" style="mask-type:luminance" maskUnits="userSpaceOnUse" x="67" y="21" width="7" height="6">
<path d="M72.7541 26.9319C72.6583 26.9319 72.5625 26.8875 72.5014 26.8042C72.0305 26.1611 71.25 25.7931 70.3611 25.7931C70.2611 25.7931 70.168 25.7458 70.1097 25.6653L67.2528 21.7708C67.1833 21.6764 67.1722 21.55 67.2264 21.4444C67.2791 21.3389 67.3875 21.2736 67.5055 21.2736C68.5958 21.2736 69.5597 21.7347 70.15 22.5403L73.0069 26.4347C73.1083 26.5736 73.0791 26.7694 72.9403 26.8722C72.8819 26.9125 72.818 26.9319 72.7541 26.9319ZM70.5222 25.1722C70.8333 25.1847 71.1319 25.2361 71.4139 25.3222L69.6444 22.9097C69.2958 22.4347 68.7791 22.1097 68.175 21.9722L70.5222 25.1722Z" fill="white"/>
</mask>
<g mask="url(#mask3_52_1267)">
<path d="M69.8958 22.725L72.7528 26.6194C72.2416 25.9222 71.3903 25.4806 70.3611 25.4806L67.5042 21.5861C68.5333 21.5861 69.3847 22.0278 69.8958 22.725Z" fill="#667185"/>
<path d="M72.7541 26.9319C72.6583 26.9319 72.5625 26.8875 72.5014 26.8042C72.0305 26.1611 71.25 25.7931 70.3611 25.7931C70.2611 25.7931 70.168 25.7458 70.1097 25.6653L67.2528 21.7708C67.1833 21.6764 67.1722 21.55 67.2264 21.4444C67.2791 21.3389 67.3875 21.2736 67.5055 21.2736C68.5958 21.2736 69.5597 21.7347 70.15 22.5403L73.0069 26.4347C73.1083 26.5736 73.0791 26.7694 72.9403 26.8722C72.8819 26.9125 72.818 26.9319 72.7541 26.9319ZM70.5222 25.1722C70.8333 25.1847 71.1319 25.2361 71.4139 25.3222L69.6444 22.9097C69.2958 22.4347 68.7791 22.1097 68.175 21.9722L70.5222 25.1722Z" fill="#F9FAFB"/>
</g>
<path d="M55.1945 40.6319L53.675 50.1639H25.3931L26.9139 40.6319H55.1945Z" fill="#F9FAFB"/>
<path d="M73.2694 28.3708C73.2722 28.3083 73.2736 28.2445 73.2722 28.182C73.2708 28.1445 73.268 28.1097 73.2653 28.0722C73.2625 28.0167 73.2583 27.9611 73.2514 27.9069C73.2472 27.8694 73.2403 27.8319 73.2347 27.7944C73.2291 27.7597 73.2264 27.725 73.2194 27.6917C73.2153 27.6722 73.2097 27.6528 73.2055 27.6333C73.2 27.6069 73.193 27.5806 73.1875 27.5556C73.1722 27.4958 73.1555 27.4361 73.1375 27.3792C73.1305 27.357 73.1236 27.3361 73.1166 27.3139C73.1139 27.3056 73.1111 27.2958 73.1083 27.2875C73.1014 27.2667 73.0903 27.2486 73.0819 27.2278C73.0541 27.157 73.025 27.0875 72.9916 27.0208C72.9847 27.0069 72.9805 26.9917 72.9722 26.9778C72.9625 26.9583 72.95 26.9403 72.9389 26.9208C72.9111 26.8708 72.8819 26.8208 72.8514 26.7722C72.8403 26.7542 72.8305 26.7347 72.818 26.7167C72.7972 26.6847 72.775 26.6528 72.7514 26.6208L69.8944 22.7264C69.9305 22.775 69.9625 22.8264 69.9944 22.8778C70.025 22.9264 70.0541 22.975 70.0819 23.0264C70.1 23.0597 70.118 23.0931 70.1347 23.1264C70.168 23.1931 70.1972 23.2625 70.225 23.3333C70.2361 23.3625 70.2486 23.3903 70.2597 23.4194C70.2666 23.4403 70.2736 23.4625 70.2805 23.4847C70.2986 23.5431 70.3166 23.6014 70.3305 23.6611C70.3375 23.6875 70.343 23.7125 70.3486 23.7389C70.3597 23.7917 70.3694 23.8458 70.3778 23.9C70.3833 23.9375 70.3903 23.975 70.3944 24.0125C70.4014 24.0667 70.4041 24.1222 70.4083 24.1778C70.4111 24.2139 70.4139 24.25 70.4153 24.2875C70.4167 24.35 70.4139 24.4125 70.4125 24.4764C70.4111 24.5083 70.4125 24.5389 70.4097 24.5708C70.4028 24.6667 70.393 24.7625 70.3778 24.8611L64.7139 60.375L67.5708 64.2695L73.2347 28.7556C73.25 28.6583 73.2611 28.5611 73.2666 28.4653C73.2694 28.4333 73.268 28.4028 73.2694 28.3708Z" fill="#D0D5DD"/>
<path d="M67.5693 64.5833C67.4707 64.5833 67.3777 64.5375 67.318 64.4556L64.461 60.5611C64.411 60.4945 64.3916 60.4097 64.4041 60.3264L70.068 24.8125C70.0819 24.7278 70.0916 24.6417 70.0971 24.55C70.0985 24.5361 70.0985 24.5222 70.0985 24.5083L70.0999 24.4653C70.1027 24.4083 70.1041 24.3514 70.1027 24.2958C70.1027 24.275 70.1013 24.2556 70.0999 24.2347L70.0971 24.1986C70.0943 24.1486 70.0916 24.0986 70.086 24.05C70.0832 24.025 70.0791 24 70.0749 23.975L70.0707 23.9486C70.0638 23.9014 70.0555 23.8528 70.0443 23.8056C70.0388 23.7833 70.0332 23.7597 70.0277 23.7375C70.0138 23.6833 69.9999 23.632 69.9832 23.5806L69.9652 23.5222C69.961 23.5111 69.9555 23.4986 69.9513 23.4861L69.9346 23.4458C69.9082 23.3764 69.8818 23.3167 69.8555 23.2625C69.8402 23.232 69.8249 23.2028 69.8096 23.1736C69.786 23.1292 69.7596 23.0861 69.7332 23.0431L69.718 23.0195C69.6943 22.982 69.6707 22.9445 69.6457 22.9097C69.5443 22.7708 69.5735 22.575 69.7124 22.4722C69.8513 22.3708 70.0471 22.4 70.1499 22.5389L73.0068 26.4333C73.0332 26.4681 73.0568 26.5042 73.0818 26.5403C73.093 26.557 73.1027 26.575 73.1124 26.5917C73.1527 26.6556 73.1846 26.7111 73.2152 26.7681C73.2332 26.7972 73.243 26.8139 73.2527 26.8333C73.2596 26.8472 73.2666 26.8639 73.2735 26.8806C73.3068 26.95 73.3402 27.0264 73.3735 27.1111C73.386 27.1389 73.3957 27.1583 73.4027 27.1778C73.4068 27.1889 73.4096 27.1986 73.4124 27.2083C73.418 27.2264 73.4235 27.2431 73.4291 27.2611L73.4346 27.2806C73.4555 27.3445 73.4749 27.4111 73.4916 27.4778C73.4985 27.507 73.5055 27.5347 73.5124 27.5653L73.5166 27.582C73.5207 27.5972 73.5249 27.6139 73.5277 27.6292C73.5332 27.657 73.5374 27.6847 73.5402 27.7111L73.5485 27.7667C73.5541 27.8 73.5596 27.8333 73.5638 27.8681C73.5707 27.9292 73.5749 27.9903 73.5791 28.0528L73.5819 28.0861C73.5846 28.1153 73.586 28.1445 73.586 28.1736C73.5874 28.2431 73.586 28.3125 73.5832 28.3806V28.4097C73.5832 28.4347 73.5818 28.4597 73.5805 28.4861C73.5735 28.5945 73.561 28.7014 73.5443 28.8028L67.8805 64.3167C67.861 64.4417 67.768 64.5417 67.6457 64.5708C67.6194 64.5792 67.5943 64.5833 67.5693 64.5833ZM65.0416 60.2958L67.3791 63.4819L72.9249 28.707C72.9388 28.6236 72.9485 28.5347 72.9541 28.4445C72.9555 28.4292 72.9555 28.4167 72.9555 28.4028L72.9569 28.3597C72.9569 28.3597 72.9569 28.3597 72.9569 28.3583C72.9596 28.3014 72.961 28.2445 72.9596 28.1889C72.9596 28.1695 72.9582 28.15 72.9569 28.1306L72.9541 28.0903C72.9513 28.0403 72.9485 27.9903 72.943 27.9417C72.9402 27.9167 72.936 27.8917 72.9319 27.8667L72.9207 27.7958C72.9193 27.7806 72.9166 27.7653 72.9138 27.75L72.9013 27.6986C72.8957 27.6764 72.8902 27.6528 72.8846 27.6306C72.8707 27.5764 72.8568 27.525 72.8402 27.4736L72.8221 27.4167C72.8207 27.4125 72.8152 27.3958 72.8138 27.3917C72.8041 27.3722 72.7971 27.357 72.7916 27.3403C72.7652 27.2708 72.7388 27.2111 72.7124 27.157C72.7055 27.1431 72.6999 27.1292 72.6943 27.1167C72.6818 27.0958 72.6735 27.0833 72.6666 27.0695C72.643 27.025 72.6166 26.982 72.5902 26.9389C72.5818 26.925 72.5735 26.9125 72.5666 26.8986C72.543 26.8611 72.5235 26.8333 72.5027 26.8056L70.7291 24.3875C70.7277 24.4208 70.7277 24.4542 70.7263 24.4875V24.5181C70.7263 24.5431 70.7249 24.5681 70.7235 24.5931C70.7166 24.7042 70.7041 24.8083 70.6874 24.9111L65.0416 60.2958Z" fill="#F9FAFB"/>
<path d="M89.097 45.3972L85.2998 69.2083H63.304L64.7137 60.375L67.1012 45.3972H79.4748H82.2748H85.072H89.097Z" fill="#D0D5DD"/>
<path d="M85.2999 69.5208H63.304C63.2124 69.5208 63.1262 69.4805 63.0665 69.4111C63.0068 69.3417 62.9818 69.25 62.9957 69.1597L66.7929 45.3486C66.8165 45.1972 66.9485 45.0847 67.1012 45.0847H89.0971C89.1887 45.0847 89.2749 45.125 89.3346 45.1944C89.3943 45.2639 89.4193 45.3555 89.4054 45.4458L85.6082 69.2569C85.5846 69.4097 85.454 69.5208 85.2999 69.5208ZM63.6707 68.8958H85.0332L88.7304 45.7097H67.3679L63.6707 68.8958Z" fill="#F9FAFB"/>
<path d="M67.504 21.5861C69.379 21.5861 70.6651 23.0514 70.3776 24.8611L64.7137 60.375L63.3054 69.2083H13.0846C11.2096 69.2083 9.92208 67.7431 10.2096 65.9333L17.2818 21.5861L17.804 18.3097C18.0929 16.5014 19.8471 15.0347 21.7235 15.0347H34.7665C35.711 15.0347 36.5068 15.4056 37.0262 16.0056C37.5387 16.5972 37.7846 17.4111 37.6415 18.3083C37.3526 20.1181 38.6387 21.5847 40.5137 21.5847H67.504V21.5861ZM53.6749 50.1639L55.1943 40.6319H26.9137L25.3929 50.1639H53.6749Z" fill="#D0D5DD"/>
<path d="M63.3041 69.5208H13.0846C12.0694 69.5208 11.1777 69.1306 10.5735 68.4236C9.98881 67.7375 9.74992 66.8361 9.90131 65.8847L17.4971 18.2611C17.8082 16.3097 19.7055 14.7236 21.7249 14.7236H34.768C35.7749 14.7236 36.661 15.1069 37.2638 15.8028C37.8596 16.4903 38.1041 17.3986 37.9513 18.3597C37.8291 19.1292 38.0166 19.8528 38.4819 20.3972C38.9638 20.9625 39.686 21.2736 40.5152 21.2736H67.5041C68.5194 21.2736 69.411 21.6625 70.0138 22.3694C70.5985 23.0556 70.8374 23.9569 70.686 24.9097L63.6138 69.2569C63.5888 69.4097 63.4583 69.5208 63.3041 69.5208ZM21.7249 15.3486C19.9985 15.3486 18.3791 16.7 18.1138 18.3597L10.518 65.9833C10.3958 66.7514 10.5832 67.4736 11.0485 68.0181C11.5319 68.5847 12.2541 68.8958 13.0846 68.8958H63.0374L70.068 24.8125C70.1902 24.0444 70.0027 23.3208 69.5374 22.7764C69.0555 22.2111 68.3319 21.9 67.5027 21.9H40.5152C39.4999 21.9 38.6096 21.5111 38.0055 20.8042C37.4208 20.1181 37.1819 19.2153 37.3333 18.2625C37.4569 17.4861 37.2638 16.7583 36.7916 16.2125C36.3083 15.6556 35.5902 15.3486 34.768 15.3486H21.7249ZM53.6749 50.4764H25.393C25.3013 50.4764 25.2152 50.4361 25.1555 50.3667C25.0958 50.2972 25.0708 50.2056 25.0846 50.1153L26.6055 40.5833C26.6291 40.4319 26.761 40.3194 26.9138 40.3194H55.1944C55.286 40.3194 55.3721 40.3597 55.4319 40.4292C55.4916 40.4986 55.5166 40.5903 55.5027 40.6806L53.9819 50.2125C53.9583 50.3639 53.8277 50.4764 53.6749 50.4764ZM25.7596 49.8514H53.4083L54.8291 40.9444H27.1805L25.7596 49.8514Z" fill="#F9FAFB"/>
<path d="M89.097 45.3972L91.954 49.2917L88.1567 73.1028L85.2998 69.2083L89.097 45.3972Z" fill="#D0D5DD"/>
<path d="M88.1568 73.4153C88.0581 73.4153 87.9651 73.3694 87.9054 73.2875L85.0484 69.393C84.9984 69.3264 84.979 69.2417 84.9915 69.1583L88.7887 45.3472C88.8081 45.2222 88.9012 45.1222 89.0234 45.0931C89.1456 45.0639 89.2748 45.1097 89.3484 45.2125L92.2054 49.1069C92.2554 49.1736 92.2748 49.2583 92.2623 49.3417L88.4651 73.1528C88.4456 73.2778 88.3526 73.3778 88.2304 73.4069C88.2054 73.4125 88.1818 73.4153 88.1568 73.4153ZM85.629 69.1292L87.9665 72.3153L91.6262 49.3722L89.2887 46.1861L85.629 69.1292Z" fill="#F9FAFB"/>
<path d="M88.1569 73.1028L85.3 69.2083H63.3042H13.0847C12.0555 69.2083 11.2028 68.7667 10.6917 68.0694L13.5486 71.9639C14.0611 72.6611 14.9125 73.1028 15.943 73.1028H66.1625H88.1569Z" fill="#667185"/>
<path d="M88.1568 73.4153H15.9415C14.8513 73.4153 13.886 72.9528 13.2957 72.1486L10.4388 68.2542C10.3374 68.1153 10.3665 67.9194 10.5054 67.8167C10.6443 67.7153 10.8401 67.7444 10.9429 67.8833C11.4151 68.5264 12.1957 68.8958 13.0846 68.8958H85.2999C85.3999 68.8958 85.4929 68.9431 85.5513 69.0236L88.4082 72.9181C88.4776 73.0125 88.4888 73.1389 88.4346 73.2444C88.3832 73.35 88.2749 73.4153 88.1568 73.4153ZM12.0304 69.3667L13.7999 71.7792C14.2721 72.4222 15.0526 72.7917 15.9415 72.7917H87.5401L85.1415 69.5222H13.0846C12.7151 69.5208 12.361 69.4681 12.0304 69.3667Z" fill="#F9FAFB"/>
<path d="M95.8972 28.6861C97.0386 28.6861 97.9639 27.7608 97.9639 26.6194C97.9639 25.4781 97.0386 24.5528 95.8972 24.5528C94.7558 24.5528 93.8306 25.4781 93.8306 26.6194C93.8306 27.7608 94.7558 28.6861 95.8972 28.6861Z" fill="#F9FAFB"/>
<path d="M11.4583 35.9958C12.5997 35.9958 13.5249 35.0706 13.5249 33.9292C13.5249 32.7878 12.5997 31.8625 11.4583 31.8625C10.3169 31.8625 9.3916 32.7878 9.3916 33.9292C9.3916 35.0706 10.3169 35.9958 11.4583 35.9958Z" fill="#F9FAFB"/>
<path d="M12.4932 37.6667C12.8951 37.6667 13.2209 37.3408 13.2209 36.9389C13.2209 36.5369 12.8951 36.2111 12.4932 36.2111C12.0912 36.2111 11.7654 36.5369 11.7654 36.9389C11.7654 37.3408 12.0912 37.6667 12.4932 37.6667Z" fill="#F9FAFB"/>
<path d="M29.2167 11.3486C31.1804 11.3486 32.7722 9.75673 32.7722 7.79305C32.7722 5.82937 31.1804 4.2375 29.2167 4.2375C27.253 4.2375 25.6611 5.82937 25.6611 7.79305C25.6611 9.75673 27.253 11.3486 29.2167 11.3486Z" fill="#E4E7EC"/>
<path d="M25.6625 6.03889C26.5976 6.03889 27.3556 5.28088 27.3556 4.34583C27.3556 3.41079 26.5976 2.65278 25.6625 2.65278C24.7275 2.65278 23.9695 3.41079 23.9695 4.34583C23.9695 5.28088 24.7275 6.03889 25.6625 6.03889Z" fill="#F9FAFB"/>
</svg>
