<svg width="20" height="20" viewBox="0 0 20 20" fill="none" xmlns="http://www.w3.org/2000/svg">
<path d="M2.08313 10.1587C2.04363 8.01121 2.8431 5.98641 4.3302 4.46729C5.81762 2.95616 7.81028 2.12553 9.95813 2.12549C14.3447 2.12549 17.9171 5.69695 17.9171 10.0835V14.8335C17.9171 14.945 17.8197 15.0415 17.7081 15.0415C17.5967 15.0414 17.5001 14.945 17.5001 14.8335V10.0835C17.5001 5.92869 14.1219 2.5415 9.95813 2.5415C8.05059 2.54155 6.26931 3.23197 4.89661 4.49756L4.62805 4.7583C3.30288 6.10832 2.56156 7.87743 2.50305 9.77588L2.50012 10.1499V14.9087C2.50002 15.0355 2.40456 15.1252 2.29211 15.1255C2.18057 15.1255 2.08313 15.0281 2.08313 14.9165V10.1587Z" fill="#093C46" stroke="#093C46" stroke-width="0.833333"/>
<path d="M4.84143 10.792H4.94983C6.46965 10.792 7.70851 12.03 7.70862 13.5498V15.1162C7.70862 16.6361 6.46971 17.875 4.94983 17.875H4.84143C3.32164 17.8749 2.08362 16.636 2.08362 15.1162V13.5498C2.08372 12.0301 3.3217 10.7921 4.84143 10.792Z" fill="#093C46" stroke="#093C46" stroke-width="0.833333"/>
<path d="M15.1583 10.375H15.05C13.3 10.375 11.875 11.8 11.875 13.55V15.1167C11.875 16.8667 13.3 18.2917 15.05 18.2917H15.1583C16.9083 18.2917 18.3333 16.8667 18.3333 15.1167V13.55C18.3333 11.8 16.9083 10.375 15.1583 10.375Z" fill="#093C46"/>
</svg>
