<svg width="20" height="20" viewBox="0 0 20 20" fill="none" xmlns="http://www.w3.org/2000/svg">
<path d="M13.7012 3.00049C16.0274 3.00049 17.9179 4.89493 17.918 7.2417C17.918 8.18793 17.767 9.06138 17.5049 9.87158L17.5039 9.87451C16.8754 11.8634 15.5874 13.4669 14.1973 14.6616C12.8054 15.8578 11.3349 16.6241 10.3838 16.9478L10.3789 16.9487C10.2957 16.978 10.1585 17.0005 10.001 17.0005C9.8434 17.0005 9.70619 16.9781 9.62305 16.9487L9.61914 16.9478L9.23926 16.8052C8.3015 16.4254 7.02275 15.7085 5.80469 14.6616C4.4146 13.4669 3.12751 11.8634 2.49902 9.87451L2.49805 9.87158L2.4043 9.56494C2.19982 8.84206 2.08496 8.06967 2.08496 7.2417C2.08503 4.89493 3.97553 3.00049 6.30176 3.00049C7.67249 3.00064 8.90133 3.66718 9.66797 4.69189L10.001 5.13721L10.335 4.69189C11.1017 3.6671 12.3303 3.00053 13.7012 3.00049Z" fill="#15899F" stroke="#15899F" stroke-width="0.833333"/>
</svg>
