<svg width="17" height="16" viewBox="0 0 17 16" fill="none" xmlns="http://www.w3.org/2000/svg">
<path d="M11.4609 2.56641C13.229 2.56656 14.6669 4.00692 14.667 5.79297C14.667 6.5319 14.5493 7.21338 14.3447 7.8457L14.3438 7.84863C13.8529 9.40201 12.8451 10.6605 11.749 11.6025C10.6508 12.5463 9.49271 13.1477 8.75293 13.3994L8.74805 13.4014C8.70491 13.4166 8.61508 13.4326 8.50098 13.4326C8.3868 13.4326 8.29712 13.4166 8.25391 13.4014L8.24805 13.3994C7.50823 13.1476 6.35003 12.5463 5.25195 11.6025C4.15591 10.6605 3.14808 9.40197 2.65723 7.84863L2.65625 7.8457C2.4517 7.2134 2.33398 6.53186 2.33398 5.79297C2.33404 4.00682 3.77286 2.56641 5.54102 2.56641C6.58263 2.56652 7.51725 3.07284 8.10059 3.85254L8.50098 4.3877L8.90137 3.85254C9.48478 3.07286 10.4193 2.56641 11.4609 2.56641Z" fill="#FF8D28" stroke="#FF8D28"/>
</svg>
