<svg width="28" height="28" viewBox="0 0 28 28" fill="none" xmlns="http://www.w3.org/2000/svg">
<path d="M12.4477 3.32748C13.4121 2.77745 14.59 2.78052 15.5395 3.32846L22.4702 7.33041V7.32944C23.3643 7.85642 23.9368 8.77945 24.0131 9.80795L24.0219 10.015V17.9896C24.0219 19.1007 23.432 20.1217 22.4819 20.6703L15.5512 24.6712C14.5868 25.2212 13.4098 25.2193 12.4604 24.6712L5.53265 20.6722H5.53363C4.57839 20.1108 3.98969 19.0872 3.98969 17.9896V10.0101C3.98969 8.8991 4.57975 7.87899 5.52972 7.33041H5.5307L12.4487 3.32846L12.4477 3.32748ZM15.2407 17.7171C14.7536 17.2303 13.9977 17.0705 13.3471 17.3412V17.3402C13.1103 17.4313 12.9342 17.5594 12.7817 17.6966L12.77 17.7064L12.7592 17.7171C12.422 18.0543 12.2504 18.5092 12.2504 18.9583C12.2504 19.168 12.2819 19.3995 12.3764 19.6263L12.3842 19.6449L12.393 19.6624C12.4807 19.8378 12.59 20.013 12.7377 20.1771L12.7582 20.1996L12.7817 20.2201C12.9342 20.3573 13.1103 20.4854 13.3471 20.5765V20.5746C13.5433 20.6545 13.7659 20.7083 14.0004 20.7083C14.4641 20.7082 14.9057 20.5344 15.2407 20.1996L15.2514 20.1878L15.2621 20.1771C15.4096 20.0133 15.5272 19.8291 15.6118 19.6263C15.695 19.4266 15.7504 19.1985 15.7504 18.9583C15.7504 18.7182 15.695 18.49 15.6118 18.2904H15.6108C15.5201 18.0614 15.3964 17.8887 15.2621 17.7396L15.2514 17.7289L15.2407 17.7171ZM14.0004 7.58334C13.2 7.58334 12.5416 8.241 12.5414 9.04135V15.1664C12.5414 15.9669 13.1999 16.6253 14.0004 16.6253C14.8007 16.6251 15.4584 15.9667 15.4584 15.1664V9.04135C15.4583 8.24114 14.8006 7.58357 14.0004 7.58334Z" fill="#1BAAC7" stroke="#1BAAC7" stroke-width="1.16667"/>
</svg>
