<svg width="25" height="25" viewBox="0 0 25 25" fill="none" xmlns="http://www.w3.org/2000/svg">
<path d="M8.43086 2.96533H16.8309C20.0309 2.96533 22.6309 5.56533 22.6309 8.76533V17.1653C22.6309 18.7036 22.0198 20.1788 20.9321 21.2666C19.8444 22.3543 18.3691 22.9653 16.8309 22.9653H8.43086C5.23086 22.9653 2.63086 20.3653 2.63086 17.1653V8.76533C2.63086 7.22708 3.24193 5.75182 4.32964 4.66411C5.41735 3.5764 6.8926 2.96533 8.43086 2.96533ZM8.23086 4.96533C7.27608 4.96533 6.36041 5.34462 5.68528 6.01975C5.01014 6.69488 4.63086 7.61055 4.63086 8.56533V17.3653C4.63086 19.3553 6.24086 20.9653 8.23086 20.9653H17.0309C17.9856 20.9653 18.9013 20.586 19.5764 19.9109C20.2516 19.2358 20.6309 18.3201 20.6309 17.3653V8.56533C20.6309 6.57533 19.0209 4.96533 17.0309 4.96533H8.23086ZM17.8809 6.46533C18.2124 6.46533 18.5303 6.59703 18.7647 6.83145C18.9992 7.06587 19.1309 7.38381 19.1309 7.71533C19.1309 8.04685 18.9992 8.3648 18.7647 8.59922C18.5303 8.83364 18.2124 8.96533 17.8809 8.96533C17.5493 8.96533 17.2314 8.83364 16.997 8.59922C16.7626 8.3648 16.6309 8.04685 16.6309 7.71533C16.6309 7.38381 16.7626 7.06587 16.997 6.83145C17.2314 6.59703 17.5493 6.46533 17.8809 6.46533ZM12.6309 7.96533C13.9569 7.96533 15.2287 8.49212 16.1664 9.4298C17.1041 10.3675 17.6309 11.6392 17.6309 12.9653C17.6309 14.2914 17.1041 15.5632 16.1664 16.5009C15.2287 17.4385 13.9569 17.9653 12.6309 17.9653C11.3048 17.9653 10.033 17.4385 9.09533 16.5009C8.15764 15.5632 7.63086 14.2914 7.63086 12.9653C7.63086 11.6392 8.15764 10.3675 9.09533 9.4298C10.033 8.49212 11.3048 7.96533 12.6309 7.96533ZM12.6309 9.96533C11.8352 9.96533 11.0721 10.2814 10.5095 10.844C9.94693 11.4066 9.63086 12.1697 9.63086 12.9653C9.63086 13.761 9.94693 14.524 10.5095 15.0867C11.0721 15.6493 11.8352 15.9653 12.6309 15.9653C13.4265 15.9653 14.1896 15.6493 14.7522 15.0867C15.3148 14.524 15.6309 13.761 15.6309 12.9653C15.6309 12.1697 15.3148 11.4066 14.7522 10.844C14.1896 10.2814 13.4265 9.96533 12.6309 9.96533Z" fill="white"/>
</svg>
