<svg width="20" height="20" viewBox="0 0 20 20" fill="none" xmlns="http://www.w3.org/2000/svg">
<path d="M6.50842 2.08301H13.4918C14.9256 2.08305 16.0202 2.50887 16.7545 3.24414C17.4886 3.97935 17.9118 5.07354 17.9078 6.50684V13.4912C17.9078 14.9249 17.4822 16.0194 16.7467 16.7549C16.0112 17.4903 14.9167 17.916 13.483 17.916H6.50842C5.07463 17.916 3.98022 17.4903 3.24475 16.7539C2.50922 16.0175 2.08362 14.9207 2.08362 13.4824V6.50781C2.08362 5.07401 2.50923 3.97966 3.24475 3.24414C3.98027 2.50862 5.07462 2.08301 6.50842 2.08301ZM9.99963 6.34961C7.98644 6.34979 6.3504 7.98583 6.35022 9.99902C6.35022 12.0124 7.98633 13.6492 9.99963 13.6494C12.0131 13.6494 13.65 12.0125 13.65 9.99902C13.6498 7.98572 12.013 6.34961 9.99963 6.34961ZM14.3824 4.1875C13.9803 4.11103 13.5601 4.24908 13.2799 4.5293L13.2731 4.53711L13.2653 4.5459C13.1917 4.62768 13.1218 4.71896 13.0641 4.83105L13.0153 4.93945C12.9559 5.08199 12.9166 5.24461 12.9166 5.41602C12.9166 5.58743 12.9559 5.75004 13.0153 5.89258C13.0756 6.03746 13.16 6.1691 13.2653 6.28613L13.2731 6.29492L13.2799 6.30273C13.5193 6.54208 13.8353 6.66602 14.1666 6.66602C14.338 6.66602 14.5006 6.62673 14.6432 6.56738C14.7881 6.50701 14.9197 6.42269 15.0367 6.31738L15.0533 6.30273L15.068 6.28613C15.1733 6.1691 15.2576 6.03746 15.318 5.89258C15.3773 5.75004 15.4166 5.58742 15.4166 5.41602C15.4166 5.24461 15.3773 5.08199 15.318 4.93945H15.317C15.2523 4.77575 15.1639 4.65248 15.068 4.5459L15.0455 4.52051L15.0182 4.49902L14.9655 4.4541C14.9443 4.4361 14.9073 4.40728 14.8629 4.37891L14.8649 4.37793C14.8603 4.37487 14.8549 4.37214 14.8502 4.36914C14.8493 4.36858 14.8482 4.36775 14.8473 4.36719H14.8463C14.7746 4.32119 14.6977 4.28153 14.6149 4.25391H14.6139C14.5513 4.2272 14.4856 4.20607 14.4127 4.19336L14.4137 4.19238C14.4085 4.19125 14.4033 4.19051 14.3981 4.18945C14.3933 4.18871 14.3882 4.18721 14.3834 4.18652L14.3824 4.1875Z" fill="#1D242D" stroke="#1D242D" stroke-width="0.833333"/>
</svg>
