<svg width="315" height="33" viewBox="0 0 315 33" fill="none" xmlns="http://www.w3.org/2000/svg">
<rect width="81.3848" height="32.2283" rx="16.1141" fill="white"/>
<path d="M13.7426 19.2224C13.1229 19.2224 12.5875 19.0871 12.1363 18.8163C11.6911 18.5396 11.3452 18.1576 11.0986 17.6703C10.8579 17.177 10.7376 16.6055 10.7376 15.9558C10.7376 15.3121 10.8579 14.7436 11.0986 14.2502C11.3452 13.7569 11.6911 13.3749 12.1363 13.1042C12.5875 12.8275 13.1229 12.6891 13.7426 12.6891C14.4825 12.6891 15.0811 12.8666 15.5383 13.2215C16.0016 13.5765 16.2963 14.0758 16.4227 14.7195H15.43C15.3398 14.3465 15.1533 14.0487 14.8706 13.8261C14.5938 13.6035 14.2178 13.4922 13.7426 13.4922C13.3154 13.4922 12.9455 13.5915 12.6326 13.79C12.3198 13.9886 12.0792 14.2713 11.9107 14.6383C11.7423 15.0052 11.658 15.4444 11.658 15.9558C11.658 16.4671 11.7423 16.9093 11.9107 17.2823C12.0792 17.6493 12.3198 17.932 12.6326 18.1305C12.9455 18.323 13.3154 18.4193 13.7426 18.4193C14.2178 18.4193 14.5938 18.314 14.8706 18.1035C15.1533 17.8869 15.3398 17.5951 15.43 17.2281H16.4227C16.2963 17.8538 16.0016 18.3441 15.5383 18.699C15.0811 19.048 14.4825 19.2224 13.7426 19.2224ZM18.6934 19.2224C18.3204 19.2224 18.0106 19.1593 17.7639 19.0329C17.5173 18.9066 17.3338 18.7381 17.2135 18.5276C17.0931 18.311 17.033 18.0794 17.033 17.8327C17.033 17.5319 17.1112 17.2763 17.2676 17.0657C17.424 16.8491 17.6466 16.6837 17.9354 16.5694C18.2241 16.4551 18.5701 16.3979 18.9731 16.3979H20.1553C20.1553 16.1332 20.1162 15.9137 20.0379 15.7392C19.9597 15.5647 19.8424 15.4354 19.686 15.3512C19.5356 15.2609 19.3431 15.2158 19.1085 15.2158C18.8378 15.2158 18.6062 15.282 18.4136 15.4143C18.2211 15.5407 18.1008 15.7302 18.0527 15.9828H17.1503C17.1864 15.664 17.2947 15.3933 17.4752 15.1707C17.6616 14.9421 17.8993 14.7676 18.188 14.6473C18.4768 14.521 18.7836 14.4578 19.1085 14.4578C19.5356 14.4578 19.8936 14.533 20.1823 14.6834C20.4711 14.8338 20.6877 15.0474 20.832 15.3241C20.9824 15.5948 21.0576 15.9197 21.0576 16.2987V19.1141H20.2726L20.2004 18.3471C20.1342 18.4674 20.056 18.5817 19.9658 18.69C19.8755 18.7983 19.7672 18.8915 19.6409 18.9698C19.5206 19.048 19.3792 19.1081 19.2168 19.1502C19.0604 19.1984 18.8859 19.2224 18.6934 19.2224ZM18.8648 18.4915C19.0573 18.4915 19.2318 18.4524 19.3882 18.3742C19.5446 18.296 19.677 18.1907 19.7853 18.0583C19.8996 17.92 19.9838 17.7666 20.0379 17.5981C20.0981 17.4237 20.1312 17.2462 20.1372 17.0657V17.0386H19.0634C18.8047 17.0386 18.5941 17.0717 18.4317 17.1379C18.2753 17.1981 18.161 17.2823 18.0888 17.3906C18.0166 17.4989 17.9805 17.6252 17.9805 17.7696C17.9805 17.92 18.0136 18.0493 18.0798 18.1576C18.1519 18.2599 18.2542 18.3411 18.3866 18.4012C18.5189 18.4614 18.6783 18.4915 18.8648 18.4915ZM23.7188 19.1141C23.43 19.1141 23.1804 19.069 22.9698 18.9788C22.7592 18.8885 22.5968 18.7381 22.4825 18.5276C22.3682 18.317 22.3111 18.0313 22.3111 17.6703V15.3331H21.526V14.5661H22.3111L22.4193 13.4291H23.2134V14.5661H24.5039V15.3331H23.2134V17.6793C23.2134 17.938 23.2676 18.1155 23.3759 18.2117C23.4842 18.302 23.6707 18.3471 23.9354 18.3471H24.4587V19.1141H23.7188ZM27.1623 19.2224C26.7292 19.2224 26.3442 19.1232 26.0073 18.9246C25.6704 18.7261 25.4057 18.4494 25.2132 18.0944C25.0267 17.7395 24.9334 17.3274 24.9334 16.8582C24.9334 16.3769 25.0267 15.9588 25.2132 15.6038C25.4057 15.2429 25.6704 14.9631 26.0073 14.7646C26.3442 14.5601 26.7352 14.4578 27.1804 14.4578C27.6256 14.4578 28.0076 14.5571 28.3264 14.7556C28.6453 14.9541 28.8919 15.2188 29.0664 15.5497C29.2408 15.8745 29.3281 16.2355 29.3281 16.6326C29.3281 16.6927 29.3251 16.7589 29.319 16.8311C29.319 16.8973 29.316 16.9725 29.31 17.0567H25.5922V16.416H28.4257C28.4076 16.037 28.2813 15.7422 28.0467 15.5316C27.812 15.3151 27.5203 15.2068 27.1714 15.2068C26.9247 15.2068 26.6991 15.2639 26.4946 15.3782C26.29 15.4865 26.1246 15.649 25.9982 15.8655C25.8779 16.0761 25.8178 16.3438 25.8178 16.6687V16.9213C25.8178 17.2582 25.8779 17.544 25.9982 17.7786C26.1246 18.0072 26.29 18.1817 26.4946 18.302C26.6991 18.4163 26.9217 18.4734 27.1623 18.4734C27.4511 18.4734 27.6887 18.4103 27.8752 18.2839C28.0617 18.1576 28.2001 17.9861 28.2903 17.7696H29.1927C29.1145 18.0463 28.9821 18.296 28.7957 18.5186C28.6092 18.7351 28.3775 18.9066 28.1008 19.0329C27.8301 19.1593 27.5173 19.2224 27.1623 19.2224ZM31.8569 21.2077C31.4418 21.2077 31.0749 21.1535 30.756 21.0453C30.4372 20.943 30.1905 20.7836 30.0161 20.567C29.8416 20.3504 29.7544 20.0857 29.7544 19.7729C29.7544 19.6105 29.7905 19.445 29.8627 19.2766C29.9349 19.1141 30.0522 18.9577 30.2146 18.8073C30.377 18.6569 30.5966 18.5216 30.8733 18.4012L31.3787 18.8073C31.0719 18.9216 30.8643 19.057 30.756 19.2134C30.6538 19.3758 30.6026 19.5322 30.6026 19.6826C30.6026 19.8631 30.6568 20.0135 30.7651 20.1338C30.8733 20.2542 31.0207 20.3444 31.2072 20.4046C31.3997 20.4647 31.6163 20.4948 31.8569 20.4948C32.0916 20.4948 32.2961 20.4617 32.4706 20.3955C32.645 20.3294 32.7804 20.2361 32.8767 20.1158C32.9729 19.9955 33.021 19.8541 33.021 19.6917C33.021 19.4992 32.9488 19.3367 32.8045 19.2044C32.6601 19.078 32.3833 19.0028 31.9743 18.9788C31.6314 18.9547 31.3396 18.9216 31.0989 18.8795C30.8643 18.8374 30.6628 18.7863 30.4943 18.7261C30.3319 18.6659 30.1935 18.5998 30.0792 18.5276C29.9709 18.4554 29.8777 18.3802 29.7995 18.302V18.0944L30.7019 17.165L31.4328 17.4176L30.4492 18.3291L30.6387 17.923C30.7049 17.9651 30.7681 18.0072 30.8282 18.0493C30.8884 18.0854 30.9696 18.1185 31.0719 18.1486C31.1741 18.1787 31.3125 18.2057 31.487 18.2298C31.6614 18.2539 31.89 18.2779 32.1728 18.302C32.5819 18.3321 32.9097 18.4043 33.1564 18.5186C33.4091 18.6329 33.5925 18.7863 33.7069 18.9788C33.8212 19.1713 33.8783 19.3999 33.8783 19.6646C33.8783 19.9233 33.8061 20.1699 33.6617 20.4046C33.5234 20.6392 33.3038 20.8317 33.003 20.9821C32.7082 21.1325 32.3262 21.2077 31.8569 21.2077ZM31.8569 17.7154C31.4719 17.7154 31.1441 17.6432 30.8733 17.4989C30.6086 17.3545 30.4041 17.159 30.2597 16.9123C30.1213 16.6656 30.0522 16.3919 30.0522 16.0911C30.0522 15.7843 30.1213 15.5106 30.2597 15.2699C30.4041 15.0233 30.6116 14.8278 30.8824 14.6834C31.1531 14.533 31.4779 14.4578 31.8569 14.4578C32.236 14.4578 32.5578 14.533 32.8225 14.6834C33.0932 14.8278 33.2978 15.0233 33.4361 15.2699C33.5805 15.5106 33.6527 15.7843 33.6527 16.0911C33.6527 16.3919 33.5805 16.6656 33.4361 16.9123C33.2978 17.159 33.0932 17.3545 32.8225 17.4989C32.5578 17.6432 32.236 17.7154 31.8569 17.7154ZM31.8569 16.9935C32.1517 16.9935 32.3864 16.9183 32.5608 16.7679C32.7353 16.6115 32.8225 16.3859 32.8225 16.0911C32.8225 15.7963 32.7353 15.5738 32.5608 15.4234C32.3864 15.2669 32.1517 15.1887 31.8569 15.1887C31.5622 15.1887 31.3245 15.2669 31.1441 15.4234C30.9636 15.5738 30.8733 15.7963 30.8733 16.0911C30.8733 16.3859 30.9636 16.6115 31.1441 16.7679C31.3245 16.9183 31.5622 16.9935 31.8569 16.9935ZM32.5969 15.279L32.3803 14.5661H34.2483V15.1887L32.5969 15.279ZM36.782 19.2224C36.3549 19.2224 35.9699 19.1232 35.627 18.9246C35.2901 18.7261 35.0224 18.4494 34.8238 18.0944C34.6313 17.7335 34.5351 17.3184 34.5351 16.8491C34.5351 16.3679 34.6343 15.9497 34.8329 15.5948C35.0314 15.2339 35.3021 14.9541 35.645 14.7556C35.9879 14.5571 36.3729 14.4578 36.8001 14.4578C37.2332 14.4578 37.6183 14.5571 37.9551 14.7556C38.292 14.9541 38.5567 15.2308 38.7492 15.5858C38.9478 15.9407 39.047 16.3588 39.047 16.8401C39.047 17.3214 38.9478 17.7395 38.7492 18.0944C38.5567 18.4494 38.289 18.7261 37.9461 18.9246C37.6032 19.1232 37.2152 19.2224 36.782 19.2224ZM36.782 18.4464C37.0287 18.4464 37.2513 18.3862 37.4498 18.2659C37.6543 18.1456 37.8168 17.9681 37.9371 17.7335C38.0634 17.4928 38.1266 17.195 38.1266 16.8401C38.1266 16.4852 38.0664 16.1904 37.9461 15.9558C37.8258 15.7151 37.6634 15.5346 37.4588 15.4143C37.2603 15.294 37.0407 15.2339 36.8001 15.2339C36.5594 15.2339 36.3369 15.294 36.1323 15.4143C35.9278 15.5346 35.7623 15.7151 35.636 15.9558C35.5157 16.1904 35.4555 16.4852 35.4555 16.8401C35.4555 17.195 35.5157 17.4928 35.636 17.7335C35.7623 17.9681 35.9248 18.1456 36.1233 18.2659C36.3278 18.3862 36.5474 18.4464 36.782 18.4464ZM39.8378 19.1141V14.5661H40.65L40.7312 15.4234C40.8335 15.2188 40.9658 15.0474 41.1282 14.909C41.2907 14.7646 41.4802 14.6533 41.6968 14.5751C41.9193 14.4969 42.172 14.4578 42.4548 14.4578V15.4143H42.1299C41.9434 15.4143 41.7659 15.4384 41.5975 15.4865C41.429 15.5286 41.2786 15.6038 41.1463 15.7121C41.02 15.8204 40.9207 15.9678 40.8485 16.1543C40.7763 16.3408 40.7402 16.5724 40.7402 16.8491V19.1141H39.8378ZM43.0759 19.1141V14.5661H43.9783V19.1141H43.0759ZM43.5362 13.7088C43.3617 13.7088 43.2173 13.6547 43.103 13.5464C42.9947 13.4381 42.9406 13.2997 42.9406 13.1313C42.9406 12.9688 42.9947 12.8365 43.103 12.7342C43.2173 12.6259 43.3617 12.5718 43.5362 12.5718C43.7046 12.5718 43.846 12.6259 43.9603 12.7342C44.0746 12.8365 44.1317 12.9688 44.1317 13.1313C44.1317 13.2997 44.0746 13.4381 43.9603 13.5464C43.846 13.6547 43.7046 13.7088 43.5362 13.7088ZM47.0555 19.2224C46.6223 19.2224 46.2373 19.1232 45.9004 18.9246C45.5635 18.7261 45.2988 18.4494 45.1063 18.0944C44.9198 17.7395 44.8266 17.3274 44.8266 16.8582C44.8266 16.3769 44.9198 15.9588 45.1063 15.6038C45.2988 15.2429 45.5635 14.9631 45.9004 14.7646C46.2373 14.5601 46.6283 14.4578 47.0735 14.4578C47.5187 14.4578 47.9007 14.5571 48.2196 14.7556C48.5384 14.9541 48.7851 15.2188 48.9595 15.5497C49.134 15.8745 49.2212 16.2355 49.2212 16.6326C49.2212 16.6927 49.2182 16.7589 49.2122 16.8311C49.2122 16.8973 49.2092 16.9725 49.2032 17.0567H45.4853V16.416H48.3188C48.3008 16.037 48.1744 15.7422 47.9398 15.5316C47.7052 15.3151 47.4134 15.2068 47.0645 15.2068C46.8178 15.2068 46.5923 15.2639 46.3877 15.3782C46.1832 15.4865 46.0177 15.649 45.8914 15.8655C45.7711 16.0761 45.7109 16.3438 45.7109 16.6687V16.9213C45.7109 17.2582 45.7711 17.544 45.8914 17.7786C46.0177 18.0072 46.1832 18.1817 46.3877 18.302C46.5923 18.4163 46.8148 18.4734 47.0555 18.4734C47.3442 18.4734 47.5819 18.4103 47.7684 18.2839C47.9549 18.1576 48.0932 17.9861 48.1835 17.7696H49.0859C49.0077 18.0463 48.8753 18.296 48.6888 18.5186C48.5023 18.7351 48.2707 18.9066 47.994 19.0329C47.7232 19.1593 47.4104 19.2224 47.0555 19.2224ZM51.7127 19.2224C51.3277 19.2224 50.9908 19.1593 50.7021 19.0329C50.4133 18.9066 50.1847 18.7291 50.0162 18.5005C49.8478 18.2719 49.7455 18.0042 49.7094 17.6974H50.6299C50.6599 17.8418 50.7171 17.9741 50.8013 18.0944C50.8916 18.2148 51.0119 18.311 51.1623 18.3832C51.3187 18.4554 51.5022 18.4915 51.7127 18.4915C51.9113 18.4915 52.0737 18.4644 52.2 18.4103C52.3324 18.3501 52.4286 18.2719 52.4888 18.1756C52.549 18.0734 52.579 17.9651 52.579 17.8508C52.579 17.6823 52.5369 17.556 52.4527 17.4718C52.3745 17.3815 52.2542 17.3124 52.0917 17.2642C51.9353 17.2101 51.7458 17.162 51.5232 17.1199C51.3127 17.0838 51.1081 17.0356 50.9096 16.9755C50.7171 16.9093 50.5426 16.8281 50.3862 16.7318C50.2358 16.6356 50.1155 16.5152 50.0253 16.3709C49.935 16.2205 49.8899 16.037 49.8899 15.8204C49.8899 15.5617 49.9591 15.3301 50.0975 15.1256C50.2358 14.915 50.4313 14.7526 50.684 14.6383C50.9427 14.518 51.2465 14.4578 51.5954 14.4578C52.1008 14.4578 52.5068 14.5781 52.8137 14.8188C53.1205 15.0594 53.3009 15.3993 53.3551 15.8385H52.4798C52.4557 15.6339 52.3655 15.4775 52.2091 15.3692C52.0526 15.2549 51.8451 15.1978 51.5864 15.1978C51.3277 15.1978 51.1292 15.2489 50.9908 15.3512C50.8525 15.4534 50.7833 15.5888 50.7833 15.7572C50.7833 15.8655 50.8224 15.9618 50.9006 16.046C50.9788 16.1302 51.0931 16.2024 51.2435 16.2626C51.3999 16.3167 51.5894 16.3679 51.812 16.416C52.1308 16.4761 52.4166 16.5513 52.6693 16.6416C52.9219 16.7318 53.1235 16.8642 53.2739 17.0386C53.4243 17.2131 53.4995 17.4628 53.4995 17.7876C53.5055 18.0704 53.4333 18.32 53.2829 18.5366C53.1385 18.7532 52.931 18.9216 52.6602 19.0419C52.3955 19.1623 52.0797 19.2224 51.7127 19.2224Z" fill="#1BAAC7"/>
<path d="M69.0988 14.6396L65.9469 17.7916C65.5747 18.1638 64.9656 18.1638 64.5933 17.7916L61.4414 14.6396" stroke="#1BAAC7" stroke-width="0.725136" stroke-miterlimit="10" stroke-linecap="round" stroke-linejoin="round"/>
<rect x="89.1191" y="0.644531" width="224.953" height="30.9391" rx="15.4696" fill="white"/>
<path d="M106.845 21.9152C110.227 21.9152 112.968 19.1737 112.968 15.7918C112.968 12.41 110.227 9.66846 106.845 9.66846C103.463 9.66846 100.722 12.41 100.722 15.7918C100.722 19.1737 103.463 21.9152 106.845 21.9152Z" stroke="#292D32" stroke-width="0.966848" stroke-linecap="round" stroke-linejoin="round"/>
<path d="M113.613 22.5598L112.324 21.2706" stroke="#292D32" stroke-width="0.966848" stroke-linecap="round" stroke-linejoin="round"/>
<path d="M124.073 19.2224C123.61 19.2224 123.204 19.1412 122.855 18.9788C122.506 18.8103 122.235 18.5757 122.042 18.2749C121.85 17.9741 121.754 17.6222 121.754 17.2191H122.701C122.707 17.4477 122.761 17.6583 122.864 17.8508C122.972 18.0373 123.125 18.1877 123.324 18.302C123.528 18.4103 123.778 18.4644 124.073 18.4644C124.326 18.4644 124.542 18.4223 124.723 18.3381C124.909 18.2539 125.05 18.1396 125.147 17.9952C125.243 17.8448 125.291 17.6733 125.291 17.4808C125.291 17.2582 125.24 17.0747 125.138 16.9303C125.035 16.786 124.897 16.6687 124.723 16.5784C124.554 16.4822 124.356 16.3979 124.127 16.3257C123.904 16.2536 123.67 16.1753 123.423 16.0911C122.924 15.9287 122.551 15.7181 122.304 15.4594C122.064 15.2008 121.943 14.8639 121.943 14.4488C121.943 14.0938 122.027 13.787 122.196 13.5283C122.364 13.2636 122.599 13.0591 122.9 12.9147C123.207 12.7643 123.568 12.6891 123.983 12.6891C124.392 12.6891 124.75 12.7643 125.056 12.9147C125.363 13.0651 125.604 13.2727 125.778 13.5374C125.953 13.8021 126.04 14.1119 126.04 14.4668H125.084C125.084 14.3044 125.041 14.145 124.957 13.9886C124.873 13.8321 124.747 13.7058 124.578 13.6095C124.41 13.5073 124.202 13.4561 123.956 13.4561C123.751 13.4501 123.568 13.4832 123.405 13.5554C123.243 13.6276 123.116 13.7329 123.026 13.8712C122.936 14.0096 122.891 14.175 122.891 14.3676C122.891 14.5601 122.93 14.7165 123.008 14.8368C123.092 14.9511 123.213 15.0504 123.369 15.1346C123.525 15.2188 123.706 15.297 123.91 15.3692C124.121 15.4354 124.353 15.5106 124.605 15.5948C124.918 15.6971 125.195 15.8234 125.435 15.9738C125.682 16.1182 125.875 16.3077 126.013 16.5423C126.157 16.7709 126.23 17.0657 126.23 17.4267C126.23 17.7395 126.148 18.0313 125.986 18.302C125.824 18.5727 125.583 18.7953 125.264 18.9698C124.945 19.1382 124.548 19.2224 124.073 19.2224ZM129.044 19.2224C128.611 19.2224 128.226 19.1232 127.889 18.9246C127.552 18.7261 127.288 18.4494 127.095 18.0944C126.909 17.7395 126.815 17.3274 126.815 16.8582C126.815 16.3769 126.909 15.9588 127.095 15.6038C127.288 15.2429 127.552 14.9631 127.889 14.7646C128.226 14.5601 128.617 14.4578 129.062 14.4578C129.508 14.4578 129.89 14.5571 130.208 14.7556C130.527 14.9541 130.774 15.2188 130.948 15.5497C131.123 15.8745 131.21 16.2355 131.21 16.6326C131.21 16.6927 131.207 16.7589 131.201 16.8311C131.201 16.8973 131.198 16.9725 131.192 17.0567H127.474V16.416H130.308C130.29 16.037 130.163 15.7422 129.929 15.5316C129.694 15.3151 129.402 15.2068 129.053 15.2068C128.807 15.2068 128.581 15.2639 128.377 15.3782C128.172 15.4865 128.007 15.649 127.88 15.8655C127.76 16.0761 127.7 16.3438 127.7 16.6687V16.9213C127.7 17.2582 127.76 17.544 127.88 17.7786C128.007 18.0072 128.172 18.1817 128.377 18.302C128.581 18.4163 128.804 18.4734 129.044 18.4734C129.333 18.4734 129.571 18.4103 129.757 18.2839C129.944 18.1576 130.082 17.9861 130.172 17.7696H131.075C130.996 18.0463 130.864 18.296 130.678 18.5186C130.491 18.7351 130.26 18.9066 129.983 19.0329C129.712 19.1593 129.399 19.2224 129.044 19.2224ZM133.449 19.2224C133.076 19.2224 132.766 19.1593 132.519 19.0329C132.273 18.9066 132.089 18.7381 131.969 18.5276C131.849 18.311 131.788 18.0794 131.788 17.8327C131.788 17.5319 131.867 17.2763 132.023 17.0657C132.18 16.8491 132.402 16.6837 132.691 16.5694C132.98 16.4551 133.326 16.3979 133.729 16.3979H134.911C134.911 16.1332 134.872 15.9137 134.793 15.7392C134.715 15.5647 134.598 15.4354 134.441 15.3512C134.291 15.2609 134.099 15.2158 133.864 15.2158C133.593 15.2158 133.362 15.282 133.169 15.4143C132.977 15.5407 132.856 15.7302 132.808 15.9828H131.906C131.942 15.664 132.05 15.3933 132.231 15.1707C132.417 14.9421 132.655 14.7676 132.944 14.6473C133.232 14.521 133.539 14.4578 133.864 14.4578C134.291 14.4578 134.649 14.533 134.938 14.6834C135.227 14.8338 135.443 15.0474 135.588 15.3241C135.738 15.5948 135.813 15.9197 135.813 16.2987V19.1141H135.028L134.956 18.3471C134.89 18.4674 134.811 18.5817 134.721 18.69C134.631 18.7983 134.523 18.8915 134.396 18.9698C134.276 19.048 134.135 19.1081 133.972 19.1502C133.816 19.1984 133.641 19.2224 133.449 19.2224ZM133.62 18.4915C133.813 18.4915 133.987 18.4524 134.144 18.3742C134.3 18.296 134.432 18.1907 134.541 18.0583C134.655 17.92 134.739 17.7666 134.793 17.5981C134.854 17.4237 134.887 17.2462 134.893 17.0657V17.0386H133.819C133.56 17.0386 133.35 17.0717 133.187 17.1379C133.031 17.1981 132.916 17.2823 132.844 17.3906C132.772 17.4989 132.736 17.6252 132.736 17.7696C132.736 17.92 132.769 18.0493 132.835 18.1576C132.907 18.2599 133.01 18.3411 133.142 18.4012C133.274 18.4614 133.434 18.4915 133.62 18.4915ZM136.694 19.1141V14.5661H137.506L137.588 15.4234C137.69 15.2188 137.822 15.0474 137.985 14.909C138.147 14.7646 138.337 14.6533 138.553 14.5751C138.776 14.4969 139.028 14.4578 139.311 14.4578V15.4143H138.986C138.8 15.4143 138.622 15.4384 138.454 15.4865C138.285 15.5286 138.135 15.6038 138.003 15.7121C137.876 15.8204 137.777 15.9678 137.705 16.1543C137.633 16.3408 137.597 16.5724 137.597 16.8491V19.1141H136.694ZM141.84 19.2224C141.4 19.2224 141.009 19.1232 140.666 18.9246C140.324 18.7201 140.053 18.4403 139.854 18.0854C139.662 17.7305 139.566 17.3184 139.566 16.8491C139.566 16.3739 139.662 15.9588 139.854 15.6038C140.053 15.2429 140.324 14.9631 140.666 14.7646C141.009 14.5601 141.4 14.4578 141.84 14.4578C142.393 14.4578 142.856 14.6022 143.229 14.8909C143.602 15.1797 143.84 15.5707 143.942 16.0641H143.004C142.943 15.7994 142.805 15.5948 142.589 15.4504C142.378 15.306 142.125 15.2339 141.831 15.2339C141.59 15.2339 141.367 15.297 141.163 15.4234C140.958 15.5437 140.793 15.7242 140.666 15.9648C140.546 16.1994 140.486 16.4912 140.486 16.8401C140.486 17.0988 140.522 17.3304 140.594 17.535C140.666 17.7335 140.763 17.9019 140.883 18.0403C141.009 18.1787 141.154 18.2839 141.316 18.3561C141.479 18.4223 141.65 18.4554 141.831 18.4554C142.029 18.4554 142.207 18.4253 142.363 18.3652C142.525 18.299 142.661 18.2027 142.769 18.0764C142.883 17.9501 142.962 17.7997 143.004 17.6252H143.942C143.84 18.1065 143.602 18.4945 143.229 18.7893C142.856 19.078 142.393 19.2224 141.84 19.2224ZM144.727 19.1141V12.6169H145.63V15.306C145.78 15.0413 145.988 14.8338 146.252 14.6834C146.523 14.533 146.821 14.4578 147.146 14.4578C147.507 14.4578 147.816 14.533 148.075 14.6834C148.334 14.8278 148.532 15.0474 148.671 15.3421C148.809 15.6309 148.878 15.9949 148.878 16.434V19.1141H147.985V16.5243C147.985 16.1032 147.895 15.7843 147.714 15.5677C147.534 15.3451 147.266 15.2339 146.911 15.2339C146.67 15.2339 146.454 15.291 146.261 15.4053C146.069 15.5196 145.915 15.6881 145.801 15.9106C145.687 16.1272 145.63 16.3919 145.63 16.7047V19.1141H144.727ZM152.043 19.1141V13.9525C152.043 13.6396 152.095 13.3839 152.197 13.1854C152.305 12.9869 152.462 12.8425 152.666 12.7523C152.871 12.662 153.117 12.6169 153.406 12.6169H153.938V13.3839H153.55C153.334 13.3839 153.177 13.4291 153.081 13.5193C152.991 13.6035 152.946 13.7539 152.946 13.9705V19.1141H152.043ZM151.376 15.3331V14.5661H154.038V15.3331H151.376ZM156.583 19.2224C156.156 19.2224 155.771 19.1232 155.428 18.9246C155.091 18.7261 154.823 18.4494 154.625 18.0944C154.432 17.7335 154.336 17.3184 154.336 16.8491C154.336 16.3679 154.435 15.9497 154.634 15.5948C154.833 15.2339 155.103 14.9541 155.446 14.7556C155.789 14.5571 156.174 14.4578 156.601 14.4578C157.034 14.4578 157.419 14.5571 157.756 14.7556C158.093 14.9541 158.358 15.2308 158.55 15.5858C158.749 15.9407 158.848 16.3588 158.848 16.8401C158.848 17.3214 158.749 17.7395 158.55 18.0944C158.358 18.4494 158.09 18.7261 157.747 18.9246C157.404 19.1232 157.016 19.2224 156.583 19.2224ZM156.583 18.4464C156.83 18.4464 157.052 18.3862 157.251 18.2659C157.455 18.1456 157.618 17.9681 157.738 17.7335C157.865 17.4928 157.928 17.195 157.928 16.8401C157.928 16.4852 157.868 16.1904 157.747 15.9558C157.627 15.7151 157.464 15.5346 157.26 15.4143C157.061 15.294 156.842 15.2339 156.601 15.2339C156.361 15.2339 156.138 15.294 155.933 15.4143C155.729 15.5346 155.563 15.7151 155.437 15.9558C155.317 16.1904 155.257 16.4852 155.257 16.8401C155.257 17.195 155.317 17.4928 155.437 17.7335C155.563 17.9681 155.726 18.1456 155.924 18.2659C156.129 18.3862 156.349 18.4464 156.583 18.4464ZM159.639 19.1141V14.5661H160.451L160.532 15.4234C160.635 15.2188 160.767 15.0474 160.929 14.909C161.092 14.7646 161.281 14.6533 161.498 14.5751C161.72 14.4969 161.973 14.4578 162.256 14.4578V15.4143H161.931C161.745 15.4143 161.567 15.4384 161.399 15.4865C161.23 15.5286 161.08 15.6038 160.947 15.7121C160.821 15.8204 160.722 15.9678 160.65 16.1543C160.577 16.3408 160.541 16.5724 160.541 16.8491V19.1141H159.639ZM166.359 19.2224C165.986 19.2224 165.676 19.1593 165.43 19.0329C165.183 18.9066 164.999 18.7381 164.879 18.5276C164.759 18.311 164.699 18.0794 164.699 17.8327C164.699 17.5319 164.777 17.2763 164.933 17.0657C165.09 16.8491 165.312 16.6837 165.601 16.5694C165.89 16.4551 166.236 16.3979 166.639 16.3979H167.821C167.821 16.1332 167.782 15.9137 167.704 15.7392C167.625 15.5647 167.508 15.4354 167.352 15.3512C167.201 15.2609 167.009 15.2158 166.774 15.2158C166.503 15.2158 166.272 15.282 166.079 15.4143C165.887 15.5407 165.766 15.7302 165.718 15.9828H164.816C164.852 15.664 164.96 15.3933 165.141 15.1707C165.327 14.9421 165.565 14.7676 165.854 14.6473C166.142 14.521 166.449 14.4578 166.774 14.4578C167.201 14.4578 167.559 14.533 167.848 14.6834C168.137 14.8338 168.353 15.0474 168.498 15.3241C168.648 15.5948 168.723 15.9197 168.723 16.2987V19.1141H167.938L167.866 18.3471C167.8 18.4674 167.722 18.5817 167.631 18.69C167.541 18.7983 167.433 18.8915 167.307 18.9698C167.186 19.048 167.045 19.1081 166.882 19.1502C166.726 19.1984 166.552 19.2224 166.359 19.2224ZM166.53 18.4915C166.723 18.4915 166.897 18.4524 167.054 18.3742C167.21 18.296 167.343 18.1907 167.451 18.0583C167.565 17.92 167.649 17.7666 167.704 17.5981C167.764 17.4237 167.797 17.2462 167.803 17.0657V17.0386H166.729C166.47 17.0386 166.26 17.0717 166.097 17.1379C165.941 17.1981 165.827 17.2823 165.754 17.3906C165.682 17.4989 165.646 17.6252 165.646 17.7696C165.646 17.92 165.679 18.0493 165.745 18.1576C165.818 18.2599 165.92 18.3411 166.052 18.4012C166.185 18.4614 166.344 18.4915 166.53 18.4915ZM169.604 19.1141V14.5661H170.417L170.471 15.3421C170.615 15.0714 170.82 14.8579 171.084 14.7014C171.349 14.539 171.653 14.4578 171.996 14.4578C172.357 14.4578 172.667 14.53 172.925 14.6744C173.184 14.8188 173.385 15.0383 173.53 15.3331C173.674 15.6219 173.746 15.9858 173.746 16.425V19.1141H172.844V16.5152C172.844 16.0941 172.751 15.7753 172.564 15.5587C172.378 15.3421 172.107 15.2339 171.752 15.2339C171.517 15.2339 171.307 15.291 171.12 15.4053C170.934 15.5136 170.784 15.676 170.669 15.8926C170.561 16.1092 170.507 16.3739 170.507 16.6867V19.1141H169.604ZM175.012 21.0994L176.122 18.6088H175.861L174.065 14.5661H175.039L176.465 17.8688L177.9 14.5661H178.847L175.96 21.0994H175.012ZM181.25 19.1141C180.962 19.1141 180.712 19.069 180.501 18.9788C180.291 18.8885 180.128 18.7381 180.014 18.5276C179.9 18.317 179.843 18.0313 179.843 17.6703V15.3331H179.058V14.5661H179.843L179.951 13.4291H180.745V14.5661H182.036V15.3331H180.745V17.6793C180.745 17.938 180.799 18.1155 180.908 18.2117C181.016 18.302 181.202 18.3471 181.467 18.3471H181.99V19.1141H181.25ZM182.76 19.1141V12.6169H183.662V15.306C183.813 15.0413 184.02 14.8338 184.285 14.6834C184.556 14.533 184.853 14.4578 185.178 14.4578C185.539 14.4578 185.849 14.533 186.108 14.6834C186.366 14.8278 186.565 15.0474 186.703 15.3421C186.842 15.6309 186.911 15.9949 186.911 16.434V19.1141H186.018V16.5243C186.018 16.1032 185.927 15.7843 185.747 15.5677C185.566 15.3451 185.299 15.2339 184.944 15.2339C184.703 15.2339 184.486 15.291 184.294 15.4053C184.101 15.5196 183.948 15.6881 183.834 15.9106C183.719 16.1272 183.662 16.3919 183.662 16.7047V19.1141H182.76ZM187.857 19.1141V14.5661H188.76V19.1141H187.857ZM188.318 13.7088C188.143 13.7088 187.999 13.6547 187.885 13.5464C187.776 13.4381 187.722 13.2997 187.722 13.1313C187.722 12.9688 187.776 12.8365 187.885 12.7342C187.999 12.6259 188.143 12.5718 188.318 12.5718C188.486 12.5718 188.627 12.6259 188.742 12.7342C188.856 12.8365 188.913 12.9688 188.913 13.1313C188.913 13.2997 188.856 13.4381 188.742 13.5464C188.627 13.6547 188.486 13.7088 188.318 13.7088ZM189.78 19.1141V14.5661H190.592L190.646 15.3421C190.79 15.0714 190.995 14.8579 191.259 14.7014C191.524 14.539 191.828 14.4578 192.171 14.4578C192.532 14.4578 192.842 14.53 193.1 14.6744C193.359 14.8188 193.561 15.0383 193.705 15.3331C193.849 15.6219 193.922 15.9858 193.922 16.425V19.1141H193.019V16.5152C193.019 16.0941 192.926 15.7753 192.739 15.5587C192.553 15.3421 192.282 15.2339 191.927 15.2339C191.693 15.2339 191.482 15.291 191.296 15.4053C191.109 15.5136 190.959 15.676 190.844 15.8926C190.736 16.1092 190.682 16.3739 190.682 16.6867V19.1141H189.78ZM196.655 21.2077C196.24 21.2077 195.873 21.1535 195.554 21.0453C195.235 20.943 194.989 20.7836 194.814 20.567C194.64 20.3504 194.552 20.0857 194.552 19.7729C194.552 19.6105 194.589 19.445 194.661 19.2766C194.733 19.1141 194.85 18.9577 195.013 18.8073C195.175 18.6569 195.395 18.5216 195.671 18.4012L196.177 18.8073C195.87 18.9216 195.662 19.057 195.554 19.2134C195.452 19.3758 195.401 19.5322 195.401 19.6826C195.401 19.8631 195.455 20.0135 195.563 20.1338C195.671 20.2542 195.819 20.3444 196.005 20.4046C196.198 20.4647 196.414 20.4948 196.655 20.4948C196.89 20.4948 197.094 20.4617 197.269 20.3955C197.443 20.3294 197.578 20.2361 197.675 20.1158C197.771 19.9955 197.819 19.8541 197.819 19.6917C197.819 19.4992 197.747 19.3367 197.603 19.2044C197.458 19.078 197.181 19.0028 196.772 18.9788C196.429 18.9547 196.138 18.9216 195.897 18.8795C195.662 18.8374 195.461 18.7863 195.292 18.7261C195.13 18.6659 194.992 18.5998 194.877 18.5276C194.769 18.4554 194.676 18.3802 194.598 18.302V18.0944L195.5 17.165L196.231 17.4176L195.247 18.3291L195.437 17.923C195.503 17.9651 195.566 18.0072 195.626 18.0493C195.686 18.0854 195.768 18.1185 195.87 18.1486C195.972 18.1787 196.111 18.2057 196.285 18.2298C196.459 18.2539 196.688 18.2779 196.971 18.302C197.38 18.3321 197.708 18.4043 197.954 18.5186C198.207 18.6329 198.391 18.7863 198.505 18.9788C198.619 19.1713 198.676 19.3999 198.676 19.6646C198.676 19.9233 198.604 20.1699 198.46 20.4046C198.321 20.6392 198.102 20.8317 197.801 20.9821C197.506 21.1325 197.124 21.2077 196.655 21.2077ZM196.655 17.7154C196.27 17.7154 195.942 17.6432 195.671 17.4989C195.407 17.3545 195.202 17.159 195.058 16.9123C194.919 16.6656 194.85 16.3919 194.85 16.0911C194.85 15.7843 194.919 15.5106 195.058 15.2699C195.202 15.0233 195.41 14.8278 195.68 14.6834C195.951 14.533 196.276 14.4578 196.655 14.4578C197.034 14.4578 197.356 14.533 197.621 14.6834C197.891 14.8278 198.096 15.0233 198.234 15.2699C198.379 15.5106 198.451 15.7843 198.451 16.0911C198.451 16.3919 198.379 16.6656 198.234 16.9123C198.096 17.159 197.891 17.3545 197.621 17.4989C197.356 17.6432 197.034 17.7154 196.655 17.7154ZM196.655 16.9935C196.95 16.9935 197.184 16.9183 197.359 16.7679C197.533 16.6115 197.621 16.3859 197.621 16.0911C197.621 15.7963 197.533 15.5738 197.359 15.4234C197.184 15.2669 196.95 15.1887 196.655 15.1887C196.36 15.1887 196.123 15.2669 195.942 15.4234C195.762 15.5738 195.671 15.7963 195.671 16.0911C195.671 16.3859 195.762 16.6115 195.942 16.7679C196.123 16.9183 196.36 16.9935 196.655 16.9935ZM197.395 15.279L197.178 14.5661H199.046V15.1887L197.395 15.279ZM202.242 21.0994L203.352 18.6088H203.091L201.295 14.5661H202.269L203.695 17.8688L205.13 14.5661H206.078L203.19 21.0994H202.242ZM208.265 19.2224C207.838 19.2224 207.453 19.1232 207.11 18.9246C206.773 18.7261 206.505 18.4494 206.307 18.0944C206.114 17.7335 206.018 17.3184 206.018 16.8491C206.018 16.3679 206.117 15.9497 206.316 15.5948C206.514 15.2339 206.785 14.9541 207.128 14.7556C207.471 14.5571 207.856 14.4578 208.283 14.4578C208.716 14.4578 209.101 14.5571 209.438 14.7556C209.775 14.9541 210.04 15.2308 210.232 15.5858C210.431 15.9407 210.53 16.3588 210.53 16.8401C210.53 17.3214 210.431 17.7395 210.232 18.0944C210.04 18.4494 209.772 18.7261 209.429 18.9246C209.086 19.1232 208.698 19.2224 208.265 19.2224ZM208.265 18.4464C208.511 18.4464 208.734 18.3862 208.933 18.2659C209.137 18.1456 209.3 17.9681 209.42 17.7335C209.546 17.4928 209.609 17.195 209.609 16.8401C209.609 16.4852 209.549 16.1904 209.429 15.9558C209.309 15.7151 209.146 15.5346 208.942 15.4143C208.743 15.294 208.524 15.2339 208.283 15.2339C208.042 15.2339 207.82 15.294 207.615 15.4143C207.411 15.5346 207.245 15.7151 207.119 15.9558C206.998 16.1904 206.938 16.4852 206.938 16.8401C206.938 17.195 206.998 17.4928 207.119 17.7335C207.245 17.9681 207.408 18.1456 207.606 18.2659C207.811 18.3862 208.03 18.4464 208.265 18.4464ZM212.99 19.2224C212.635 19.2224 212.325 19.1502 212.061 19.0058C211.802 18.8615 211.6 18.6449 211.456 18.3561C211.318 18.0674 211.248 17.7034 211.248 17.2642V14.5661H212.151V17.165C212.151 17.5921 212.244 17.914 212.431 18.1305C212.617 18.3471 212.885 18.4554 213.234 18.4554C213.468 18.4554 213.679 18.3982 213.865 18.2839C214.058 18.1696 214.208 18.0042 214.317 17.7876C214.425 17.571 214.479 17.3063 214.479 16.9935V14.5661H215.381V19.1141H214.578L214.515 18.3381C214.377 18.6148 214.175 18.8314 213.91 18.9878C213.646 19.1442 213.339 19.2224 212.99 19.2224ZM218.384 19.1141V14.5661H219.196L219.251 15.3421C219.395 15.0714 219.6 14.8579 219.864 14.7014C220.129 14.539 220.433 14.4578 220.776 14.4578C221.137 14.4578 221.446 14.53 221.705 14.6744C221.964 14.8188 222.165 15.0383 222.31 15.3331C222.454 15.6219 222.526 15.9858 222.526 16.425V19.1141H221.624V16.5152C221.624 16.0941 221.531 15.7753 221.344 15.5587C221.158 15.3421 220.887 15.2339 220.532 15.2339C220.297 15.2339 220.087 15.291 219.9 15.4053C219.714 15.5136 219.563 15.676 219.449 15.8926C219.341 16.1092 219.287 16.3739 219.287 16.6867V19.1141H218.384ZM225.467 19.2224C225.034 19.2224 224.649 19.1232 224.312 18.9246C223.975 18.7261 223.711 18.4494 223.518 18.0944C223.332 17.7395 223.238 17.3274 223.238 16.8582C223.238 16.3769 223.332 15.9588 223.518 15.6038C223.711 15.2429 223.975 14.9631 224.312 14.7646C224.649 14.5601 225.04 14.4578 225.485 14.4578C225.931 14.4578 226.313 14.5571 226.631 14.7556C226.95 14.9541 227.197 15.2188 227.371 15.5497C227.546 15.8745 227.633 16.2355 227.633 16.6326C227.633 16.6927 227.63 16.7589 227.624 16.8311C227.624 16.8973 227.621 16.9725 227.615 17.0567H223.897V16.416H226.731C226.713 16.037 226.586 15.7422 226.352 15.5316C226.117 15.3151 225.825 15.2068 225.476 15.2068C225.23 15.2068 225.004 15.2639 224.8 15.3782C224.595 15.4865 224.43 15.649 224.303 15.8655C224.183 16.0761 224.123 16.3438 224.123 16.6687V16.9213C224.123 17.2582 224.183 17.544 224.303 17.7786C224.43 18.0072 224.595 18.1817 224.8 18.302C225.004 18.4163 225.227 18.4734 225.467 18.4734C225.756 18.4734 225.994 18.4103 226.18 18.2839C226.367 18.1576 226.505 17.9861 226.595 17.7696H227.498C227.419 18.0463 227.287 18.296 227.101 18.5186C226.914 18.7351 226.683 18.9066 226.406 19.0329C226.135 19.1593 225.822 19.2224 225.467 19.2224ZM230.422 19.2224C229.989 19.2224 229.604 19.1232 229.267 18.9246C228.93 18.7261 228.666 18.4494 228.473 18.0944C228.287 17.7395 228.193 17.3274 228.193 16.8582C228.193 16.3769 228.287 15.9588 228.473 15.6038C228.666 15.2429 228.93 14.9631 229.267 14.7646C229.604 14.5601 229.995 14.4578 230.44 14.4578C230.886 14.4578 231.268 14.5571 231.586 14.7556C231.905 14.9541 232.152 15.2188 232.326 15.5497C232.501 15.8745 232.588 16.2355 232.588 16.6326C232.588 16.6927 232.585 16.7589 232.579 16.8311C232.579 16.8973 232.576 16.9725 232.57 17.0567H228.852V16.416H231.686C231.668 16.037 231.541 15.7422 231.307 15.5316C231.072 15.3151 230.78 15.2068 230.431 15.2068C230.185 15.2068 229.959 15.2639 229.755 15.3782C229.55 15.4865 229.385 15.649 229.258 15.8655C229.138 16.0761 229.078 16.3438 229.078 16.6687V16.9213C229.078 17.2582 229.138 17.544 229.258 17.7786C229.385 18.0072 229.55 18.1817 229.755 18.302C229.959 18.4163 230.182 18.4734 230.422 18.4734C230.711 18.4734 230.949 18.4103 231.135 18.2839C231.322 18.1576 231.46 17.9861 231.55 17.7696H232.453C232.375 18.0463 232.242 18.296 232.056 18.5186C231.869 18.7351 231.638 18.9066 231.361 19.0329C231.09 19.1593 230.777 19.2224 230.422 19.2224ZM235.341 19.2224C234.908 19.2224 234.526 19.1202 234.195 18.9156C233.864 18.7051 233.606 18.4223 233.419 18.0674C233.239 17.7064 233.148 17.2973 233.148 16.8401C233.148 16.3769 233.239 15.9678 233.419 15.6129C233.606 15.2579 233.864 14.9782 234.195 14.7736C234.532 14.5631 234.917 14.4578 235.35 14.4578C235.705 14.4578 236.018 14.53 236.289 14.6744C236.56 14.8127 236.77 15.0113 236.92 15.2699V12.6169H237.823V19.1141H237.011L236.92 18.4103C236.83 18.5486 236.713 18.681 236.569 18.8073C236.424 18.9276 236.25 19.0269 236.045 19.1051C235.841 19.1833 235.606 19.2224 235.341 19.2224ZM235.486 18.4373C235.768 18.4373 236.018 18.3712 236.235 18.2388C236.451 18.1065 236.617 17.92 236.731 17.6793C236.851 17.4387 236.911 17.159 236.911 16.8401C236.911 16.5213 236.851 16.2445 236.731 16.0099C236.617 15.7693 236.451 15.5828 236.235 15.4504C236.018 15.3121 235.768 15.2429 235.486 15.2429C235.215 15.2429 234.971 15.3121 234.755 15.4504C234.538 15.5828 234.37 15.7693 234.249 16.0099C234.129 16.2445 234.069 16.5213 234.069 16.8401C234.069 17.159 234.129 17.4387 234.249 17.6793C234.37 17.92 234.538 18.1065 234.755 18.2388C234.971 18.3712 235.215 18.4373 235.486 18.4373Z" fill="#B2BBC6"/>
<path d="M264.446 7.80601C264.446 5.98676 265.921 4.51196 267.74 4.51196H297.314C303.721 4.51196 308.916 9.70644 308.916 16.1141C308.916 22.5218 303.721 27.7163 297.314 27.7163H267.74C265.921 27.7163 264.446 26.2415 264.446 24.4223V7.80601Z" fill="#EBEEF2"/>
<path d="M274.906 19.2224C274.443 19.2224 274.037 19.1412 273.688 18.9788C273.339 18.8103 273.068 18.5757 272.876 18.2749C272.683 17.9741 272.587 17.6222 272.587 17.2191H273.534C273.54 17.4477 273.594 17.6583 273.697 17.8508C273.805 18.0373 273.958 18.1877 274.157 18.302C274.361 18.4103 274.611 18.4644 274.906 18.4644C275.159 18.4644 275.375 18.4223 275.556 18.3381C275.742 18.2539 275.883 18.1396 275.98 17.9952C276.076 17.8448 276.124 17.6733 276.124 17.4808C276.124 17.2582 276.073 17.0747 275.971 16.9303C275.868 16.786 275.73 16.6687 275.556 16.5784C275.387 16.4822 275.189 16.3979 274.96 16.3257C274.737 16.2536 274.503 16.1753 274.256 16.0911C273.757 15.9287 273.384 15.7181 273.137 15.4594C272.897 15.2008 272.776 14.8639 272.776 14.4488C272.776 14.0938 272.86 13.787 273.029 13.5283C273.197 13.2636 273.432 13.0591 273.733 12.9147C274.04 12.7643 274.401 12.6891 274.816 12.6891C275.225 12.6891 275.583 12.7643 275.889 12.9147C276.196 13.0651 276.437 13.2727 276.611 13.5374C276.786 13.8021 276.873 14.1119 276.873 14.4668H275.917C275.917 14.3044 275.874 14.145 275.79 13.9886C275.706 13.8321 275.58 13.7058 275.411 13.6095C275.243 13.5073 275.035 13.4561 274.789 13.4561C274.584 13.4501 274.401 13.4832 274.238 13.5554C274.076 13.6276 273.949 13.7329 273.859 13.8712C273.769 14.0096 273.724 14.175 273.724 14.3676C273.724 14.5601 273.763 14.7165 273.841 14.8368C273.925 14.9511 274.046 15.0504 274.202 15.1346C274.358 15.2188 274.539 15.297 274.743 15.3692C274.954 15.4354 275.186 15.5106 275.438 15.5948C275.751 15.6971 276.028 15.8234 276.268 15.9738C276.515 16.1182 276.708 16.3077 276.846 16.5423C276.99 16.7709 277.063 17.0657 277.063 17.4267C277.063 17.7395 276.981 18.0313 276.819 18.302C276.657 18.5727 276.416 18.7953 276.097 18.9698C275.778 19.1382 275.381 19.2224 274.906 19.2224ZM279.877 19.2224C279.444 19.2224 279.059 19.1232 278.722 18.9246C278.385 18.7261 278.121 18.4494 277.928 18.0944C277.742 17.7395 277.648 17.3274 277.648 16.8582C277.648 16.3769 277.742 15.9588 277.928 15.6038C278.121 15.2429 278.385 14.9631 278.722 14.7646C279.059 14.5601 279.45 14.4578 279.895 14.4578C280.341 14.4578 280.723 14.5571 281.041 14.7556C281.36 14.9541 281.607 15.2188 281.781 15.5497C281.956 15.8745 282.043 16.2355 282.043 16.6326C282.043 16.6927 282.04 16.7589 282.034 16.8311C282.034 16.8973 282.031 16.9725 282.025 17.0567H278.307V16.416H281.141C281.123 16.037 280.996 15.7422 280.762 15.5316C280.527 15.3151 280.235 15.2068 279.886 15.2068C279.64 15.2068 279.414 15.2639 279.21 15.3782C279.005 15.4865 278.84 15.649 278.713 15.8655C278.593 16.0761 278.533 16.3438 278.533 16.6687V16.9213C278.533 17.2582 278.593 17.544 278.713 17.7786C278.84 18.0072 279.005 18.1817 279.21 18.302C279.414 18.4163 279.637 18.4734 279.877 18.4734C280.166 18.4734 280.404 18.4103 280.59 18.2839C280.777 18.1576 280.915 17.9861 281.005 17.7696H281.908C281.829 18.0463 281.697 18.296 281.511 18.5186C281.324 18.7351 281.093 18.9066 280.816 19.0329C280.545 19.1593 280.232 19.2224 279.877 19.2224ZM284.282 19.2224C283.909 19.2224 283.599 19.1593 283.352 19.0329C283.106 18.9066 282.922 18.7381 282.802 18.5276C282.682 18.311 282.621 18.0794 282.621 17.8327C282.621 17.5319 282.7 17.2763 282.856 17.0657C283.013 16.8491 283.235 16.6837 283.524 16.5694C283.813 16.4551 284.159 16.3979 284.562 16.3979H285.744C285.744 16.1332 285.705 15.9137 285.626 15.7392C285.548 15.5647 285.431 15.4354 285.275 15.3512C285.124 15.2609 284.932 15.2158 284.697 15.2158C284.426 15.2158 284.195 15.282 284.002 15.4143C283.81 15.5407 283.689 15.7302 283.641 15.9828H282.739C282.775 15.664 282.883 15.3933 283.064 15.1707C283.25 14.9421 283.488 14.7676 283.777 14.6473C284.065 14.521 284.372 14.4578 284.697 14.4578C285.124 14.4578 285.482 14.533 285.771 14.6834C286.06 14.8338 286.276 15.0474 286.421 15.3241C286.571 15.5948 286.646 15.9197 286.646 16.2987V19.1141H285.861L285.789 18.3471C285.723 18.4674 285.644 18.5817 285.554 18.69C285.464 18.7983 285.356 18.8915 285.229 18.9698C285.109 19.048 284.968 19.1081 284.805 19.1502C284.649 19.1984 284.474 19.2224 284.282 19.2224ZM284.453 18.4915C284.646 18.4915 284.82 18.4524 284.977 18.3742C285.133 18.296 285.265 18.1907 285.374 18.0583C285.488 17.92 285.572 17.7666 285.626 17.5981C285.687 17.4237 285.72 17.2462 285.726 17.0657V17.0386H284.652C284.393 17.0386 284.183 17.0717 284.02 17.1379C283.864 17.1981 283.749 17.2823 283.677 17.3906C283.605 17.4989 283.569 17.6252 283.569 17.7696C283.569 17.92 283.602 18.0493 283.668 18.1576C283.74 18.2599 283.843 18.3411 283.975 18.4012C284.107 18.4614 284.267 18.4915 284.453 18.4915ZM287.527 19.1141V14.5661H288.339L288.421 15.4234C288.523 15.2188 288.655 15.0474 288.818 14.909C288.98 14.7646 289.17 14.6533 289.386 14.5751C289.609 14.4969 289.861 14.4578 290.144 14.4578V15.4143H289.819C289.633 15.4143 289.455 15.4384 289.287 15.4865C289.118 15.5286 288.968 15.6038 288.836 15.7121C288.709 15.8204 288.61 15.9678 288.538 16.1543C288.466 16.3408 288.43 16.5724 288.43 16.8491V19.1141H287.527ZM292.673 19.2224C292.233 19.2224 291.842 19.1232 291.499 18.9246C291.157 18.7201 290.886 18.4403 290.687 18.0854C290.495 17.7305 290.399 17.3184 290.399 16.8491C290.399 16.3739 290.495 15.9588 290.687 15.6038C290.886 15.2429 291.157 14.9631 291.499 14.7646C291.842 14.5601 292.233 14.4578 292.673 14.4578C293.226 14.4578 293.689 14.6022 294.062 14.8909C294.435 15.1797 294.673 15.5707 294.775 16.0641H293.837C293.776 15.7994 293.638 15.5948 293.422 15.4504C293.211 15.306 292.958 15.2339 292.664 15.2339C292.423 15.2339 292.2 15.297 291.996 15.4234C291.791 15.5437 291.626 15.7242 291.499 15.9648C291.379 16.1994 291.319 16.4912 291.319 16.8401C291.319 17.0988 291.355 17.3304 291.427 17.535C291.499 17.7335 291.596 17.9019 291.716 18.0403C291.842 18.1787 291.987 18.2839 292.149 18.3561C292.312 18.4223 292.483 18.4554 292.664 18.4554C292.862 18.4554 293.04 18.4253 293.196 18.3652C293.358 18.299 293.494 18.2027 293.602 18.0764C293.716 17.9501 293.795 17.7997 293.837 17.6252H294.775C294.673 18.1065 294.435 18.4945 294.062 18.7893C293.689 19.078 293.226 19.2224 292.673 19.2224ZM295.56 19.1141V12.6169H296.463V15.306C296.613 15.0413 296.821 14.8338 297.085 14.6834C297.356 14.533 297.654 14.4578 297.979 14.4578C298.34 14.4578 298.649 14.533 298.908 14.6834C299.167 14.8278 299.365 15.0474 299.504 15.3421C299.642 15.6309 299.711 15.9949 299.711 16.434V19.1141H298.818V16.5243C298.818 16.1032 298.728 15.7843 298.547 15.5677C298.367 15.3451 298.099 15.2339 297.744 15.2339C297.503 15.2339 297.287 15.291 297.094 15.4053C296.902 15.5196 296.748 15.6881 296.634 15.9106C296.52 16.1272 296.463 16.3919 296.463 16.7047V19.1141H295.56Z" fill="#1D242D"/>
</svg>
