<svg width="20" height="20" viewBox="0 0 20 20" fill="none" xmlns="http://www.w3.org/2000/svg">
<path d="M7.87061 3.81152C10.1569 1.51777 13.8922 1.51579 16.1968 3.81152V3.8125C18.4922 6.10792 18.4928 9.8518 16.1978 12.1475C14.5941 13.7433 12.2979 14.2337 10.2827 13.6035L10.0425 13.5283L9.86475 13.7061L8.10107 15.4609H8.09912L6.47803 13.8398C6.07364 13.4355 5.40976 13.4355 5.00537 13.8398C4.60112 14.2442 4.60103 14.9082 5.00537 15.3125L6.62256 16.9287V16.9316L5.93896 17.6143L5.93408 17.6191C5.85141 17.7041 5.70577 17.7932 5.5249 17.8535C5.34414 17.9138 5.17155 17.9314 5.05225 17.9141L5.04834 17.9131L3.23193 17.6631C3.03894 17.6362 2.82949 17.5261 2.65479 17.3506C2.48007 17.1751 2.36671 16.9609 2.33643 16.7627L2.0874 14.9521V14.9492L2.08154 14.8516C2.08228 14.7452 2.10397 14.6143 2.1499 14.4766C2.21002 14.2962 2.29716 14.1482 2.37842 14.0625L6.29443 10.1455L6.47217 9.96777L6.39795 9.72852C5.77451 7.70234 6.25945 5.40713 7.86865 3.81348L7.87061 3.81152ZM12.0835 5.41797C10.7034 5.41797 9.5835 6.53785 9.5835 7.91797C9.58371 9.29791 10.7035 10.418 12.0835 10.418C13.4634 10.4179 14.5833 9.29787 14.5835 7.91797C14.5835 6.53789 13.4636 5.41804 12.0835 5.41797Z" fill="#1D242D" stroke="#1D242D" stroke-width="0.833333"/>
</svg>
