<svg width="18" height="20" viewBox="0 0 18 20" fill="none" xmlns="http://www.w3.org/2000/svg">
<g clip-path="url(#clip0_5779_51294)">
<path d="M15.5595 3.92873C15.5457 3.82873 15.4581 3.77339 15.3857 3.76729C14.8519 3.72718 14.318 3.68738 13.7841 3.64791C13.7841 3.64791 12.722 2.59345 12.6054 2.47674C12.4888 2.3601 12.261 2.39558 12.1725 2.42161C12.1595 2.42544 11.9405 2.49304 11.5782 2.60517C11.2234 1.58421 10.5972 0.645989 9.49562 0.645989C9.46521 0.645989 9.43391 0.647222 9.40261 0.649003C9.08932 0.234688 8.70124 0.0546875 8.36603 0.0546875C5.79994 0.0546875 4.57398 3.26256 4.1896 4.8927C3.19247 5.20167 2.48412 5.42133 2.39364 5.44976C1.83706 5.62434 1.81946 5.64188 1.74638 6.16633C1.69138 6.56339 0.235077 17.8256 0.235077 17.8256L11.5829 19.9518L17.7315 18.6217C17.7315 18.6217 15.573 4.02873 15.5595 3.92873ZM10.951 2.79914L9.99076 3.09633C9.9911 3.02866 9.99145 2.96208 9.99145 2.88928C9.99145 2.25476 9.90336 1.74387 9.76206 1.33887C10.3297 1.4101 10.7077 2.05592 10.951 2.79914ZM9.05795 1.46469C9.21576 1.8601 9.31836 2.42756 9.31836 3.19332C9.31836 3.2325 9.31802 3.26832 9.31768 3.30455C8.69323 3.49798 8.01467 3.70798 7.3346 3.91866C7.71645 2.44496 8.4322 1.73318 9.05795 1.46469ZM8.29556 0.742975C8.40631 0.742975 8.51788 0.780578 8.62467 0.854071C7.80227 1.24106 6.92076 2.21572 6.5485 4.16209L4.98097 4.64756C5.41699 3.16298 6.4524 0.742975 8.29556 0.742975Z" fill="#95BF46"/>
<path d="M15.3862 3.76621C14.8524 3.7261 14.3185 3.6863 13.7846 3.64683C13.7846 3.64683 12.7225 2.59238 12.6059 2.47566C12.5623 2.43224 12.5035 2.40998 12.442 2.40039L11.584 19.9506L17.732 18.6206C17.732 18.6206 15.5735 4.02765 15.56 3.92765C15.5462 3.82765 15.4586 3.77231 15.3862 3.76621Z" fill="#5E8E3E"/>
<path d="M9.49618 7.16236L8.73803 9.41756C8.73803 9.41756 8.07379 9.06304 7.25954 9.06304C6.06584 9.06304 6.00577 9.81215 6.00577 10.0009C6.00577 11.0309 8.6907 11.4256 8.6907 13.8382C8.6907 15.7363 7.4868 16.9586 5.86351 16.9586C3.91557 16.9586 2.9194 15.7463 2.9194 15.7463L3.44098 14.023C3.44098 14.023 4.46495 14.9021 5.32899 14.9021C5.89358 14.9021 6.12324 14.4576 6.12324 14.1328C6.12324 12.7892 3.9205 12.7293 3.9205 10.5215C3.9205 8.66338 5.2542 6.86523 7.94639 6.86523C8.98372 6.86523 9.49618 7.16236 9.49618 7.16236Z" fill="white"/>
</g>
<defs>
<clipPath id="clip0_5779_51294">
<rect width="17.5375" height="20" fill="white" transform="translate(0.231262)"/>
</clipPath>
</defs>
</svg>
