<svg width="20" height="21" viewBox="0 0 20 21" fill="none" xmlns="http://www.w3.org/2000/svg">
<path d="M14.784 9.53196V12.732C14.784 12.94 14.776 13.14 14.752 13.332C14.568 15.492 13.296 16.5639 10.952 16.5639H10.632C10.432 16.5639 10.24 16.6599 10.12 16.8199L9.16001 18.1C8.73601 18.668 8.048 18.668 7.624 18.1L6.66399 16.8199C6.55999 16.6839 6.328 16.5639 6.152 16.5639H5.83201C3.28001 16.5639 2 15.932 2 12.732V9.53196C2 7.18796 3.08001 5.91596 5.23201 5.73196C5.42401 5.70796 5.62401 5.69995 5.83201 5.69995H10.952C13.504 5.69995 14.784 6.97996 14.784 9.53196Z" stroke="#292D32" stroke-width="1.2" stroke-miterlimit="10" stroke-linecap="round" stroke-linejoin="round"/>
<path d="M17.9844 6.33201V9.53201C17.9844 11.884 16.9044 13.148 14.7524 13.332C14.7764 13.14 14.7844 12.94 14.7844 12.732V9.53201C14.7844 6.98001 13.5044 5.7 10.9524 5.7H5.83242C5.62442 5.7 5.42442 5.70801 5.23242 5.73201C5.41642 3.58001 6.68842 2.5 9.03242 2.5H14.1524C16.7044 2.5 17.9844 3.78001 17.9844 6.33201Z" stroke="#292D32" stroke-width="1.2" stroke-miterlimit="10" stroke-linecap="round" stroke-linejoin="round"/>
<path d="M11.1972 11.4999H11.2044" stroke="#292D32" stroke-width="1.6" stroke-linecap="round" stroke-linejoin="round"/>
<path d="M8.3964 11.4999H8.4036" stroke="#292D32" stroke-width="1.6" stroke-linecap="round" stroke-linejoin="round"/>
<path d="M5.59757 11.4999H5.60477" stroke="#292D32" stroke-width="1.6" stroke-linecap="round" stroke-linejoin="round"/>
</svg>
