<svg width="18" height="18" viewBox="0 0 18 18" fill="none" xmlns="http://www.w3.org/2000/svg">
<path d="M12.75 1.82251H5.25C3 1.82251 1.5 3.32251 1.5 5.57251V10.0725C1.5 12.3225 3 13.8225 5.25 13.8225V15.42C5.25 16.02 5.9175 16.38 6.4125 16.0425L9.75 13.8225H12.75C15 13.8225 16.5 12.3225 16.5 10.0725V5.57251C16.5 3.32251 15 1.82251 12.75 1.82251ZM9 10.95C8.685 10.95 8.4375 10.695 8.4375 10.3875C8.4375 10.08 8.685 9.82501 9 9.82501C9.315 9.82501 9.5625 10.08 9.5625 10.3875C9.5625 10.695 9.315 10.95 9 10.95ZM9.945 7.83751C9.6525 8.03251 9.5625 8.16001 9.5625 8.37001V8.52751C9.5625 8.83501 9.3075 9.09001 9 9.09001C8.6925 9.09001 8.4375 8.83501 8.4375 8.52751V8.37001C8.4375 7.50001 9.075 7.07251 9.315 6.90751C9.5925 6.72001 9.6825 6.59251 9.6825 6.39751C9.6825 6.02251 9.375 5.71501 9 5.71501C8.625 5.71501 8.3175 6.02251 8.3175 6.39751C8.3175 6.70501 8.0625 6.96001 7.755 6.96001C7.4475 6.96001 7.1925 6.70501 7.1925 6.39751C7.1925 5.40001 8.0025 4.59001 9 4.59001C9.9975 4.59001 10.8075 5.40001 10.8075 6.39751C10.8075 7.25251 10.1775 7.68001 9.945 7.83751Z" fill="#1BAAC7"/>
</svg>
