<svg width="17" height="16" viewBox="0 0 17 16" fill="none" xmlns="http://www.w3.org/2000/svg">
<path d="M15.333 3.97949C15.333 4.30282 15.238 4.50223 15.1201 4.62012C15.0022 4.738 14.8028 4.83298 14.4795 4.83301H12.5195C12.1963 4.83301 11.9968 4.73794 11.8789 4.62012C11.761 4.50223 11.666 4.30282 11.666 3.97949V3.4043C11.8484 3.86581 12.1737 4.20659 12.4863 4.43164C12.6591 4.55601 12.8365 4.65231 13 4.71875C13.1526 4.78073 13.3314 4.83294 13.499 4.83301C13.669 4.83301 13.8499 4.7786 14.002 4.71582C14.1656 4.64824 14.343 4.55069 14.5156 4.42578C14.8266 4.20075 15.1526 3.86065 15.333 3.40332V3.97949ZM12.5195 1.16602H14.4795C14.8028 1.16604 15.0022 1.26102 15.1201 1.37891C15.2379 1.49683 15.333 1.69627 15.333 2.01953V2.06934C15.1804 1.70094 14.8882 1.38205 14.4229 1.23535H14.4209C14.1103 1.13921 13.7807 1.15395 13.4902 1.27246C13.1949 1.14885 12.8626 1.14086 12.5615 1.23633H12.5605C12.1054 1.38152 11.8178 1.70608 11.666 2.07031V2.01953L11.6699 1.90332C11.6897 1.64716 11.7758 1.48201 11.8789 1.37891C11.9968 1.261 12.1961 1.16602 12.5195 1.16602Z" fill="#00C0E8" stroke="#00C0E8"/>
<path d="M5.16699 1.83398H9.50098C9.59136 1.83417 9.66699 1.91056 9.66699 2.00098V3.98047C9.66699 5.55656 10.9444 6.83391 12.5205 6.83398H14.501C14.5914 6.83417 14.667 6.91056 14.667 7.00098V9.30762C14.6668 10.8713 13.4045 12.1337 11.8408 12.1338H10.834C10.4688 12.1338 10.1221 12.3086 9.90234 12.5977L9.90137 12.5996L8.90137 13.9268L8.90039 13.9277C8.76117 14.1132 8.61172 14.1669 8.50098 14.167C8.39017 14.167 8.23998 14.1135 8.10059 13.9277L8.09961 13.9268L7.10449 12.6064H7.10547C6.9919 12.4503 6.83277 12.3373 6.6875 12.2646C6.54139 12.1916 6.35742 12.1338 6.16699 12.1338H5.16699C3.60333 12.1336 2.33405 10.8645 2.33398 9.30078V4.6543C2.33398 3.09917 3.60132 1.83416 5.16699 1.83398ZM5.83398 6.16699C5.18125 6.16699 4.66699 6.69444 4.66699 7.33398C4.66699 7.97353 5.18125 8.50098 5.83398 8.50098C6.48672 8.50098 7.00098 7.97353 7.00098 7.33398C7.00098 6.69118 6.47679 6.16699 5.83398 6.16699ZM8.50098 6.16699C7.84824 6.16699 7.33398 6.69444 7.33398 7.33398C7.33398 7.97353 7.84824 8.50098 8.50098 8.50098C9.15356 8.5008 9.66699 7.97342 9.66699 7.33398C9.66699 6.69128 9.14364 6.16717 8.50098 6.16699Z" fill="#00C0E8" stroke="#00C0E8"/>
</svg>
