<svg width="18" height="18" viewBox="0 0 18 18" fill="none" xmlns="http://www.w3.org/2000/svg">
<path d="M15 5.25V12.75C15 15.75 14.25 16.5 11.25 16.5H6.75C3.75 16.5 3 15.75 3 12.75V5.25C3 2.25 3.75 1.5 6.75 1.5H11.25C14.25 1.5 15 2.25 15 5.25Z" stroke="#292D32" stroke-width="1.125" stroke-linecap="round" stroke-linejoin="round"/>
<path d="M10.5 4.125H7.5" stroke="#292D32" stroke-width="1.125" stroke-linecap="round" stroke-linejoin="round"/>
<path d="M8.9999 14.325C9.64193 14.325 10.1624 13.8045 10.1624 13.1625C10.1624 12.5205 9.64193 12 8.9999 12C8.35787 12 7.8374 12.5205 7.8374 13.1625C7.8374 13.8045 8.35787 14.325 8.9999 14.325Z" stroke="#292D32" stroke-width="1.125" stroke-linecap="round" stroke-linejoin="round"/>
</svg>
