<svg width="15" height="15" viewBox="0 0 15 15" fill="none" xmlns="http://www.w3.org/2000/svg">
<path d="M14.1473 11.7207C14.1473 11.9607 14.094 12.2073 13.9807 12.4473C13.8673 12.6873 13.7207 12.914 13.5273 13.1273C13.2007 13.4873 12.8407 13.7473 12.434 13.914C12.034 14.0807 11.6007 14.1673 11.134 14.1673C10.454 14.1673 9.72732 14.0073 8.96065 13.6807C8.19398 13.354 7.42732 12.914 6.66732 12.3607C5.90065 11.8007 5.17398 11.1807 4.48065 10.494C3.79398 9.80065 3.17398 9.07398 2.62065 8.31398C2.07398 7.55398 1.63398 6.79398 1.31398 6.04065C0.993984 5.28065 0.833984 4.55398 0.833984 3.86065C0.833984 3.40732 0.913984 2.97398 1.07398 2.57398C1.23398 2.16732 1.48732 1.79398 1.84065 1.46065C2.26732 1.04065 2.73398 0.833984 3.22732 0.833984C3.41398 0.833984 3.60065 0.873984 3.76732 0.953984C3.94065 1.03398 4.09398 1.15398 4.21398 1.32732L5.76065 3.50732C5.88065 3.67398 5.96732 3.82732 6.02732 3.97398C6.08732 4.11398 6.12065 4.25398 6.12065 4.38065C6.12065 4.54065 6.07398 4.70065 5.98065 4.85398C5.89398 5.00732 5.76732 5.16732 5.60732 5.32732L5.10065 5.85398C5.02732 5.92732 4.99398 6.01398 4.99398 6.12065C4.99398 6.17398 5.00065 6.22065 5.01398 6.27398C5.03398 6.32732 5.05398 6.36732 5.06732 6.40732C5.18732 6.62732 5.39398 6.91398 5.68732 7.26065C5.98732 7.60732 6.30732 7.96065 6.65398 8.31398C7.01398 8.66732 7.36065 8.99398 7.71398 9.29398C8.06065 9.58732 8.34732 9.78732 8.57398 9.90732C8.60732 9.92065 8.64732 9.94065 8.69398 9.96065C8.74732 9.98065 8.80065 9.98732 8.86065 9.98732C8.97398 9.98732 9.06065 9.94732 9.13398 9.87398L9.64065 9.37398C9.80732 9.20732 9.96732 9.08065 10.1207 9.00065C10.274 8.90732 10.4273 8.86065 10.594 8.86065C10.7207 8.86065 10.854 8.88732 11.0007 8.94732C11.1473 9.00732 11.3007 9.09398 11.4673 9.20732L13.674 10.774C13.8473 10.894 13.9673 11.034 14.0407 11.2007C14.1073 11.3673 14.1473 11.534 14.1473 11.7207Z" stroke="#106777" stroke-miterlimit="10"/>
</svg>
