<svg width="21" height="22" viewBox="0 0 21 22" fill="none" xmlns="http://www.w3.org/2000/svg">
<path d="M8.25583 18.9748C9.06175 19.2182 9.87607 19.3609 10.7408 19.3609C12.9673 19.3609 15.1026 18.4764 16.677 16.9021C18.2513 15.3277 19.1358 13.1924 19.1358 10.9659C19.1358 9.86341 18.9187 8.77175 18.4968 7.75321C18.0749 6.73468 17.4565 5.80921 16.677 5.02966C15.8974 4.2501 14.972 3.63173 13.9534 3.20984C12.9349 2.78795 11.8432 2.5708 10.7408 2.5708C9.63831 2.5708 8.54665 2.78795 7.52811 3.20984C6.50958 3.63173 5.58411 4.2501 4.80456 5.02966C3.23018 6.60404 2.3457 8.73935 2.3457 10.9659C2.3457 14.5338 4.58718 17.598 7.75212 18.8069C7.67657 18.152 7.60101 17.0691 7.75212 16.3219L8.71756 12.1748C8.71756 12.1748 8.4741 11.6878 8.4741 10.9155C8.4741 9.75697 9.19607 8.89228 10.0188 8.89228C10.7408 8.89228 11.0766 9.42117 11.0766 10.1012C11.0766 10.8231 10.598 11.8557 10.3546 12.8464C10.2119 13.6691 10.7911 14.391 11.6306 14.391C13.125 14.391 14.2835 12.796 14.2835 10.5461C14.2835 8.53129 12.8395 7.1545 10.7659 7.1545C8.39854 7.1545 7.00496 8.91747 7.00496 10.7728C7.00496 11.4948 7.24002 12.2251 7.6262 12.7036C7.70175 12.754 7.70175 12.8212 7.67657 12.9471L7.43311 13.8622C7.43311 14.0049 7.34076 14.0552 7.19805 13.9545C6.12348 13.4844 5.50225 11.9565 5.50225 10.7224C5.50225 8.06957 7.38274 5.66018 11.0094 5.66018C13.8973 5.66018 16.1472 7.73376 16.1472 10.4873C16.1472 13.3752 14.359 15.6923 11.7985 15.6923C10.9842 15.6923 10.1867 15.2557 9.90126 14.7436L9.33879 16.7333C9.1457 17.4552 8.61681 18.4207 8.25583 18.9999V18.9748Z" fill="white"/>
</svg>
