<svg width="225" height="31" viewBox="0 0 225 31" fill="none" xmlns="http://www.w3.org/2000/svg">
<rect width="224.953" height="30.9391" rx="15.4696" fill="white"/>
<path d="M17.7259 21.2707C21.1078 21.2707 23.8493 18.5291 23.8493 15.1473C23.8493 11.7655 21.1078 9.02393 17.7259 9.02393C14.3441 9.02393 11.6025 11.7655 11.6025 15.1473C11.6025 18.5291 14.3441 21.2707 17.7259 21.2707Z" stroke="#292D32" stroke-width="0.966848" stroke-linecap="round" stroke-linejoin="round"/>
<path d="M24.4942 21.9152L23.2051 20.6261" stroke="#292D32" stroke-width="0.966848" stroke-linecap="round" stroke-linejoin="round"/>
<path d="M34.9537 18.5779C34.4905 18.5779 34.0844 18.4967 33.7355 18.3342C33.3866 18.1658 33.1159 17.9312 32.9234 17.6304C32.7308 17.3296 32.6346 16.9777 32.6346 16.5746H33.5821C33.5881 16.8032 33.6423 17.0137 33.7445 17.2063C33.8528 17.3928 34.0062 17.5431 34.2048 17.6575C34.4093 17.7657 34.659 17.8199 34.9537 17.8199C35.2064 17.8199 35.423 17.7778 35.6035 17.6935C35.79 17.6093 35.9313 17.495 36.0276 17.3506C36.1238 17.2002 36.172 17.0288 36.172 16.8363C36.172 16.6137 36.1208 16.4302 36.0186 16.2858C35.9163 16.1414 35.7779 16.0241 35.6035 15.9339C35.435 15.8376 35.2365 15.7534 35.0079 15.6812C34.7853 15.609 34.5507 15.5308 34.304 15.4466C33.8047 15.2842 33.4317 15.0736 33.1851 14.8149C32.9444 14.5562 32.8241 14.2193 32.8241 13.8042C32.8241 13.4493 32.9083 13.1425 33.0768 12.8838C33.2452 12.6191 33.4798 12.4146 33.7806 12.2702C34.0874 12.1198 34.4484 12.0446 34.8635 12.0446C35.2726 12.0446 35.6305 12.1198 35.9373 12.2702C36.2442 12.4206 36.4848 12.6281 36.6593 12.8928C36.8337 13.1575 36.921 13.4673 36.921 13.8223H35.9644C35.9644 13.6599 35.9223 13.5004 35.8381 13.344C35.7539 13.1876 35.6275 13.0613 35.4591 12.965C35.2906 12.8627 35.0831 12.8116 34.8364 12.8116C34.6319 12.8056 34.4484 12.8387 34.286 12.9109C34.1235 12.9831 33.9972 13.0883 33.907 13.2267C33.8167 13.3651 33.7716 13.5305 33.7716 13.723C33.7716 13.9155 33.8107 14.0719 33.8889 14.1923C33.9731 14.3066 34.0935 14.4058 34.2499 14.4901C34.4063 14.5743 34.5868 14.6525 34.7913 14.7247C35.0019 14.7909 35.2335 14.8661 35.4861 14.9503C35.799 15.0525 36.0757 15.1789 36.3163 15.3293C36.563 15.4737 36.7555 15.6632 36.8939 15.8978C37.0383 16.1264 37.1105 16.4212 37.1105 16.7821C37.1105 17.095 37.0292 17.3867 36.8668 17.6575C36.7044 17.9282 36.4637 18.1508 36.1449 18.3252C35.8261 18.4937 35.429 18.5779 34.9537 18.5779ZM39.9251 18.5779C39.492 18.5779 39.107 18.4786 38.7701 18.2801C38.4332 18.0816 38.1685 17.8048 37.976 17.4499C37.7895 17.095 37.6962 16.6829 37.6962 16.2136C37.6962 15.7323 37.7895 15.3142 37.976 14.9593C38.1685 14.5983 38.4332 14.3186 38.7701 14.1201C39.107 13.9155 39.498 13.8133 39.9432 13.8133C40.3884 13.8133 40.7704 13.9125 41.0892 14.1111C41.4081 14.3096 41.6547 14.5743 41.8292 14.9052C42.0036 15.23 42.0909 15.591 42.0909 15.988C42.0909 16.0482 42.0879 16.1144 42.0819 16.1866C42.0819 16.2527 42.0788 16.3279 42.0728 16.4122H38.355V15.7715H41.1885C41.1704 15.3924 41.0441 15.0977 40.8095 14.8871C40.5749 14.6705 40.2831 14.5622 39.9342 14.5622C39.6875 14.5622 39.4619 14.6194 39.2574 14.7337C39.0528 14.842 38.8874 15.0044 38.7611 15.221C38.6407 15.4316 38.5806 15.6993 38.5806 16.0241V16.2768C38.5806 16.6137 38.6407 16.8994 38.7611 17.1341C38.8874 17.3627 39.0528 17.5371 39.2574 17.6575C39.4619 17.7718 39.6845 17.8289 39.9251 17.8289C40.2139 17.8289 40.4515 17.7657 40.638 17.6394C40.8245 17.5131 40.9629 17.3416 41.0531 17.125H41.9555C41.8773 17.4018 41.745 17.6514 41.5585 17.874C41.372 18.0906 41.1404 18.2621 40.8636 18.3884C40.5929 18.5147 40.2801 18.5779 39.9251 18.5779ZM44.3297 18.5779C43.9567 18.5779 43.6469 18.5147 43.4003 18.3884C43.1536 18.2621 42.9701 18.0936 42.8498 17.883C42.7295 17.6665 42.6693 17.4349 42.6693 17.1882C42.6693 16.8874 42.7475 16.6317 42.9039 16.4212C43.0604 16.2046 43.283 16.0392 43.5717 15.9249C43.8605 15.8106 44.2064 15.7534 44.6095 15.7534H45.7916C45.7916 15.4887 45.7525 15.2691 45.6743 15.0947C45.5961 14.9202 45.4788 14.7909 45.3224 14.7066C45.172 14.6164 44.9794 14.5713 44.7448 14.5713C44.4741 14.5713 44.2425 14.6374 44.05 14.7698C43.8575 14.8961 43.7372 15.0856 43.689 15.3383H42.7866C42.8227 15.0195 42.931 14.7487 43.1115 14.5262C43.298 14.2975 43.5356 14.1231 43.8244 14.0028C44.1132 13.8764 44.42 13.8133 44.7448 13.8133C45.172 13.8133 45.5299 13.8885 45.8187 14.0389C46.1074 14.1893 46.324 14.4028 46.4684 14.6796C46.6188 14.9503 46.694 15.2751 46.694 15.6541V18.4696H45.9089L45.8367 17.7026C45.7705 17.8229 45.6923 17.9372 45.6021 18.0455C45.5119 18.1538 45.4036 18.247 45.2772 18.3252C45.1569 18.4034 45.0155 18.4636 44.8531 18.5057C44.6967 18.5538 44.5222 18.5779 44.3297 18.5779ZM44.5012 17.847C44.6937 17.847 44.8682 17.8079 45.0246 17.7296C45.181 17.6514 45.3133 17.5462 45.4216 17.4138C45.5359 17.2754 45.6201 17.122 45.6743 16.9536C45.7345 16.7791 45.7675 16.6017 45.7736 16.4212V16.3941H44.6997C44.441 16.3941 44.2305 16.4272 44.068 16.4934C43.9116 16.5535 43.7973 16.6377 43.7251 16.746C43.6529 16.8543 43.6168 16.9807 43.6168 17.125C43.6168 17.2754 43.6499 17.4048 43.7161 17.5131C43.7883 17.6153 43.8906 17.6966 44.0229 17.7567C44.1553 17.8169 44.3147 17.847 44.5012 17.847ZM47.5751 18.4696V13.9216H48.3872L48.4685 14.7788C48.5707 14.5743 48.7031 14.4028 48.8655 14.2645C49.0279 14.1201 49.2174 14.0088 49.434 13.9306C49.6566 13.8524 49.9093 13.8133 50.192 13.8133V14.7698H49.8672C49.6807 14.7698 49.5032 14.7939 49.3348 14.842C49.1663 14.8841 49.0159 14.9593 48.8836 15.0676C48.7572 15.1759 48.658 15.3233 48.5858 15.5098C48.5136 15.6963 48.4775 15.9279 48.4775 16.2046V18.4696H47.5751ZM52.7204 18.5779C52.2813 18.5779 51.8902 18.4786 51.5473 18.2801C51.2044 18.0756 50.9337 17.7958 50.7352 17.4409C50.5426 17.0859 50.4464 16.6738 50.4464 16.2046C50.4464 15.7293 50.5426 15.3142 50.7352 14.9593C50.9337 14.5983 51.2044 14.3186 51.5473 14.1201C51.8902 13.9155 52.2813 13.8133 52.7204 13.8133C53.2739 13.8133 53.7371 13.9576 54.1101 14.2464C54.4831 14.5352 54.7207 14.9262 54.823 15.4195H53.8845C53.8243 15.1548 53.686 14.9503 53.4694 14.8059C53.2588 14.6615 53.0062 14.5893 52.7114 14.5893C52.4708 14.5893 52.2482 14.6525 52.0436 14.7788C51.8391 14.8991 51.6736 15.0796 51.5473 15.3203C51.427 15.5549 51.3668 15.8467 51.3668 16.1956C51.3668 16.4543 51.4029 16.6859 51.4751 16.8904C51.5473 17.0889 51.6436 17.2574 51.7639 17.3958C51.8902 17.5341 52.0346 17.6394 52.197 17.7116C52.3595 17.7778 52.5309 17.8109 52.7114 17.8109C52.9099 17.8109 53.0874 17.7808 53.2438 17.7206C53.4062 17.6544 53.5416 17.5582 53.6499 17.4319C53.7642 17.3055 53.8424 17.1551 53.8845 16.9807H54.823C54.7207 17.4619 54.4831 17.85 54.1101 18.1447C53.7371 18.4335 53.2739 18.5779 52.7204 18.5779ZM55.6081 18.4696V11.9724H56.5105V14.6615C56.6609 14.3968 56.8685 14.1893 57.1332 14.0389C57.4039 13.8885 57.7017 13.8133 58.0266 13.8133C58.3875 13.8133 58.6973 13.8885 58.956 14.0389C59.2147 14.1832 59.4132 14.4028 59.5516 14.6976C59.69 14.9864 59.7591 15.3503 59.7591 15.7895V18.4696H58.8658V15.8797C58.8658 15.4586 58.7755 15.1398 58.5951 14.9232C58.4146 14.7006 58.1469 14.5893 57.7919 14.5893C57.5513 14.5893 57.3347 14.6465 57.1422 14.7608C56.9497 14.8751 56.7963 15.0435 56.682 15.2661C56.5677 15.4827 56.5105 15.7474 56.5105 16.0602V18.4696H55.6081ZM62.9243 18.4696V13.3079C62.9243 12.9951 62.9754 12.7394 63.0777 12.5409C63.186 12.3424 63.3424 12.198 63.5469 12.1077C63.7515 12.0175 63.9981 11.9724 64.2869 11.9724H64.8193V12.7394H64.4313C64.2147 12.7394 64.0583 12.7845 63.962 12.8748C63.8718 12.959 63.8267 13.1094 63.8267 13.326V18.4696H62.9243ZM62.2565 14.6886V13.9216H64.9186V14.6886H62.2565ZM67.464 18.5779C67.0369 18.5779 66.6519 18.4786 66.309 18.2801C65.9721 18.0816 65.7044 17.8048 65.5058 17.4499C65.3133 17.0889 65.2171 16.6738 65.2171 16.2046C65.2171 15.7233 65.3163 15.3052 65.5149 14.9503C65.7134 14.5893 65.9841 14.3096 66.327 14.1111C66.6699 13.9125 67.0549 13.8133 67.4821 13.8133C67.9152 13.8133 68.3002 13.9125 68.6371 14.1111C68.974 14.3096 69.2387 14.5863 69.4312 14.9413C69.6298 15.2962 69.729 15.7143 69.729 16.1956C69.729 16.6769 69.6298 17.095 69.4312 17.4499C69.2387 17.8048 68.971 18.0816 68.6281 18.2801C68.2852 18.4786 67.8972 18.5779 67.464 18.5779ZM67.464 17.8018C67.7107 17.8018 67.9333 17.7417 68.1318 17.6214C68.3363 17.501 68.4988 17.3236 68.6191 17.0889C68.7454 16.8483 68.8086 16.5505 68.8086 16.1956C68.8086 15.8406 68.7484 15.5459 68.6281 15.3112C68.5078 15.0706 68.3454 14.8901 68.1408 14.7698C67.9423 14.6495 67.7227 14.5893 67.4821 14.5893C67.2414 14.5893 67.0188 14.6495 66.8143 14.7698C66.6098 14.8901 66.4443 15.0706 66.318 15.3112C66.1977 15.5459 66.1375 15.8406 66.1375 16.1956C66.1375 16.5505 66.1977 16.8483 66.318 17.0889C66.4443 17.3236 66.6067 17.501 66.8053 17.6214C67.0098 17.7417 67.2294 17.8018 67.464 17.8018ZM70.5198 18.4696V13.9216H71.332L71.4132 14.7788C71.5155 14.5743 71.6478 14.4028 71.8102 14.2645C71.9727 14.1201 72.1622 14.0088 72.3787 13.9306C72.6013 13.8524 72.854 13.8133 73.1367 13.8133V14.7698H72.8119C72.6254 14.7698 72.4479 14.7939 72.2795 14.842C72.111 14.8841 71.9606 14.9593 71.8283 15.0676C71.7019 15.1759 71.6027 15.3233 71.5305 15.5098C71.4583 15.6963 71.4222 15.9279 71.4222 16.2046V18.4696H70.5198ZM77.2399 18.5779C76.8669 18.5779 76.5571 18.5147 76.3104 18.3884C76.0638 18.2621 75.8803 18.0936 75.76 17.883C75.6396 17.6665 75.5795 17.4349 75.5795 17.1882C75.5795 16.8874 75.6577 16.6317 75.8141 16.4212C75.9705 16.2046 76.1931 16.0392 76.4819 15.9249C76.7706 15.8106 77.1166 15.7534 77.5196 15.7534H78.7018C78.7018 15.4887 78.6627 15.2691 78.5844 15.0947C78.5062 14.9202 78.3889 14.7909 78.2325 14.7066C78.0821 14.6164 77.8896 14.5713 77.655 14.5713C77.3843 14.5713 77.1526 14.6374 76.9601 14.7698C76.7676 14.8961 76.6473 15.0856 76.5992 15.3383H75.6968C75.7329 15.0195 75.8412 14.7487 76.0217 14.5262C76.2081 14.2975 76.4458 14.1231 76.7345 14.0028C77.0233 13.8764 77.3301 13.8133 77.655 13.8133C78.0821 13.8133 78.4401 13.8885 78.7288 14.0389C79.0176 14.1893 79.2342 14.4028 79.3785 14.6796C79.5289 14.9503 79.6041 15.2751 79.6041 15.6541V18.4696H78.8191L78.7469 17.7026C78.6807 17.8229 78.6025 17.9372 78.5123 18.0455C78.422 18.1538 78.3137 18.247 78.1874 18.3252C78.0671 18.4034 77.9257 18.4636 77.7633 18.5057C77.6069 18.5538 77.4324 18.5779 77.2399 18.5779ZM77.4113 17.847C77.6038 17.847 77.7783 17.8079 77.9347 17.7296C78.0911 17.6514 78.2235 17.5462 78.3318 17.4138C78.4461 17.2754 78.5303 17.122 78.5844 16.9536C78.6446 16.7791 78.6777 16.6017 78.6837 16.4212V16.3941H77.6099C77.3512 16.3941 77.1406 16.4272 76.9782 16.4934C76.8218 16.5535 76.7075 16.6377 76.6353 16.746C76.5631 16.8543 76.527 16.9807 76.527 17.125C76.527 17.2754 76.5601 17.4048 76.6263 17.5131C76.6984 17.6153 76.8007 17.6966 76.9331 17.7567C77.0654 17.8169 77.2248 17.847 77.4113 17.847ZM80.4852 18.4696V13.9216H81.2974L81.3515 14.6976C81.4959 14.4269 81.7005 14.2133 81.9652 14.0569C82.2299 13.8945 82.5337 13.8133 82.8766 13.8133C83.2375 13.8133 83.5474 13.8855 83.806 14.0298C84.0647 14.1742 84.2663 14.3938 84.4107 14.6886C84.555 14.9773 84.6272 15.3413 84.6272 15.7805V18.4696H83.7248V15.8707C83.7248 15.4496 83.6316 15.1308 83.4451 14.9142C83.2586 14.6976 82.9879 14.5893 82.6329 14.5893C82.3983 14.5893 82.1878 14.6465 82.0013 14.7608C81.8148 14.8691 81.6644 15.0315 81.5501 15.2481C81.4418 15.4646 81.3876 15.7293 81.3876 16.0422V18.4696H80.4852ZM85.8932 20.4549L87.0031 17.9643H86.7414L84.9457 13.9216H85.9203L87.346 17.2243L88.7808 13.9216H89.7283L86.8407 20.4549H85.8932ZM92.1313 18.4696C91.8426 18.4696 91.5929 18.4245 91.3823 18.3342C91.1718 18.244 91.0093 18.0936 90.895 17.883C90.7807 17.6725 90.7236 17.3867 90.7236 17.0258V14.6886H89.9385V13.9216H90.7236L90.8319 12.7845H91.626V13.9216H92.9164V14.6886H91.626V17.0348C91.626 17.2935 91.6801 17.471 91.7884 17.5672C91.8967 17.6575 92.0832 17.7026 92.3479 17.7026H92.8713V18.4696H92.1313ZM93.6408 18.4696V11.9724H94.5432V14.6615C94.6936 14.3968 94.9011 14.1893 95.1658 14.0389C95.4365 13.8885 95.7343 13.8133 96.0592 13.8133C96.4201 13.8133 96.73 13.8885 96.9887 14.0389C97.2473 14.1832 97.4459 14.4028 97.5842 14.6976C97.7226 14.9864 97.7918 15.3503 97.7918 15.7895V18.4696H96.8984V15.8797C96.8984 15.4586 96.8082 15.1398 96.6277 14.9232C96.4472 14.7006 96.1795 14.5893 95.8246 14.5893C95.5839 14.5893 95.3674 14.6465 95.1748 14.7608C94.9823 14.8751 94.8289 15.0435 94.7146 15.2661C94.6003 15.4827 94.5432 15.7474 94.5432 16.0602V18.4696H93.6408ZM98.7383 18.4696V13.9216H99.6407V18.4696H98.7383ZM99.1985 13.0643C99.0241 13.0643 98.8797 13.0101 98.7654 12.9018C98.6571 12.7936 98.6029 12.6552 98.6029 12.4867C98.6029 12.3243 98.6571 12.192 98.7654 12.0897C98.8797 11.9814 99.0241 11.9273 99.1985 11.9273C99.367 11.9273 99.5083 11.9814 99.6226 12.0897C99.7369 12.192 99.7941 12.3243 99.7941 12.4867C99.7941 12.6552 99.7369 12.7936 99.6226 12.9018C99.5083 13.0101 99.367 13.0643 99.1985 13.0643ZM100.66 18.4696V13.9216H101.473L101.527 14.6976C101.671 14.4269 101.876 14.2133 102.14 14.0569C102.405 13.8945 102.709 13.8133 103.052 13.8133C103.413 13.8133 103.723 13.8855 103.981 14.0298C104.24 14.1742 104.441 14.3938 104.586 14.6886C104.73 14.9773 104.802 15.3413 104.802 15.7805V18.4696H103.9V15.8707C103.9 15.4496 103.807 15.1308 103.62 14.9142C103.434 14.6976 103.163 14.5893 102.808 14.5893C102.573 14.5893 102.363 14.6465 102.176 14.7608C101.99 14.8691 101.84 15.0315 101.725 15.2481C101.617 15.4646 101.563 15.7293 101.563 16.0422V18.4696H100.66ZM107.536 20.5632C107.121 20.5632 106.754 20.509 106.435 20.4007C106.116 20.2985 105.869 20.139 105.695 19.9225C105.521 19.7059 105.433 19.4412 105.433 19.1284C105.433 18.9659 105.469 18.8005 105.542 18.632C105.614 18.4696 105.731 18.3132 105.893 18.1628C106.056 18.0124 106.276 17.877 106.552 17.7567L107.058 18.1628C106.751 18.2771 106.543 18.4125 106.435 18.5689C106.333 18.7313 106.282 18.8877 106.282 19.0381C106.282 19.2186 106.336 19.369 106.444 19.4893C106.552 19.6096 106.7 19.6999 106.886 19.76C107.079 19.8202 107.295 19.8503 107.536 19.8503C107.77 19.8503 107.975 19.8172 108.149 19.751C108.324 19.6848 108.459 19.5916 108.556 19.4713C108.652 19.3509 108.7 19.2096 108.7 19.0471C108.7 18.8546 108.628 18.6922 108.483 18.5598C108.339 18.4335 108.062 18.3583 107.653 18.3342C107.31 18.3102 107.018 18.2771 106.778 18.235C106.543 18.1929 106.342 18.1417 106.173 18.0816C106.011 18.0214 105.872 17.9552 105.758 17.883C105.65 17.8109 105.557 17.7357 105.478 17.6575V17.4499L106.381 16.5204L107.112 16.7731L106.128 17.6845L106.318 17.2784C106.384 17.3206 106.447 17.3627 106.507 17.4048C106.567 17.4409 106.648 17.474 106.751 17.504C106.853 17.5341 106.991 17.5612 107.166 17.5853C107.34 17.6093 107.569 17.6334 107.852 17.6575C108.261 17.6875 108.589 17.7597 108.835 17.874C109.088 17.9883 109.271 18.1417 109.386 18.3342C109.5 18.5268 109.557 18.7554 109.557 19.0201C109.557 19.2787 109.485 19.5254 109.341 19.76C109.202 19.9946 108.983 20.1872 108.682 20.3376C108.387 20.488 108.005 20.5632 107.536 20.5632ZM107.536 17.0709C107.151 17.0709 106.823 16.9987 106.552 16.8543C106.288 16.7099 106.083 16.5144 105.939 16.2678C105.8 16.0211 105.731 15.7474 105.731 15.4466C105.731 15.1398 105.8 14.8661 105.939 14.6254C106.083 14.3788 106.291 14.1832 106.561 14.0389C106.832 13.8885 107.157 13.8133 107.536 13.8133C107.915 13.8133 108.237 13.8885 108.501 14.0389C108.772 14.1832 108.977 14.3788 109.115 14.6254C109.259 14.8661 109.332 15.1398 109.332 15.4466C109.332 15.7474 109.259 16.0211 109.115 16.2678C108.977 16.5144 108.772 16.7099 108.501 16.8543C108.237 16.9987 107.915 17.0709 107.536 17.0709ZM107.536 16.349C107.831 16.349 108.065 16.2738 108.24 16.1234C108.414 15.967 108.501 15.7414 108.501 15.4466C108.501 15.1518 108.414 14.9292 108.24 14.7788C108.065 14.6224 107.831 14.5442 107.536 14.5442C107.241 14.5442 107.003 14.6224 106.823 14.7788C106.642 14.9292 106.552 15.1518 106.552 15.4466C106.552 15.7414 106.642 15.967 106.823 16.1234C107.003 16.2738 107.241 16.349 107.536 16.349ZM108.276 14.6344L108.059 13.9216H109.927V14.5442L108.276 14.6344ZM113.123 20.4549L114.233 17.9643H113.971L112.176 13.9216H113.15L114.576 17.2243L116.011 13.9216H116.958L114.071 20.4549H113.123ZM119.146 18.5779C118.719 18.5779 118.334 18.4786 117.991 18.2801C117.654 18.0816 117.386 17.8048 117.187 17.4499C116.995 17.0889 116.899 16.6738 116.899 16.2046C116.899 15.7233 116.998 15.3052 117.197 14.9503C117.395 14.5893 117.666 14.3096 118.009 14.1111C118.352 13.9125 118.737 13.8133 119.164 13.8133C119.597 13.8133 119.982 13.9125 120.319 14.1111C120.656 14.3096 120.92 14.5863 121.113 14.9413C121.311 15.2962 121.411 15.7143 121.411 16.1956C121.411 16.6769 121.311 17.095 121.113 17.4499C120.92 17.8048 120.653 18.0816 120.31 18.2801C119.967 18.4786 119.579 18.5779 119.146 18.5779ZM119.146 17.8018C119.392 17.8018 119.615 17.7417 119.813 17.6214C120.018 17.501 120.18 17.3236 120.301 17.0889C120.427 16.8483 120.49 16.5505 120.49 16.1956C120.49 15.8406 120.43 15.5459 120.31 15.3112C120.189 15.0706 120.027 14.8901 119.822 14.7698C119.624 14.6495 119.404 14.5893 119.164 14.5893C118.923 14.5893 118.7 14.6495 118.496 14.7698C118.291 14.8901 118.126 15.0706 118 15.3112C117.879 15.5459 117.819 15.8406 117.819 16.1956C117.819 16.5505 117.879 16.8483 118 17.0889C118.126 17.3236 118.288 17.501 118.487 17.6214C118.691 17.7417 118.911 17.8018 119.146 17.8018ZM123.871 18.5779C123.516 18.5779 123.206 18.5057 122.941 18.3613C122.683 18.2169 122.481 18.0004 122.337 17.7116C122.198 17.4228 122.129 17.0589 122.129 16.6197V13.9216H123.032V16.5204C123.032 16.9476 123.125 17.2694 123.311 17.486C123.498 17.7026 123.766 17.8109 124.115 17.8109C124.349 17.8109 124.56 17.7537 124.746 17.6394C124.939 17.5251 125.089 17.3597 125.197 17.1431C125.306 16.9265 125.36 16.6618 125.36 16.349V13.9216H126.262V18.4696H125.459L125.396 17.6935C125.258 17.9703 125.056 18.1869 124.791 18.3433C124.527 18.4997 124.22 18.5779 123.871 18.5779ZM129.265 18.4696V13.9216H130.077L130.131 14.6976C130.276 14.4269 130.48 14.2133 130.745 14.0569C131.01 13.8945 131.314 13.8133 131.656 13.8133C132.017 13.8133 132.327 13.8855 132.586 14.0298C132.845 14.1742 133.046 14.3938 133.191 14.6886C133.335 14.9773 133.407 15.3413 133.407 15.7805V18.4696H132.505V15.8707C132.505 15.4496 132.411 15.1308 132.225 14.9142C132.039 14.6976 131.768 14.5893 131.413 14.5893C131.178 14.5893 130.968 14.6465 130.781 14.7608C130.595 14.8691 130.444 15.0315 130.33 15.2481C130.222 15.4646 130.168 15.7293 130.168 16.0422V18.4696H129.265ZM136.348 18.5779C135.915 18.5779 135.53 18.4786 135.193 18.2801C134.856 18.0816 134.591 17.8048 134.399 17.4499C134.212 17.095 134.119 16.6829 134.119 16.2136C134.119 15.7323 134.212 15.3142 134.399 14.9593C134.591 14.5983 134.856 14.3186 135.193 14.1201C135.53 13.9155 135.921 13.8133 136.366 13.8133C136.811 13.8133 137.193 13.9125 137.512 14.1111C137.831 14.3096 138.078 14.5743 138.252 14.9052C138.427 15.23 138.514 15.591 138.514 15.988C138.514 16.0482 138.511 16.1144 138.505 16.1866C138.505 16.2527 138.502 16.3279 138.496 16.4122H134.778V15.7715H137.611C137.593 15.3924 137.467 15.0977 137.232 14.8871C136.998 14.6705 136.706 14.5622 136.357 14.5622C136.111 14.5622 135.885 14.6194 135.68 14.7337C135.476 14.842 135.31 15.0044 135.184 15.221C135.064 15.4316 135.004 15.6993 135.004 16.0241V16.2768C135.004 16.6137 135.064 16.8994 135.184 17.1341C135.31 17.3627 135.476 17.5371 135.68 17.6575C135.885 17.7718 136.108 17.8289 136.348 17.8289C136.637 17.8289 136.875 17.7657 137.061 17.6394C137.248 17.5131 137.386 17.3416 137.476 17.125H138.379C138.3 17.4018 138.168 17.6514 137.981 17.874C137.795 18.0906 137.563 18.2621 137.287 18.3884C137.016 18.5147 136.703 18.5779 136.348 18.5779ZM141.303 18.5779C140.87 18.5779 140.485 18.4786 140.148 18.2801C139.811 18.0816 139.547 17.8048 139.354 17.4499C139.168 17.095 139.074 16.6829 139.074 16.2136C139.074 15.7323 139.168 15.3142 139.354 14.9593C139.547 14.5983 139.811 14.3186 140.148 14.1201C140.485 13.9155 140.876 13.8133 141.321 13.8133C141.766 13.8133 142.148 13.9125 142.467 14.1111C142.786 14.3096 143.033 14.5743 143.207 14.9052C143.382 15.23 143.469 15.591 143.469 15.988C143.469 16.0482 143.466 16.1144 143.46 16.1866C143.46 16.2527 143.457 16.3279 143.451 16.4122H139.733V15.7715H142.567C142.548 15.3924 142.422 15.0977 142.188 14.8871C141.953 14.6705 141.661 14.5622 141.312 14.5622C141.066 14.5622 140.84 14.6194 140.635 14.7337C140.431 14.842 140.265 15.0044 140.139 15.221C140.019 15.4316 139.959 15.6993 139.959 16.0241V16.2768C139.959 16.6137 140.019 16.8994 140.139 17.1341C140.265 17.3627 140.431 17.5371 140.635 17.6575C140.84 17.7718 141.063 17.8289 141.303 17.8289C141.592 17.8289 141.83 17.7657 142.016 17.6394C142.203 17.5131 142.341 17.3416 142.431 17.125H143.334C143.255 17.4018 143.123 17.6514 142.937 17.874C142.75 18.0906 142.518 18.2621 142.242 18.3884C141.971 18.5147 141.658 18.5779 141.303 18.5779ZM146.222 18.5779C145.789 18.5779 145.407 18.4756 145.076 18.2711C144.745 18.0605 144.487 17.7778 144.3 17.4228C144.12 17.0619 144.029 16.6528 144.029 16.1956C144.029 15.7323 144.12 15.3233 144.3 14.9683C144.487 14.6134 144.745 14.3336 145.076 14.1291C145.413 13.9185 145.798 13.8133 146.231 13.8133C146.586 13.8133 146.899 13.8855 147.17 14.0298C147.44 14.1682 147.651 14.3667 147.801 14.6254V11.9724H148.704V18.4696H147.892L147.801 17.7657C147.711 17.9041 147.594 18.0365 147.449 18.1628C147.305 18.2831 147.131 18.3824 146.926 18.4606C146.721 18.5388 146.487 18.5779 146.222 18.5779ZM146.367 17.7928C146.649 17.7928 146.899 17.7266 147.116 17.5943C147.332 17.4619 147.498 17.2754 147.612 17.0348C147.732 16.7942 147.792 16.5144 147.792 16.1956C147.792 15.8767 147.732 15.6 147.612 15.3654C147.498 15.1247 147.332 14.9382 147.116 14.8059C146.899 14.6675 146.649 14.5983 146.367 14.5983C146.096 14.5983 145.852 14.6675 145.636 14.8059C145.419 14.9382 145.251 15.1247 145.13 15.3654C145.01 15.6 144.95 15.8767 144.95 16.1956C144.95 16.5144 145.01 16.7942 145.13 17.0348C145.251 17.2754 145.419 17.4619 145.636 17.5943C145.852 17.7266 146.096 17.7928 146.367 17.7928Z" fill="#B2BBC6"/>
<path d="M175.327 7.16148C175.327 5.34223 176.802 3.86743 178.621 3.86743H208.195C214.602 3.86743 219.797 9.06191 219.797 15.4696C219.797 21.8773 214.602 27.0718 208.195 27.0718H178.621C176.802 27.0718 175.327 25.597 175.327 23.7777V7.16148Z" fill="#EBEEF2"/>
<path d="M185.787 18.5779C185.324 18.5779 184.917 18.4967 184.569 18.3342C184.22 18.1658 183.949 17.9312 183.756 17.6304C183.564 17.3296 183.468 16.9777 183.468 16.5746H184.415C184.421 16.8032 184.475 17.0137 184.578 17.2063C184.686 17.3928 184.839 17.5431 185.038 17.6575C185.242 17.7657 185.492 17.8199 185.787 17.8199C186.039 17.8199 186.256 17.7778 186.436 17.6935C186.623 17.6093 186.764 17.495 186.861 17.3506C186.957 17.2002 187.005 17.0288 187.005 16.8363C187.005 16.6137 186.954 16.4302 186.852 16.2858C186.749 16.1414 186.611 16.0241 186.436 15.9339C186.268 15.8376 186.069 15.7534 185.841 15.6812C185.618 15.609 185.384 15.5308 185.137 15.4466C184.638 15.2842 184.265 15.0736 184.018 14.8149C183.777 14.5562 183.657 14.2193 183.657 13.8042C183.657 13.4493 183.741 13.1425 183.91 12.8838C184.078 12.6191 184.313 12.4146 184.614 12.2702C184.92 12.1198 185.281 12.0446 185.697 12.0446C186.106 12.0446 186.464 12.1198 186.77 12.2702C187.077 12.4206 187.318 12.6281 187.492 12.8928C187.667 13.1575 187.754 13.4673 187.754 13.8223H186.797C186.797 13.6599 186.755 13.5004 186.671 13.344C186.587 13.1876 186.461 13.0613 186.292 12.965C186.124 12.8627 185.916 12.8116 185.669 12.8116C185.465 12.8056 185.281 12.8387 185.119 12.9109C184.957 12.9831 184.83 13.0883 184.74 13.2267C184.65 13.3651 184.605 13.5305 184.605 13.723C184.605 13.9155 184.644 14.0719 184.722 14.1923C184.806 14.3066 184.926 14.4058 185.083 14.4901C185.239 14.5743 185.42 14.6525 185.624 14.7247C185.835 14.7909 186.066 14.8661 186.319 14.9503C186.632 15.0525 186.909 15.1789 187.149 15.3293C187.396 15.4737 187.589 15.6632 187.727 15.8978C187.871 16.1264 187.943 16.4212 187.943 16.7821C187.943 17.095 187.862 17.3867 187.7 17.6575C187.537 17.9282 187.297 18.1508 186.978 18.3252C186.659 18.4937 186.262 18.5779 185.787 18.5779ZM190.758 18.5779C190.325 18.5779 189.94 18.4786 189.603 18.2801C189.266 18.0816 189.001 17.8048 188.809 17.4499C188.622 17.095 188.529 16.6829 188.529 16.2136C188.529 15.7323 188.622 15.3142 188.809 14.9593C189.001 14.5983 189.266 14.3186 189.603 14.1201C189.94 13.9155 190.331 13.8133 190.776 13.8133C191.221 13.8133 191.603 13.9125 191.922 14.1111C192.241 14.3096 192.488 14.5743 192.662 14.9052C192.837 15.23 192.924 15.591 192.924 15.988C192.924 16.0482 192.921 16.1144 192.915 16.1866C192.915 16.2527 192.912 16.3279 192.906 16.4122H189.188V15.7715H192.021C192.003 15.3924 191.877 15.0977 191.642 14.8871C191.408 14.6705 191.116 14.5622 190.767 14.5622C190.521 14.5622 190.295 14.6194 190.09 14.7337C189.886 14.842 189.72 15.0044 189.594 15.221C189.474 15.4316 189.414 15.6993 189.414 16.0241V16.2768C189.414 16.6137 189.474 16.8994 189.594 17.1341C189.72 17.3627 189.886 17.5371 190.09 17.6575C190.295 17.7718 190.518 17.8289 190.758 17.8289C191.047 17.8289 191.285 17.7657 191.471 17.6394C191.658 17.5131 191.796 17.3416 191.886 17.125H192.789C192.71 17.4018 192.578 17.6514 192.391 17.874C192.205 18.0906 191.973 18.2621 191.697 18.3884C191.426 18.5147 191.113 18.5779 190.758 18.5779ZM195.163 18.5779C194.79 18.5779 194.48 18.5147 194.233 18.3884C193.987 18.2621 193.803 18.0936 193.683 17.883C193.562 17.6665 193.502 17.4349 193.502 17.1882C193.502 16.8874 193.581 16.6317 193.737 16.4212C193.893 16.2046 194.116 16.0392 194.405 15.9249C194.693 15.8106 195.039 15.7534 195.442 15.7534H196.625C196.625 15.4887 196.586 15.2691 196.507 15.0947C196.429 14.9202 196.312 14.7909 196.155 14.7066C196.005 14.6164 195.812 14.5713 195.578 14.5713C195.307 14.5713 195.076 14.6374 194.883 14.7698C194.69 14.8961 194.57 15.0856 194.522 15.3383H193.62C193.656 15.0195 193.764 14.7487 193.945 14.5262C194.131 14.2975 194.369 14.1231 194.657 14.0028C194.946 13.8764 195.253 13.8133 195.578 13.8133C196.005 13.8133 196.363 13.8885 196.652 14.0389C196.94 14.1893 197.157 14.4028 197.301 14.6796C197.452 14.9503 197.527 15.2751 197.527 15.6541V18.4696H196.742L196.67 17.7026C196.604 17.8229 196.525 17.9372 196.435 18.0455C196.345 18.1538 196.237 18.247 196.11 18.3252C195.99 18.4034 195.849 18.4636 195.686 18.5057C195.53 18.5538 195.355 18.5779 195.163 18.5779ZM195.334 17.847C195.527 17.847 195.701 17.8079 195.858 17.7296C196.014 17.6514 196.146 17.5462 196.255 17.4138C196.369 17.2754 196.453 17.122 196.507 16.9536C196.567 16.7791 196.601 16.6017 196.607 16.4212V16.3941H195.533C195.274 16.3941 195.063 16.4272 194.901 16.4934C194.745 16.5535 194.63 16.6377 194.558 16.746C194.486 16.8543 194.45 16.9807 194.45 17.125C194.45 17.2754 194.483 17.4048 194.549 17.5131C194.621 17.6153 194.724 17.6966 194.856 17.7567C194.988 17.8169 195.148 17.847 195.334 17.847ZM198.408 18.4696V13.9216H199.22L199.301 14.7788C199.404 14.5743 199.536 14.4028 199.699 14.2645C199.861 14.1201 200.05 14.0088 200.267 13.9306C200.49 13.8524 200.742 13.8133 201.025 13.8133V14.7698H200.7C200.514 14.7698 200.336 14.7939 200.168 14.842C199.999 14.8841 199.849 14.9593 199.717 15.0676C199.59 15.1759 199.491 15.3233 199.419 15.5098C199.347 15.6963 199.31 15.9279 199.31 16.2046V18.4696H198.408ZM203.553 18.5779C203.114 18.5779 202.723 18.4786 202.38 18.2801C202.037 18.0756 201.767 17.7958 201.568 17.4409C201.376 17.0859 201.279 16.6738 201.279 16.2046C201.279 15.7293 201.376 15.3142 201.568 14.9593C201.767 14.5983 202.037 14.3186 202.38 14.1201C202.723 13.9155 203.114 13.8133 203.553 13.8133C204.107 13.8133 204.57 13.9576 204.943 14.2464C205.316 14.5352 205.554 14.9262 205.656 15.4195H204.718C204.657 15.1548 204.519 14.9503 204.302 14.8059C204.092 14.6615 203.839 14.5893 203.544 14.5893C203.304 14.5893 203.081 14.6525 202.877 14.7788C202.672 14.8991 202.507 15.0796 202.38 15.3203C202.26 15.5549 202.2 15.8467 202.2 16.1956C202.2 16.4543 202.236 16.6859 202.308 16.8904C202.38 17.0889 202.477 17.2574 202.597 17.3958C202.723 17.5341 202.868 17.6394 203.03 17.7116C203.192 17.7778 203.364 17.8109 203.544 17.8109C203.743 17.8109 203.92 17.7808 204.077 17.7206C204.239 17.6544 204.375 17.5582 204.483 17.4319C204.597 17.3055 204.675 17.1551 204.718 16.9807H205.656C205.554 17.4619 205.316 17.85 204.943 18.1447C204.57 18.4335 204.107 18.5779 203.553 18.5779ZM206.441 18.4696V11.9724H207.344V14.6615C207.494 14.3968 207.701 14.1893 207.966 14.0389C208.237 13.8885 208.535 13.8133 208.86 13.8133C209.221 13.8133 209.53 13.8885 209.789 14.0389C210.048 14.1832 210.246 14.4028 210.385 14.6976C210.523 14.9864 210.592 15.3503 210.592 15.7895V18.4696H209.699V15.8797C209.699 15.4586 209.609 15.1398 209.428 14.9232C209.248 14.7006 208.98 14.5893 208.625 14.5893C208.384 14.5893 208.168 14.6465 207.975 14.7608C207.783 14.8751 207.629 15.0435 207.515 15.2661C207.401 15.4827 207.344 15.7474 207.344 16.0602V18.4696H206.441Z" fill="#1D242D"/>
</svg>
