<svg width="12" height="12" viewBox="0 0 12 12" fill="none" xmlns="http://www.w3.org/2000/svg">
<path d="M8.24969 3.375H9.78569C9.87859 3.37509 9.96815 3.40966 10.037 3.47202C10.1059 3.53437 10.1492 3.62007 10.1584 3.7125L10.3872 6H9.63269L9.44519 4.125H8.24969V5.25C8.24969 5.34946 8.21018 5.44484 8.13986 5.51516C8.06953 5.58549 7.97415 5.625 7.87469 5.625C7.77524 5.625 7.67985 5.58549 7.60953 5.51516C7.5392 5.44484 7.49969 5.34946 7.49969 5.25V4.125H4.49969V5.25C4.49969 5.34946 4.46018 5.44484 4.38986 5.51516C4.31953 5.58549 4.22415 5.625 4.12469 5.625C4.02524 5.625 3.92985 5.58549 3.85953 5.51516C3.7892 5.44484 3.74969 5.34946 3.74969 5.25V4.125H2.55344L1.95344 10.125H5.99969V10.875H1.53869C1.48632 10.8749 1.43453 10.8639 1.38667 10.8426C1.33882 10.8214 1.29595 10.7903 1.26083 10.7514C1.22571 10.7126 1.19913 10.6668 1.18279 10.617C1.16644 10.5672 1.1607 10.5146 1.16594 10.4625L1.84094 3.7125C1.85023 3.62007 1.8935 3.53437 1.96237 3.47202C2.03123 3.40966 2.12079 3.37509 2.21369 3.375H3.74969V3.11325C3.74969 1.81275 4.75169 0.75 5.99969 0.75C7.24769 0.75 8.24969 1.81275 8.24969 3.11325V3.37575V3.375ZM7.49969 3.375V3.11325C7.49969 2.21775 6.82319 1.5 5.99969 1.5C5.17619 1.5 4.49969 2.21775 4.49969 3.11325V3.37575H7.49969V3.375ZM9.85994 9.045L8.99969 8.1855V10.875C8.99969 10.9745 8.96018 11.0698 8.88986 11.1402C8.81953 11.2105 8.72415 11.25 8.62469 11.25C8.52524 11.25 8.42985 11.2105 8.35953 11.1402C8.2892 11.0698 8.24969 10.9745 8.24969 10.875V8.1855L7.39019 9.045C7.3556 9.08082 7.31422 9.10938 7.26847 9.12904C7.22272 9.14869 7.17351 9.15904 7.12372 9.15947C7.07393 9.1599 7.02455 9.15041 6.97846 9.13156C6.93237 9.1127 6.8905 9.08486 6.85529 9.04965C6.82008 9.01444 6.79224 8.97257 6.77338 8.92648C6.75453 8.8804 6.74504 8.83102 6.74547 8.78123C6.74591 8.73143 6.75625 8.68222 6.7759 8.63647C6.79556 8.59072 6.82413 8.54934 6.85994 8.51475L8.35994 7.01475C8.43026 6.94445 8.52563 6.90495 8.62507 6.90495C8.7245 6.90495 8.81987 6.94445 8.89019 7.01475L10.3902 8.51475C10.426 8.54934 10.4546 8.59072 10.4742 8.63647C10.4939 8.68222 10.5042 8.73143 10.5047 8.78123C10.5051 8.83102 10.4956 8.8804 10.4768 8.92648C10.4579 8.97257 10.43 9.01444 10.3948 9.04965C10.3596 9.08486 10.3178 9.1127 10.2717 9.13156C10.2256 9.15041 10.1762 9.1599 10.1264 9.15947C10.0766 9.15904 10.0274 9.14869 9.98166 9.12904C9.93591 9.10938 9.89454 9.08082 9.85994 9.045Z" fill="#1AABC7"/>
</svg>
