<svg width="66" height="66" viewBox="0 0 66 66" fill="none" xmlns="http://www.w3.org/2000/svg">
<path opacity="0.4" d="M23.465 33.5789C25.6316 35.9197 28.7398 37.3171 32.1202 37.3171C35.4778 37.3171 38.5496 35.978 40.7238 33.6619C43.0444 35.945 46.1884 37.3171 49.4728 37.3171C52.0483 37.3171 54.4822 36.5889 56.5128 35.2341V48.6746C56.5128 55.5051 50.9683 61.0495 44.1378 61.0496H22.3966C23.166 60.3422 23.8103 59.504 24.337 58.6169L24.3361 58.616C25.4782 56.7557 26.1251 54.5619 26.1251 52.2498C26.1251 48.9944 24.8522 46.0559 22.8214 43.8406H22.8204C22.5389 43.5312 22.1953 43.1844 21.799 42.8767C19.6313 40.9895 16.8393 39.8748 13.7501 39.8748C11.569 39.8748 9.51066 40.4546 7.72766 41.4587V35.322C9.74067 36.6125 12.124 37.3171 14.63 37.3171C17.9576 37.3171 21.147 35.9076 23.465 33.5789Z" fill="#1BAAC7" stroke="#1BAAC7" stroke-width="2.75"/>
<path d="M39.1008 5.69263L41.1125 25.3997V25.8235C41.0885 27.0485 40.8237 28.2487 40.3977 29.2698C38.9706 32.5163 35.8203 34.5675 32.1204 34.5676C28.5846 34.5676 25.4434 32.5874 24.0042 29.5413L23.8694 29.2434L23.8674 29.2385L23.761 28.9788C23.2488 27.6778 23.042 26.2419 23.176 24.6956L25.0862 5.69263H39.1008Z" fill="#1BAAC7" stroke="#1BAAC7" stroke-width="2.75"/>
<path opacity="0.6" d="M46.8594 5.66504C50.7161 5.66504 53.2793 6.47695 55.0186 8.04199C56.7653 9.61395 57.9181 12.1577 58.4756 16.1533L59.2412 23.7607V23.7598C59.4842 26.3001 58.8216 28.7298 57.418 30.6094L57.4111 30.6191L57.4043 30.6279C55.6157 33.1081 52.7425 34.54 49.5 34.54C46.117 34.54 42.8226 32.6208 41.0303 29.5859L40.8623 29.2891L40.8555 29.2773L40.6494 28.8867C40.1977 27.9773 39.8924 26.9814 39.7627 25.9111C39.7611 25.667 39.7554 25.4654 39.7451 25.291L39.7031 24.7783L37.8174 5.66504H46.8594Z" fill="#1BAAC7" stroke="#1BAAC7" stroke-width="2.75"/>
<path opacity="0.6" d="M26.3936 5.71997L24.3994 25.7415L24.3984 25.7512C24.2795 27.0351 23.8741 28.2738 23.2568 29.342L23.2412 29.3713C21.5219 32.5193 18.1258 34.5676 14.6299 34.5676C11.559 34.5676 8.83056 33.2924 7.01172 31.0618L6.83789 30.843L6.83301 30.8362L6.56055 30.467C5.24418 28.5891 4.63382 26.2342 4.86133 23.7844L5.59961 16.2581C6.17172 12.2199 7.32637 9.65688 9.07324 8.07642C10.6357 6.66298 12.8629 5.8669 16.1094 5.71997H26.3936Z" fill="#1BAAC7" stroke="#1BAAC7" stroke-width="2.75"/>
<path d="M13.75 42.625C16.1587 42.625 18.3154 43.4887 19.9971 44.9541L20.0342 44.9873L20.0752 45.0176C20.2473 45.1467 20.4231 45.3082 20.6055 45.4971L20.79 45.6953L20.7939 45.6992C22.3932 47.4438 23.375 49.7305 23.375 52.25C23.375 54.0547 22.8696 55.7578 21.9844 57.1934L21.9727 57.2129C21.5102 57.9917 20.9704 58.664 20.3662 59.1787L20.249 59.2773L20.1572 59.4004L20.1084 59.4365L20.0625 59.4775C18.3872 60.9853 16.1841 61.875 13.75 61.875C10.8244 61.875 8.21454 60.5611 6.48633 58.5068C6.45132 58.4616 6.41889 58.4228 6.3916 58.3926C6.36758 58.366 6.34355 58.342 6.3252 58.3232L6.32324 58.3203L6.26953 58.2578L6.0625 58.0068C5.8637 57.7548 5.68924 57.4994 5.54395 57.2412L5.53027 57.2168L5.51562 57.1934L5.35352 56.9209C4.56868 55.5444 4.125 53.9418 4.125 52.25C4.125 49.215 5.52005 46.5003 7.72949 44.7471L7.74902 44.7314C8.14595 44.4046 8.56265 44.1267 9 43.8965L9.02051 43.8867L9.04004 43.875C10.4362 43.0807 12.0455 42.625 13.75 42.625ZM13.75 44.7422C11.8632 44.7422 10.3127 46.293 10.3125 48.1797V48.7578H9.625C7.73811 48.7578 6.1875 50.3084 6.1875 52.1953C6.1877 54.082 7.73823 55.6328 9.625 55.6328H10.3125V56.4023C10.3125 58.2892 11.8631 59.8398 13.75 59.8398C15.6369 59.8398 17.1875 58.2892 17.1875 56.4023V55.6328H17.875C19.7618 55.6328 21.3123 54.082 21.3125 52.1953C21.3125 50.3084 19.7619 48.7578 17.875 48.7578H17.1875V48.1797C17.1873 46.293 15.6368 44.7422 13.75 44.7422Z" fill="#1BAAC7" stroke="#1BAAC7" stroke-width="2.75"/>
</svg>
