<svg width="20" height="20" viewBox="0 0 20 20" fill="none" xmlns="http://www.w3.org/2000/svg">
<path d="M2.5083 9.34961V13.0913C2.5083 16.8329 4.0083 18.3329 7.74997 18.3329H12.2416C15.9833 18.3329 17.4833 16.8329 17.4833 13.0913V9.34961" stroke="#47586E" stroke-width="1.5" stroke-linecap="round" stroke-linejoin="round"/>
<path d="M9.99999 9.99935C11.525 9.99935 12.65 8.75768 12.5 7.23268L11.95 1.66602H8.05832L7.49999 7.23268C7.34999 8.75768 8.47499 9.99935 9.99999 9.99935Z" stroke="#47586E" stroke-width="1.5" stroke-linecap="round" stroke-linejoin="round"/>
<path d="M15.2584 9.99935C16.9417 9.99935 18.1751 8.63268 18.0084 6.95768L17.7751 4.66602C17.4751 2.49935 16.6417 1.66602 14.4584 1.66602H11.9167L12.5001 7.50768C12.6417 8.88268 13.8834 9.99935 15.2584 9.99935Z" stroke="#47586E" stroke-width="1.5" stroke-linecap="round" stroke-linejoin="round"/>
<path d="M4.6999 9.99935C6.0749 9.99935 7.31657 8.88268 7.4499 7.50768L7.63324 5.66602L8.03324 1.66602H5.49157C3.30824 1.66602 2.4749 2.49935 2.1749 4.66602L1.9499 6.95768C1.78324 8.63268 3.01657 9.99935 4.6999 9.99935Z" stroke="#47586E" stroke-width="1.5" stroke-linecap="round" stroke-linejoin="round"/>
<path d="M10.0001 14.166C8.60841 14.166 7.91675 14.8577 7.91675 16.2493V18.3327H12.0834V16.2493C12.0834 14.8577 11.3917 14.166 10.0001 14.166Z" stroke="#47586E" stroke-width="1.5" stroke-linecap="round" stroke-linejoin="round"/>
</svg>
