<svg width="21" height="20" viewBox="0 0 21 20" fill="none" xmlns="http://www.w3.org/2000/svg">
<path d="M1.91602 1.66675H3.36602C4.26602 1.66675 4.97435 2.44175 4.89935 3.33341L4.20768 11.6334C4.09102 12.9917 5.16601 14.1584 6.53268 14.1584H15.4077C16.6077 14.1584 17.6577 13.1751 17.7493 11.9834L18.1993 5.73342C18.2993 4.35009 17.2493 3.22508 15.8577 3.22508H5.09935" stroke="#3D4C5E" stroke-width="1.25" stroke-miterlimit="10" stroke-linecap="round" stroke-linejoin="round"/>
<path d="M13.7917 18.3333C14.367 18.3333 14.8333 17.867 14.8333 17.2917C14.8333 16.7164 14.367 16.25 13.7917 16.25C13.2164 16.25 12.75 16.7164 12.75 17.2917C12.75 17.867 13.2164 18.3333 13.7917 18.3333Z" stroke="#3D4C5E" stroke-width="1.25" stroke-miterlimit="10" stroke-linecap="round" stroke-linejoin="round"/>
<path d="M7.12565 18.3333C7.70095 18.3333 8.16732 17.867 8.16732 17.2917C8.16732 16.7164 7.70095 16.25 7.12565 16.25C6.55035 16.25 6.08398 16.7164 6.08398 17.2917C6.08398 17.867 6.55035 18.3333 7.12565 18.3333Z" stroke="#3D4C5E" stroke-width="1.25" stroke-miterlimit="10" stroke-linecap="round" stroke-linejoin="round"/>
<path d="M7.75 6.66675H17.75" stroke="#3D4C5E" stroke-width="1.25" stroke-miterlimit="10" stroke-linecap="round" stroke-linejoin="round"/>
</svg>
