<svg width="28" height="28" viewBox="0 0 28 28" fill="none" xmlns="http://www.w3.org/2000/svg">
<path opacity="0.4" d="M9.95508 14.2432C10.8743 15.237 12.1922 15.832 13.627 15.832C15.0519 15.832 16.3539 15.2616 17.2764 14.2783C18.2609 15.2478 19.5943 15.8319 20.9883 15.832C22.0811 15.832 23.114 15.5222 23.9756 14.9473V20.6504C23.9754 23.5479 21.6232 25.9002 18.7256 25.9004H9.50098C9.82767 25.6002 10.1016 25.2447 10.3252 24.8682L10.3242 24.8672C10.8087 24.0781 11.0839 23.1478 11.084 22.167C11.084 20.7864 10.5436 19.5403 9.68262 18.6006H9.68359C9.56411 18.4692 9.41747 18.3223 9.24902 18.1914H9.25C8.33022 17.39 7.14517 16.9171 5.83398 16.917C4.90851 16.917 4.03484 17.1627 3.27832 17.5889V14.9844C4.13246 15.5321 5.1436 15.832 6.20703 15.832C7.61931 15.832 8.97161 15.2318 9.95508 14.2432Z" fill="#1BAAC7" stroke="#1BAAC7" stroke-width="1.16667"/>
<path d="M16.5884 2.41479L17.4419 10.7751V10.9666C17.4303 11.4825 17.3177 11.9876 17.1382 12.4177C16.5327 13.7949 15.1961 14.6648 13.6265 14.6648C12.0782 14.6647 10.708 13.7696 10.1265 12.406L10.1255 12.4041C9.87521 11.8233 9.77175 11.1765 9.83252 10.4763L10.6431 2.41479H16.5884Z" fill="#1BAAC7" stroke="#1BAAC7" stroke-width="1.16667"/>
<path opacity="0.6" d="M19.8799 2.40308C21.5161 2.40308 22.6039 2.74791 23.3418 3.41187C24.0819 4.07791 24.5708 5.15514 24.8076 6.84644L25.1328 10.0798C25.2359 11.1576 24.9549 12.1887 24.3594 12.9861L24.3535 12.9939C23.5947 14.046 22.3756 14.6531 21 14.6531C19.5187 14.6529 18.0778 13.7855 17.3359 12.4255L17.333 12.4207C17.0924 11.9896 16.9307 11.5092 16.8682 10.9871C16.8674 10.8863 16.8666 10.8027 16.8623 10.7302L16.8438 10.5125L16.0439 2.40308H19.8799Z" fill="#1BAAC7" stroke="#1BAAC7" stroke-width="1.16667"/>
<path opacity="0.6" d="M11.1973 2.42651L10.3506 10.9207V10.9246C10.3002 11.4693 10.1281 11.9948 9.86621 12.448L9.85938 12.4607C9.12994 13.7961 7.68909 14.6648 6.20605 14.6648C4.86138 14.6647 3.67185 14.0883 2.90137 13.0847L2.89844 13.0818C2.26063 12.2616 1.95959 11.199 2.0625 10.0906L2.37402 6.90698C2.61628 5.18867 3.10628 4.09821 3.84863 3.42651C4.51182 2.8265 5.45753 2.48864 6.83594 2.42651H11.1973Z" fill="#1BAAC7" stroke="#1BAAC7" stroke-width="1.16667"/>
<path d="M5.8335 18.083C6.85512 18.0831 7.76959 18.4498 8.48291 19.0713L8.49951 19.0859L8.51611 19.0986C8.6135 19.1717 8.71376 19.2691 8.81982 19.3857L8.82178 19.3877C9.50011 20.1278 9.9165 21.0982 9.9165 22.167C9.91644 22.9324 9.70213 23.6548 9.32666 24.2637L9.32178 24.2725C9.12561 24.6028 8.89643 24.8881 8.64014 25.1064L8.59033 25.1484L8.55127 25.2002L8.53076 25.2158L8.51123 25.2334C7.8006 25.8729 6.86593 26.2499 5.8335 26.25C4.5889 26.25 3.47874 25.6892 2.74561 24.8135L2.74365 24.8145C2.73117 24.7988 2.72136 24.7835 2.71143 24.7725C2.69708 24.7566 2.68326 24.7424 2.67529 24.7344L2.65967 24.7158L2.49072 24.501C2.43938 24.4293 2.39303 24.357 2.35205 24.2842L2.34619 24.2734L2.33936 24.2637C1.96394 23.6548 1.74957 22.9324 1.74951 22.167C1.74951 20.8794 2.34148 19.7272 3.27881 18.9834L3.2876 18.9766C3.45581 18.8381 3.63255 18.7206 3.81787 18.623L3.82666 18.6182L3.83447 18.6133C4.42678 18.2763 5.11033 18.083 5.8335 18.083ZM5.8335 18.9814C5.033 18.9814 4.37451 19.6399 4.37451 20.4404V20.6846H4.0835C3.283 20.6846 2.62451 21.3431 2.62451 22.1436C2.62465 22.9439 3.28308 23.6016 4.0835 23.6016H4.37451V23.9287C4.37471 24.729 5.03312 25.3867 5.8335 25.3867C6.63373 25.3865 7.2913 24.7289 7.2915 23.9287V23.6016H7.5835C8.38377 23.6014 9.04137 22.9438 9.0415 22.1436C9.0415 21.3432 8.38385 20.6847 7.5835 20.6846H7.2915V20.4404C7.2915 19.64 6.63385 18.9816 5.8335 18.9814Z" fill="#1BAAC7" stroke="#1BAAC7" stroke-width="1.16667"/>
</svg>
