<svg width="20" height="20" viewBox="0 0 20 20" fill="none" xmlns="http://www.w3.org/2000/svg">
<path d="M5.83362 3.12524H7.29163V4.58325C7.29163 5.15504 7.76183 5.62524 8.33362 5.62524C8.90526 5.62507 9.37463 5.15493 9.37463 4.58325V3.12524H14.1666C15.9898 3.12524 17.0343 3.40896 17.6461 4.02075C18.2578 4.63257 18.5416 5.67726 18.5416 7.50024V8.33325C18.5416 8.44469 18.445 8.54107 18.3336 8.54126C17.3036 8.54126 16.4588 9.38629 16.4586 10.4163C16.4586 11.4464 17.3035 12.2913 18.3336 12.2913C18.445 12.2914 18.5416 12.3888 18.5416 12.5002C18.5416 14.3232 18.2579 15.368 17.6461 15.9797C17.0343 16.5914 15.9896 16.8752 14.1666 16.8752H9.37463V15.4163C9.37446 14.8447 8.90515 14.3754 8.33362 14.3752C7.76194 14.3752 7.2918 14.8446 7.29163 15.4163V16.8752H5.83362C4.01079 16.8752 2.96597 16.5913 2.35413 15.9797C1.74237 15.368 1.45865 14.3232 1.45862 12.5002V12.0833C1.45862 11.9717 1.55508 11.8752 1.66663 11.8752C2.69664 11.8752 3.54145 11.0302 3.54163 10.0002C3.54163 8.97013 2.69674 8.12524 1.66663 8.12524C1.55508 8.12524 1.45862 8.02781 1.45862 7.91626V7.50024C1.45862 5.67709 1.74233 4.63255 2.35413 4.02075C2.96592 3.40896 4.01047 3.12524 5.83362 3.12524ZM8.33362 7.14966C7.76183 7.14966 7.29163 7.61987 7.29163 8.19165V11.8079C7.29163 12.3796 7.76183 12.8499 8.33362 12.8499C8.90526 12.8497 9.37463 12.3795 9.37463 11.8079V8.19165C9.37463 7.61997 8.90526 7.14984 8.33362 7.14966Z" fill="#093C46" stroke="#093C46" stroke-width="0.833333"/>
</svg>
