<svg width="25" height="25" viewBox="0 0 25 25" fill="none" xmlns="http://www.w3.org/2000/svg">
<path d="M16.9341 6.78533C16.2507 6.00486 15.874 5.00273 15.8741 3.96533H12.7841V16.3653C12.7608 17.0365 12.4777 17.6724 11.9944 18.1388C11.5112 18.6053 10.8657 18.8657 10.1941 18.8653C8.77414 18.8653 7.59414 17.7053 7.59414 16.2653C7.59414 14.5453 9.25414 13.2553 10.9641 13.7853V10.6253C7.51414 10.1653 4.49414 12.8453 4.49414 16.2653C4.49414 19.5953 7.25414 21.9653 10.1841 21.9653C13.3241 21.9653 15.8741 19.4153 15.8741 16.2653V9.97533C17.1271 10.8752 18.6315 11.358 20.1741 11.3553V8.26533C20.1741 8.26533 18.2941 8.35533 16.9341 6.78533Z" fill="white"/>
</svg>
