<svg width="19" height="18" viewBox="0 0 19 18" fill="none" xmlns="http://www.w3.org/2000/svg">
<path d="M15.8467 4.48486C13.3492 4.23736 10.8367 4.10986 8.33168 4.10986C6.84668 4.10986 5.36168 4.18486 3.87668 4.33486L2.34668 4.48486" stroke="#FF3B30" stroke-width="1.125" stroke-linecap="round" stroke-linejoin="round"/>
<path d="M6.47168 3.7275L6.63668 2.745C6.75668 2.0325 6.84668 1.5 8.11418 1.5H10.0792C11.3467 1.5 11.4442 2.0625 11.5567 2.7525L11.7217 3.7275" stroke="#FF3B30" stroke-width="1.125" stroke-linecap="round" stroke-linejoin="round"/>
<path d="M14.234 6.85498L13.7465 14.4075C13.664 15.585 13.5965 16.5 11.504 16.5H6.68898C4.59648 16.5 4.52898 15.585 4.44648 14.4075L3.95898 6.85498" stroke="#FF3B30" stroke-width="1.125" stroke-linecap="round" stroke-linejoin="round"/>
<path d="M7.84424 12.375H10.3417" stroke="#FF3B30" stroke-width="1.125" stroke-linecap="round" stroke-linejoin="round"/>
<path d="M7.22168 9.375H10.9717" stroke="#FF3B30" stroke-width="1.125" stroke-linecap="round" stroke-linejoin="round"/>
</svg>
