<svg width="24" height="24" viewBox="0 0 24 24" fill="none" xmlns="http://www.w3.org/2000/svg">
<path d="M10.68 1.75H13.3001C14.3661 1.75003 14.8404 2.0587 15.0853 2.36621C15.3579 2.70864 15.4389 3.152 15.5169 3.63086V3.63379L15.7298 4.89258V5.33301L16.2025 5.35938C17.8162 5.44903 19.4191 5.56836 21.0208 5.72754H21.0228C21.1636 5.74104 21.2682 5.86497 21.2601 6.00879C21.242 6.13639 21.1327 6.23042 21.0101 6.23047H20.9593C15.9796 5.73329 11.003 5.5253 6.05209 5.93262L5.06088 6.02246L3.02084 6.22266C2.87496 6.23565 2.76047 6.13486 2.74741 6.00098C2.73452 5.8661 2.83374 5.74127 2.97787 5.72754H2.97885L5.01889 5.52734L5.01791 5.52637C5.93861 5.43727 6.86101 5.37942 7.79233 5.31934L8.18881 5.29297L8.25327 4.90137L8.46323 3.62109C8.54652 3.11613 8.62995 2.67914 8.89975 2.34668C9.14191 2.04831 9.61238 1.75 10.68 1.75Z" fill="#B32922" stroke="#B32922"/>
<path d="M5.67993 8.25H18.3196C18.5201 8.25 18.7178 8.33187 18.8635 8.48047C19.0031 8.63314 19.082 8.84001 19.0706 9.05957L18.4504 19.3096C18.3934 20.1015 18.3287 20.8021 17.9436 21.3291C17.5893 21.8138 16.8695 22.2597 15.2102 22.2598H8.79028C7.13153 22.2598 6.41152 21.8114 6.05688 21.3252C5.76709 20.9278 5.65819 20.4333 5.5979 19.8779L5.54907 19.3037L4.92896 9.0498C4.91754 8.84156 4.99568 8.63315 5.13794 8.47852C5.26718 8.33804 5.47056 8.25002 5.67993 8.25ZM10.3303 15.75C9.64418 15.75 9.08032 16.3139 9.08032 17C9.08032 17.6861 9.64418 18.25 10.3303 18.25H13.6604C14.3464 18.2498 14.9104 17.686 14.9104 17C14.9104 16.314 14.3464 15.7502 13.6604 15.75H10.3303ZM9.50024 11.75C8.8141 11.75 8.25024 12.3139 8.25024 13C8.25024 13.6861 8.8141 14.25 9.50024 14.25H14.5002C15.1863 14.2499 15.7502 13.6861 15.7502 13C15.7502 12.3139 15.1863 11.7501 14.5002 11.75H9.50024Z" fill="#B32922" stroke="#B32922"/>
</svg>
