<svg width="20" height="20" viewBox="0 0 20 20" fill="none" xmlns="http://www.w3.org/2000/svg">
<path d="M12.5001 1.66602V9.99935C12.5001 10.916 11.7501 11.666 10.8334 11.666H1.66675V4.99935C1.66675 3.15768 3.15841 1.66602 5.00008 1.66602H12.5001Z" stroke="#47586E" stroke-width="1.5" stroke-linecap="round" stroke-linejoin="round"/>
<path d="M18.3334 11.666V14.166C18.3334 15.5493 17.2167 16.666 15.8334 16.666H15.0001C15.0001 15.7493 14.2501 14.9993 13.3334 14.9993C12.4167 14.9993 11.6667 15.7493 11.6667 16.666H8.33342C8.33342 15.7493 7.58342 14.9993 6.66675 14.9993C5.75008 14.9993 5.00008 15.7493 5.00008 16.666H4.16675C2.78341 16.666 1.66675 15.5493 1.66675 14.166V11.666H10.8334C11.7501 11.666 12.5001 10.916 12.5001 9.99935V4.16602H14.0334C14.6334 4.16602 15.1834 4.49102 15.4834 5.00769L16.9084 7.49935H15.8334C15.3751 7.49935 15.0001 7.87435 15.0001 8.33268V10.8327C15.0001 11.291 15.3751 11.666 15.8334 11.666H18.3334Z" stroke="#47586E" stroke-width="1.5" stroke-linecap="round" stroke-linejoin="round"/>
<path d="M6.66667 18.3333C7.58714 18.3333 8.33333 17.5871 8.33333 16.6667C8.33333 15.7462 7.58714 15 6.66667 15C5.74619 15 5 15.7462 5 16.6667C5 17.5871 5.74619 18.3333 6.66667 18.3333Z" stroke="#47586E" stroke-width="1.5" stroke-linecap="round" stroke-linejoin="round"/>
<path d="M13.3334 18.3333C14.2539 18.3333 15.0001 17.5871 15.0001 16.6667C15.0001 15.7462 14.2539 15 13.3334 15C12.4129 15 11.6667 15.7462 11.6667 16.6667C11.6667 17.5871 12.4129 18.3333 13.3334 18.3333Z" stroke="#47586E" stroke-width="1.5" stroke-linecap="round" stroke-linejoin="round"/>
<path d="M18.3333 10V11.6667H15.8333C15.375 11.6667 15 11.2917 15 10.8333V8.33333C15 7.875 15.375 7.5 15.8333 7.5H16.9083L18.3333 10Z" stroke="#47586E" stroke-width="1.5" stroke-linecap="round" stroke-linejoin="round"/>
</svg>
