<svg width="77" height="77" viewBox="0 0 77 77" fill="none" xmlns="http://www.w3.org/2000/svg">
<rect x="2.22115" y="2.22115" width="72.5577" height="72.5577" rx="36.2788" fill="white"/>
<rect x="2.22115" y="2.22115" width="72.5577" height="72.5577" rx="36.2788" stroke="#F4F7F8" stroke-width="4.44231"/>
<path d="M38.4995 22.0886C42.793 22.0886 46.2739 25.5686 46.2739 29.8621C46.2739 34.1555 42.793 37.6365 38.4995 37.6365C34.2061 37.6364 30.7261 34.1555 30.7261 29.8621C30.7261 25.5687 34.2061 22.0887 38.4995 22.0886Z" fill="#1BAAC7" stroke="#1BAAC7" stroke-width="1.72756"/>
<path d="M38.4999 42.8188C29.8448 42.8188 22.7964 48.6235 22.7964 55.7756C22.7964 56.2593 23.1765 56.6394 23.6602 56.6394H53.3397C53.8234 56.6394 54.2035 56.2593 54.2035 55.7756C54.2035 48.6235 47.155 42.8188 38.4999 42.8188Z" fill="#292D32"/>
</svg>
