<svg width="16" height="16" viewBox="0 0 16 16" fill="none" xmlns="http://www.w3.org/2000/svg">
<path d="M13.7142 0.5H2.28583C1.81234 0.500441 1.35836 0.688733 1.02355 1.02355C0.688733 1.35836 0.500441 1.81234 0.5 2.28583V13.7142C0.5 14.7 1.30083 15.5 2.28583 15.5H13.7142C14.1877 15.4996 14.6416 15.3113 14.9765 14.9765C15.3113 14.6416 15.4996 14.1877 15.5 13.7142V2.28583C15.4996 1.81234 15.3113 1.35836 14.9765 1.02355C14.6416 0.688733 14.1877 0.500441 13.7142 0.5ZM12.2875 7.04417C11.7619 7.0952 11.233 6.98751 10.7692 6.735C10.3779 6.52407 10.0457 6.21871 9.8025 5.84667V9.96667C9.8025 10.5689 9.62391 11.1576 9.28932 11.6584C8.95474 12.1591 8.47917 12.5494 7.92277 12.7799C7.36637 13.0103 6.75412 13.0706 6.16345 12.9532C5.57278 12.8357 5.03021 12.5457 4.60436 12.1198C4.17851 11.694 3.8885 11.1514 3.77101 10.5607C3.65352 9.97004 3.71382 9.3578 3.94429 8.8014C4.17476 8.24499 4.56504 7.76943 5.06579 7.43484C5.56654 7.10025 6.15526 6.92167 6.7575 6.92167C6.82083 6.92167 6.8825 6.9275 6.945 6.93083V8.43167C6.8825 8.42417 6.82167 8.4125 6.7575 8.4125C6.34531 8.4125 5.95 8.57624 5.65854 8.8677C5.36707 9.15917 5.20333 9.55448 5.20333 9.96667C5.20333 10.3789 5.36707 10.7742 5.65854 11.0656C5.95 11.3571 6.34531 11.5208 6.7575 11.5208C7.61583 11.5208 8.37417 10.845 8.37417 9.98667L8.38917 2.98833H9.825C9.89071 3.61202 10.1735 4.1928 10.6239 4.62919C11.0743 5.06559 11.6637 5.32986 12.2892 5.37583V7.04417" fill="#1D242D"/>
</svg>
