<svg width="15" height="14" viewBox="0 0 15 14" fill="none" xmlns="http://www.w3.org/2000/svg">
<path d="M6.56543 1.85889C6.83316 1.64511 7.25963 1.62015 7.56152 1.77881L7.68262 1.85791L8.61914 2.62061V2.62158C8.7442 2.72423 8.90822 2.80484 9.06445 2.85986C9.22116 2.91503 9.39925 2.95459 9.55957 2.95459H10.5684C11.0462 2.95459 11.4121 3.32395 11.4121 3.73779V4.69385C11.4121 4.85554 11.4551 5.02912 11.5146 5.18018C11.5742 5.33129 11.6609 5.48695 11.7695 5.60596L12.5762 6.49268V6.49365C12.8226 6.76673 12.8226 7.23402 12.5801 7.50732L11.7764 8.39307C11.6667 8.51295 11.5799 8.67144 11.5205 8.82275C11.4614 8.97351 11.418 9.14692 11.418 9.30615V10.2622C11.418 10.676 11.052 11.0454 10.5742 11.0454H9.56543C9.40265 11.0454 9.22513 11.0847 9.06836 11.1401C8.91232 11.1954 8.75023 11.2757 8.62598 11.3774L7.6875 12.1421C7.3813 12.3846 6.87033 12.3827 6.57324 12.1421L5.63574 11.3774C5.51082 11.2752 5.34721 11.195 5.19141 11.1401C5.0347 11.085 4.85661 11.0454 4.69629 11.0454H3.66895C3.19133 11.0452 2.82617 10.6759 2.82617 10.2622V9.30029C2.82612 9.1408 2.78274 8.96861 2.72461 8.81982C2.66616 8.67024 2.5814 8.5161 2.47754 8.39795L2.47559 8.39502L1.67383 7.50146C1.43211 7.22788 1.43252 6.77071 1.6748 6.49756L1.67383 6.49658L2.47461 5.604L2.47559 5.60498L2.47754 5.60205C2.58141 5.48391 2.66615 5.32976 2.72461 5.18018C2.78273 5.03142 2.8261 4.85918 2.82617 4.69971V3.73779C2.82617 3.32407 3.19133 2.95479 3.66895 2.95459H4.69629C4.85641 2.95459 5.03369 2.91484 5.18945 2.86084C5.34509 2.80686 5.50776 2.7283 5.63184 2.63037L5.6377 2.62646L6.56543 1.85889ZM9.80273 5.12061C9.51387 4.84727 9.04668 4.84727 8.75781 5.12061L6.41211 7.34131L5.49805 6.47607C5.2092 6.20284 4.74197 6.20284 4.45312 6.47607C4.1549 6.75861 4.1549 7.22968 4.45312 7.51221L5.88965 8.87354C6.02993 9.00639 6.21747 9.08048 6.41211 9.08057C6.60691 9.08057 6.79518 9.00652 6.93555 8.87354L9.80273 6.15674C10.101 5.87421 10.101 5.40314 9.80273 5.12061Z" fill="#1BAAC7" stroke="#1BAAC7" stroke-width="0.605469"/>
</svg>
