<svg width="14" height="14" viewBox="0 0 14 14" fill="none" xmlns="http://www.w3.org/2000/svg">
<path d="M12.5751 6.26507L11.7817 5.34341C11.6301 5.16841 11.5076 4.84174 11.5076 4.60841V3.61674C11.5076 2.99841 11.0001 2.49091 10.3817 2.49091H9.39005C9.16255 2.49091 8.83005 2.36841 8.65505 2.21674L7.73339 1.42341C7.33089 1.07924 6.67172 1.07924 6.26339 1.42341L5.34755 2.22257C5.17255 2.36841 4.84005 2.49091 4.61255 2.49091H3.60339C2.98505 2.49091 2.47755 2.99841 2.47755 3.61674V4.61424C2.47755 4.84174 2.35505 5.16841 2.20922 5.34341L1.42172 6.27091C1.08339 6.67341 1.08339 7.32674 1.42172 7.72924L2.20922 8.65674C2.35505 8.83174 2.47755 9.15841 2.47755 9.38591V10.3834C2.47755 11.0017 2.98505 11.5092 3.60339 11.5092H4.61255C4.84005 11.5092 5.17255 11.6317 5.34755 11.7834L6.26922 12.5767C6.67172 12.9209 7.33089 12.9209 7.73922 12.5767L8.66089 11.7834C8.83589 11.6317 9.16255 11.5092 9.39589 11.5092H10.3876C11.0059 11.5092 11.5134 11.0017 11.5134 10.3834V9.39174C11.5134 9.16424 11.6359 8.83174 11.7876 8.65674L12.5809 7.73508C12.9192 7.33258 12.9192 6.66757 12.5751 6.26507ZM9.42505 5.89757L6.60755 8.71507C6.52589 8.79674 6.41505 8.84341 6.29839 8.84341C6.18172 8.84341 6.07089 8.79674 5.98922 8.71507L4.57755 7.30341C4.40839 7.13424 4.40839 6.85424 4.57755 6.68508C4.74672 6.51591 5.02672 6.51591 5.19589 6.68508L6.29839 7.78758L8.80672 5.27924C8.97589 5.11008 9.25589 5.11008 9.42505 5.27924C9.59422 5.44841 9.59422 5.72841 9.42505 5.89757Z" fill="#26AD48"/>
</svg>
