<svg width="18" height="18" viewBox="0 0 18 18" fill="none" xmlns="http://www.w3.org/2000/svg">
<path d="M9 1.875C12.9254 1.875 16.125 5.07461 16.125 9C16.125 12.9254 12.9254 16.125 9 16.125C5.07461 16.125 1.875 12.9254 1.875 9C1.875 5.07461 5.07461 1.875 9 1.875ZM8.72266 4.70215C8.20817 4.70215 7.78535 5.1252 7.78516 5.63965V8.71484C7.78516 9.51397 8.28167 10.3938 8.97266 10.8066L11.2979 12.1943V12.1934C11.4559 12.294 11.623 12.3301 11.7754 12.3301C12.093 12.3299 12.4041 12.17 12.5811 11.8721L12.582 11.873C12.8404 11.4502 12.7235 10.9152 12.3369 10.6338L12.2568 10.5811L9.93457 9.19531L9.93066 9.19336L9.85352 9.12402C9.82202 9.08867 9.78684 9.04104 9.75293 8.98145C9.6855 8.86289 9.66016 8.76107 9.66016 8.71484V5.63965C9.65996 5.12525 9.23708 4.70223 8.72266 4.70215Z" fill="#148095" stroke="#148095" stroke-width="0.75"/>
</svg>
