<svg width="18" height="18" viewBox="0 0 18 18" fill="none" xmlns="http://www.w3.org/2000/svg">
<path d="M9 1.875C9.30416 1.875 9.6564 2.07449 9.97266 2.58594L10.1055 2.82422L11.3945 5.41016C11.4641 5.54937 11.5648 5.67724 11.6797 5.78906L4.4541 13.0146L4.66992 12.084L4.6709 12.082C4.7294 11.8213 4.70199 11.5327 4.62988 11.2803C4.55787 11.0282 4.42873 10.7686 4.24023 10.5801L2.41797 8.75781C1.89788 8.23773 1.77662 7.77137 1.87891 7.4375C1.98916 7.10194 2.35543 6.79389 3.08496 6.66992L3.08398 6.66895L5.42383 6.28027L5.42773 6.2793C5.66822 6.23654 5.9087 6.11589 6.10547 5.97168C6.30211 5.82755 6.49062 5.63351 6.60352 5.41309L6.60547 5.41016L7.89453 2.82422C8.24225 2.13573 8.65249 1.87501 9 1.875Z" fill="#148095" stroke="#148095" stroke-width="0.75"/>
<path d="M14.1475 6.5415L14.1494 6.54248L14.9072 6.66943C15.5456 6.77791 15.9056 7.02754 16.0596 7.31299L16.1133 7.43701C16.2029 7.72897 16.1216 8.12201 15.752 8.56396L15.5742 8.75732L13.7598 10.5796C13.5694 10.77 13.4372 11.0285 13.3643 11.2827C13.3005 11.5049 13.2731 11.7544 13.3105 11.9897L13.3301 12.0894L13.8467 14.3413V14.3423C14.0552 15.2412 13.8822 15.7348 13.6104 15.9331C13.4952 16.016 13.3492 16.0649 13.1543 16.0649C12.8613 16.0649 12.4776 15.9539 12.0176 15.6821H12.0186L9.82129 14.3774L9.81934 14.3765C9.57525 14.2332 9.27674 14.1734 9 14.1733C8.72312 14.1733 8.42391 14.2331 8.17969 14.3765L8.17773 14.3774L5.98242 15.6812C5.18204 16.1498 4.65911 16.1323 4.39258 15.936C4.33681 15.8948 4.28722 15.8455 4.24414 15.7856L13.1719 6.85791C13.4326 6.59715 13.7983 6.48061 14.1475 6.5415Z" fill="#148095" stroke="#148095" stroke-width="0.75"/>
</svg>
