<svg width="18" height="18" viewBox="0 0 18 18" fill="none" xmlns="http://www.w3.org/2000/svg">
<path d="M13.0732 1.875C13.9975 1.87524 14.7641 2.5784 14.8564 3.4834L14.8652 3.66797C14.8575 4.63427 14.0985 5.41671 13.1445 5.45215C13.0937 5.44799 13.0431 5.44791 12.9922 5.45215C12.0376 5.41599 11.2805 4.63264 11.2803 3.66797C11.2803 2.68173 12.0812 1.875 13.0732 1.875Z" fill="#148095" stroke="#148095" stroke-width="0.75"/>
<path d="M13 7.8833C13.8767 7.85617 14.742 8.0648 15.3779 8.48682L15.3789 8.48779C15.8931 8.82624 16.099 9.23658 16.0996 9.59814C16.1 9.91475 15.9431 10.2689 15.5615 10.5815L15.3838 10.7134C14.7535 11.1354 13.8881 11.3434 13.0234 11.3198C13.2035 10.7902 13.2986 10.2259 13.3047 9.64111H13.3057V9.63721C13.3057 9.02409 13.2007 8.43119 13 7.8833Z" fill="#148095" stroke="#148095" stroke-width="0.75"/>
<path d="M4.90527 1.875C5.89809 1.87508 6.69727 2.67513 6.69727 3.66797C6.69702 4.63309 5.93954 5.41667 4.98438 5.45215C4.93351 5.44799 4.88289 5.44791 4.83203 5.45215C3.87749 5.41599 3.12036 4.63264 3.12012 3.66797C3.12012 2.67423 3.92073 1.875 4.90527 1.875Z" fill="#148095" stroke="#148095" stroke-width="0.75"/>
<path d="M4.83301 7.8833C4.6386 8.43063 4.53714 9.02156 4.53711 9.63721C4.53711 10.2272 4.63334 10.7954 4.8125 11.3267C3.99459 11.3254 3.19522 11.1156 2.59277 10.7202C2.07781 10.378 1.87121 9.96638 1.87109 9.604C1.87109 9.24156 2.07767 8.82913 2.59277 8.48682L2.59375 8.48584C3.18604 8.08729 4.00272 7.87932 4.83301 7.8833Z" fill="#148095" stroke="#148095" stroke-width="0.75"/>
<path d="M9 7.125C10.1416 7.1252 11.0805 7.99267 11.1934 9.10449L11.2051 9.33008C11.1976 10.523 10.2631 11.4856 9.08203 11.5264C9.0232 11.522 8.96336 11.5221 8.9043 11.5264C7.72852 11.4867 6.78818 10.523 6.78711 9.33203C6.79353 8.11151 7.77569 7.125 9 7.125Z" fill="#148095" stroke="#148095" stroke-width="0.75"/>
<path d="M6.65211 13.455C5.51961 14.2125 5.51961 15.4575 6.65211 16.2075C7.94211 17.07 10.0571 17.07 11.3471 16.2075C12.4796 15.45 12.4796 14.205 11.3471 13.455C10.0646 12.5925 7.94961 12.5925 6.65211 13.455Z" fill="#148095"/>
</svg>
