<svg width="18" height="18" viewBox="0 0 18 18" fill="none" xmlns="http://www.w3.org/2000/svg">
<path d="M9.75 6.75H5.25" stroke="white" stroke-width="1.5" stroke-linecap="round" stroke-linejoin="round"/>
<path d="M16.4999 8.22737V9.77242C16.4999 10.1849 16.1699 10.5224 15.7499 10.5374H14.2799C13.4699 10.5374 12.7274 9.94489 12.6599 9.13489C12.6149 8.66239 12.7949 8.21988 13.1099 7.91238C13.3874 7.62738 13.7699 7.4624 14.1899 7.4624H15.7499C16.1699 7.4774 16.4999 7.81487 16.4999 8.22737Z" stroke="white" stroke-width="1.5" stroke-linecap="round" stroke-linejoin="round"/>
<path d="M13.11 7.91249C12.795 8.21999 12.615 8.66249 12.66 9.13499C12.7275 9.94499 13.47 10.5375 14.28 10.5375H15.75V11.625C15.75 13.875 14.25 15.375 12 15.375H5.25C3 15.375 1.5 13.875 1.5 11.625V6.375C1.5 4.335 2.73 2.91 4.6425 2.67C4.8375 2.64 5.04 2.625 5.25 2.625H12C12.195 2.625 12.3825 2.63249 12.5625 2.66249C14.4975 2.88749 15.75 4.32 15.75 6.375V7.46251H14.19C13.77 7.46251 13.3875 7.62749 13.11 7.91249Z" stroke="white" stroke-width="1.5" stroke-linecap="round" stroke-linejoin="round"/>
</svg>
