<svg width="28" height="28" viewBox="0 0 28 28" fill="none" xmlns="http://www.w3.org/2000/svg">
<path d="M12.4475 3.32715C13.4119 2.77711 14.5898 2.78018 15.5393 3.32812L22.47 7.33008V7.3291C23.3641 7.85609 23.9367 8.77912 24.0129 9.80762L24.0217 10.0146V17.9893C24.0217 19.1004 23.4318 20.1214 22.4817 20.6699L15.551 24.6709C14.5866 25.2208 13.4096 25.2189 12.4602 24.6709L5.53247 20.6719H5.53345C4.5782 20.1105 3.9895 19.0868 3.9895 17.9893V10.0098C3.9895 8.89876 4.57957 7.87866 5.52954 7.33008H5.53052L12.4485 3.32812L12.4475 3.32715ZM15.2405 17.7168C14.7534 17.2299 13.9975 17.0701 13.3469 17.3408V17.3398C13.1101 17.4309 12.934 17.5591 12.7815 17.6963L12.7698 17.7061L12.759 17.7168C12.4218 18.054 12.2502 18.5088 12.2502 18.958C12.2502 19.1676 12.2817 19.3992 12.3762 19.626L12.384 19.6445L12.3928 19.6621C12.4805 19.8375 12.5898 20.0126 12.7375 20.1768L12.7581 20.1992L12.7815 20.2197C12.934 20.357 13.1101 20.4851 13.3469 20.5762V20.5742C13.5432 20.6541 13.7658 20.708 14.0002 20.708C14.4639 20.7079 14.9055 20.534 15.2405 20.1992L15.2512 20.1875L15.262 20.1768C15.4094 20.0129 15.527 19.8288 15.6116 19.626C15.6948 19.4263 15.7502 19.1982 15.7502 18.958C15.7502 18.7178 15.6948 18.4897 15.6116 18.29H15.6106C15.52 18.061 15.3962 17.8884 15.262 17.7393L15.2512 17.7285L15.2405 17.7168ZM14.0002 7.58301C13.1999 7.58301 12.5414 8.24066 12.5413 9.04102V15.166C12.5413 15.9665 13.1997 16.625 14.0002 16.625C14.8006 16.6248 15.4583 15.9664 15.4583 15.166V9.04102C15.4581 8.2408 14.8004 7.58324 14.0002 7.58301Z" fill="#1BAAC7" stroke="#1BAAC7" stroke-width="1.16667"/>
</svg>
