<svg width="20" height="20" viewBox="0 0 20 20" fill="none" xmlns="http://www.w3.org/2000/svg">
<path d="M8.651 2.19434C13.4597 1.40212 17.6317 4.94035 17.901 9.53223C18.162 13.9763 14.452 17.916 9.99182 17.916C8.52615 17.916 7.15679 17.5203 5.98596 16.832L5.83459 16.7432L5.66467 16.79L2.94788 17.54L2.94495 17.541C2.64255 17.6268 2.35292 17.3484 2.43616 17.0332L3.17737 14.2744L3.22229 14.1074L3.13635 13.958C2.27379 12.4623 1.87716 10.6502 2.17834 8.73145V8.73047C2.69239 5.42473 5.34574 2.74013 8.651 2.19434ZM7.34143 5.39941C6.90714 5.39954 6.51319 5.5802 6.1803 5.91309C5.91853 6.15845 5.72743 6.43903 5.6051 6.75293C5.48383 7.05611 5.42542 7.3849 5.42542 7.7168C5.42548 8.2145 5.53973 8.72805 5.75745 9.24512C5.97174 9.75402 6.26441 10.2556 6.62073 10.751L6.62268 10.7549C6.98294 11.2438 7.38033 11.7186 7.83069 12.1689L7.83362 12.1719C8.27847 12.6082 8.74426 13.0144 9.24768 13.3789L9.24866 13.3799C9.74346 13.7358 10.2438 14.0254 10.7574 14.2471V14.248C11.2775 14.4761 11.7933 14.5918 12.2838 14.5918C12.6188 14.5918 12.9467 14.5332 13.2535 14.4023L13.2545 14.4033C13.2571 14.4023 13.2598 14.4005 13.2623 14.3994C13.2634 14.3989 13.2652 14.3989 13.2662 14.3984L13.2653 14.3975C13.5805 14.2692 13.8521 14.064 14.0895 13.8076L14.0973 13.7988C14.2395 13.6362 14.35 13.4643 14.4391 13.2861L14.444 13.2773L14.4479 13.2686C14.492 13.1691 14.5234 13.0721 14.5475 12.9922C14.574 12.9041 14.5893 12.8467 14.61 12.7881L14.6334 12.7207V12.6494C14.6334 12.4667 14.5924 12.3144 14.5387 12.1748L14.5319 12.1562L14.5231 12.1387L14.4547 12.0205C14.4043 11.9444 14.3434 11.8727 14.2711 11.8076L14.1539 11.7158L12.7828 10.7412H12.7838C12.7161 10.6904 12.6491 10.6489 12.5865 10.6143L12.4147 10.5283L12.3063 10.4863C12.1988 10.4502 12.0921 10.4327 11.984 10.4326C11.7833 10.4326 11.6213 10.4966 11.484 10.5752C11.3507 10.6479 11.219 10.7493 11.0885 10.8799L10.8522 11.1162C10.7482 11.0551 10.6069 10.9599 10.4362 10.8154H10.4371C10.2209 10.6313 10.0119 10.4391 9.79456 10.2217C9.6914 10.1185 9.59159 10.0131 9.49377 9.90625L9.20374 9.58203C9.05277 9.40328 8.95504 9.27317 8.89709 9.17871L9.13538 8.92871L9.1344 8.92773C9.25602 8.80492 9.35153 8.68 9.42639 8.55176C9.50985 8.40868 9.57483 8.2355 9.57483 8.04102C9.57478 7.90654 9.54748 7.77479 9.49084 7.64062H9.49182C9.43815 7.49304 9.35068 7.36177 9.276 7.25391L9.27405 7.25098L8.30725 5.88379H8.30627C8.18248 5.7067 8.02104 5.58793 7.85803 5.5127C7.69431 5.43717 7.51752 5.39941 7.34143 5.39941Z" fill="#1D242D" stroke="#1D242D" stroke-width="0.833333"/>
</svg>
