<svg width="25" height="25" viewBox="0 0 25 25" fill="none" xmlns="http://www.w3.org/2000/svg">
<path fill-rule="evenodd" clip-rule="evenodd" d="M12.0371 4.96533C12.8921 4.96533 13.7691 4.98733 14.6191 5.02333L15.6231 5.07133L16.5841 5.12833L17.4841 5.18933L18.3061 5.25333C19.1983 5.32122 20.0379 5.70177 20.6771 6.32793C21.3162 6.9541 21.7139 7.78573 21.8001 8.67633L21.8401 9.10133L21.9151 10.0113C21.9851 10.9543 22.0371 11.9823 22.0371 12.9653C22.0371 13.9483 21.9851 14.9763 21.9151 15.9193L21.8401 16.8293L21.8001 17.2543C21.7139 18.1451 21.316 18.9768 20.6767 19.603C20.0373 20.2292 19.1975 20.6097 18.3051 20.6773L17.4851 20.7403L16.5851 20.8023L15.6231 20.8593L14.6191 20.9073C13.7589 20.9446 12.8981 20.9639 12.0371 20.9653C11.1761 20.9639 10.3153 20.9446 9.45511 20.9073L8.45111 20.8593L7.49011 20.8023L6.59011 20.7403L5.76811 20.6773C4.87592 20.6094 4.03631 20.2289 3.39715 19.6027C2.758 18.9766 2.3603 18.1449 2.27411 17.2543L2.23411 16.8293L2.15911 15.9193C2.08294 14.9365 2.04225 13.9511 2.03711 12.9653C2.03711 11.9823 2.08911 10.9543 2.15911 10.0113L2.23411 9.10133L2.27411 8.67633C2.36027 7.78589 2.75782 6.95438 3.39677 6.32824C4.03572 5.70209 4.8751 5.32145 5.76711 5.25333L6.58811 5.18933L7.48811 5.12833L8.45011 5.07133L9.45411 5.02333C10.3146 4.98606 11.1758 4.96672 12.0371 4.96533ZM10.0371 10.5403V15.3903C10.0371 15.8523 10.5371 16.1403 10.9371 15.9103L15.1371 13.4853C15.2285 13.4327 15.3044 13.357 15.3572 13.2657C15.41 13.1744 15.4378 13.0708 15.4378 12.9653C15.4378 12.8599 15.41 12.7563 15.3572 12.665C15.3044 12.5737 15.2285 12.4979 15.1371 12.4453L10.9371 10.0213C10.8459 9.96865 10.7424 9.94093 10.637 9.94095C10.5317 9.94096 10.4282 9.96872 10.3369 10.0214C10.2457 10.0741 10.17 10.1499 10.1173 10.2412C10.0647 10.3325 10.037 10.436 10.0371 10.5413V10.5403Z" fill="white"/>
</svg>
